<?xml version="1.0" encoding="UTF-8"?>
<svg id="Layer_1" data-name="Layer 1" xmlns="http://www.w3.org/2000/svg" viewBox="0 0 438 778">
  <path d="M144.98,355.16c-3.47,0-6.95-.32-10.33-1.48-1.97-.68-3.8-1.61-5.57-2.5-1.9-.96-3.69-1.88-5.59-2.46-3.09-.95-6.38-1.02-9.88-1.09l-.84-.02c-26.78-.59-52.99-5.9-77.89-15.78-5.25-2.08-12.35-5.66-13.37-12.57-.42-2.86.27-5.88,2.18-9.52,3.65-6.96,9.23-12.42,14.62-17.69,30.32-29.67,61.68-60.34,101.08-78.82,20.62-9.67,42.86-15.62,64.38-21.37,8.4-2.25,17.09-4.57,25.84-6.2,10.58-1.97,24.63-.3,38.57,4.57,32.59,11.39,64.99,32.42,96.31,62.51,24.08,23.13,39.79,44.22,49.45,66.36,1.62,3.71,3.28,8.06,2.4,12.56-.82,4.19-3.84,8.07-8.73,11.23-8.22,5.3-17.91,7.06-27.15,8.17-12.09,1.46-24.39,1.96-36.57,1.5l.15-4c11.96.45,24.05-.05,35.94-1.48,8.77-1.06,17.92-2.7,25.46-7.56,2.76-1.78,6.21-4.72,6.97-8.63.66-3.38-.76-7.04-2.14-10.2-9.44-21.64-24.87-42.32-48.56-65.08-30.9-29.69-62.82-50.42-94.86-61.62-13.3-4.65-26.6-6.26-36.52-4.42-8.59,1.6-17.21,3.9-25.53,6.13-21.35,5.71-43.42,11.61-63.71,21.13-38.79,18.19-69.9,48.62-99.98,78.06-5.17,5.06-10.52,10.29-13.88,16.69-1.5,2.85-2.06,5.1-1.77,7.07.54,3.7,4.01,6.7,10.89,9.43,24.46,9.71,50.2,14.92,76.5,15.5l.83.02c3.61.07,7.35.15,10.97,1.26,2.22.68,4.26,1.72,6.22,2.72,1.72.88,3.35,1.7,5.06,2.29,4.73,1.62,9.82,1.33,15.2,1.03,4.21-.24,8.55-.49,12.84.23l-.66,3.95c-3.84-.64-7.78-.42-11.95-.18-2.11.12-4.26.24-6.4.24Z"/>
  <path d="M375.48,341.57c-3.24-21.5-15.58-41.09-26.48-58.37-1.68-2.66-3.42-5.42-5.36-7.91-2.71-3.47-5.97-6.65-9.13-9.71-16.12-15.64-32.78-31.82-51.45-44.88-.89-.62-1.79-1.24-2.69-1.87-10.03-6.93-20.4-14.1-24.27-25.74l3.79-1.26c3.45,10.37,13.26,17.16,22.75,23.72.91.63,1.82,1.26,2.71,1.88,18.93,13.24,35.72,29.53,51.94,45.29,3.26,3.16,6.62,6.43,9.5,10.12,2.06,2.65,3.85,5.49,5.58,8.24,11.11,17.61,23.69,37.58,27.05,59.9l-3.96.6Z"/>
  <path d="M390.68,325.56c-2.12-10.87-9.26-20.38-15.56-28.78l-7.01-9.33c-2.82-3.75-5.73-7.63-8.78-11.28-3.54-4.23-7.58-8.53-12.36-13.15-12.71-12.29-26.98-23.29-40.79-33.93l-34.64-26.71,2.44-3.17,34.64,26.71c13.89,10.71,28.26,21.78,41.12,34.22,4.88,4.72,9.01,9.12,12.65,13.46,3.12,3.73,6.07,7.65,8.91,11.45l7.01,9.33c6.56,8.74,14,18.65,16.29,30.42l-3.93.76Z"/>
  <path d="M132.95,262.77l-3.34-2.21c8.75-13.24,22.06-24.88,40.69-35.58,9-5.17,18.47-9.74,27.63-14.16,6.69-3.23,13.6-6.56,20.25-10.09,3.91-2.08,7.64-4.2,10.3-7.32.29-.34.58-.69.86-1.05,1.72-2.13,3.87-4.78,7.23-4.92l.17,4c-1.56.07-2.89,1.71-4.29,3.44-.31.39-.62.77-.93,1.13-3.12,3.66-7.38,6.09-11.47,8.26-6.72,3.57-13.67,6.92-20.39,10.16-9.1,4.39-18.5,8.93-27.37,14.02-18.07,10.38-30.94,21.6-39.34,34.31Z"/>
  <path d="M89.35,334.31l-3.83-1.17c3.44-11.29,8.22-22.17,14.18-32.36,1.96-3.34,4.35-7.09,8.06-9.43l2.13,3.38c-2.95,1.86-5.03,5.14-6.74,8.07-5.81,9.91-10.46,20.51-13.81,31.5Z"/>
  <path d="M313.63,333.75c-1.63-3.19.53-6.81,3.48-8.34,1.42-.74,2.89-1.08,4.31-1.42.9-.21,1.75-.41,2.53-.7,2.24-.83,4.18-2.49,5.78-4.01,5.25-5,9.55-11.15,12.46-17.78,2.23-5.09,2.84-9.03,1.92-12.41-.95-3.47-4.61-6.74-8.09-5.91-2.48.59-4.31,2.87-6.26,5.28-.45.56-.9,1.12-1.36,1.66-3,3.52-8.12,6.71-12.67,4.13-3.82-2.17-4.52-7.13-3.51-11.08.37-1.47.92-2.85,1.44-4.19.68-1.72,1.31-3.35,1.54-5.01.95-6.96-5.38-13.23-11-17.92-2.5-2.09-5.03-4.17-7.56-6.26-18.39-15.14-37.36-30.76-49.57-51.24-.99,2.7-2.71,5.26-4.48,7.59-10.22,13.45-23.03,28.21-40.58,35.69-4.21,1.79-8.62,3.12-12.88,4.41-4.15,1.25-8.44,2.55-12.44,4.25-5.36,2.28-14.76,7.48-17.53,16.71-.32,1.08-.56,2.2-.8,3.38-.52,2.5-1.05,5.08-2.51,7.43-1.49,2.41-4.24,4.12-7,4.36-2.1.19-3.97-.51-5.27-1.96-.96-1.07-1.41-2.32-1.81-3.42-.2-.54-.38-1.05-.61-1.49-1.07-2.06-3.74-3.47-7.14-3.77-9.01-.79-18.27,6.34-19.8,15.26-1.54,8.92,4.8,18.73,13.56,21,1.1.29,2.24.48,3.45.68,2.57.43,5.24.88,7.67,2.29,2.46,1.43,4.29,4.26,4.57,7.04.21,2.14-.5,4.04-1.99,5.35l-2.64-3c.52-.45.74-1.11.65-1.96-.15-1.51-1.24-3.19-2.59-3.97-1.81-1.05-4-1.42-6.32-1.81-1.24-.21-2.53-.42-3.8-.75-10.84-2.81-18.4-14.52-16.49-25.56,1.9-11.04,12.94-19.55,24.1-18.56,4.84.42,8.61,2.58,10.34,5.91.35.67.59,1.33.82,1.97.32.87.59,1.62,1.03,2.11.45.51,1.11.73,1.94.65,1.48-.13,3.14-1.18,3.96-2.49,1.08-1.74,1.52-3.87,1.99-6.13.25-1.22.51-2.48.89-3.72,3.24-10.79,13.79-16.68,19.79-19.24,4.2-1.79,8.6-3.11,12.85-4.4,4.16-1.25,8.46-2.55,12.47-4.26,16.69-7.11,29.07-21.4,38.97-34.43,2.72-3.58,5.35-7.75,4.24-11.47l3.7-1.48c11.51,22.74,32.01,39.61,51.84,55.94,2.54,2.09,5.07,4.18,7.58,6.27,6.42,5.35,13.62,12.63,12.4,21.54-.29,2.13-1.05,4.06-1.78,5.93-.5,1.28-.98,2.49-1.29,3.71-.63,2.48-.28,5.55,1.61,6.62,2.27,1.28,5.56-.78,7.66-3.24.43-.51.86-1.04,1.29-1.57,2.17-2.7,4.64-5.75,8.44-6.66,5.89-1.41,11.42,3.38,12.88,8.74,1.16,4.25.47,9.17-2.11,15.06-3.12,7.12-7.74,13.72-13.36,19.08-1.9,1.8-4.23,3.79-7.16,4.87-1.01.37-2.02.61-2.99.84-1.24.29-2.4.56-3.38,1.07-1.17.61-2.22,2.06-1.76,2.96l-3.56,1.83Z"/>
  <g>
    <path d="M182.26,274.72c5.72-1.58,11.76-1.93,17.73-2.26,4.83-.27,9.96-.48,14.18,1.62,1.16.58,2.34,1.85,1.56,2.82-5.35-.01-10.69-.03-16.04-.04-.45,0-.93.01-1.27.27-.41.32-.44.86-.47,1.35-.18,3.05-1.73,6.03-4.22,8.13-1.05.88-2.51,1.65-3.88,1.24-1.88-.57-2.15-2.81-2.07-4.58s-.13-3.99-1.99-4.62c-.66-.22-1.4-.17-2.11-.12-1.81.14-15.91,1.54-15.52.17.28-.98,5.44-1.31,6.67-1.65,2.51-.69,4.93-1.62,7.43-2.31Z"/>
    <path d="M190.65,289.95c-.47,0-.93-.07-1.38-.2-1.4-.42-3.71-1.84-3.49-6.58.03-.56.06-2.4-.64-2.63-.29-.1-.86-.05-1.31-.02-.19.01-.53.04-.98.08-14.03,1.23-15.29.63-16.19-.46-.46-.56-.62-1.3-.42-2,.53-1.85,2.67-2.24,6.42-2.77.62-.09,1.4-.2,1.64-.26,1.21-.33,2.38-.72,3.62-1.13,1.23-.41,2.51-.83,3.81-1.19h0c5.96-1.65,12.16-2,18.16-2.33,4.61-.26,10.35-.58,15.19,1.83,1.16.58,2.52,1.73,2.84,3.24.21.94-.02,1.87-.62,2.62l-.6.75-16.76-.04c-.29,3.52-2.07,6.88-4.91,9.27-1.43,1.2-2.94,1.82-4.37,1.82ZM184.6,276.47c.57,0,1.19.06,1.82.27,1.65.56,3.56,2.15,3.35,6.61-.05,1.13.09,2.4.66,2.57.44.13,1.23-.2,2.01-.86,2.08-1.75,3.37-4.2,3.51-6.71.04-.64.11-1.95,1.25-2.82.89-.68,1.93-.68,2.49-.68l10.83.03c-3.37-.82-7.2-.61-10.42-.42-5.67.32-11.52.65-16.96,2.1.16-.01.28-.02.38-.03.32-.02.68-.05,1.08-.05ZM199.33,278.87h0Z"/>
  </g>
  <g>
    <path d="M268.34,272.29c-1.07,0-2.16.02-3.14.44s-1.82,1.34-1.81,2.41c.02,1.13,1,2.05,2.07,2.38s2.23.2,3.35.07c3.96-.47,7.91-.94,11.87-1.41,1.15-.14,2.63-.1,3.09.96.22.51.12,1.09,0,1.64-.4,1.89-.91,3.77-.94,5.71s.52,3.96,1.92,5.29,3.78,1.71,5.28.49c1.22-.99,1.57-2.67,1.98-4.18.42-1.56.99-3.07,1.69-4.53.56-1.16,1.34-2.39,2.59-2.69.71-.18,1.46-.02,2.17.12,2.69.52,5.44.8,8.18.84.81,0,1.65-.01,2.35-.41s1.18-1.3.84-2.03c-.25-.54-.84-.82-1.4-1.03-2.23-.82-4.61-1.11-6.97-1.39-11.12-1.34-21.94-2.74-33.14-2.67Z"/>
    <path d="M287.81,293.02c-1.58,0-3.2-.61-4.44-1.79-1.67-1.58-2.57-3.99-2.54-6.77.02-1.8.4-3.48.76-5.11l.22-.99s.03-.13.04-.22c-.2-.02-.5-.02-.95.03l-11.87,1.41c-1.19.14-2.68.32-4.18-.15-2.02-.62-3.45-2.38-3.48-4.26-.03-1.78,1.19-3.5,3.02-4.28,1.36-.58,2.78-.59,3.91-.6h0c10.66-.06,20.73,1.15,31.39,2.44l2,.24c2.44.29,4.96.6,7.42,1.5.52.19,1.89.7,2.53,2.07.75,1.62.02,3.65-1.67,4.61-1.13.64-2.31.69-3.37.67-2.86-.04-5.73-.33-8.54-.87-.54-.1-1.06-.21-1.32-.14-.21.05-.64.33-1.27,1.62-.65,1.34-1.17,2.74-1.57,4.18l-.11.4c-.41,1.56-.93,3.5-2.54,4.81-.98.8-2.22,1.19-3.48,1.19ZM284.66,275.08c.45.38.75.83.94,1.26.5,1.13.26,2.25.13,2.85-.07.35-.15.69-.23,1.03-.33,1.49-.65,2.9-.67,4.28-.02,1.63.45,3.02,1.29,3.82.75.72,2.01.9,2.64.39.6-.49.89-1.58,1.2-2.73l.12-.43c.46-1.68,1.07-3.32,1.82-4.87.66-1.36,1.78-3.24,3.92-3.77,1.11-.27,2.14-.08,2.96.08,2.57.5,5.13.77,7.68.81-1.67-.45-3.47-.67-5.22-.88l-2.01-.24c-4.95-.6-9.77-1.18-14.57-1.62ZM268.35,274.29h0c-.86,0-1.75.01-2.38.28-.37.16-.58.45-.59.54.01.09.26.38.66.51.69.21,1.62.1,2.52,0l8.99-1.06c-3.05-.17-6.12-.27-9.22-.25Z"/>
  </g>
  <path d="M241.62,304.57c-1.14,0-2.23-.36-3.09-1.05-1.29-1.03-1.87-2.5-2.33-3.68-.03-.07-.05-.14-.08-.2-1.4,1.26-3.32,1.95-5.21,1.69-1.15-.16-2.11-.63-2.78-1.36-1.32-1.45-1.11-3.44-1-4.4l1.93-17.99c.28-2.58.56-5.24-.11-7.6-.84-2.94-3.07-5.08-4.79-6.37-2.29-1.71-4.93-2.9-7.89-4.17-2.83-1.21-5.6-2.35-8.41-2.92-5.61-1.15-11.35-.18-17.43.86-5.93,1.01-12.05,2.05-18.17.98l.69-3.94c5.44.95,10.96,0,16.81-.99,6.17-1.05,12.55-2.13,18.9-.83,3.18.65,6.16,1.87,9.19,3.17,3.08,1.32,6.07,2.67,8.71,4.63,2.22,1.65,5.1,4.46,6.25,8.48.89,3.11.55,6.3.25,9.12l-1.93,17.99c-.09.89-.05,1.2,0,1.31,0-.02.11.03.34.07,1.11.15,2.4-.7,2.7-1.78l.7-2.52,2.25,1.33c1.65.98,2.3,2.65,2.83,3.99.33.85.65,1.65,1.1,2.01.2.16.53.22.86.16.33-.06.62-.23.75-.45.16-.27.31-.72.45-1.15.4-1.23,1-3.1,3.04-3.67,1.44-.41,3.55-.14,5.5,3.39.15.28.32.51.48.69,0-.15-.02-.33-.05-.55l3.96-.53c.33,2.47-.27,4.16-1.77,5.04-.83.48-1.76.6-2.69.34-1.92-.53-3.12-2.48-3.44-3.06-.41-.74-.72-1.12-.91-1.3-.11.25-.23.62-.32.89-.2.62-.43,1.31-.82,1.97-.73,1.22-1.99,2.07-3.47,2.34-.33.06-.66.09-.98.09Z"/>
  <path d="M308.95,261.38c-6.99-3.86-16.02-3.47-23.28-3.16-2.72.12-5.52.24-8.23.55-2.14.25-4.24.18-6.26.11-2.55-.09-4.96-.17-7.31.36l-.87-3.9c2.85-.64,5.63-.54,8.32-.45,1.97.07,3.83.13,5.67-.08,2.85-.33,5.73-.45,8.51-.57,7.76-.33,17.42-.75,25.39,3.66l-1.93,3.5Z"/>
  <path d="M262.36,320.46c-.15,0-.29-.02-.44-.05-6.67-1.5-13.48-1.28-20.69-1.05-7.03.23-14.31.46-21.38-1.07-1.08-.23-1.76-1.3-1.53-2.38.23-1.08,1.3-1.76,2.38-1.53,6.59,1.43,13.61,1.2,20.41.98,7.14-.23,14.52-.47,21.69,1.14,1.08.24,1.75,1.31,1.51,2.39-.21.93-1.03,1.56-1.95,1.56Z"/>
  <path d="M238.5,352.45c-.49,0-.98-.04-1.46-.11-3.62-.57-6.82-3.28-7.96-6.76-.76-2.3-.62-4.67-.49-6.75l1.19-19.71,3.99.24-1.19,19.71c-.11,1.81-.22,3.68.3,5.26.68,2.06,2.64,3.73,4.78,4.06,2.13.33,4.52-.65,5.79-2.4,1.42-1.95,1.65-4.71,1.79-7.6.3-6.54.39-13.18.27-19.74l4-.07c.12,6.65.03,13.38-.28,20-.16,3.38-.48,6.92-2.55,9.77-1.86,2.57-5.02,4.12-8.19,4.12Z"/>
  <path d="M239.98,344.94l-4-.05c.04-3.77.56-7.51,1.07-11.14.71-5.15,1.39-10.01.81-14.89l3.97-.47c.64,5.38-.1,10.73-.82,15.91-.49,3.5-.99,7.12-1.03,10.64Z"/>
  <path d="M214.5,435.02c-1.91,0-3.86-.14-5.77-.6-4.27-1.03-7.94-3.54-11.17-5.76-4.9-3.36-9.97-6.83-14.09-11.44-5.11-5.72-8.83-13.15-11.68-23.39-3.84-13.78-5.1-27.98-3.72-42.22l3.98.39c-1.33,13.74-.12,27.46,3.59,40.76,2.69,9.63,6.12,16.56,10.81,21.8,3.8,4.24,8.66,7.58,13.37,10.81,3.1,2.12,6.3,4.31,9.85,5.17,2.87.69,6,.5,9.04.32,17.9-1.07,38.18-2.28,54.95-11.35,1.95-1.05,4.44-2.52,6.46-4.52,2.12-2.11,3.74-4.84,5.31-7.47,3.7-6.24,7.52-12.69,9.83-19.6,3.61-10.78,3.28-22.18,2.97-33.19-.26-9.36-1.13-15.69-10.41-18.26l1.07-3.85c11.85,3.29,13.05,11.91,13.34,22,.32,11.37.65,23.12-3.18,34.58-2.45,7.31-6.38,13.95-10.19,20.37-1.69,2.85-3.44,5.8-5.93,8.27-2.38,2.36-5.19,4.02-7.38,5.2-17.55,9.49-38.3,10.73-56.61,11.83-1.41.08-2.91.17-4.44.17Z"/>
  <path d="M220.53,405.22c-.68,0-1.37,0-2.05-.02-12.67-.27-25.61-2.92-35.47-5.19-4.98-1.15-8.39-4.1-8.9-7.69-.46-3.28,1.6-6.45,5.66-8.69,8.07-4.46,18.77-6.6,28.22-8.49,1.56-.31,3.09-.62,4.56-.93,11.42-2.39,23.13-4,34.81-4.77,12.76-.85,25.64-.73,38.28.37,7.83.68,12.52,3.56,13.21,8.1.52,3.43-1.49,6.85-5.82,9.88-9.23,6.46-20.85,9.06-31.1,11.35-13.41,2.99-27.25,6.08-41.4,6.08ZM264.13,372.88c-5.5,0-11.01.18-16.5.55-11.5.77-23.02,2.35-34.26,4.7-1.48.31-3.02.62-4.59.93-9.16,1.84-19.54,3.92-27.07,8.07-2.52,1.39-3.85,3.08-3.63,4.64.26,1.86,2.6,3.61,5.83,4.35,9.67,2.23,22.34,4.82,34.65,5.09,14.37.32,28.67-2.88,42.49-5.97,9.89-2.21,21.1-4.71,29.68-10.72,1.71-1.2,4.53-3.58,4.16-6.01-.56-3.66-7.49-4.54-9.6-4.72-7-.61-14.08-.91-21.17-.91Z"/>
  <path d="M228.78,364.81c-15.63,0-32.04-1.03-47.81-4.77-3.7-.88-8.18-2.39-9.98-6.37-1.46-3.23-.66-7.33,2.05-10.45,2.23-2.56,5.21-4.08,8.08-5.42,15.01-7.01,30.13-11.17,44.95-12.39l.33,3.99c-14.34,1.17-29.01,5.22-43.59,12.03-2.48,1.16-5.05,2.45-6.76,4.42-1.38,1.59-2.36,4.12-1.43,6.17,1.08,2.38,4.27,3.42,7.26,4.13,23.32,5.53,48.28,5.01,69.84,4.08,12.5-.54,23.73-1.27,34.48-4.88,3.82-1.28,8.51-3.64,9.18-7.62.62-3.67-2.5-7.19-5.62-9.26-5.8-3.84-12.88-5.28-19.73-6.66l-21.38-4.32.79-3.92,21.38,4.32c6.89,1.39,14.7,2.97,21.15,7.25,4.17,2.76,8.29,7.7,7.35,13.26-.79,4.69-4.89,8.41-11.85,10.74-11.23,3.77-23.23,4.55-35.58,5.08-7.38.32-15.15.59-23.13.59Z"/>
  <path d="M168.81,531.75c-5.71,0-11.43-.32-17.1-1.25l-2.86-.47,1.46-2.51c2.29-3.94,6.73-5.85,10.34-7.08,7.12-2.42,14.57-3.81,21.78-5.17,4.83-.91,9.82-1.84,14.62-3.07,5.54-1.42,13.28-4.01,16.5-10.11,1.14-2.16,1.67-4.65,2.19-7.45,3.43-18.27,5.56-40.74,5.85-61.65l4,.05c-.29,21.13-2.44,43.85-5.91,62.34-.59,3.13-1.19,5.93-2.59,8.58-3.96,7.5-12.76,10.51-19.04,12.12-4.93,1.26-9.98,2.21-14.88,3.13-7.07,1.33-14.38,2.7-21.23,5.02-2.04.69-4.2,1.55-5.91,2.83,10.48,1.23,21.28.55,31.76-.12,4.28-.27,8.7-.55,13.06-.7,9.15-.31,18.43-.05,27.41.19,11.39.32,23.17.65,34.67-.21,1.36-.1,2.18-.51,2.31-.71-.03,0-.09-.19-.45-.71-3.34-4.79-8.53-8.69-16.32-12.29-2.62-1.21-5.36-2.32-8.01-3.4-3.98-1.61-8.09-3.28-11.99-5.36-.98-.52-2.09-1.18-2.83-2.33-.71-1.12-.83-2.37-.92-3.28-.37-3.77-.75-7.65-.65-11.54.09-3.44.55-6.84,1-10.13.95-6.95,1.95-14.59,2.96-22.23,1-7.59,2-15.18,2.94-22.09l3.96.54c-.94,6.9-1.94,14.48-2.93,22.07-1,7.64-2.01,15.29-2.96,22.25-.43,3.18-.88,6.47-.97,9.69-.09,3.64.28,7.39.63,11.02.06.59.12,1.24.33,1.56.21.33.77.65,1.32.94,3.72,1.98,7.73,3.61,11.62,5.18,2.69,1.09,5.48,2.22,8.18,3.47,8.46,3.91,14.15,8.24,17.92,13.63.38.54,1.16,1.66,1.16,3.08-.01,2.58-2.31,4.35-5.99,4.62-11.7.87-23.58.54-35.08.22-8.92-.25-18.13-.51-27.16-.2-4.3.15-8.69.43-12.94.7-6.33.4-12.77.81-19.23.81Z"/>
</svg>