<svg width="149" height="162" viewBox="0 0 149 162" fill="none" xmlns="http://www.w3.org/2000/svg">
<path d="M104.466 80.521C105.095 81.1313 105.742 80.6646 107.485 81.4006C108.492 81.8254 108.648 82.1426 109.792 82.7828C110.984 83.453 111.949 83.7522 113.153 84.1232C115.723 84.919 117.682 85.5174 120.037 85.2541C120.858 85.1643 122.319 84.5779 125.231 83.4111C126.783 82.7888 128.472 82.1067 130.617 81.0236C132.786 79.9226 132.6 79.8388 134.254 79.055C137.357 77.577 138.124 77.8223 139.514 76.835C140.017 76.476 141.126 75.5844 142.665 72.054C143.462 70.223 144.133 68.2424 145.433 61.9057C146.29 57.753 146.715 55.6766 147.027 53.0198C147.195 51.5778 147.171 51.4102 147.572 45.2231C147.914 39.9873 148.081 37.3724 148.243 35.5354C148.758 29.7911 148.98 30.0544 148.998 27.4874C149.01 25.6384 148.914 22.1439 147.782 18.051C147.069 15.484 146.44 14.4429 146.104 13.9402C145.643 13.2461 144.229 11.1877 141.485 10.0389C140.748 9.72771 139.886 9.5841 138.172 9.28492C136.506 8.99171 135.176 8.75835 133.505 8.7404C131.462 8.71646 130.024 9.0336 127.334 9.62C125.71 9.97304 124.554 10.2303 123.05 10.8646C122.254 11.1997 121.163 11.6664 119.941 12.552C118.293 13.7488 117.257 15.0891 116.748 15.8251C115.394 17.7818 114.159 19.5649 113.596 20.6061C113.524 20.7437 113.303 21.1566 112.883 21.2763C112.632 21.3481 112.332 21.3122 112.128 21.1925C111.487 20.8215 111.811 19.6667 111.541 17.8775C111.499 17.6023 111.176 15.49 110.661 15.4481C110.097 15.4003 109.091 17.3091 109.079 19.2657C109.073 20.4326 109.42 20.7437 109.444 22.467C109.462 23.6757 109.295 23.6219 109.283 24.7887C109.265 26.7693 109.756 27.3378 109.864 29.3603C109.924 30.4493 109.822 31.0177 109.732 32.0948C109.48 35.2901 109.894 36.2475 109.99 40.2745C110.044 42.4646 109.96 43.9844 109.798 47.0242C109.678 49.2501 109.564 51.4342 109.217 54.2226C108.863 57.0708 108.42 59.2728 107.539 63.5631C106.736 67.4705 106.371 69.4332 106.024 70.5222C105.604 71.8207 104.999 73.4422 104.442 75.9793C103.753 79.1268 103.933 80.0243 104.442 80.521H104.466Z" fill="black"/>
<path d="M25.3046 139.951C25.7419 141.507 26.1194 141.884 27.3955 144.744C28.2522 146.665 29.115 148.789 29.9957 150.273C30.9003 151.805 31.2119 152.002 32.8774 154.557C33.7042 155.826 34.5729 156.55 35.0222 158.028C35.2739 158.86 35.5674 159.883 35.0222 160.756C34.3333 161.857 32.8235 161.893 32.6497 161.893C31.4815 161.905 30.6787 161.229 30.1095 160.756C29.8039 160.505 28.7255 159.578 28.3002 158.028C27.9886 156.885 28.3481 156.538 28.0186 155.012C27.8448 154.204 27.5992 153.612 27.3416 153.037C26.2811 150.656 25.7479 149.465 24.346 147.173C23.1717 145.253 22.4169 143.182 20.9011 139.053C18.7563 133.207 19.3913 132.896 17.57 129.013C15.9164 125.494 15.0957 123.735 14.5205 122.921C13.8495 121.97 13.1366 121.12 12.8849 119.708C12.6752 118.547 12.801 117.165 12.8849 116.268C12.9928 115.107 13.0886 115.113 13.1126 114.52C13.1785 112.815 12.4236 112.019 11.6987 110.122C10.8359 107.86 11.4171 107.705 10.5663 105.162C9.99719 103.462 9.50591 102.834 8.7031 101.213C7.57676 98.9387 7.45694 97.9753 6.16285 93.9962C4.31158 88.3236 4.10189 88.898 2.9456 85.0266C2.65203 84.0393 1.65151 80.6106 0.914598 76.0032C0.45927 73.1729 -0.0499779 69.9955 0.00394246 66.0104C0.0758363 60.8703 1.05239 57.1066 1.98102 53.5463C3.50877 47.6583 5.53977 43.021 7.06152 39.9513C7.98416 38.0964 10.5903 33.07 15.1376 27.3197C19.1577 22.2395 22.7583 19.0323 26.377 15.813C31.0501 11.6543 34.6268 9.14119 38.0657 6.72975C42.8527 3.38486 45.0934 2.24795 47.5557 1.42819C49.6706 0.722108 52.121 -0.127578 55.4041 0.0160306C56.7102 0.0758677 62.5636 0.327184 66.4698 4.5816C67.3865 5.5749 70.6936 9.17709 70.7056 12.8152C70.7056 13.3358 70.6456 15.0172 71.5204 15.472C71.9996 15.7173 72.5628 15.5019 72.7845 15.4181C73.8809 14.9992 74.2643 13.97 75.3367 11.9834C75.84 11.044 76.4211 10.1524 76.9423 9.22496C77.2479 8.68044 80.0398 3.81569 85.1382 1.94278C87.4029 1.11105 89.2961 1.17687 90.9856 1.23671C97.1745 1.45212 101.584 4.49184 103.25 5.79031C104.322 6.62803 105.784 8.47101 108.743 12.1151C109.72 13.3238 110.469 14.2932 111.014 15.7771C111.415 16.8721 111.589 17.9372 111.691 20.4803C111.787 22.9815 111.841 24.2321 111.691 26.1888C111.29 31.5502 111.811 39.7 111.691 46.2043C111.691 46.2043 111.35 64.9453 104.885 83.9854C104.825 84.159 103.13 89.1494 101.83 94.7501C101.548 95.9708 101.195 97.4966 100.859 99.561C100.416 102.29 100.482 102.972 100.104 105.186C99.8585 106.616 99.4871 108.764 98.6243 111.128C97.3123 114.706 96.4196 114.526 95.0356 118.045C94.8199 118.595 94.7301 118.888 93.2443 124.992C92.2797 128.947 91.8004 130.934 91.7045 131.466C90.6801 137.073 91.6446 136.977 90.6022 140.047C89.6735 142.793 88.3735 144.439 88.3735 146.772C88.3735 147.431 88.4753 148.28 88.1638 149.465C88.002 150.07 87.7744 150.614 87.6066 151.667C87.4628 152.565 87.5107 152.876 87.5347 152.996C87.7025 153.851 88.1997 153.977 88.1638 154.569C88.1518 154.755 88.0979 154.821 87.2531 155.969C86.636 156.807 86.5462 156.933 86.3065 157.017C85.8752 157.172 85.3 157.064 84.9405 156.735C84.3654 156.209 84.641 155.371 84.593 153.869C84.5391 152.248 84.1737 152.08 84.0658 150.758C83.934 149.106 84.3894 147.975 84.9046 146.39C85.1442 145.654 85.6715 143.463 86.7259 139.083C87.6126 135.385 87.367 135.607 88.2297 131.987C88.9606 128.911 89.6496 126.601 90.2607 124.579C91.2312 121.342 91.393 121.144 92.9927 116.226C93.5378 114.544 94.4425 111.6 96.2458 105.706C97.7556 100.788 97.8994 100.261 98.0671 99.208C98.3727 97.2812 98.3667 96.0067 99.0797 93.7927C99.6009 92.1711 99.8166 92.201 100.236 90.6812C100.793 88.6527 100.577 88.0125 101.075 85.7207C101.392 84.2547 101.47 84.5658 102.123 82.1903C102.848 79.5395 102.776 79.0728 103.489 76.5297C103.938 74.9261 104.166 74.1243 104.574 73.137C105.652 70.546 106.485 70.1032 107.27 68.0688C107.863 66.525 107.893 65.4718 108.072 63.7724C108.552 59.3325 109.169 59.0633 109.96 54.1985C110.433 51.2785 111.014 47.7122 110.81 43.1287C110.685 40.2625 110.325 38.7546 110.127 34.183C110.097 33.459 110.049 32.2144 109.894 30.4911C109.678 28.0377 109.534 27.9061 109.384 26.099C109.115 22.9277 109.498 22.7182 109.157 20.0256C108.977 18.6134 108.827 17.4705 108.252 16.0404C107.989 15.3882 107.497 14.5385 106.527 12.8571C105.496 11.0739 104.981 10.1883 104.568 9.67374C104.268 9.30275 103.184 7.98633 101.356 6.76565C100.428 6.14933 99.7267 5.82621 98.3907 5.22186C96.5873 4.40209 95.5629 3.94134 94.107 3.63019C93.6277 3.52847 91.8244 3.16945 89.4519 3.43273C87.6725 3.62421 85.6715 3.8456 83.8741 5.22186C83.6225 5.41334 82.8436 6.30491 81.2859 8.08207C79.866 9.69767 79.3807 10.3319 79.0452 10.7927C78.1406 12.0313 77.5534 13.0485 77.3797 13.3537C76.5829 14.7479 75.2349 17.1235 74.8395 19.7443C74.7076 20.6179 74.7316 21.1984 74.3901 22.2156C74.1744 22.8618 73.9468 23.2687 73.9348 23.9209C73.9228 24.645 74.1804 25.01 74.3362 25.5306C74.8335 27.2359 73.8689 29.414 72.443 30.4432C72.0476 30.7304 71.3826 31.2091 70.7115 31.0296C70.1004 30.862 69.5972 30.1799 69.1179 28.1634C68.5907 25.9135 68.6686 24.4415 68.5967 22.6704C68.5068 20.3547 68.2072 18.7271 67.6261 15.5856C67.1648 13.0725 66.9311 11.8159 66.3799 10.4397C65.7569 8.8779 64.9301 6.80754 63.0249 5.22186C60.7423 3.32502 58.1241 3.13354 55.9014 2.97797C51.7196 2.67878 48.4784 3.90544 46.5253 4.67136C44.692 5.3894 43.2481 6.25704 40.3664 7.98633C38.4911 9.11127 36.1246 10.5474 33.3088 12.6835C30.0436 15.1668 27.8628 17.3149 25.041 20.1093C22.5367 22.5985 20.9251 24.1962 18.954 26.5717C14.9339 31.4185 12.5794 35.6849 11.0337 38.5272C9.5179 41.3036 7.6846 44.7084 6.05501 49.5492C4.58718 53.8993 4.00004 57.2741 3.83828 58.2555C3.65256 59.3924 3.18525 62.4501 3.1493 66.4771C3.13732 67.8294 3.14331 72.1975 4.18577 77.8461C4.37749 78.8753 5.28215 83.6264 7.50487 89.5263C8.73305 92.7815 9.05658 92.9311 10.6502 97.2334C11.9623 100.776 12.6213 102.553 13.3462 105.042C13.9693 107.184 14.0772 107.884 14.7302 109.326C15.7846 111.654 17.1087 113.389 17.8097 114.233C19.1397 115.837 19.2655 115.538 20.302 116.896C21.8956 118.978 22.5846 120.977 22.968 122.114C23.3155 123.149 23.7409 124.441 23.8667 126.189C23.9865 127.852 23.687 127.822 23.6271 130.61C23.5731 132.89 23.5492 134.033 23.9746 135.481C24.1243 135.99 24.3041 136.451 24.7354 137.899C25.053 138.952 25.2327 139.634 25.3226 139.939L25.3046 139.951Z" fill="black"/>
<path d="M112.23 24.8605C112.71 24.681 112.937 24.8605 112.937 24.8605C113.105 24.9922 113.111 25.2614 113.111 25.3093C113.123 25.6384 112.919 25.7641 112.973 25.8957C113.063 26.1171 113.788 26.165 114.363 25.8957C115.028 25.5846 115.328 24.9263 115.519 24.4895C116.526 22.1858 117.029 21.0369 117.047 20.9891C117.82 18.9486 118.893 17.5484 119.342 16.98C120.33 15.7114 121.307 14.4608 123.026 13.6949C123.859 13.3239 125.063 13.0966 127.472 12.6358C128.376 12.4623 128.293 12.4982 129.257 12.3247C133.403 11.5587 133.415 11.1698 134.619 11.2955C135.979 11.4331 135.859 11.9178 138.537 12.5341C139.85 12.8333 139.999 12.7435 140.64 12.947C142.761 13.6112 143.977 15.4601 144.517 16.2859C146.122 18.7272 146.23 21.1446 146.416 25.1059C146.512 27.2121 146.679 30.8502 145.919 34.1712C145.787 34.7396 145.541 35.697 145.505 37.0434C145.457 38.8504 145.859 39.1018 145.835 40.849C145.817 42.2492 145.559 42.4048 145.296 44.6786C145.128 46.1446 145.116 47.1678 145.092 47.8499C144.96 51.6257 144.163 56.1434 144.019 56.9571C142.725 64.2991 141.102 66.1601 140.634 69.876C140.586 70.235 140.473 71.2821 139.85 72.449C139.664 72.802 139.059 73.8551 137.849 74.7647C137.034 75.381 136.309 75.6562 135.308 76.0332C133.984 76.5358 133.631 76.476 132.576 76.859C131.516 77.2479 131.144 77.571 129.593 78.5105C129.083 78.8156 127.58 79.6115 124.572 81.2031C122.373 82.364 121.852 82.6213 120.947 82.7589C120.498 82.8247 120.241 82.8187 117.898 82.5973C113.596 82.1964 113.231 82.1007 112.722 81.8015C111.236 80.9458 110.211 79.9585 110.211 79.9585C109.696 79.4619 109.355 79.037 108.749 78.9772C108.216 78.9233 107.857 79.1986 107.288 78.9772C107.216 78.9473 106.844 78.7977 106.653 78.5045C106.221 77.8403 106.904 76.7513 107.354 75.8357C107.497 75.5425 107.863 74.1483 108.594 71.3599C108.965 69.9298 109.205 68.8527 109.672 66.6926C109.888 65.6934 110.115 64.6163 110.655 61.9356C111.541 57.5136 111.991 55.2757 112.117 54.1927C112.272 52.8643 112.32 51.853 112.356 48.2568C112.416 42.4407 112.44 39.5326 112.356 37.7554C112.105 32.6094 111.278 25.2195 112.236 24.8605H112.23Z" fill="#AFD66F"/>
<path d="M34.7707 161.074C34.4352 160.571 35.226 159.919 35.2021 158.668C35.1781 157.675 34.6509 156.975 34.0458 156.155C33.0692 154.833 30.9543 151.966 29.7022 149.747C29.5284 149.435 29.0911 148.502 28.2284 146.629C26.6407 143.194 25.8439 141.477 25.4844 140.514C24.418 137.659 23.4894 135.176 23.5912 131.951C23.6631 129.791 24.1544 128.69 23.8428 125.991C23.771 125.375 23.5912 124.076 23.0939 122.515C22.1174 119.445 20.5597 117.333 18.972 115.226C16.935 112.516 16.6535 112.815 15.581 111.008C14.4188 109.045 14.1072 107.615 13.3403 105.042C12.5495 102.385 11.8486 100.495 10.4466 96.7189C8.25985 90.8189 7.64875 90.5377 6.34268 86.2474C5.56383 83.6923 5.12648 81.6399 4.7071 79.6474C4.04807 76.5598 3.56278 74.28 3.29917 71.1744C3.17935 69.7683 2.96367 66.4832 3.33512 62.2707C3.46094 60.8645 3.8204 57.4239 4.96471 53.0917C6.6003 46.9105 8.88293 42.5424 10.6084 39.2932C12.5555 35.6252 15.4373 30.8682 19.6311 25.7641C23.1958 21.5396 26.6407 18.2725 29.4745 15.855C33.4467 12.4623 36.7059 10.3141 38.8627 8.89598C43.38 5.93405 45.5069 5.06641 46.3336 4.74329C48.2448 4.00131 50.8809 2.99605 54.4217 2.93621C56.896 2.88834 59.2865 2.84645 61.7009 4.32443C64.7744 6.2093 65.9786 9.4046 66.4579 10.6612C66.8234 11.6305 67.081 12.8991 67.5902 15.4302C68.0156 17.5424 68.2553 18.7332 68.411 20.3967C68.6028 22.4012 68.7465 25.8897 68.7645 26.2308C68.7645 26.2308 68.8244 27.613 69.5074 29.5398C69.783 30.3177 69.9987 30.6946 70.3941 30.8981C71.2748 31.3588 72.4131 30.6168 72.5989 30.4972C73.5215 29.8988 73.833 28.9534 74.0068 28.4567C74.4381 27.2061 74.2824 26.0154 74.1566 25.046C74.0427 24.1903 73.9469 24.2322 73.9409 23.7116C73.9349 22.6406 74.3363 22.102 74.6838 20.9771C75.0133 19.8881 75.0013 19.2059 75.0852 18.5537C75.4626 15.6516 77.9549 12.3306 80.1657 9.38665C82.8977 5.74855 84.042 5.04846 84.5572 4.76124C86.3426 3.76794 87.9841 3.58245 89.1704 3.46876C94.3108 2.95416 98.3728 5.09034 99.5531 5.76052C103.807 8.18392 105.832 11.6425 106.748 13.2521C107.647 14.8318 109.397 17.9074 109.432 21.7131C109.444 22.7483 109.325 23.9749 109.432 26.4283C109.528 28.5764 109.654 28.4567 109.72 30.3356C109.816 33.0163 109.576 33.6566 109.72 36.3074C109.798 37.6657 109.876 37.8392 109.984 39.1257C110.133 40.9687 110.115 42.5723 109.852 46.5515C109.582 50.6324 109.45 52.6728 109.187 54.6833C108.726 58.2376 108.6 57.3999 107.467 64.0718C106.665 68.7929 106.706 69.3614 106.006 70.6778C105.514 71.5993 104.628 72.9456 103.873 75.2015C103.627 75.9255 103.489 76.476 103.316 77.194C102.561 80.2637 102.489 80.9338 101.776 83.8659C101.213 86.1816 101.027 86.6244 100.661 88.4733C100.398 89.8197 100.44 89.8855 100.236 90.6933C99.7028 92.8295 99.1576 93.3979 98.7323 95.0255C98.3668 96.4376 98.4507 97.2514 98.3788 98.4841C98.235 100.961 97.6599 101.566 96.174 106.49C94.7901 111.062 95.1136 111.122 93.8315 114.969C92.9868 117.518 92.819 117.566 91.8964 120.259C90.812 123.43 90.1949 125.818 89.452 128.738C88.7929 131.329 88.1759 134.117 86.9417 139.694C85.6716 145.42 85.5997 146.055 85.0425 147.221C84.8088 147.706 84.3715 148.55 84.2636 149.764C84.1618 150.901 84.4793 150.943 84.5332 153.014C84.5692 154.402 84.4314 154.587 84.5872 155.599C84.695 156.311 84.8028 156.508 84.671 156.783C84.1917 157.777 81.6335 157.46 81.4118 157.43C79.8422 157.22 77.7213 156.436 76.6549 155.97C76.5171 155.91 76.2175 155.772 75.8041 155.766C74.9414 155.748 74.2884 156.311 74.0068 156.544C72.0836 158.13 71.1071 158.908 70.1005 159.051C69.0641 159.207 68.9922 158.387 67.6382 158.333C66.4399 158.285 65.8768 158.83 64.6306 159.249C63.4024 159.662 62.4259 159.62 60.4728 159.542C57.1237 159.404 56.6204 158.728 52.7921 158.237C50.0062 157.884 48.6103 157.705 46.777 158.154C45.5248 158.459 45.7046 158.65 42.1818 159.901C41.7983 160.038 40.1268 160.625 37.8921 161.062C35.4537 161.54 34.9684 161.331 34.7887 161.062L34.7707 161.074Z" fill="#AFD66F"/>
<path d="M116.867 60.5713C118.108 59.0694 118.617 58.7403 119.384 57.8188C120.324 56.6879 120.067 56.5562 121.073 55.3954C121.864 54.4739 122.02 54.5637 122.996 53.5045C123.757 52.6788 124.374 52.0146 124.95 50.9914C125.417 50.1656 125.633 49.5194 126.399 48.6278C126.741 48.2329 127.076 47.9277 127.55 47.8619C128.179 47.7721 128.676 48.1611 128.712 48.185C129.155 48.5381 129.239 49.0347 129.509 50.6383C129.707 51.7932 129.802 52.3736 129.802 52.3856C130.108 53.7977 130.749 54.7851 131.372 55.7245C132.462 57.376 132.894 57.2922 133.625 58.7403C134.326 60.1285 134.26 60.8645 134.128 61.3133C133.996 61.78 133.631 62.4921 133.121 62.528C132.648 62.5579 132.277 61.9894 131.851 61.3133C131.21 60.302 131.043 59.6079 130.342 57.7949C129.928 56.7357 129.719 56.1972 129.515 55.9638C128.958 55.3296 128.185 55.0483 126.645 54.4859C125.405 54.0371 125.135 54.073 124.986 54.1029C124.494 54.2046 124.051 54.6773 123.182 55.6108C122.739 56.0835 122.385 56.4665 121.966 57.0589C121.672 57.4717 121.247 58.0881 120.9 58.9198C120.324 60.302 120.672 60.6132 120.103 61.6184C119.857 62.0493 119.426 62.7853 118.563 63.0904C118.383 63.1563 117.58 63.4375 116.873 63.0007C116.784 62.9468 116.292 62.6417 116.19 62.1151C116.083 61.5646 116.46 61.0739 116.873 60.5773L116.867 60.5713Z" fill="black"/>
<path d="M111.254 69.8101C111.457 69.481 111.805 68.9006 112.524 68.6194C112.62 68.5835 113.405 68.2903 114.219 68.6194C115.124 68.9904 115.13 69.7443 116.484 71.5215C117.089 72.3173 117.389 72.7122 117.85 72.9995C118.335 73.3046 118.593 73.3046 120.6 73.7773C122.224 74.1603 122.236 74.2022 122.553 74.1842C123.392 74.1364 123.757 73.8013 125.111 73.2687C126.292 72.802 126.166 72.9875 126.987 72.6464C128.484 72.0121 129.329 71.2941 129.545 71.1086C129.94 70.7615 129.82 70.7915 130.479 70.1333C130.959 69.6546 131.797 68.8168 132.954 67.9911C134.104 67.1773 134.32 67.2611 134.727 66.7046C134.961 66.3875 135.194 65.9506 135.488 65.9865C135.674 66.0045 135.818 66.202 135.877 66.3575C135.979 66.6208 135.877 66.8901 135.8 67.0576C135.32 68.0928 134.32 68.9305 134.32 68.9305C132.289 70.6239 132.654 70.4863 131.588 71.2702C131.007 71.695 131.061 71.6172 129.617 72.6344C128.622 73.3345 128.538 73.4123 128.155 73.6457C127.31 74.1603 126.603 74.4595 125.95 74.7347C125.033 75.1237 124.71 75.1895 123.59 75.6921C123.014 75.9494 122.643 76.1409 122.26 76.5119C121.846 76.9188 121.924 77.0504 121.529 77.4872C121.265 77.7745 120.522 78.5823 119.57 78.4985C118.94 78.4446 118.515 78.0318 118.419 77.936C118.024 77.5531 118.03 77.224 117.754 76.7273C117.431 76.1289 117.005 75.8238 116.232 75.2673C115.214 74.5373 115.118 74.7587 113.932 73.9987C112.961 73.3764 113.345 73.4303 111.745 72.2455C111.248 71.8745 110.954 71.683 110.846 71.2881C110.697 70.7316 111.026 70.1931 111.254 69.8101Z" fill="black" stroke="black" stroke-miterlimit="10"/>
<path d="M113.83 42.5603C114.465 42.2133 114.825 42.2073 115.346 42.0218C115.867 41.8303 116.322 41.4593 117.209 40.7233C117.772 40.2566 118.437 39.7001 119.246 38.8444C120.133 37.899 120.318 37.5101 121.085 37.0254C121.96 36.4749 122.451 36.5168 122.577 36.5287C123.14 36.5886 123.691 36.9476 123.985 37.5041C124.285 38.0785 124.237 38.7367 123.985 39.2094C123.661 39.8198 123.17 39.7839 122.188 40.484C121.696 40.837 121.822 40.837 120.63 41.9739C119.51 43.039 118.683 43.7152 118.509 43.8528C117.604 44.5888 117.149 44.9538 116.562 45.259C115.927 45.5821 114.98 46.0548 113.836 45.8873C113.417 45.8274 112.835 45.7377 112.536 45.2829C112.14 44.6786 112.482 43.781 112.859 43.2963C113.135 42.9433 113.459 42.7638 113.836 42.5603H113.83Z" fill="black"/>
<path d="M130.581 38.3239C130.779 37.9289 130.959 37.5579 131.384 37.3006C131.905 36.9775 132.45 37.0314 132.582 37.0493C133.469 37.163 133.978 37.905 134.11 38.0965C134.637 38.8744 134.356 39.3231 134.763 40.2446C135.057 40.9148 135.278 40.837 136.189 41.9201C137.195 43.1168 138.28 44.8281 138.514 45.1931C138.801 45.6419 139.035 46.0428 139.538 46.3181C139.975 46.5574 140.245 46.4976 140.461 46.7908C140.712 47.1319 140.694 47.6824 140.461 48.0414C140.359 48.197 140.299 48.191 139.736 48.568C139.029 49.0407 139.011 49.1244 138.759 49.1903C138.4 49.286 137.98 49.2381 137.657 49.0646C137.124 48.7774 137.01 48.2149 136.704 47.4191C136.704 47.4191 136.243 46.1864 135.608 45.1991C135.194 44.5529 134.481 43.9725 133.056 42.7997C132.816 42.6082 131.965 41.9141 131.007 40.9028C130.617 40.49 130.294 40.119 130.246 39.5804C130.204 39.0958 130.402 38.6889 130.581 38.3298V38.3239Z" fill="black"/>
<path d="M133.421 25.052C133.709 24.5912 133.942 24.2083 134.392 23.9749C134.511 23.9151 135.051 23.6339 135.596 23.8193C136.273 24.0467 136.524 24.8426 136.698 25.3811C136.992 26.2966 136.824 26.7095 136.926 27.7626C136.986 28.367 137.177 28.9953 137.567 30.2459C138.136 32.0948 138.436 33.0343 139.077 33.5489C139.382 33.7942 139.999 34.2849 140.766 34.237C141.431 34.1951 141.809 33.7822 142.378 33.9797C142.42 33.9917 142.839 34.1472 143.019 34.5422C143.294 35.1405 142.917 36.062 142.354 36.4629C142.162 36.5946 141.899 36.7083 141.689 37.0374C141.575 37.2169 141.551 37.3485 141.509 37.4562C141.323 37.9888 140.676 38.5512 139.999 38.5812C139.268 38.6171 138.747 38.0247 138.514 37.7614C138.094 37.2887 138.094 36.9596 137.747 36.2535C137.315 35.3739 137.04 35.332 136.465 34.4644C136.147 33.9857 135.829 33.1779 135.212 31.5742C134.517 29.7791 134.697 30.0723 134.242 28.9653C133.936 28.2293 133.804 27.4156 133.421 26.7155C133.313 26.518 133.062 26.0872 133.163 25.5905C133.199 25.405 133.277 25.2854 133.421 25.052Z" fill="black"/>
<path d="M118.821 29.1748C119.564 28.4986 119.558 28.343 120.588 27.254C121.397 26.3983 121.81 25.9675 122.2 25.8299C122.763 25.6324 123.134 25.7461 123.655 25.3631C123.859 25.2136 124.045 25.0221 124.338 25.0221C124.638 25.0221 124.746 25.2315 124.926 25.1777C125.255 25.0759 125.171 24.322 125.393 24.2801C125.585 24.2442 125.908 24.7588 125.98 25.2674C125.986 25.3153 126.07 26.0094 125.609 26.536C125.519 26.6377 125.255 26.9369 125.021 26.877C124.77 26.8112 124.788 26.3923 124.59 26.3505C124.422 26.3146 124.237 26.5778 123.721 27.4036C123.32 28.0438 123.062 28.4807 122.949 28.6721C122.571 29.3064 122.475 29.4799 122.409 29.5996C122.044 30.2818 122.08 30.3416 121.924 30.5869C121.475 31.305 120.929 31.1973 119.815 32.011C119.198 32.4598 119.396 32.4718 118.671 33.0343C117.826 33.6865 117.485 33.7284 116.658 34.3327C116.053 34.7755 116.047 34.8892 115.328 35.5115C113.872 36.7621 113.141 37.3844 112.602 37.2109C111.428 36.8339 111.451 32.8248 112.362 32.5077C112.626 32.4179 112.841 32.6752 113.411 32.6034C113.794 32.5556 113.968 32.406 114.555 32.047C115.609 31.4007 115.603 31.5383 116.538 30.934C116.64 30.8682 117.059 30.5929 117.592 30.192C117.778 30.0484 118.305 29.6535 118.833 29.1688L118.821 29.1748Z" fill="black"/>
<path d="M42.3255 8.20187C43.2781 7.0889 44.74 7.04103 45.1833 7.02308C46.1659 6.98718 46.8549 7.28038 47.9273 7.72916C49.455 8.3754 50.2159 8.69253 50.5514 9.43451C51.1925 10.8586 49.8385 12.6418 49.3412 13.288C48.784 14.018 47.8973 15.1849 46.5313 15.2626C45.6506 15.3105 44.9976 14.8917 44.2128 14.3771C43.6496 14.0121 42.3735 13.1564 41.8283 11.5527C41.6845 11.1279 41.4508 10.4218 41.6485 9.5482C41.7085 9.2909 41.8702 8.72245 42.3255 8.19588V8.20187Z" fill="black"/>
<path d="M124.386 60.5114C124.488 60.4097 125.063 59.8353 125.926 59.8891C126.483 59.925 127.214 60.2242 127.466 60.8645C127.807 61.7381 127.052 62.7733 126.22 63.1383C126.094 63.1922 125.117 63.605 124.386 63.0186C123.739 62.498 123.817 61.6304 123.823 61.5825C123.883 61.0081 124.243 60.6491 124.386 60.5055V60.5114Z" fill="black"/>
<path d="M38.0838 159.069C38.2576 158.309 39.2581 158.058 39.7853 158.028C39.8752 158.028 41.2112 157.962 41.5107 158.782C41.7384 159.392 41.2352 160.068 40.8038 160.386C40.1927 160.828 39.2461 160.9 38.629 160.386C38.3055 160.116 37.964 159.596 38.0838 159.063V159.069Z" fill="black"/>
<path d="M62.0424 141.022C62.7674 147.455 63.1328 150.674 63.1448 152.565C63.1448 152.565 63.1628 155.449 64.4629 158.279C64.6905 158.782 65.038 159.434 65.6192 159.536C66.5598 159.703 67.4944 158.321 67.77 157.914C68.0636 157.483 68.8124 156.37 68.6627 154.982C68.5369 153.803 67.8658 153.42 67.0391 151.996C66.428 150.949 66.1763 150.022 65.6731 148.173C64.8163 145.013 64.7025 143.027 63.8877 137.959C62.9291 131.993 62.4319 130.706 62.995 128.63C63.1328 128.127 63.4084 127.29 63.3605 126.117C63.2826 124.226 62.4439 123.406 62.0424 121.874C61.7788 120.869 61.8447 120.085 62.5217 116.95C63.8578 110.769 64.5348 109.482 64.8822 106.317C65.08 104.474 64.8403 105.03 64.9901 101.338C65.2597 94.5707 66.0565 93.2244 66.1464 87.2467C66.1943 83.9616 65.9547 84.3266 66.0925 82.0049C66.3681 77.4394 67.3446 75.1895 66.8294 72.6763C66.7275 72.1976 66.5238 71.4676 66.7215 70.5282C66.9432 69.493 67.4345 69.2177 67.5064 68.2723C67.5184 68.0988 67.5903 66.9499 66.9312 66.2797C65.8229 65.1608 62.9591 65.7053 61.8987 67.3269C61.2756 68.2843 61.4074 69.4092 61.5272 70.3666C61.7069 71.8625 62.1982 72.2694 62.5757 73.5081C63.025 74.986 62.7254 75.6861 62.2102 80.162C61.9046 82.8008 62.0484 82.2323 61.7908 84.3506C61.1378 89.7419 60.5207 90.9326 60.2691 94.6186C60.1133 96.9044 60.3769 96.0427 60.2691 99.962C60.1492 104.342 59.8077 105.898 59.7958 110.44C59.7958 112.414 59.8557 112.33 59.7958 113.216C59.7239 114.245 59.5082 116.238 57.8546 120.708C56.8541 123.412 56.1891 126.266 54.865 128.827C54.5235 129.492 53.8286 130.772 54.3378 131.502C54.7153 132.035 55.6679 132.166 56.3808 131.975C57.5311 131.67 57.6929 130.635 58.4777 130.611C59.2865 130.587 59.9156 131.658 60.2631 132.232C61.0899 133.626 61.1677 134.853 61.4134 136.846C61.7609 139.64 61.6291 137.414 62.0365 141.016L62.0424 141.022Z" fill="black"/>
</svg>
