<?xml version="1.0" encoding="UTF-8"?>
<svg id="Layer_1" data-name="Layer 1" xmlns="http://www.w3.org/2000/svg" viewBox="0 0 561 447">
  <defs>
    <style>
      .cls-1 {
        fill: #f8f4e7;
        stroke: #f8f4e7;
      }

      .cls-1, .cls-2 {
        stroke-miterlimit: 10;
      }

      .cls-3 {
        fill: #f8f4e7;
      }

      .cls-2 {
        stroke: #000;
      }
    </style>
  </defs>
  <path d="M334.08,217.67c1.76-.1,1.76-.14,3.27-.23,5.47-.33,11.58-.5,14.61,1.63.98.69,1.84,1.54,4.54,3.46,0,0,1.97,1.4,5.03,3,1.62.85,2.16,1.03,2.83,1.06,1.48.07,3.49-.56,4.06-2.03.39-1-.05-1.97-.62-3.21-.33-.72-1.53-3.27-4.33-4.82-1.21-.67-2.25-.9-2.21-1.24.05-.35,1.24-.37,2.12-.53,3.87-.72,6.13-5.11,6.36-5.56,1.14-2.28.43-3.14,1.06-8.39.2-1.67.58-3.46,1.32-6.97,1.53-7.19,2.32-10.93,3.62-15.63,2.67-9.65,4.07-11.07,6.27-20.48,1.03-4.41.67-3.87,1.39-6.45,2.57-9.1,5.77-11.14,5.23-16.51-.14-1.37-.51-2.77,0-4.77.6-2.38,1.82-3.14,2.65-5.03.92-2.08.35-3.22,0-7.77-.65-8.52.87-10.88-1.15-16.77-.05-.14-.35-.91-.97-2.47-2.66-6.72-3.99-10.08-4.5-10.95-2.9-4.9-5.07-3.32-9.71-9.62-2.39-3.24-2.01-3.91-4.15-6-2.26-2.21-3.84-2.57-8.48-5.47-4-2.5-3.99-2.95-6.18-4.24-2.88-1.69-4.92-2.11-14.13-3.8-13.69-2.51-15.42-2.75-18.45-2.65-2.52.09-4.92.5-9.62,1.32-13.94,2.44-20.91,3.67-25.34,6.89-2.75,2-5.1,5.8-9.8,13.41-4.94,7.99-7.5,14.23-10.33,21.11-3.05,7.41-3.68,10.29-3.97,12.98-.37,3.4-.04,6.15.62,11.65,1.01,8.4,1.85,8.59,4.15,21.19.41,2.27.75,4.23,1.81,6.8,1.51,3.66,2.7,4.19,3.23,6.57.29,1.32.27,2.72-2.12,9.09-3.07,8.19-4.13,8.8-4.5,12.5-.33,3.28-.63,6.23.79,8.12.2.27.78.97.73,1.88-.06,1.02-.9,2.16-1.97,2.44-1.22.32-1.79-.71-2.89-.33-.99.34-.86,1.29-1.89,1.93-1.19.74-2.88.41-3.9-.11-1.83-.92-1.71-2.49-3.28-4.27-1.92-2.17-4.63-2.7-5.55-2.88-4.69-.92-10.11,1.53-12.05,5.32-1.24,2.43-.22,3.76-1.7,5.47-1.31,1.51-3.07,1.58-7.99,2-7.56.64-5.74.67-14.49,1.18-5.15.3-6.42.33-8.13-.44-2.56-1.16-2.77-2.6-5.4-3.33-3.36-.94-6.47.46-7.1.74-2.18.98-2.35,1.91-4.66,3.33-1.23.76-3,1.61-6.88,2.37-5.41,1.05-10.02.96-14.34.89-9.92-.16-14.88-.25-16.56-.15-4.1.24-7.78.68-14.12.59-1.18-.02-2.55-.24-4.58-.15-4.01.18-4.6,1.04-7.84,1.04-3.7,0-3.76-1.12-6.14-.59-2.66.6-3,2.1-5.92,2.58-1.92.32-2.36-.24-4.42-.16-3.13.11-4.13,1.45-7.16,2.51-5.28,1.85-6.63-.67-11.77,1.21-1.75.64-5.29,1.94-5.98,4.88-.46,1.95.38,4.47,2.15,5.75,2.4,1.74,4.76-.06,12.89-.52,2.89-.16,2.38.08,6.56-.06,4.72-.15,7.57-.53,12.02-.99,9.88-1.02,9.56-.58,14.98-1.28,5.85-.75,5.6-1.19,14.63-2.84,0,0,8.48-1.56,20.67-2.55,6.9-.56,9.44-.48,12.08.99,3.78,2.11,5.21,5.65,6.5,8.19,5.36,10.53,14.82,16.55,21.66,20.91,1.83,1.17,11.29,7.05,24.73,9.3,9.27,1.56,11.8-.07,22.77,2.45,0,0,12.03,2.76,16.95,7.83.02.03,1.28,1.32,3.13,2.94,2.57,2.25,3.89,3.39,5.36,3.8,2.63.73,3.48-1.66,6.52-1.22.42.06.71.15,4.5,2.18,4.05,2.17,4.44,2.46,5.55,2.84,2.28.79,3.48.55,5.67.79,5.99.66,6.11,3.47,10.72,3.95,4.7.5,9.87-1.86,12.88-4.35,1.38-1.14,2.77-2.69,5.54-3.95,1.17-.54,1.67-.59,3.95-1.58,1.84-.79,2.96-1.28,4.35-2.11,1.85-1.1,3.28-1.99,4.38-3.69.52-.81,1.7-2.63.99-3.95-.63-1.15-2.36-1.29-2.74-1.32-2.22-.17-3.47,1.11-6.72,3.16-4.57,2.88-4.68,1.96-7.9,4.35-2.42,1.8-2.81,2.65-5.15,3.82-2.51,1.25-4.58,1.53-5.01,1.58-1.76.22-3.07.01-5.68-.4-3.2-.5-3.43-.87-6.58-1.32-2.79-.4-2.8-.13-4.09-.53-2.96-.9-4.75-2.85-5.27-3.43-1.54-1.71-1.37-2.53-2.77-5.01-2.28-4.06-5.43-6.66-7.22-8.15-2.73-2.26-3.57-2.24-5.33-4.33-1.74-2.07-1.53-2.82-3.01-4.87-.48-.66-3.25-4.48-7.81-5.95-3.99-1.29-5.64.41-9.28-1.31-1.68-.8-2.7-1.81-4.25-3.48-7.14-7.66-10.75-11.62-12.37-17.7-1.19-4.46-.26-5.92.23-6.49,1.46-1.68,4.48-1.64,5.02-1.62.94.03,1.67.06,2.37.54,1.32.92,1.17,2.56,1.81,4.81.47,1.63,1.14,2.73,2.5,4.93.6.98,1.79,2.75,6.81,7.49,2.85,2.7,4.28,4.05,5.99,5.37,1.13.87,3.1,2.32,10.49,6.43,3.1,1.72,4.12,2.23,8.68,4.68,6.86,3.69,10.28,5.53,11.17,6.09,1.39.88,8.51,5.46,14.01,7.95.53.24,1.62.72,3.04.65,2.69-.14,4.6-2.19,5.41-3.1,1.82-2.02,2.52-4.44,3.84-9.21,1.23-4.44,1.85-6.66,2.08-9.25.13-1.51.15-2.87.86-4.63.7-1.74,1.61-2.34,3.1-4.35.8-1.09,1.9-2.72,2.97-4.92l.27-.46Z"/>
  <path class="cls-1" d="M258.44,232.96c-1.18-.56-2.25-1.29-7.71-8.06-3.89-4.82-4.77-6.2-5.52-7.59-.94-1.73-2.13-4.26-2.32-7.51-.09-1.57-.15-2.92.74-3.92,1.6-1.79,4.99-1.08,5.59-.96.73.15,1.64.34,2.52.96,2.59,1.83,1.69,5.13,3.63,9.03.58,1.16,1.77,2.42,4.14,4.9,3.8,3.97,6.32,6.61,9.4,8.95,3.62,2.75,4.59,2.5,12.55,6.55,7.65,3.88,11.47,5.82,15.66,8.87,0,0,6.66,4.85,13.83,8.42.8.4,2.49,1.21,4.6.97,3.04-.35,5.05-2.67,5.91-3.7.94-1.12,2.51-3.34,4.26-13.32,1.02-5.81.66-6.02,1.52-8.67,1.17-3.62,2.44-7.55,6.1-9.79,3.16-1.93,6.5-1.49,10.86-.83,11.73,1.79,21.44,8.18,20.75,10.62-.21.72-1.23.78-1.89,2.22-.73,1.6-.26,3.26-.11,3.79.68,2.39,2.49,3.71,5.41,5.84,1.69,1.23,2.72,1.99,4.38,2.54,2.16.72,3,.31,4.76.87,1.3.41,2.14,1.04,5.08,3.95,4.04,4,6.1,6.06,7.9,8.71,1.46,2.16,2.22,3.31,2.76,5.14.9,3.07-.05,3.88.87,6.27,1.1,2.86,2.91,2.89,4.81,5.9,1.27,2,1.58,3.75,2.11,6.98.85,5.13.04,5.93.38,13.78.26,6.07.7,10.37.7,10.37.1,1.02.31,2.96.31,5.57,0,2.96,0,4.47-.62,6.11-.83,2.23-1.79,2.36-3.17,4.95-1.23,2.3-1.14,3.43-1.86,5.65-1.14,3.51-2.36,3.71-6.11,9.44-2.2,3.36-3.8,5.8-5.11,9.44-1.23,3.43-2.09,5.82-1.62,8.9.29,1.92.81,2.24,2.32,7.74.95,3.47.99,4.21.7,5.03-.51,1.43-1.5,1.72-5.03,4.49-2.53,1.98-3.8,2.99-4.1,3.79-.87,2.31.79,4.85,3.56,9.05,2.52,3.83,4.03,6.14,6.96,8.43,2.05,1.61,3.35,2.09,3.95,3.79.93,2.68-.89,5.53-1.32,6.19-2.57,4.01-7.26,5.14-9.52,5.65-5.69,1.28-6.6-.59-17.72-1.32-7.8-.51-10.12.23-14.08-1.86-.67-.35-2.6-1.79-6.42-4.64-7.73-5.77-7.48-5.73-8.28-6.11-6.92-3.33-14.62-.97-15.48-.7-4.59,1.47-4.88,3.36-9.83,4.33-1.79.35-5.03.95-8.74-.15-4.43-1.31-7.97-4.57-8.98-5.49-.72-.66-2.2-2.1-4.57-3.56-2.55-1.57-3.44-1.52-3.79-1.47-1.52.21-2.33,1.55-4.18,4.18-1.83,2.61-3.37,4.89-4.72,6.34-4.29,4.62-10.29,5.18-13.78,5.51-4.06.38-5.15-.51-5.58-1.12-.44-.62-.5-1.48-.62-3.18-.18-2.49.24-3.01-.27-3.79-.38-.58-.91-.75-3.76-1.39-3.11-.7-4.68-1.05-5.36-.94-2.14.34-3.55,1.74-4.52,2.75-2.45,2.52-1.8,3.89-4.1,7.69-1.87,3.08-3.84,4.73-6.18,6.69-2.33,1.95-3.57,2.47-4.84,2.47-1.29,0-1.51-.54-3.7-1.42-3.48-1.4-4.62-.72-8.73-2.27-.94-.35-.56-.27-2.6-1.14-4.45-1.9-6.68-2.84-8.73-3.13-3.62-.5-4.03.8-6.99,0-1.89-.52-2.79-1.34-5.18-3.07-5.48-3.98-5.38-3.02-9.78-6.37-5.05-3.85-6.84-6.38-7.34-7.11-1.26-1.84-1.68-3.06-2.45-5.23-.85-2.43-.74-3.18-.46-3.7.74-1.35,2.81-1.49,3.53-1.54,3.1-.21,5.46,1.32,7.51,2.56,0,0,5.32,3.22,11.04,5.75,5.77,2.55,10.06,3.26,11.04,3.41,3.33.52,5.61.87,8.48.28,4.65-.96,7.58-3.73,11.49-7.45,2.44-2.32,5.57-5.29,8.14-10.13,2.75-5.18,2.05-7.25,5.12-10.01,2.23-2.01,4.09-2.26,5.52-4.84,1.1-1.98.47-2.68,1.19-5.63,1.29-5.22,4.66-8.62,6.88-10.87,1.96-1.97,2.99-2.99,4.78-3.47,1.17-.32,3.01-.5,7,1.14,6.16,2.52,6.66,4.96,12.23,7.22,1.82.74,4.19,1.7,7.4,1.76,3.89.08,6.75-1.21,11.89-3.53,3.97-1.79,5.04-2.76,9.39-4.38,2.64-.99,3.96-1.48,5.12-1.65,2.94-.43,5.4.26,17.41,6.31,4.7,2.37,6.63,3.43,8.31,4.38,5.14,2.93,7.75,4.45,9.67,6.66,2.87,3.3,4.49,6.26,4.49,6.26,1.21,2.2,1.46,3.28,2.79,4.1,1.86,1.15,4.35.86,6.09,0,.5-.25,3.2-1.65,3.53-4.27.18-1.38-.37-2.65-1.65-4.44-2.45-3.41-5.15-5.27-7.74-7.11-8.53-6.07-7.08-5.67-9.9-7.22-5.08-2.81-6.14-2.09-10.3-5.01-2.92-2.05-3.2-2.97-6.09-4.61-.82-.46-3.85-2.13-8.14-2.96-5.85-1.13-10.76-.08-13.48.74-5.66,2.85-9.74,5.01-12.91,6.77-1.68.93-4.22,2.36-7.22,1.88-1.98-.32-4.13-1.45-4.04-2.16.04-.31.48-.3.91-.85.56-.72.72-1.89.34-2.62-.54-1.03-1.98-.77-3.87-1.37-1.6-.51-2.07-1.18-4.44-3.02-4.81-3.74-5.86-3.31-9.61-6.71-.7-.64-1.75-1.59-2.96-3.02-1.32-1.55-3.33-3.95-4.66-7.57-.97-2.61-2.32-6.26-1.14-10.13.61-2,1.47-2.63,1.99-5.35.49-2.57-.07-3.07.34-4.86.53-2.32,2.12-3.82,5.29-6.74,3.19-2.94,4.04-2.94,6.98-5.86,2.38-2.36,1.84-2.38,3.71-4.1,2.95-2.71,5.83-4.1,8.82-5.52,2.96-1.4,4.45-2.1,5.52-2.06,3.7.15,4.27,3.54,9.1,5.02,3.08.94,3.23-.31,7.05.57,4.46,1.03,5,2.92,8.93,3.82,3.98.91,7.4-.11,8.31-.4,5.2-1.63,4.91-4.62,11.26-7.4,1.99-.87,2.51-.8,6.58-2.48,2.99-1.24,4.84-2.17,6.45-4,.78-.89,1.98-2.31,1.66-3.94-.03-.15-.25-1.23-1.18-1.88-1.4-.98-3.35-.26-4.52.18-2.01.75-2.55,1.59-4.73,3-2.21,1.43-2.43,1.06-4.91,2.45-4.09,2.3-4.15,3.67-7.39,5.26-2.84,1.39-5.41,1.62-6.08,1.66-3.52.25-4.41-.92-10.8-1.74-3.23-.41-3.24-.15-4.48-.59-3.5-1.24-5.55-4.15-6.87-6-2-2.82-1.85-3.93-4.24-6.69-.86-.99-1.53-1.6-2.79-2.74-3.74-3.39-5.26-3.78-7.41-6.39-1.14-1.38-.59-1.13-2.13-3.21-2.23-3.02-4.3-5.82-7.6-6.82-1.63-.49-1.54.07-4.73-.4-1.12-.17-4.09-.6-6.54-1.77Z"/>
  <path class="cls-3" d="M283.4,191.91c.98-.18,2.41-.45,4.14-.85,3.35-.77,4.05-1.13,4.4-1.33.75-.42,2.66-1.51,3.47-3.7.65-1.76.27-3.38,0-4.57-.44-1.91-.98-1.93-1.45-3.88-.29-1.21-.67-2.8-.06-4.62.2-.59.97-2.61,3.12-3.71.5-.25,2.03-1.01,3.88-.58,2.42.57,3.56,2.76,3.99,3.59,1.01,1.94.96,3.8.93,4.8-.05,1.77-.47,1.91-.69,4.34-.04.39-.18,2.01,0,4.11.23,2.7.34,4.04,1.1,5.17,1.22,1.8,3.44,2.2,6.29,2.67,4.96.81,8.9.15,9.77,0,2.06-.36,7.59-1.41,12.89-5.44,3.54-2.7,6.4-4.87,8.39-8.72.64-1.24,1.46-3.16,3.44-4.06,1.23-.55,3.29-.88,4.56.28,1.33,1.22.99,3.35.89,4-.41,2.59-2.29,4.25-3.5,5.28-2.89,2.47-4.74,2.16-7.83,4.83-1.55,1.34-1.06,1.38-2.56,2.72-1.68,1.5-2.94,2.05-9.67,4.89-3.22,1.36-4.85,2.04-6.17,2.22-2.21.31-3.89.05-5.94-.28-4.06-.64-5.99-1.73-9.83-1.67-.68.01-1.65.07-2.67.61-.13.07-2.31,1.28-2.61,3.61-.07.51-.18,1.41.33,2.11.55.75,1.26.5,2.39,1.22,1.18.75,1.05,1.41,2.06,2.22.97.77,2.01.9,3.49,1.06,2.47.27,3.19-.21,5.89-.28,2.57-.06,2.06.36,5.33.4,2.85.03,3.57-.29,6,0,1.68.2,1.76.4,2.67.32,1.83-.16,2.69-1.1,4.67-2.17,1.8-.97,3.31-1.38,4.56-1.72,2.11-.58,5.01-1.37,8.33-.67,2.29.48,3.11,1.33,5.18,1.06,1.56-.2,2.66-.89,3.11-1.17,1.18-.74,1.62-1.44,4.83-6.67,1.02-1.66,1.54-2.51,1.83-3.44.6-1.88.12-2.25.5-4.28.56-2.97,1.81-3.38,2.61-6.72.37-1.52.37-2.5.44-3.5.35-4.42,2.06-6.47,3.61-10.86,2.67-7.55.33-9.12,3.32-16.64.41-1.02.9-2.12,2.28-5.53,1.39-3.43,2.08-5.15,2.74-6.97,1.57-4.32,2.56-7.05,3.18-10.79.59-3.52.16-3.75.95-8.36.33-1.93.64-3.25.95-5.77.1-.82.35-2.87.42-4.98.08-2.51.22-6.5-1.16-10.64-1.52-4.57-2.98-3.62-4.55-8.47-1.02-3.14-.84-4.89-2.59-7.62-.84-1.3-1.62-2.05-3.18-3.55-4.21-4.03-6-3.99-9.1-7.52-1.45-1.65-1.31-1.94-2.43-2.86-1.74-1.41-3.36-1.75-6.83-2.65-5.72-1.48-5.7-1.35-6.99-1.91-3.05-1.33-3.24-2.3-5.61-3.23-2.8-1.1-4.96-.7-8.1-.48-8.14.57-7.54-1.15-15.08-.58-6.79.51-5.65,1.78-12.76,2.33-2.29.18-4.87.23-7.04,2.01-.82.67-2.01,1.94-3.02,3.39-.99,1.43-1.02,1.88-1.8,2.86-1.23,1.54-2.41,1.96-4.02,2.96,0,0-3.15,1.96-5.98,5.5-1.26,1.58-1.5,2.39-3.39,6.25-3.44,7.03-3.65,6.4-5.13,9.9-1.13,2.66-2.62,6.26-3.23,11.17-.64,5.16-.05,9.82.26,11.8.32,2.02.71,3.48,1.01,6.56.35,3.63.01,3.7.37,5.8.53,3.11,1.4,3.71,2.96,8.18,1.3,3.7.69,3.26,1.96,6.93,1.81,5.23,3,6.01,3.08,9.1.01.42-.3,2.08-.91,5.39-1.3,7.03-1.52,7.76-1.75,8.43-1.11,3.32-1.7,3.08-2.58,6.15-.6,2.09-1.25,4.38-.76,7.29.55,3.24,2.2,5.36,2.66,5.92,2.09,2.57,4.64,3.6,5.74,3.97Z"/>
  <path d="M129.83,150.29c1.93-3.46,1.67-7.06,1.42-10.05-.38-4.42-1.33-4.1-2.55-11.04-.42-2.38-.37-2.8-1.13-7.78-.86-5.61-.72-5.83-1.13-6.93-1.11-2.95-2.56-4.18-2.02-6.06.44-1.51,1.81-2.23,1.96-2.31,1.92-.97,4.3.04,5.63,1.11,1.96,1.58,1.45,3.12,3.5,5.63.88,1.08,1.95,1.8,4.1,3.24,3.04,2.04,5.47,3.68,9.13,4.7,2.15.6,3.97,1.1,6.4.85,2.08-.21,2.82-.8,4.78-.6.23.02,4.21.47,4.61,2.39.23,1.12-.81,2.43-1.62,3.07-1.2.95-2.46.87-2.82,1.88-.18.52.07.77,0,1.2-.26,1.57-4.48,2.4-8.02,2.48-3.92.08-7.73.16-10.76-2.3-4.26-3.46-5.63-5.55-5.63-5.55-.29-.44-1.03-1.62-1.88-1.54-.73.07-1.19,1.07-1.28,1.28-1.06,2.33,1.04,4.72,2.13,8.62.29,1.04.39,2.97.6,6.83.23,4.44.22,8.1.6,14.17.18,2.94.33,4.38,1.28,5.98,1.13,1.9,2.4,2.35,2.3,3.67-.11,1.53-1.85,1.81-2.56,4.27-.35,1.2-.02,1.42-.43,2.13-.81,1.42-3.05,2.24-4.95,1.88-2.17-.41-2.13-2-5.81-4.35-2.05-1.32-2.58-1.15-3.24-2.13-1.2-1.76-.91-4.39,0-6.23.93-1.89,1.99-1.88,4.52-4.7.55-.62,1.93-2.15,2.86-3.81Z"/>
  <path d="M72.23,171.27c1.55-2.09,2.33-3.14,2.59-3.73,1-2.3.05-4.92-1.83-8.53-2.45-4.72-3.96-6.63-3.96-6.63-.54-.68-1.21-1.47-1.14-2.51.1-1.4,1.5-2.72,3.05-3.05,1.66-.36,2.28,1.05,4.18,1.6,3.57,1.03,7.9-1.8,10.07-4.04,1.5-1.55,2.07-2.93,4.95-5.71,1.09-1.05,1.99-1.8,3.05-1.68,1.37.16,2.22,1.69,2.74,2.67,1.6,2.98.63,4.46,1.83,8.69.49,1.72.9,3.17,2.06,4.72,1.82,2.44,3.15,2.01,5.03,4.34.45.56,2.64,3.27,2.21,6.7-.06.49-.43,3.47-2.36,4.34-1.1.5-1.78-.11-3.5.53-1.36.51-1.33,1.03-2.29,1.22-1.85.37-3.62-1.25-4.34-1.9-.73-.66-2.27-2.07-2.51-4.11-.31-2.63,1.88-3.28,3.05-7.7.44-1.67.88-3.44.15-5.41-.76-2.04-2.35-3.16-2.97-3.58-.98-.67-2.38-1.63-3.89-1.3-1.14.25-1.16.99-3.12,2.67-1.49,1.27-1.75,1.08-4.11,2.9-1.6,1.22-2.4,1.84-2.67,2.36-.85,1.63-.1,3.27.91,6.86.71,2.52,1.22,4.31,1.52,6.4.07.49,1,7.15-.61,10.97-.15.35-.56,1.26-.84,2.59-.31,1.49-.13,1.99-.3,2.82-.44,2.1-2.73,4.36-4.65,4.19-1.75-.15-1.67-2.19-4.65-3.43-1.17-.48-1.75-.41-2.67-1.14-1.22-.98-1.67-2.31-1.83-2.82-.2-.61-.71-2.24,0-3.96.8-1.94,2.65-2.79,2.9-2.9,1.02-.45,1.66-.33,2.67-1.07.58-.42.91-.86,1.3-1.37Z"/>
  <path d="M92.8,57.6c-.2,2.28-.38,4.33-1.27,6.83-.73,2.06-1.1,2.01-1.35,3.41-.54,2.98.69,5.37.87,5.71.45.85,1.68,3.17,4.05,3.81,3.31.9,6.87-2.01,8.41-4.76,1.98-3.53.93-7.32.64-8.41-.62-2.27-1.35-2.33-2.94-5.95-1.43-3.27-.9-3.37-2.22-6.67-2.04-5.1-3.77-6.02-3.65-9.21.03-.81.12-2.58,1.35-3.89.51-.55,1.25-1.04,4.29-1.67,4.69-.97,6.21-.46,7.46-1.83.74-.8,1.23-2.08.87-3.1-.52-1.49-2.66-1.91-4.68-2.3-1.22-.24-3.38-.66-6.03-.02-2.49.6-3.03,1.56-4.52,1.21-1.14-.27-1.89-1.08-3.1-2.38-1.73-1.86-1.68-2.71-2.78-3.1-1.18-.41-2.76.04-3.57,1.11-.93,1.23-.5,2.82-.32,3.49.55,2.03,1.77,2.34,3.02,4.37,1.04,1.71.47,1.96,1.59,5.32,1.2,3.61,1.95,3.55,2.94,6.83.77,2.54.95,4.63,1.03,5.71.19,2.36.04,4.13-.08,5.48Z"/>
  <path d="M149.45,46.83c-.22-.77-.82-2.73-1.26-5.48-.34-2.13-.41-3.65,0-5.3.31-1.26.65-2.65,1.71-3.14.74-.35,1.83-.26,4.67,1.62,3.89,2.58,3.92,3.8,7.27,6.11,1.53,1.06,3.76,2.34,6.65,3.05,1.66.41,2.62.65,3.86.36,2.2-.51,2.62-2.02,4.76-2.25,1.1-.11,2.76.1,3.23,1.08.48.99-.46,2.31-.99,3.05-2.15,3.03-5.52,4.14-6.83,4.49-.9.24-4.22,1.09-7.81,0-4.71-1.43-5.66-1.98-5.66-1.98-.62-.35-1.47-.9-2.34-.63-.49.15-1.08.59-1.62,1.98-.92,2.38-.45,4.33-.18,7.54.3,3.5-.12,2.87.18,5.57.16,1.43.61,4.62,2.07,8.44,1.36,3.56,1.92,3.28,3.04,6.68.74,2.22,1.25,4.59.96,7.29-.3,2.81-1.21,3.64-1.62,3.95-.23.17-1.35.96-2.53.66-1.39-.36-1.42-1.87-2.73-2.13-1.02-.2-1.35.64-2.48.56-1.32-.1-2.55-1.38-2.99-2.63-.48-1.38.2-2.15,1.32-5.67.91-2.87,1.5-4.76,1.37-7.04-.1-1.81-.58-2.44-1.06-4.25-.87-3.23-.17-4.23-.1-10.02.06-5.63.09-8.44-.9-11.91Z"/>
  <path d="M306.67,172.34c.27-.22.68-.05.81,0,.15.06.66.27.7.76.03.38-.22.77-.6.88-.52.14-.89-.38-.92-.42-.25-.37-.3-.97,0-1.22Z"/>
  <path d="M345.79,172.84c.23-.25.7-.35,1-.16.3.19.25.56.25.6-.03.22-.18.49-.5.58-.35.09-.74-.08-.87-.38-.1-.23-.02-.48.12-.64Z"/>
  <path d="M311.83,298.37c.34-.3.89-.44,1.33-.19.45.25.53.76.53.8.08.63-.43,1.39-1.14,1.4-.47,0-.95-.3-1.1-.8-.15-.49.08-.95.38-1.21Z"/>
  <path d="M297.86,290.44c.27-.18.7-.05.91.24.17.23.23.62,0,.86-.24.26-.67.21-.91,0-.33-.28-.32-.89,0-1.11Z"/>
  <path d="M285.89,326.22c.17-.34.88-.43,1.33-.12.05.04.37.26.41.65.05.48-.34.99-.76,1-.41,0-.67-.49-.82-.78-.13-.26-.28-.53-.16-.76Z"/>
  <path d="M343.76,244.24c.22-.36.68-.6,1.12-.47.56.16.69.8.69.84.09.53-.2,1.2-.76,1.31-.45.08-.87-.24-1.06-.59-.02-.05-.31-.58,0-1.08Z"/>
  <path d="M400.73,253.17c.32-.47.9-.49,1.01-.49.47,0,.91.25,1.16.65.02.03.47.8,0,1.41-.35.46-.96.5-1.38.38-.5-.15-.86-.58-.95-1.05-.02-.1-.1-.52.16-.9Z"/>
  <path d="M459.18,242.29s.29-.39.74-.38c.46,0,.87.39.91.87.03.4-.21.83-.63.96-.46.14-.92-.13-1.11-.51-.14-.28-.13-.66.08-.95Z"/>
  <path d="M322.15,158.37c.3-.28,1.36-1.28,2.88-1.22,1.76.07,2.82,1.51,3.2,2.04.34.46,1.1,1.49,1.03,2.93-.08,1.66-1.2,3.03-2.5,3.67-.32.16-1.34.64-2.61.38-1.82-.37-2.67-1.96-2.85-2.31-.19-.36-.87-1.75-.41-3.42.31-1.1.96-1.79,1.25-2.06Z"/>
  <path d="M329.61,151.53c-.12.54-.22.67-.35,1.35-.34,1.84-.08,3.32,0,3.73.57,2.96,2.45,4.75,3.45,5.7.98.93,1.65,1.55,2.65,1.58,1.49.04,2.56-1.26,2.82-1.58,1.2-1.46,1.19-3.19,1.19-4.6,0-1.08-.02-3.79-1.75-6.18-1.33-1.84-2.43-1.76-3.39-3.67-.67-1.33-.73-2.55-.77-3.58-.25-6.46-.13-9.66-.13-9.66.12-3.33-.44-6.69-.1-10,.03-.3.14-1.29-.37-2.3-.45-.89-1.15-1.32-1.28-1.4-.06-.03-1.26-.73-2.67-.35-1.26.34-1.98,1.35-2.36,1.91-2.29,3.34-3.43,6.55-5.01,9.49-.51.94-1.39,2.24-3.17,4.85-2.39,3.51-3.58,5.26-5.34,7.27-2.57,2.95-3.86,4.42-5.22,5.35-1.13.78-2.32,1.41-2.89,2.85-.61,1.52-.16,2.99,0,3.44.71,2,2.41,2.85,2.89,3.09.43.21,2.43,1.17,4.26.31.63-.3,1.18-.79,2.46-3.01,1.16-2.01,1.8-3.51,2.27-4.53,1.42-3.11,1.83-3.17,3.44-6.41,1-2.02,2.08-4.04,2.66-6.21.13-.5.4-1.57,1.23-1.94.52-.23.87-.01,2.27.22,2.08.35,2.4.07,2.83.47.57.54.4,1.4.18,3.62-.24,2.45-.36,3.67-.31,4.47.15,2.62,1,3.54.5,5.71Z"/>
  <path d="M300.72,116.04c1.68-1.48,1.58-3.37,2.48-5.64.5-1.26,1.98-2.92,4.96-6.24,2.3-2.57,2.95-2.97,3.8-3.12,1.6-.27,3.44.48,4.44,1.88,1.32,1.87.61,4.13.28,5.16-.42,1.32-1.1,2.37-4.48,5.6-2.11,2.02-4.12,3.92-7.36,6.4-1.7,1.3-2.96,2.15-5.48,3.84-3.84,2.58-5.54,3.5-7.8,3.96-2.82.57-3.88-.12-4.24-.4-.78-.61-1.45-1.74-1.28-2.92.18-1.22,1.19-1.94,1.72-2.32,1.62-1.15,2.47-.49,4.84-1.44,1.72-.69,1.31-1.05,3.72-2.16.9-.41,1.76-.73,2.96-1.52.65-.43,1.18-.85,1.44-1.08Z"/>
  <path d="M338.65,109.49c.64-1.45,2.09-1.98,2.25-2.04,1.5-.52,2.87.08,3.71.47,2.93,1.35,4.42,4.18,5.33,5.96,1.52,2.97.99,3.74,2.46,5.17,1.19,1.16,2.71,1.78,4.34,2.46,1.5.62,2.25.93,3.34,1.05,1.69.18,2.49-.24,4.86,0,1.8.18,2.02.49,2.09.63.58,1.1-1.86,3.35-2.14,3.61-.81.74-1.75,1.59-3.19,1.93-2.36.56-4.45-.64-6.17-1.62-2.05-1.17-3.86-2.88-4.18-3.19-1.2-1.14-1.4-1.58-2.3-1.99-1.62-.74-2.46-.02-4.02-.63-.9-.35-1.54-1.12-2.82-2.67-1.24-1.5-2.38-2.89-3.14-5.02-.55-1.55-1-2.81-.42-4.13Z"/>
  <path d="M336.69,79.21c.98-1.09,2.41-1.19,2.68-1.21,1.93-.14,3.42,1.22,4.9,2.58.97.89,3.05,2.84,4.1,6.07.68,2.08.15,2.31.91,4.78.45,1.46,1.02,3.32,2.58,5.08.31.35,2.46,2.72,5.92,3.49,2.13.48,2.63-.13,5.23.61,1.56.44,1.94.82,3.19.83,1.62.02,2.19-.59,3.57-.45.22.02,2.53.26,2.88,1.36.43,1.32-2.04,3.71-4.68,4.7-3.17,1.2-6.22.24-8.55-.49-2.44-.76-4.01-1.74-6.9-3.53-3.02-1.87-5.07-3.51-7.31-5.33-3.53-2.85-5.32-4.31-6.83-6.43-.69-.97-2.41-3.54-2.81-6.63-.08-.61-.23-2.15.32-3.88.31-.97.64-1.38.8-1.56Z"/>
  <path d="M297.09,90.8c1.29-2.17.62-2.91,1.62-5.09.96-2.09,1.61-1.48,4.3-5.14,1.24-1.68,1.56-2.44,2.74-3.07.38-.2,1.94-1.04,3.69-.45,1.71.58,2.43,2.15,2.68,2.68,1.12,2.41.18,4.83,0,5.31-.81,2.11-2.37,3.31-5.2,5.48-1.41,1.08-3.13,2.21-3.24,2.28-2.1,1.37-2.76,1.6-3.8,2.64-.53.53-.56.67-2.07,2.74-1.48,2.03-2.21,3.04-2.91,3.86-.96,1.13-2,2.06-4.08,3.91-2.84,2.53-3.44,2.75-4.03,2.82-1.05.13-1.75-.22-2.53.35-.54.4-.59.85-1.48,1.64-.55.48-.82.72-1.17.74-.93.06-2.03-1.37-2.26-2.73-.24-1.42.62-2.65,2.34-5.06,1.8-2.52,2.8-3.92,4.71-5.14,1.68-1.07,1.81-.57,4.32-2.03,2.31-1.34,3.66-2.61,4.13-3.08.79-.77,1.54-1.51,2.23-2.66Z"/>
  <path class="cls-3" d="M301.74,222c1.26-1.6,2.35-1.26,4.31-2.93,1.44-1.23,1.15-1.67,2.18-2.18,1.41-.7,2.21.02,4.62,0,2.54-.02,2.54-.82,5.82-1.07,2.88-.21,4.12.32,4.48.49.49.23,2.44,1.13,2.58,2.59.09.98-.72,1.36-1.78,3.1-.35.58-1.48,2.44-1.69,4.62-.24,2.54,1.03,2.93.62,5.2-.09.52-.7,1.65-1.91,3.91-1.51,2.81-1.8,3.14-2.18,3.42-.69.52-1.68.93-4.4.84-2.07-.07-3.77-.38-8.08-1.55-4.71-1.28-5.88-1.78-7.15-2.8-1-.81-2.21-1.8-2.31-3.24-.08-1.16.65-1.32,2.04-4.31.71-1.52.76-2,1.73-4,.58-1.19.87-1.78,1.11-2.09Z"/>
  <path class="cls-3" d="M259.67,205.01c-.24-1.91-.17-2.25,0-2.51.58-.87,2.11-.71,3.73-.65,5.29.2,4.94-.97,8.31-.43,2.09.33,4.71.76,6.59,2.79,1.67,1.81,1.12,3.13,2.94,4.8,1.6,1.47,2.2.61,5.09,2.15,2.02,1.08,5.96,3.76,7.17,6.23.13.27.42.92,1.08,1.22,1.01.45,2.01-.32,2.28,0,.28.33-.58,1.35-1.63,2.94-1.55,2.32-2.32,3.48-2.65,4.95-.32,1.41-.04,1.96-.65,2.87-.78,1.17-2.11,1.56-2.44,1.65-2.23.59-3.99-1.02-9.1-4.16-4.01-2.46-3.42-1.78-5.66-3.3-3.06-2.07-5.54-3.76-7.74-6.74-1.86-2.51-1.5-3.22-3.37-5.02-1.57-1.51-2.82-1.97-3.44-3.73-.17-.48-.28-1.34-.5-3.08Z"/>
  <path class="cls-3" d="M211.14,210.53c.14-.47.59-.79,2.76-1.46,3.51-1.08,5.29-1.6,6.52-.84.26.16.61.44,1.15.47.83.05,1.14-.53,1.92-.76,1.33-.4,1.89.84,3.45.76.97-.05.95-.54,3.07-1.63,1.74-.89,2.64-1.33,3.76-1.15.15.02,1.65.29,2.45,1.53.93,1.44-.2,2.43.54,4.6.53,1.56,1.3,1.61,1.46,2.99.17,1.53-.64,2.73-.77,2.91-1.2,1.72-3.33,1.99-3.99,2.07-1.6.2-1.93-.35-3.53,0-1.47.32-1.42.84-2.53,1-1.45.21-2.67-.53-4.83-1.84-1.94-1.18-1.92-1.55-3.3-2.07-1-.38-1.31-.3-2.89-.87-1.31-.47-1.96-.7-2.6-1.2-.96-.74-1.43-1.6-1.98-2.6-.54-.98-.8-1.47-.67-1.94Z"/>
  <path class="cls-3" d="M192.28,215.24c.81-1.98,3.79-2.26,4.51-2.33,2.67-.25,4.7.96,5.04,1.17,1.88,1.16,1.58,2.05,4.74,5.53,2.23,2.46,3.26,2.98,3.91,3.23,1.57.62,1.94.13,3.76.68,2.19.66,2.66,1.67,4.96,3.01.55.32,2.7,1.52,5.48,2.03,2.15.39,2.52-.02,8.43,0,2.76.01,2.58.1,3.16,0,3.87-.67,4.89-3.5,7.02-3.05.99.21,1.74,1.21,3.24,3.22,1.11,1.47,1.09,1.85,2.03,3.27.92,1.39,2.6,3.92,5.49,5.49,1.09.59.9.26,4.25,1.7,1.51.65,1.91.87,2.74.95,1.49.14,2.01-.42,3.09,0,.9.35.73.81,1.9,1.44,1.22.66,1.69.31,2.39.95.52.48,1.03,1.39.77,2.29-.22.76-.94,1.35-1.69,1.48-1.17.2-1.69-.86-3.66-1.62-1.4-.54-1.39-.09-3.13-.6-2.04-.59-2.36-1.29-4.61-2.11-1-.37-1.72-.51-2.99-.77-2.89-.59-4.15-.48-6.5-.77-3.64-.45-3.24-1.03-6.65-1.48-3.62-.47-3.66.24-7.42-.21-3.3-.39-6.07-1.28-7.35-1.69-1.27-.41-1.67-.61-4.78-1.65-2.65-.89-2.71-.87-3.45-1.16-2.55-1.02-2.58-1.63-5.38-3.13-3.02-1.61-3.78-1.33-6.89-3.2-.48-.29-1.08-.7-2.29-1.51-1.33-.9-3.62-2.48-6.43-4.71-2.56-2.03-3.36-2.85-3.72-4.15-.14-.48-.37-1.37,0-2.28Z"/>
  <path class="cls-3" d="M133.03,210.16c.5-1.16,2.01-1.49,2.95-1.69,1.7-.35,2.1.04,4.22,0,2.22-.04,3.94-.5,6.8-.3.42.03,1.1.09,1.2.42.14.43-.74,1.16-1.51,1.57-1.51.79-2.4.19-4.7.54-1.07.16-1.81.44-3.25.96-2.29.84-3.12,1.49-4.34,1.14-.23-.07-1.02-.3-1.39-1.02-.37-.74-.04-1.53,0-1.63Z"/>
  <path class="cls-2" d="M275.16,264.89c-3.86,1.26-3.75,4.92-9.26,7.68-1.84.92-2.35.76-4.26,1.92-.77.47-3.22,2.04-5.59,5.09-2.92,3.77-2.61,5.8-5.17,7.18-.48.26-.76.33-3.92.83-4.47.71-8.43,1.29-9.87,1.5-3.29.49-5.05.75-7.4,1.27-4.69,1.02-4.59,1.47-10.1,2.85-5.29,1.32-6.17,1.09-8.68,2.4-1.88.98-1.69,1.26-5.01,3.17-3.09,1.78-3.77,1.83-5.84,3.25-2.88,1.99-2.31,2.41-4.26,3.49-2.69,1.5-3.56.57-8.18,2.18-2.43.85-4.42,1.84-4.42,1.84-2.65,1.31-3.43,2.11-5.01,2.17-1.44.06-2.1-.55-4.01-1.42-4.2-1.92-5.44-.99-9.85-2.67-2.2-.84-1.48-.91-5.67-3-6.3-3.14-9.83-3.93-12.18-4.26-3.4-.47-4.57,0-5.09.25-.61.3-1.89,1.05-4.17,5.34-1.64,3.07-2.46,4.61-2.75,6.26-.58,3.2.7,5.97,3.25,11.52,1.81,3.92,3.27,7.04,6.34,10.43.42.46,2.11,2.3,5.17,4.59,6.18,4.61,8.31,3.84,16.36,8.43,5.88,3.35,6.73,4.89,11.6,6.59,2.18.76,3.24.88,6.26,2.09,4.48,1.79,5.2,2.74,7.84,3.25,3.85.75,7.1-.32,7.84-.58,4.07-1.43,4.27-3.62,9.43-6.18,1.75-.87,3.29-1.63,5.51-2,6.47-1.08,11.53,2.41,13.6,3.84,3.3,2.28,3.67,3.86,3.76,4.34.27,1.49-.36,2.7-1.59,4.84-2.96,5.13-4.44,7.7-6.76,10.43-1.63,1.92-3.33,3.89-6.09,5.93-1.87,1.38-3.35,2.45-5.59,3.09-3.13.89-5.77.38-7.76,0-1.76-.34-4.1-1.28-8.76-3.17-2.08-.84-3.13-1.26-3.92-1.67-3.09-1.57-3.33-2.33-6.59-4.17-2.18-1.23-4.31-2.15-5.51-2.67-2.49-1.08-2.86-1.07-4.09-1.84-1.67-1.05-1.83-1.61-4.01-3.09-1.65-1.13-2.47-1.69-3.42-1.84-2-.31-4.44.64-5.51,2.42-.88,1.46-.56,3,.33,6.43,1.43,5.46,2.14,8.2,3,10.43,2.19,5.71,3.29,8.56,5.34,11.68,3.34,5.08,7.05,8.12,9.1,9.76,4.41,3.55,8.26,5.31,13.27,7.61,2.02.92,3.86,1.67,6.18,2.24,1.12.28,3.37.82,6.34.92,2.53.08,2.48-.26,3.67,0,2.56.56,3.27,2.24,5.84,3.92,1.31.85,2.91,1.32,6.09,2.25,5.32,1.56,7.98,2.33,10.35,1.67,2.54-.71,4.31-2.45,6.43-4.51,2.83-2.76,3.22-4.42,5.42-5.01,1.6-.43,2.46.16,5.17.67,2.81.53,4.83.46,8.35.33,4.21-.15,9.76-.34,15.36-3.25,3.31-1.72,5.05-3.57,8.26-3.34,1.39.1,1.69.49,4.42.92.64.1,2.05.3,6.34.42,5.51.15,5.65-.11,7.43.25,3.26.67,3,1.6,5.51,2,1.19.19,2.58.19,9.93-2.25,5.4-1.8,5.83-2.19,7.68-2.25,2.99-.1,2.99.91,7.51,1.59,4.85.72,6.06-.25,10.01.83,1.88.52,2.81,1.07,4.92,2.09,3.71,1.78,9.97,4.8,16.86,6.09,4.58.86,4.06-.05,10.68,1,5.72.91,6.74,1.69,10.1,1.5,4.81-.26,8.36-2.17,10.01-3.09,4.39-2.43,6.96-5.53,8.01-6.93,1.95-2.6,3.83-5.09,3.84-8.6,0-3.18-1.52-5.89-1.92-6.59-1.47-2.6-2.55-2.65-3.25-4.84-.64-2,.03-2.69-.17-5.93-.19-3.16-.85-2.94-1.17-6.01-.47-4.55.93-5.7,0-9.43-.36-1.45-.47-.87-1.67-4.01-1.51-3.95-2.53-6.7-2.09-9.76.07-.47.24-1.44,1.59-4.26,3.29-6.89,6.05-9.03,10.1-16.61.99-1.84,1.63-3.23,1.84-3.67.95-2.05,3.08-6.96,4.26-12.27,1.68-7.62.92-14,.75-15.27-.26-2.03-2.28-16.42-2.67-20.45-.04-.41-.12-1.34.42-2.17,1.01-1.56,3.47-1.59,3.76-1.59,2.54,0,3.28,1.64,8.18,4.51,2.17,1.27,1.87.86,4.76,2.5,3.15,1.8,3.7,2.39,5.42,2.75,1.85.39,2.18-.11,3.92.5,1.27.44,1.98,1.01,3.25.92.75-.06,1.27-.31,1.84-.58.8-.39,2.86-1.39,3.42-3.51.33-1.25-.38-1.61,0-2.25.77-1.3,3.58.08,7.18-.83.63-.16,3.06-.81,4.92-2.84,2.46-2.67,2.61-6.3,2.67-7.68.16-3.89-1.24-6.3,0-7.26.52-.4,1.17-.3,2.08-.17,3.41.51,4.37,3.01,7.94,4.11,1.02.31,1.85.57,2.93.45,4.72-.52,7.62-7.49,8.56-11.49.1-.43.55-2.41.56-5.07,0-1.43-.11-4.45-1.91-9.61-2.27-6.5-3.46-9.91-6.59-12.98,0,0-2.13-2.09-4.9-7.29-.12-.23-.42-.8-.23-1.37.08-.24.43-1.07,2.88-1.53,2.5-.47,4.56-.06,4.88,0,3.13.61,5.66.21,10.22-.51,4.97-.78,7.76-1.22,9.29-3.44.44-.64.32-.76,1.58-7.9.58-3.28.89-4.91,2.28-5.95,1-.76,1.64-.5,3.21-.93,2.37-.65,2.65-1.7,8.41-6.92,2.45-2.22,3.47-3,4-4.74.47-1.55.3-3.02.23-3.53-.3-2.3-1.23-2.63-1.77-5.16-.28-1.33-.68-3.26.33-4.37.65-.71,1.48-.64,3.02-.93,1.11-.21,2.49-.77,5.25-1.91,2.87-1.18,5.07-2.67,8.5-5.02,7.28-4.99,5.59-4.97,10.92-8.41,3.15-2.04,5.51-3.19,6.32-5.9.12-.4.62-2.07,0-3.86-.67-1.92-1.9-1.89-3.81-4.46-1.77-2.39-1.44-3.39-2.74-3.95-1.74-.75-3.76.43-4.27-.42-.05-.08-.18-.33,0-.88.7-2.22,4.19-2.74,7.95-5.02,1.01-.61,1.96-1.4,3.86-2.97,3.12-2.59,6.06-5.03,8.74-8.83,2.16-3.06,4.37-6.21,4.38-10.57,0-2.45-.68-4.33-1.17-5.62-.91-2.42-2.64-4.57-6.06-8.76-3.37-4.13-2.3-2.4-5.18-5.91-2.09-2.55-3.03-3.93-4.96-4.38-.45-.1-2.24-.45-3.72.51-.5.33-.96.8-2.48,4.01-.97,2.04-.96,2.24-1.39,3.06-1.17,2.28-2.16,2.7-3.87,4.82-2.67,3.32-1.87,4.34-4.16,6.86-1.42,1.56-1.72,1.16-4.89,3.5-4.27,3.16-4.59,4.53-8.54,7.37-2.51,1.8-1.99.97-5.47,3.29-4.79,3.19-5.92,4.87-10.14,6.93-1.09.53-.63.23-3.79,1.61-5.21,2.26-6.18,2.95-8.39,3.87-3.61,1.49-3.04.49-11.94,2.74-4.38,1.11-5.87,1.69-9.59,2.31-2.39.4-5.31.75-5.51.77-.16.02-2.78.33-5.22.51-5.8.44-7.94,0-13.04.21-3.29.13-5.6.45-8.91.9-6.09.83-10.88,1.51-16.76,3.8-1.28.5-2.79,1.1-4.71,2.11-6.47,3.44-10.33,7.86-11.33,9.05-1.78,2.11-6.94,8.24-8,16.99-.65,5.37.76,7.47-.37,16.06-.21,1.62-.52,3.86-1.27,6.76-.94,3.63-2.58,8.32-5.58,13.27-2.63,4.34-3.94,6.51-6.01,7.62-2.08,1.11-4.24,1.28-5.58,3.43-.61.97-.95,2.2-2.07,2.51-.59.16-1.36.06-1.9-.36-.9-.7-.7-1.89-1.11-1.94-.31-.04-.64.64-1.54,2.81-.89,2.14-.8,2.04-1.07,2.61-1.09,2.3-1.86,2.45-2.18,3.72-.38,1.53.35,2.92.91,4,1.82,3.48,5.32,5.05,7.64,6.06,2.6,1.13,2.93.75,5.15,1.62,3.37,1.32,5.47,3.42,9.54,7.56,4.79,4.88,7.19,7.38,7.3,10.36.07,1.8-.54,2.76.06,4.87.32,1.15.75,1.76,3.21,5.16,2.97,4.11,3.24,4.46,3.64,5.31.79,1.7,1.07,3.26,1.28,5.97.45,5.62-.04,7.74,0,13.18.03,3.76.05,6.65.58,10.6.61,4.57,1.43,7.05,0,9.84-.9,1.77-1.57,1.42-2.86,3.72-1.56,2.78-1.11,4.21-2.4,7.17-.88,2.03-1.86,3.11-3.19,4.81-3.6,4.59-8.16,10.4-9.46,17.11-.46,2.39-.91,4.93-.05,7.91,1.05,3.63,2.03,6,2.03,6,.42,1.02.96,2.2.75,3.74-.03.23-.18,1.24-.9,2.37-.77,1.21-1.59,1.63-3.63,2.98-3.94,2.61-4.39,3.38-4.6,3.99-.34,1-.14,1.88.14,3.02.58,2.36,1.6,3.51,4.74,7.8,3.23,4.41,3.18,4.58,4.06,5.21,1.03.74,2.39,1.42,4.06,3.13,1.14,1.16,1.41,1.76,1.51,2.01.75,1.85.05,3.69-.29,4.6-.19.5-1.02,2.58-3.52,4.56-.65.51-3.5,2.68-8.98,3.27-2.02.22-2.65.03-9.52-.72-7.46-.81-11.2-1.22-11.89-1.19-2.32.11-4.67.44-7.58-.68-.28-.11-1.15-.46-3.19-1.76-3.28-2.1-4.43-3.38-7.12-5.46-3.04-2.34-4.86-3.74-7.69-4.81-1.25-.47-3.8-1.41-7.19-1.33-4.04.1-7.11,1.61-8.19,2.16-2.91,1.47-3.34,2.59-6.2,3.45-1.95.59-3.53.6-4.78.61-1.56,0-5.36-.03-9.2-2.12-1.22-.66-3.01-2.2-6.59-5.28-.3-.25-1.93-1.27-5.2-3.29-.58-.36-1.33-.81-2.19-.65-1.1.21-1.72,1.29-2.2,2.07,0,0-1.84,3.05-4.92,6.83-.69.85-1.86,2.29-3.62,3.58-2.46,1.81-4.78,2.35-7.64,3.01-3.03.7-6.96,1.61-9.14-.11-.29-.23-.94-.74-1.31-1.63-.15-.36-.27-.83-.2-2.99.07-1.9.19-2.33-.15-2.85-.42-.64-1.17-.84-1.81-.99-3.76-.91-5.65-1.37-6.38-1.24-3.28.57-5.17,3.04-5.67,3.69-.92,1.2-.78,1.59-1.84,3.79-.34.71-2.05,4.19-5.21,7.58-2.02,2.17-3.19,3.43-5.28,4.02-.71.2-2.74.77-4.86,0-1.54-.55-2.2-1.47-4.29-1.91-.93-.19-1.59-.18-2.03-.19-2.47-.06-3.91-1.09-8.65-3.21-6.45-2.9-7.53-2.69-8.08-2.53-1.27.37-2.17,1.19-3.83,1-1.15-.14-1.94-.68-2.68-1.19-1.84-1.25-3.83-2.29-5.63-3.6-3.87-2.83-4.15-2.15-7.96-4.82-2.31-1.62-4.53-3.17-6.77-5.89,0,0-4.01-4.86-4.1-9.84-.01-.74.08-1.55.61-2.18.45-.54,1.22-.96,2.95-1.07,2.89-.18,5.2.72,5.78.96,3.39,1.37,3.76,2.58,7.92,4.82,1.1.59,2.18,1.06,4.32,1.99,3.81,1.65,6.32,2.74,9.3,3.52,3.09.81,5.88,1.54,9.3,1.11,4.47-.57,7.47-2.81,10.55-5.1,3.39-2.53,7.5-5.48,9.68-10.56,1.16-2.71,2.47-5.35,3.6-8.08.29-.7.78-1.9,1.88-3.15.57-.64,1.3-1.21,2.75-2.33,2.06-1.59,2.48-1.73,3.09-2.51.78-.99,1.04-1.96,1.3-2.87.69-2.44.08-3.2.61-5.26.3-1.2.89-2.1,2.06-3.9,1.31-2.02,2.51-3.29,3.96-4.84,2.17-2.31,3.11-2.87,3.54-3.12.63-.36,1.71-.95,3.12-1.15.97-.14,2.24-.11,5.84,1.39,1.72.72,3.74,1.58,6.47,3.3,3.16,1.99,2.94,2.4,5.23,3.63,1.37.73,3.84,2.03,7.02,2.28,2.74.22,4.74-.44,7.65-1.43,1.25-.42,2.05-.77,10.23-4.87,3.14-1.58,5.15-2.6,8.2-3.21,1.13-.23,2.43-.48,4.08-.39,3.29.17,5.6,1.56,7.56,2.66,5.54,3.12,3.62,1.33,11.41,5.57,5.87,3.19,8.8,4.79,11.56,7.2,3.63,3.18,5.44,4.76,6.35,7.32.22.61.67,2.09,1.94,3.57.66.78,1.7,1.99,3.39,2.3,1.5.27,2.7-.31,3.69-.79,1.02-.49,2.62-1.27,3.18-2.87.32-.91.23-1.9-.21-3.12-1.05-2.87-3.25-4.55-7.68-8.02-5.56-4.34-6.14-4.85-8.14-6.23-4.56-3.16-6.23-3.79-7.29-4.11-.55-.17-1.3-.36-2.36-.82-2.06-.88-3.38-1.93-4.51-2.81-4.27-3.34-6.44-5.03-8.08-5.66-1.35-.52-2.42-.71-4.45-1.06-.88-.15-3.86-.67-6.75-.57-4.52.15-7.91,1.8-12.56,4.05-4.12,2-6.18,3-7.02,3.58-1.3.9-3.26,2.42-5.49,2.32-.46-.02-1.31-.13-1.97-.23-1-.16-1.9-.36-2.85-.7-1.43-.51-1.73-.88-1.88-1.18-.05-.11-.26-.55-.09-.97.19-.49.68-.41,1.04-.97.32-.5.25-1.08.23-1.27-.02-.19-.08-.67-.39-1.02-.47-.52-1.24-.44-1.88-.46-1.31-.06-2.26-.59-3.29-1.16-1.58-.88-1.49-1.6-3.59-3.06-.54-.37-.66-.41-1.78-1.07-1.79-1.05-3.65-2.14-5.26-3.38-1.38-1.06-2.2-1.95-3.82-3.71-1.7-1.83-2.68-2.89-3.73-4.59-1.35-2.16-1.99-4.04-2.39-5.21-.83-2.48-1.25-3.71-1.2-5.28.02-.61.09-.89,2.06-7.29.48-1.56.63-2.04.71-2.85.2-1.93-.28-2.7.04-4.2.11-.51.36-1.35,1.46-2.85,1.65-2.24,3.17-3.2,6.19-5.59,2.79-2.21,4.19-3.31,5.37-4.58,2.03-2.19,2.1-2.96,4.02-4.62,1.53-1.33,2.89-2.04,4.73-3,5-2.6,7.42-2.65,7.43-3.53.02-1.22-4.66-3.63-8.65-2.32Z"/>
  <path class="cls-3" d="M192.23,322.03c1.94-1.03,4.55-3.26,5.84-6.87,1.03-2.86.26-3.89,1.64-5.64.97-1.23,1.65-1.11,3.79-2.56,3.35-2.28,3.01-3.48,5.33-4.82,2.11-1.22,2.81-.46,7.69-1.33,3.52-.63,3.46-1.08,8-2.15,4.86-1.15,7.29-1.73,9.64-1.44.81.1,7.36,1.01,9.74,5.64,1.19,2.32-.08,2.81,1.02,8.3.79,3.91,1.21,6.01,2.97,7.89,1.6,1.71,3.01,1.86,4.1,4,.34.67,1.17,2.29.72,4-.54,2.06-2.36,1.99-5.23,4.72-2.99,2.84-2.85,4.65-5.02,5.23-2.11.56-4.16-.65-4.61-.92-2.1-1.25-1.79-2.56-4.2-4.61-1.22-1.04-2.8-2.37-4.72-2.26-1.7.11-2.88,1.31-4.82,3.28-2.75,2.8-2.68,4.05-4.41,4.66-.63.22-1.17.24-5.23-.66-5.4-1.2-5.52-1.48-6.56-1.33-1.09.15-1.85.58-6.46,4.92-4.54,4.28-5.24,5.23-7.18,5.84-2.02.64-3.68.37-5.95,0-3.44-.56-6.03-1.9-10.56-4.31-1.49-.79-1.22-.7-3.49-1.95-5.51-3.03-9.93-5.12-11.48-5.84-6.2-2.89-5.74-2.21-8.2-3.69-3.71-2.24-6-4.54-7.79-6.36-2.43-2.47-3.68-3.78-4.41-6.05-.36-1.14-1.13-3.54,0-5.95,1.42-3.02,4.81-3.86,5.43-4,2.22-.5,3.79.11,9.74,2.36,5.94,2.25,8.9,3.37,8.41,3.18,11.21,4.36,11.06,4.23,11.89,4.72,1.32.77,3.64,1.88,8.3,4.1.55.26,1.78.83,3.37.72.54-.04,1.44-.17,2.68-.83Z"/>
  <path class="cls-3" d="M373.42,231.14c.29-.49,1.77.49,3.22,0,1.43-.48,1.84-2.04,2.6-3.47,1.6-3.01,3.34-2.78,6.19-5.7,1.67-1.7,1.7-2.43,5.45-9.65,3.14-6.05,3.31-5.92,4.09-7.64,2.8-6.17,1.84-10.62,2.11-17.76.3-8.03.76-20.25,8.42-28.11,2.91-2.98,5.9-4.3,11.89-6.94,9.73-4.28,18.35-5.02,21.3-5.2,4.85-.29,4.85.31,11.15,0,3.95-.19,7.74-.61,14.98-1.86,15.25-2.63,22.88-3.94,30.59-7.55,2.32-1.09,4.89-2.62,10.03-5.7,12.15-7.26,18.39-12.34,20.93-14.49,4.66-3.94,6.98-5.91,8.17-8.05.91-1.64,1.47-3.25,3.22-4.09,1.17-.56,1.8-.26,6.44,0,3.76.21,4.41.08,5.2.74,1.62,1.35,1.44,4.01,1.36,5.08-.06.92-.48,5.46-6.1,10.77-3.43,3.24-4.68,2.88-11.36,7.43-6.12,4.17-4.85,4.32-8.42,6.32-7.01,3.91-8.7,1.53-15.98,5.57-2.01,1.12-4.07,2.51-7.18,2.6-2.05.06-2.47-.51-5.2-.62-2.98-.12-5.6-.22-7.55,1.49-2.06,1.8-2.95,5.21-1.86,7.8,1.44,3.42,5.79,4.2,7.93,4.58,7.43,1.33,14.46-1.98,20.06-4.71,5.86-2.85,8.66-5.29,12.51-4.21,1.66.46,4.15,1.76,4.33,3.59.14,1.44-1.19,2.65-2.11,3.47-5.27,4.68-7.91,7.02-10.4,8.3-6.39,3.26-14.02,7.16-22.29,5.47,0,0-6.21-1.27-11.27,0-.64.16-1.81.5-2.5,1.54-.86,1.29-.62,3.15.16,4.38.68,1.07,1.71,1.56,2.92,2.03,4.07,1.59,5.46,1.16,8.7,2.28,2.24.77,5.22,1.8,6.17,4.39.47,1.28.26,2.46.17,2.87-.86,3.82-6,5.48-7.86,6.08-1.59.52-6.31,2.04-10.99.08-2.67-1.12-3.1-2.45-7.01-3.89-3.51-1.29-4.92-.87-5.58-.59-1.47.62-3,2.17-2.96,3.89.05,1.94,2.08,3.21,3.55,4.14,2.98,1.88,4.27,1.04,7.27,2.87,1.37.84,3.24,1.98,3.97,4.23.53,1.63.57,4.17-.87,5.59-2.02,1.99-5.94.82-9.33-.19-4.76-1.42-8.27-3.66-8.27-3.66-2.52-1.6-4.08-3.14-6.44-2.89-1.1.12-1.76.56-2.65.17-.94-.41-1.39-1.41-2.05-3.77-1.2-4.3-1.56-7.68-1.58-7.87-.4-3.88-.02-3.62-.43-5.14-.33-1.24-1.32-4.91-4.58-6.46-.6-.29-2.94-1.4-5.18-.26-2.23,1.14-2.68,3.65-2.74,3.98-.35,2.1.64,3.78,1.84,5.73,2.6,4.25,4.58,4.29,6.42,7.96,1.06,2.12.52,2.34,1.58,5.14,1.37,3.58,3.04,5.26,5.51,8.54,1.02,1.36.12.25,7.53,11.88,2.06,3.24,4.04,6.52,6.13,9.74,2.38,3.67,3.97,6,5.05,9.74.66,2.31.83,4.12.84,5.53.01,1.9,0,4.76-1.77,7.39-.67.99-1.69,2.51-3.3,2.71-1.08.13-1.94-.39-4.25-2.22-3.72-2.94-5.58-4.41-6.83-6.06-.66-.88-1.51-2.48-3.21-5.69-1.93-3.64-2.13-4.34-3.39-6.57-1.87-3.31-2.04-2.84-3.84-5.92-2.95-5.03-2.19-5.72-5.2-11.22-.62-1.14-1.08-1.88-1.22-3.08-.28-2.35,1-3.46.36-5.43-.09-.29-.57-1.76-1.76-2.22-2.1-.8-4.88,2.12-6.06,3.8-.63.89-1.85,2.64-1.76,4.93.07,1.86.96,2.9,2.17,5.02,1.28,2.24.84,2.06,3.12,7.24,1.35,3.07,3.24,7.37,6.02,12.21,3.13,5.47,3.94,5.62,5.23,9.12.73,1.99.24,1.33,1.94,7.92,1.33,5.16,1.91,6.66,1.15,8.71-.14.38-1.21,3.16-3.47,3.73-1.56.39-2.17-.65-6.06-1.56-2.61-.61-2.95-.28-3.86-.92-1.61-1.13-1.32-2.71-2.48-5.48-.86-2.05-2.23-3.66-4.96-6.86-3-3.52-3.96-3.79-4.27-5.59-.29-1.7.39-2.4-.17-4.79-.3-1.25-.61-2.58-1.73-3.35-1.1-.75-2.04-.32-2.65-1.15-.41-.56-.17-1.02-.23-2.48-.06-1.46-.12-2.83-.87-3.75-.94-1.15-2.84-1.46-4.27-1.04-2.67.79-3.52,4.08-3.63,4.56-.26,1.07-.62,3.65,3.75,10.9,2.25,3.73,2.16,2.74,5.42,7.79,5.26,8.13,4.11,8.55,6.34,10.84.4.41,1.49,1.47,1.56,2.97.07,1.54-.99,2.63-1.04,2.68-.11.11-.98.95-2.25,1.04-1.93.13-2.89-1.59-5.83-3.58-1.61-1.09-2.93-1.66-4.15-2.19-3.79-1.64-4.94-1.13-8.36-2.77-1.76-.84-2.67-1.27-3.7-2.25-2.25-2.12-2.11-4-4.43-7.04-1.01-1.32-1.02-.95-3.11-3.16-3.86-4.09-4.04-5.6-7.73-9.35-.31-.32-1.28-1.21-3.23-3-4.11-3.78-6.17-5.67-6.86-6.06-.34-.19-1.8-.98-3.22-2.5-.44-.47-1.36-1.46-1.11-1.88Z"/>
  <path d="M313.08,131.17c.16-.21.68-.2,1.02,0,.07.04.44.25.45.64,0,.38-.34.61-.4.64-.36.23-.91.22-1.08,0-.09-.12,0-.19,0-.63,0-.45-.09-.54,0-.65Z"/>
  <path d="M267.81,301.07c.35-1.39,1.34-5.25,4.96-7.04,3.5-1.72,7.01-.29,7.73,0,4.76,1.94,6.2,6.77,6.46,7.73,1.26,4.66-.76,8.45-1.38,9.57-.37.66-3.99,7-8.88,6.46-2.6-.29-4.25-2.38-5.65-4.15-.72-.91-4.86-6.16-3.23-12.57Z"/>
  <path d="M441.86,164.12c.84-2.01,3.22-2.6,3.69-2.71,1.64-.36,3.69.35,7.71,1.8,1.25.45,2.14.81,3.69,1.23,2.04.55,3.08.82,4.18.57,1.41-.31,1.74-1.03,3.04-.98.67.02,1.93.27,2.21,1.02.44,1.16-1.57,3.17-3.53,4.23-1.75.95-2.27.5-4.92,1.48-2.96,1.09-2.76,1.82-4.76,2.3-3.23.78-6.07-.56-6.89-.98-.94-.49-2.97-1.54-4.02-3.86-.34-.76-1.11-2.43-.41-4.1Z"/>
  <path d="M406.01,177.16c1.82-2.24,3.48-4.28,6.32-6.07,1.92-1.21,3.61-2.28,6.07-2.46,1.16-.08,3.1.49,6.97,1.64,2.65.79,3.56,1.18,4.1,2.13.55.96.75,2.51,0,3.28-1.05,1.08-2.91-.5-6.07.08-2.14.4-3.59,1.55-4.43,2.22-2.44,1.94-3.49,4.35-4.1,5.74-.31.7-.75,1.95-1.64,4.43-.8,2.24-.9,2.64-1.39,3.12-1.43,1.4-3.91,1.31-5.5.82-2.21-.69-4-2.56-4.51-4.76-.47-2.03.29-3.69,1.23-5.74.82-1.79,1.73-2.93,2.95-4.43Z"/>
  <path d="M391.94,217.99c0-1.01-.01-3.33,1.68-4.7,1.53-1.24,3.51-.95,3.69-.92,2.52.41,2.52,2.56,5.87,4.53,2.16,1.27,4.23,1.59,5.87,1.85,2.04.32,3.06.47,3.94,0,1.98-1.06,1.34-3.54,3.52-4.78.11-.06,1.8-.99,3.27-.25,1.03.52,1.74,1.76,1.76,2.94.04,1.92-1.76,2.62-5.79,7.3-1.34,1.56-1.21,1.57-1.93,2.27-1.1,1.07-3.22,3.15-6.54,3.89-4.24.95-7.7-.89-8.56-1.37-3.04-1.73-4.4-4.24-5.29-5.87-.72-1.34-1.5-2.81-1.51-4.87Z"/>
  <path d="M533.93,113.18c.46-.72,1.84-2.85,4.47-3.25.48-.07,2.46-.3,4.23,1.04.38.29,2,1.52,2.02,3.25.02,1.65-1.44,1.96-2.08,4.72-.21.9-.14,1.22-.49,1.84-.56.98-1.63,1.75-2.79,1.96-2.32.43-4.15-1.51-4.75-2.14-.51-.54-1.6-1.69-1.78-3.49-.18-1.83.7-3.19,1.16-3.92Z"/>
</svg>