<svg width="1382" height="832" viewBox="0 0 1382 832" fill="none" xmlns="http://www.w3.org/2000/svg">
<g clip-path="url(#clip0_743_2078)">
<path d="M776.983 500.867C778.862 502.692 780.794 501.297 786.001 503.497C789.007 504.767 789.472 505.715 792.89 507.629C796.451 509.633 799.332 510.527 802.928 511.636C810.604 514.015 816.455 515.804 823.487 515.017C825.939 514.749 830.304 512.996 839 509.507C843.635 507.647 848.681 505.608 855.086 502.37C861.564 499.078 861.009 498.828 865.947 496.485C875.216 492.066 877.506 492.8 881.657 489.848C883.16 488.775 886.471 486.109 891.069 475.555C893.449 470.081 895.453 464.16 899.336 445.216C901.894 432.802 903.165 426.594 904.095 418.652C904.596 414.341 904.525 413.84 905.724 395.343C906.743 379.691 907.244 371.874 907.728 366.382C909.266 349.209 909.928 349.996 909.982 342.322C910.018 336.794 909.732 326.347 906.35 314.112C904.221 306.438 902.342 303.325 901.34 301.822C899.962 299.747 895.739 293.594 887.544 290.159C885.343 289.229 882.767 288.799 877.649 287.905C872.675 287.029 868.703 286.331 863.711 286.277C857.609 286.206 853.315 287.154 845.281 288.907C840.432 289.962 836.979 290.731 832.487 292.628C830.108 293.629 826.851 295.025 823.201 297.672C818.28 301.25 815.185 305.257 813.664 307.457C809.62 313.307 805.934 318.637 804.252 321.75C804.037 322.161 803.375 323.396 802.123 323.754C801.371 323.968 800.477 323.861 799.868 323.503C797.954 322.394 798.92 318.942 798.115 313.593C797.99 312.77 797.023 306.455 795.485 306.33C793.803 306.187 790.797 311.893 790.761 317.743C790.743 321.231 791.781 322.161 791.852 327.313C791.906 330.927 791.405 330.766 791.369 334.254C791.315 340.175 792.783 341.875 793.105 347.921C793.284 351.177 792.98 352.876 792.711 356.096C791.96 365.648 793.194 368.511 793.481 380.549C793.642 387.097 793.391 391.64 792.908 400.728C792.55 407.382 792.21 413.911 791.172 422.247C790.117 430.762 788.793 437.345 786.162 450.171C783.765 461.853 782.673 467.72 781.635 470.976C780.383 474.857 778.576 479.705 776.912 487.29C774.854 496.699 775.391 499.383 776.912 500.867H776.983Z" fill="black"/>
<path d="M540.562 678.536C541.869 683.187 542.996 684.314 546.807 692.864C549.366 698.606 551.942 704.957 554.573 709.393C557.274 713.973 558.205 714.563 563.179 722.201C565.648 725.994 568.243 728.158 569.585 732.577C570.336 735.063 571.213 738.122 569.585 740.734C567.527 744.025 563.018 744.133 562.499 744.133C559.01 744.168 556.612 742.147 554.913 740.734C554 739.983 550.779 737.21 549.509 732.577C548.578 729.16 549.652 728.122 548.668 723.561C548.149 721.146 547.415 719.375 546.646 717.658C543.479 710.538 541.886 706.978 537.699 700.127C534.192 694.385 531.938 688.195 527.411 675.852C521.005 658.375 522.902 657.445 517.462 645.836C512.524 635.317 510.073 630.058 508.355 627.625C506.351 624.781 504.222 622.241 503.47 618.019C502.844 614.549 503.22 610.416 503.47 607.733C503.792 604.263 504.078 604.281 504.15 602.51C504.347 597.411 502.092 595.032 499.927 589.362C497.351 582.6 499.086 582.135 496.545 574.532C494.846 569.452 493.378 567.573 490.981 562.726C487.617 555.928 487.259 553.048 483.394 541.152C477.865 524.194 477.239 525.911 473.785 514.337C472.909 511.386 469.921 501.136 467.72 487.362C466.36 478.9 464.839 469.402 465 457.488C465.215 442.122 468.131 430.87 470.905 420.226C475.467 402.624 481.533 388.76 486.078 379.584C488.834 374.038 496.617 359.012 510.198 341.821C522.204 326.634 532.958 317.045 543.765 307.421C557.722 294.989 568.404 287.476 578.675 280.267C592.971 270.267 599.663 266.868 607.017 264.418C613.333 262.307 620.652 259.767 630.457 260.196C634.358 260.375 651.839 261.126 663.505 273.845C666.243 276.814 676.12 287.583 676.156 298.459C676.156 300.016 675.977 305.042 678.589 306.402C680.021 307.135 681.703 306.491 682.365 306.241C685.639 304.989 686.784 301.912 689.987 295.973C691.49 293.164 693.226 290.499 694.782 287.726C695.695 286.098 704.033 271.555 719.26 265.956C726.024 263.469 731.678 263.666 736.724 263.845C755.207 264.489 768.377 273.576 773.351 277.458C776.554 279.963 780.92 285.472 789.759 296.366C792.675 299.98 794.912 302.878 796.54 307.314C797.739 310.588 798.258 313.772 798.562 321.374C798.848 328.852 799.009 332.591 798.562 338.44C797.363 354.468 798.92 378.832 798.562 398.277C798.562 398.277 797.542 454.304 778.236 511.225C778.057 511.744 772.993 526.663 769.11 543.406C768.269 547.055 767.214 551.617 766.211 557.788C764.887 565.946 765.084 567.985 763.957 574.604C763.223 578.879 762.114 585.301 759.537 592.367C755.619 603.064 752.953 602.528 748.819 613.046C748.175 614.692 747.907 615.568 743.469 633.814C740.589 645.639 739.157 651.578 738.871 653.17C735.811 669.931 738.692 669.645 735.579 678.822C732.805 687.033 728.922 691.952 728.922 698.928C728.922 700.896 729.227 703.436 728.296 706.978C727.813 708.785 727.133 710.413 726.632 713.561C726.203 716.245 726.346 717.175 726.417 717.532C726.918 720.091 728.404 720.466 728.296 722.237C728.26 722.792 728.099 722.988 725.576 726.423C723.733 728.927 723.465 729.303 722.749 729.554C721.461 730.019 719.743 729.697 718.67 728.713C716.952 727.139 717.775 724.634 717.632 720.144C717.471 715.296 716.379 714.796 716.057 710.842C715.664 705.905 717.024 702.524 718.562 697.784C719.278 695.583 720.853 689.036 724.002 675.942C726.65 664.887 725.916 665.549 728.493 654.726C730.676 645.531 732.734 638.626 734.559 632.58C737.457 622.902 737.941 622.312 742.718 607.608C744.346 602.581 747.048 593.78 752.434 576.16C756.943 561.456 757.372 559.881 757.873 556.733C758.786 550.973 758.768 547.163 760.897 540.544C762.454 535.696 763.098 535.786 764.351 531.242C766.015 525.178 765.371 523.264 766.856 516.412C767.804 512.03 768.037 512.96 769.987 505.858C772.152 497.934 771.937 496.538 774.067 488.936C775.409 484.142 776.088 481.745 777.305 478.793C780.526 471.047 783.013 469.724 785.357 463.641C787.128 459.026 787.218 455.878 787.755 450.798C789.186 437.524 791.029 436.719 793.391 422.176C794.805 413.446 796.54 402.785 795.932 389.082C795.556 380.514 794.483 376.006 793.892 362.339C793.803 360.175 793.659 356.454 793.194 351.302C792.55 343.968 792.121 343.574 791.673 338.172C790.868 328.691 792.013 328.065 790.993 320.015C790.457 315.793 790.009 312.377 788.292 308.101C787.504 306.151 786.037 303.611 783.138 298.585C780.061 293.254 778.522 290.606 777.287 289.068C776.393 287.959 773.154 284.023 767.697 280.374C764.923 278.532 762.83 277.566 758.84 275.759C753.454 273.308 750.394 271.931 746.046 271.001C744.615 270.696 739.229 269.623 732.143 270.41C726.829 270.983 720.853 271.644 715.485 275.759C714.733 276.331 712.407 278.997 707.755 284.31C703.514 289.139 702.065 291.036 701.063 292.413C698.361 296.116 696.608 299.157 696.089 300.069C693.709 304.237 689.683 311.339 688.502 319.174C688.108 321.786 688.18 323.521 687.16 326.562C686.516 328.494 685.836 329.71 685.8 331.66C685.764 333.825 686.534 334.916 686.999 336.472C688.484 341.571 685.603 348.082 681.345 351.159C680.164 352.017 678.178 353.448 676.174 352.912C674.349 352.411 672.846 350.372 671.414 344.343C669.84 337.617 670.072 333.217 669.857 327.922C669.589 320.999 668.694 316.133 666.959 306.742C665.581 299.229 664.883 295.472 663.237 291.358C661.376 286.689 658.907 280.499 653.217 275.759C646.4 270.088 638.58 269.516 631.942 269.051C619.453 268.156 609.773 271.823 603.939 274.113C598.464 276.26 594.152 278.854 585.545 284.023C579.945 287.386 572.877 291.68 564.467 298.066C554.716 305.489 548.203 311.911 539.775 320.265C532.296 327.707 527.483 332.483 521.596 339.585C509.589 354.075 502.557 366.829 497.941 375.326C493.414 383.626 487.939 393.805 483.072 408.277C478.688 421.282 476.935 431.371 476.452 434.304C475.897 437.703 474.501 446.844 474.394 458.883C474.358 462.926 474.376 475.984 477.489 492.871C478.062 495.948 480.764 510.151 487.402 527.789C491.07 537.521 492.036 537.968 496.796 550.83C500.715 561.42 502.683 566.733 504.848 574.174C506.709 580.578 507.031 582.671 508.981 586.982C512.13 593.941 516.085 599.129 518.178 601.651C522.15 606.445 522.526 605.551 525.622 609.611C530.381 615.837 532.439 621.811 533.584 625.21C534.622 628.305 535.892 632.169 536.268 637.392C536.626 642.365 535.731 642.276 535.552 650.612C535.391 657.427 535.32 660.844 536.59 665.173C537.037 666.693 537.574 668.071 538.862 672.4C539.811 675.548 540.348 677.588 540.616 678.5L540.562 678.536Z" fill="black"/>
<path d="M800.173 334.469C801.604 333.932 802.284 334.469 802.284 334.469C802.785 334.862 802.803 335.667 802.803 335.811C802.839 336.794 802.23 337.17 802.391 337.564C802.66 338.226 804.825 338.369 806.542 337.564C808.529 336.633 809.423 334.666 809.996 333.36C813.002 326.473 814.505 323.038 814.559 322.895C816.867 316.795 820.07 312.609 821.412 310.91C824.364 307.117 827.28 303.379 832.416 301.089C834.903 299.98 838.499 299.3 845.692 297.923C848.394 297.404 848.144 297.511 851.025 296.993C863.407 294.703 863.442 293.54 867.039 293.916C871.101 294.327 870.743 295.776 878.741 297.619C882.659 298.513 883.107 298.245 885.021 298.853C891.355 300.839 894.988 306.366 896.598 308.835C901.393 316.133 901.716 323.36 902.27 335.202C902.557 341.499 903.058 352.375 900.785 362.303C900.391 364.003 899.658 366.865 899.55 370.89C899.407 376.292 900.606 377.043 900.535 382.267C900.481 386.453 899.712 386.918 898.924 393.716C898.423 398.098 898.387 401.157 898.316 403.196C897.922 414.484 895.542 427.99 895.113 430.423C891.248 452.372 886.399 457.935 885.003 469.044C884.86 470.117 884.52 473.248 882.659 476.736C882.105 477.791 880.298 480.94 876.683 483.659C874.25 485.501 872.085 486.324 869.097 487.451C865.142 488.954 864.086 488.775 860.937 489.92C857.77 491.082 856.661 492.048 852.027 494.857C850.506 495.769 846.014 498.148 837.032 502.907C830.465 506.377 828.909 507.146 826.207 507.558C824.865 507.755 824.096 507.737 817.099 507.075C804.252 505.876 803.161 505.59 801.64 504.696C797.202 502.138 794.143 499.186 794.143 499.186C792.604 497.701 791.584 496.431 789.777 496.252C788.184 496.091 787.111 496.914 785.411 496.252C785.196 496.163 784.087 495.716 783.514 494.839C782.226 492.853 784.266 489.598 785.608 486.861C786.037 485.984 787.128 481.816 789.311 473.48C790.421 469.205 791.137 465.985 792.532 459.527C793.176 456.54 793.856 453.32 795.467 445.306C798.115 432.086 799.457 425.396 799.833 422.158C800.298 418.187 800.441 415.164 800.548 404.413C800.727 387.025 800.799 378.331 800.548 373.019C799.797 357.634 797.328 335.542 800.19 334.469H800.173Z" fill="#AFD66F"/>
<path d="M568.833 741.682C567.831 740.18 570.193 738.23 570.122 734.491C570.05 731.522 568.475 729.429 566.668 726.978C563.752 723.025 557.435 714.456 553.696 707.819C553.177 706.889 551.871 704.098 549.294 698.499C544.552 688.231 542.173 683.097 541.099 680.217C537.914 671.685 535.141 664.261 535.445 654.619C535.66 648.161 537.127 644.87 536.196 636.802C535.982 634.96 535.445 631.078 533.96 626.409C531.043 617.232 526.391 610.917 521.649 604.621C515.566 596.517 514.725 597.412 511.522 592.009C508.051 586.142 507.12 581.867 504.83 574.175C502.468 566.232 500.375 560.579 496.188 549.292C489.657 531.654 487.832 530.813 483.931 517.987C481.605 510.348 480.299 504.213 479.046 498.256C477.078 489.025 475.628 482.21 474.841 472.926C474.483 468.722 473.839 458.901 474.949 446.308C475.324 442.104 476.398 431.818 479.815 418.867C484.7 400.388 491.517 387.329 496.671 377.616C502.486 366.65 511.092 352.429 523.618 337.17C534.264 324.541 544.552 314.774 553.016 307.547C564.879 297.404 574.613 290.982 581.054 286.743C594.546 277.888 600.898 275.294 603.367 274.328C609.075 272.11 616.948 269.105 627.523 268.926C634.912 268.783 642.052 268.657 649.263 273.076C658.442 278.711 662.038 288.263 663.47 292.02C664.561 294.918 665.331 298.71 666.851 306.277C668.122 312.591 668.838 316.151 669.303 321.124C669.875 327.117 670.305 337.546 670.358 338.566C670.358 338.566 670.537 342.698 672.577 348.458C673.4 350.783 674.044 351.91 675.225 352.519C677.856 353.896 681.255 351.678 681.81 351.32C684.566 349.531 685.496 346.705 686.015 345.22C687.303 341.481 686.838 337.922 686.462 335.024C686.122 332.466 685.836 332.591 685.818 331.034C685.8 327.832 686.999 326.222 688.037 322.859C689.021 319.604 688.985 317.564 689.236 315.615C690.363 306.939 697.806 297.011 704.409 288.209C712.568 277.333 715.986 275.24 717.525 274.382C722.857 271.412 727.759 270.858 731.302 270.518C746.654 268.979 758.786 275.366 762.311 277.369C775.015 284.614 781.063 294.953 783.8 299.765C786.484 304.488 791.709 313.683 791.816 325.06C791.852 328.154 791.494 331.822 791.816 339.156C792.103 345.578 792.479 345.22 792.675 350.837C792.962 358.851 792.246 360.765 792.675 368.69C792.908 372.75 793.141 373.269 793.463 377.115C793.91 382.625 793.856 387.419 793.069 399.315C792.264 411.515 791.87 417.615 791.083 423.625C789.705 434.251 789.329 431.747 785.948 451.692C783.55 465.806 783.675 467.506 781.582 471.441C780.114 474.196 777.466 478.221 775.212 484.965C774.478 487.129 774.067 488.775 773.548 490.922C771.293 500.098 771.078 502.102 768.949 510.867C767.267 517.79 766.712 519.114 765.621 524.641C764.834 528.666 764.959 528.863 764.351 531.278C762.758 537.664 761.13 539.364 759.859 544.229C758.768 548.451 759.018 550.884 758.804 554.569C758.374 561.975 756.657 563.781 752.219 578.504C748.086 592.17 749.052 592.349 745.223 603.852C742.7 611.472 742.199 611.615 739.444 619.665C736.205 629.146 734.362 636.283 732.143 645.013C730.175 652.759 728.332 661.095 724.646 677.767C720.853 694.886 720.638 696.782 718.974 700.27C718.276 701.719 716.97 704.242 716.648 707.873C716.344 711.272 717.292 711.397 717.453 717.586C717.56 721.737 717.149 722.291 717.614 725.314C717.936 727.443 718.258 728.033 717.865 728.856C716.433 731.826 708.793 730.878 708.131 730.788C703.443 730.162 697.109 727.819 693.924 726.423C693.512 726.244 692.617 725.833 691.383 725.815C688.806 725.761 686.856 727.443 686.015 728.141C680.271 732.881 677.355 735.207 674.349 735.636C671.253 736.101 671.038 733.65 666.995 733.489C663.416 733.346 661.734 734.974 658.012 736.226C654.344 737.461 651.428 737.335 645.594 737.103C635.592 736.691 634.089 734.67 622.656 733.203C614.335 732.148 610.166 731.611 604.691 732.953C600.951 733.865 601.488 734.437 590.967 738.176C589.822 738.587 584.83 740.341 578.156 741.646C570.873 743.078 569.424 742.451 568.887 741.646L568.833 741.682Z" fill="#AFD66F"/>
<path d="M814.022 441.228C817.726 436.738 819.246 435.754 821.537 432.999C824.346 429.618 823.577 429.224 826.583 425.754C828.944 422.999 829.41 423.268 832.326 420.101C834.599 417.633 836.442 415.647 838.159 412.588C839.555 410.12 840.199 408.188 842.49 405.522C843.509 404.342 844.511 403.429 845.925 403.233C847.804 402.964 849.289 404.127 849.396 404.198C850.72 405.254 850.971 406.739 851.776 411.533C852.366 414.985 852.653 416.72 852.653 416.756C853.565 420.978 855.48 423.929 857.341 426.738C860.597 431.675 861.886 431.425 864.069 435.754C866.162 439.904 865.965 442.104 865.572 443.446C865.178 444.841 864.086 446.97 862.566 447.077C861.152 447.167 860.043 445.467 858.772 443.446C856.858 440.423 856.357 438.348 854.263 432.927C853.029 429.761 852.402 428.151 851.794 427.453C850.13 425.557 847.822 424.717 843.223 423.035C839.519 421.693 838.714 421.801 838.267 421.89C836.8 422.194 835.475 423.607 832.881 426.398C831.557 427.811 830.501 428.956 829.249 430.727C828.372 431.961 827.101 433.804 826.064 436.29C824.346 440.423 825.384 441.353 823.684 444.358C822.95 445.646 821.662 447.846 819.085 448.759C818.549 448.955 816.151 449.796 814.04 448.49C813.771 448.329 812.304 447.417 812 445.843C811.678 444.197 812.805 442.73 814.04 441.246L814.022 441.228Z" fill="black"/>
<path d="M797.256 468.847C797.864 467.863 798.902 466.128 801.049 465.287C801.336 465.18 803.68 464.303 806.113 465.287C808.815 466.396 808.833 468.65 812.877 473.963C814.684 476.342 815.578 477.523 816.956 478.382C818.406 479.294 819.175 479.294 825.169 480.707C830.018 481.852 830.054 481.977 831.002 481.924C833.507 481.78 834.599 480.779 838.643 479.187C842.167 477.791 841.792 478.346 844.243 477.326C848.716 475.43 851.239 473.283 851.883 472.729C853.064 471.691 852.706 471.781 854.675 469.813C856.106 468.382 858.611 465.878 862.065 463.409C865.5 460.976 866.144 461.227 867.361 459.563C868.059 458.615 868.757 457.309 869.633 457.416C870.188 457.47 870.617 458.06 870.796 458.525C871.101 459.313 870.796 460.118 870.564 460.618C869.132 463.713 866.144 466.218 866.144 466.218C860.078 471.28 861.17 470.869 857.985 473.212C856.249 474.482 856.41 474.249 852.098 477.29C849.128 479.383 848.877 479.616 847.732 480.314C845.209 481.852 843.098 482.746 841.148 483.569C838.41 484.732 837.444 484.929 834.098 486.431C832.38 487.201 831.271 487.773 830.125 488.882C828.891 490.099 829.123 490.492 827.943 491.798C827.155 492.657 824.936 495.072 822.092 494.821C820.213 494.66 818.942 493.426 818.656 493.14C817.475 491.995 817.493 491.011 816.67 489.526C815.704 487.737 814.433 486.825 812.125 485.161C809.083 482.979 808.797 483.641 805.254 481.369C802.355 479.509 803.501 479.67 798.723 476.128C797.238 475.019 796.361 474.446 796.039 473.266C795.592 471.602 796.576 469.992 797.256 468.847Z" fill="black" stroke="black" stroke-miterlimit="10"/>
<path d="M804.95 387.383C806.847 386.345 807.92 386.327 809.477 385.773C811.034 385.201 812.393 384.091 815.042 381.891C816.724 380.496 818.71 378.832 821.125 376.274C823.773 373.448 824.328 372.285 826.618 370.836C829.231 369.19 830.698 369.316 831.074 369.351C832.756 369.53 834.402 370.604 835.279 372.267C836.173 373.984 836.03 375.952 835.279 377.365C834.312 379.19 832.845 379.083 829.911 381.176C828.443 382.231 828.819 382.231 825.259 385.63C821.913 388.814 819.443 390.835 818.924 391.247C816.223 393.447 814.863 394.538 813.109 395.451C811.212 396.417 808.385 397.83 804.968 397.329C803.715 397.15 801.98 396.882 801.085 395.522C799.904 393.715 800.924 391.032 802.051 389.583C802.874 388.528 803.841 387.991 804.968 387.383H804.95Z" fill="black"/>
<path d="M854.979 374.718C855.569 373.537 856.106 372.428 857.377 371.659C858.933 370.693 860.561 370.854 860.955 370.908C863.603 371.248 865.124 373.466 865.518 374.038C867.092 376.364 866.251 377.705 867.468 380.46C868.345 382.464 869.007 382.231 871.727 385.469C874.733 389.047 877.971 394.163 878.669 395.254C879.528 396.596 880.226 397.794 881.729 398.617C883.035 399.333 883.84 399.154 884.484 400.03C885.236 401.05 885.182 402.696 884.484 403.769C884.18 404.234 884.001 404.216 882.319 405.343C880.208 406.756 880.154 407.007 879.403 407.204C878.329 407.49 877.077 407.347 876.111 406.828C874.518 405.969 874.178 404.288 873.266 401.909C873.266 401.909 871.888 398.224 869.991 395.272C868.756 393.34 866.627 391.605 862.369 388.099C861.653 387.526 859.112 385.451 856.249 382.428C855.086 381.194 854.12 380.085 853.977 378.475C853.852 377.026 854.442 375.809 854.979 374.736V374.718Z" fill="black"/>
<path d="M863.46 335.042C864.319 333.664 865.017 332.519 866.359 331.822C866.717 331.643 868.327 330.802 869.955 331.357C871.977 332.036 872.729 334.415 873.248 336.025C874.124 338.762 873.623 339.997 873.928 343.145C874.107 344.952 874.679 346.83 875.842 350.569C877.542 356.096 878.437 358.905 880.351 360.443C881.264 361.177 883.107 362.643 885.397 362.5C887.383 362.375 888.51 361.141 890.21 361.731C890.336 361.767 891.588 362.232 892.125 363.413C892.948 365.202 891.821 367.956 890.139 369.155C889.566 369.548 888.779 369.888 888.153 370.872C887.813 371.409 887.741 371.802 887.616 372.124C887.061 373.716 885.129 375.398 883.107 375.487C880.924 375.595 879.367 373.824 878.669 373.037C877.417 371.623 877.417 370.64 876.379 368.529C875.091 365.899 874.268 365.774 872.55 363.18C871.602 361.749 870.653 359.334 868.81 354.54C866.735 349.173 867.271 350.05 865.912 346.741C864.999 344.54 864.605 342.108 863.46 340.015C863.138 339.424 862.387 338.136 862.691 336.652C862.798 336.097 863.031 335.739 863.46 335.042Z" fill="black"/>
<path d="M819.855 347.367C822.074 345.345 822.056 344.88 825.133 341.624C827.549 339.066 828.783 337.778 829.947 337.367C831.628 336.777 832.738 337.117 834.295 335.972C834.903 335.524 835.458 334.952 836.334 334.952C837.229 334.952 837.551 335.578 838.088 335.417C839.072 335.113 838.821 332.859 839.484 332.734C840.056 332.626 841.022 334.165 841.237 335.685C841.255 335.829 841.505 337.904 840.128 339.478C839.859 339.782 839.072 340.676 838.374 340.497C837.623 340.301 837.676 339.048 837.086 338.923C836.585 338.816 836.03 339.603 834.491 342.072C833.293 343.986 832.523 345.292 832.183 345.864C831.056 347.76 830.77 348.279 830.573 348.637C829.481 350.676 829.589 350.855 829.123 351.588C827.781 353.735 826.153 353.413 822.825 355.846C820.982 357.187 821.573 357.223 819.408 358.905C816.885 360.855 815.865 360.98 813.395 362.786C811.588 364.11 811.57 364.45 809.423 366.31C805.075 370.049 802.892 371.91 801.282 371.391C797.775 370.264 797.846 358.279 800.566 357.33C801.353 357.062 801.998 357.831 803.697 357.617C804.843 357.474 805.361 357.026 807.115 355.953C810.264 354.021 810.246 354.433 813.038 352.626C813.342 352.429 814.594 351.606 816.187 350.408C816.741 349.978 818.316 348.798 819.891 347.349L819.855 347.367Z" fill="black"/>
<path d="M591.396 284.668C594.241 281.34 598.607 281.197 599.931 281.144C602.866 281.036 604.924 281.913 608.126 283.254C612.689 285.186 614.962 286.135 615.964 288.353C617.878 292.61 613.834 297.941 612.349 299.873C610.685 302.055 608.037 305.544 603.957 305.776C601.327 305.919 599.377 304.667 597.033 303.129C595.351 302.037 591.54 299.479 589.911 294.685C589.482 293.415 588.784 291.304 589.375 288.693C589.554 287.923 590.037 286.224 591.396 284.65V284.668Z" fill="black"/>
<path d="M836.477 441.049C836.782 440.745 838.499 439.027 841.076 439.188C842.74 439.296 844.923 440.19 845.674 442.104C846.694 444.716 844.44 447.811 841.953 448.902C841.577 449.063 838.66 450.297 836.477 448.544C834.545 446.988 834.778 444.394 834.795 444.251C834.974 442.534 836.048 441.46 836.477 441.031V441.049Z" fill="black"/>
<path d="M578.728 735.69C579.247 733.418 582.235 732.666 583.81 732.577C584.078 732.577 588.068 732.38 588.963 734.831C589.643 736.656 588.14 738.677 586.852 739.625C585.027 740.949 582.199 741.163 580.356 739.625C579.39 738.82 578.37 737.264 578.728 735.672V735.69Z" fill="black"/>
<path d="M650.282 681.738C652.448 700.968 653.539 710.592 653.575 716.245C653.575 716.245 653.628 724.867 657.511 733.329C658.191 734.831 659.229 736.781 660.965 737.085C663.774 737.586 666.565 733.454 667.388 732.237C668.265 730.949 670.502 727.622 670.054 723.472C669.679 719.948 667.674 718.803 665.205 714.546C663.38 711.415 662.629 708.642 661.126 703.115C658.567 693.67 658.227 687.731 655.793 672.579C652.931 654.744 651.445 650.898 653.127 644.691C653.539 643.189 654.362 640.684 654.219 637.178C653.986 631.525 651.481 629.075 650.282 624.495C649.495 621.49 649.692 619.146 651.714 609.773C655.704 591.294 657.726 587.448 658.764 577.985C659.354 572.475 658.638 574.139 659.086 563.102C659.891 542.87 662.271 538.845 662.539 520.974C662.682 511.154 661.967 512.245 662.378 505.304C663.201 491.655 666.118 484.929 664.579 477.416C664.275 475.985 663.666 473.803 664.257 470.994C664.919 467.899 666.386 467.077 666.601 464.25C666.637 463.731 666.851 460.297 664.883 458.293C661.573 454.948 653.02 456.576 649.853 461.424C647.992 464.286 648.386 467.649 648.744 470.511C649.28 474.983 650.748 476.2 651.875 479.903C653.217 484.321 652.322 486.414 650.783 499.795C649.871 507.683 650.3 505.984 649.531 512.316C647.581 528.434 645.738 531.994 644.986 543.013C644.521 549.846 645.308 547.271 644.986 558.987C644.628 572.082 643.608 576.733 643.573 590.31C643.573 596.213 643.751 595.963 643.573 598.61C643.358 601.687 642.714 607.644 637.775 621.007C634.787 629.092 632.801 637.625 628.847 645.281C627.827 647.267 625.751 651.095 627.272 653.278C628.399 654.87 631.244 655.263 633.374 654.691C636.809 653.779 637.292 650.684 639.636 650.612C642.052 650.541 643.93 653.743 644.968 655.46C647.437 659.628 647.67 663.295 648.404 669.252C649.441 677.606 649.048 670.951 650.265 681.72L650.282 681.738Z" fill="black"/>
</g>
<path d="M503.089 9.44015L512.569 17.7602C513.049 18.1602 514.329 19.3202 515.049 19.3202C516.049 19.3202 516.089 17.6802 516.089 17.0002C516.089 16.0002 516.049 14.2802 515.729 13.3602C515.169 11.6802 513.049 12.2802 513.049 10.1202C513.049 7.56015 517.129 7.68016 518.809 7.68016C520.569 7.68016 524.929 7.48016 524.929 10.2402C524.929 12.5202 522.809 11.6802 522.129 13.5202C521.609 14.9602 521.609 17.4402 521.609 18.9602V29.3202C521.609 31.1202 521.849 36.6002 519.169 36.6002C518.369 36.6002 517.689 36.1202 517.089 35.6002L504.729 24.5202C504.169 24.0002 503.129 23.0402 502.289 23.0402C501.049 23.0402 501.009 25.6402 501.009 26.4802C501.009 27.6002 501.049 29.0802 501.289 30.1202C501.889 32.6802 504.009 31.7202 504.009 33.6802C504.009 36.3602 499.889 36.6002 498.009 36.6002C496.169 36.6002 492.049 36.3602 492.049 33.7602C492.049 31.6402 494.369 32.4802 494.769 29.9202C495.049 28.2002 495.129 25.6802 495.129 23.8802C495.129 21.0002 495.129 18.0802 494.689 15.2002C494.049 11.2002 491.169 12.7602 491.169 10.3602C491.169 7.52016 496.569 7.68016 498.369 7.68016C500.849 7.68016 501.289 7.84016 503.089 9.44015ZM545.851 20.3202L538.811 26.4002C539.691 28.2802 541.051 30.7602 543.491 30.7602C545.931 30.7602 546.971 28.6402 546.971 26.4802C546.971 24.3602 546.411 22.2802 545.851 20.3202ZM556.051 11.4802L553.931 13.3202C556.011 16.0402 557.251 19.4802 557.251 22.4402C557.251 31.0402 549.651 36.7202 541.491 36.7202C537.931 36.7202 533.571 35.3602 531.171 32.8802L529.171 34.6402C528.931 34.8402 528.531 35.2802 528.131 35.2802C527.771 35.2802 527.491 35.0002 527.251 34.7602C527.011 34.4802 526.731 34.2402 526.731 33.8402C526.731 33.3202 527.211 33.0002 527.571 32.7202L529.531 31.0402C527.251 28.3202 526.451 25.3202 526.491 22.0402C526.491 13.5602 533.251 7.56015 541.971 7.56015C546.051 7.56015 549.451 8.88015 552.211 11.4002L554.451 9.40016C554.771 9.12015 554.971 8.92015 555.411 8.92015C555.691 8.92015 556.011 9.16016 556.331 9.60015C556.611 9.96016 556.851 10.3202 556.851 10.4802C556.851 10.8802 556.291 11.2402 556.051 11.4802ZM537.771 23.8402L544.811 17.7202C544.011 15.8002 542.291 13.5202 540.131 13.5202C537.891 13.5202 536.771 15.8402 536.771 17.8002C536.731 19.7602 537.211 21.8402 537.771 23.8402ZM571.306 14.4002L571.146 18.2002C571.066 19.2402 570.866 20.1202 572.186 20.1202C574.786 20.1202 575.626 18.6802 575.626 16.2002C575.626 14.2402 575.146 12.2402 572.826 12.2402C571.346 12.2402 571.386 13.1602 571.306 14.4002ZM561.866 27.8402V16.4402C561.866 10.2402 558.826 12.8002 558.826 10.3202C558.826 8.12015 561.946 7.84016 563.546 7.84016C564.386 7.84016 565.186 7.92016 566.026 7.96015C566.826 8.04016 567.666 8.12015 568.466 8.12015C569.746 8.12015 571.026 8.04016 572.346 7.96015C573.626 7.92016 574.946 7.84016 576.226 7.84016C580.746 7.84016 585.986 9.84015 585.986 15.1602C585.986 17.5602 584.826 19.8802 582.586 20.9602C582.226 21.1602 581.946 21.2802 581.946 21.7602C581.946 22.3602 582.466 22.5202 582.946 22.7202C585.746 23.7602 586.986 25.6002 587.546 29.9202C588.026 33.6402 590.626 31.4002 590.626 33.8402C590.626 35.3602 588.786 36.9602 584.266 36.9602C577.866 36.9602 577.066 33.2802 575.826 28.0002C575.386 26.1602 574.706 24.3602 572.506 24.3602C571.626 24.3602 571.306 24.4802 571.306 27.0002C571.306 28.1602 571.386 29.7602 571.586 30.8802C571.906 32.7202 573.946 32.1602 573.946 34.0802C573.946 35.5202 572.946 36.6002 566.466 36.6002C564.546 36.6002 558.866 36.6002 558.866 33.6802C558.866 31.6002 561.866 33.0402 561.866 27.8402ZM603.962 14.4002L603.802 18.2002C603.722 19.2402 603.522 20.1202 604.842 20.1202C607.442 20.1202 608.282 18.6802 608.282 16.2002C608.282 14.2402 607.802 12.2402 605.482 12.2402C604.002 12.2402 604.042 13.1602 603.962 14.4002ZM594.522 27.8402V16.4402C594.522 10.2402 591.482 12.8002 591.482 10.3202C591.482 8.12015 594.602 7.84016 596.202 7.84016C597.042 7.84016 597.842 7.92016 598.682 7.96015C599.482 8.04016 600.322 8.12015 601.122 8.12015C602.402 8.12015 603.682 8.04016 605.002 7.96015C606.282 7.92016 607.602 7.84016 608.882 7.84016C613.402 7.84016 618.642 9.84015 618.642 15.1602C618.642 17.5602 617.482 19.8802 615.242 20.9602C614.882 21.1602 614.602 21.2802 614.602 21.7602C614.602 22.3602 615.122 22.5202 615.602 22.7202C618.402 23.7602 619.642 25.6002 620.202 29.9202C620.682 33.6402 623.282 31.4002 623.282 33.8402C623.282 35.3602 621.442 36.9602 616.922 36.9602C610.522 36.9602 609.722 33.2802 608.482 28.0002C608.042 26.1602 607.362 24.3602 605.162 24.3602C604.282 24.3602 603.962 24.4802 603.962 27.0002C603.962 28.1602 604.042 29.7602 604.242 30.8802C604.562 32.7202 606.602 32.1602 606.602 34.0802C606.602 35.5202 605.602 36.6002 599.122 36.6002C597.202 36.6002 591.522 36.6002 591.522 33.6802C591.522 31.6002 594.522 33.0402 594.522 27.8402ZM629.138 8.12015H640.658C646.018 8.12015 646.778 7.32016 647.418 7.32016C649.698 7.32016 650.658 11.2402 650.658 13.0002C650.658 14.3202 650.138 15.8802 648.578 15.8802C645.418 15.8802 647.978 12.0402 640.378 12.0402C635.938 12.0402 636.378 12.8402 636.378 17.4402C636.378 19.7602 636.498 19.8402 638.938 19.8402C641.978 19.8402 639.698 15.4002 642.538 15.4002C644.858 15.4002 645.018 19.9202 645.018 21.4802C645.018 23.1202 644.738 27.9202 642.338 27.9202C639.858 27.9202 642.338 23.7202 638.298 23.7202C636.618 23.7202 636.658 25.2402 636.658 26.5202C636.658 32.3602 637.058 32.0802 641.258 32.0802C649.458 32.0802 647.138 26.4402 650.418 26.4402C651.698 26.4402 652.338 27.8802 652.338 29.0002C652.338 31.7202 650.178 36.6002 648.578 36.6002C648.298 36.6002 647.658 36.4802 646.818 36.3602C645.938 36.2802 644.818 36.1602 643.458 36.1602H627.018C624.378 36.1602 624.338 34.9602 624.338 34.4402C624.338 32.2402 627.058 34.0002 627.338 29.7602C627.818 22.4802 627.858 23.2002 627.458 15.9602C627.178 9.84015 624.138 13.0002 624.138 10.1602C624.138 7.72016 627.498 8.12015 629.138 8.12015ZM679.802 14.4002C679.802 16.2402 679.042 18.2002 677.602 19.3602C677.242 19.6802 676.882 19.9202 676.882 20.4402C676.882 20.9602 677.322 21.1202 677.722 21.3202C679.362 21.9602 682.202 24.0802 682.202 27.4402C682.202 31.4402 679.522 36.3602 671.482 36.3602C670.122 36.3602 668.882 36.3202 667.682 36.2402C666.482 36.2002 665.282 36.1602 664.042 36.1602C662.682 36.1602 661.282 36.2002 659.922 36.2402C658.562 36.3202 657.202 36.3602 655.802 36.3602C654.562 36.3602 653.162 35.6402 653.162 34.2402C653.162 31.7602 655.762 34.2802 656.002 27.6402L656.442 16.1202C656.682 10.0802 653.242 12.8402 653.242 10.0802C653.242 8.56015 654.882 7.84016 656.122 7.84016C657.602 7.84016 659.082 7.92016 660.562 7.96015C662.042 8.04016 663.522 8.12015 665.002 8.12015C665.962 8.12015 666.882 8.04016 667.802 7.96015C668.722 7.92016 669.682 7.84016 670.602 7.84016C677.922 7.84016 679.802 11.3202 679.802 14.4002ZM665.962 14.3602V17.6002C665.962 19.1602 665.882 19.9202 667.122 19.9202C669.522 19.9202 670.082 18.2402 670.082 16.0402C670.082 14.2402 669.482 12.0002 667.282 12.0002C665.802 12.0002 665.962 13.2002 665.962 14.3602ZM665.962 25.3602V27.3602C665.962 32.0002 666.722 32.1202 667.962 32.1202C670.242 32.1202 671.042 30.5602 671.042 28.4802C671.042 26.0402 670.322 23.8802 667.522 23.8802C666.282 23.8802 666.002 24.5202 665.962 25.3602ZM695.798 14.4002L695.638 18.2002C695.558 19.2402 695.358 20.1202 696.678 20.1202C699.278 20.1202 700.118 18.6802 700.118 16.2002C700.118 14.2402 699.638 12.2402 697.318 12.2402C695.838 12.2402 695.878 13.1602 695.798 14.4002ZM686.358 27.8402V16.4402C686.358 10.2402 683.318 12.8002 683.318 10.3202C683.318 8.12015 686.438 7.84016 688.038 7.84016C688.878 7.84016 689.678 7.92016 690.518 7.96015C691.318 8.04016 692.158 8.12015 692.958 8.12015C694.238 8.12015 695.518 8.04016 696.838 7.96015C698.118 7.92016 699.438 7.84016 700.718 7.84016C705.238 7.84016 710.478 9.84015 710.478 15.1602C710.478 17.5602 709.318 19.8802 707.078 20.9602C706.718 21.1602 706.438 21.2802 706.438 21.7602C706.438 22.3602 706.958 22.5202 707.438 22.7202C710.238 23.7602 711.478 25.6002 712.038 29.9202C712.518 33.6402 715.118 31.4002 715.118 33.8402C715.118 35.3602 713.278 36.9602 708.758 36.9602C702.358 36.9602 701.558 33.2802 700.318 28.0002C699.878 26.1602 699.198 24.3602 696.998 24.3602C696.118 24.3602 695.798 24.4802 695.798 27.0002C695.798 28.1602 695.878 29.7602 696.078 30.8802C696.398 32.7202 698.438 32.1602 698.438 34.0802C698.438 35.5202 697.438 36.6002 690.958 36.6002C689.038 36.6002 683.358 36.6002 683.358 33.6802C683.358 31.6002 686.358 33.0402 686.358 27.8402ZM731.374 36.7202C722.934 36.7202 716.374 30.5602 716.374 22.0402C716.374 13.5602 723.134 7.56015 731.854 7.56015C742.894 7.56015 747.134 17.2802 747.134 22.4402C747.134 31.0402 739.534 36.7202 731.374 36.7202ZM736.854 26.4802C736.854 22.8402 734.694 13.5202 730.014 13.5202C727.774 13.5202 726.654 15.8402 726.654 17.8002C726.654 21.2002 729.054 30.7602 733.374 30.7602C735.814 30.7602 736.854 28.6402 736.854 26.4802ZM766.166 23.9602C763.966 22.2002 762.366 19.7602 762.366 16.8802C762.366 12.7202 766.366 7.56015 774.126 7.56015C776.686 7.56015 779.566 8.68015 780.166 8.68015C780.726 8.68015 781.286 8.12015 782.126 8.12015C783.486 8.12015 786.526 11.2002 786.526 14.5602C786.526 15.9202 785.646 17.2802 784.166 17.2802C781.486 17.2802 779.926 12.7202 775.766 12.7202C774.526 12.7202 773.206 13.2802 773.206 14.7202C773.206 17.8802 778.686 17.0402 783.326 20.1202C785.806 21.7602 787.046 23.7602 787.046 26.7602C787.046 31.4402 783.206 36.7202 773.886 36.7202C771.246 36.7202 766.726 36.0402 764.446 34.8002C762.526 33.7202 761.606 29.4802 761.606 27.4402C761.606 26.3602 762.086 25.2802 763.286 25.2802C766.126 25.2802 765.646 31.6402 773.006 31.6402C773.886 31.6402 776.086 31.2002 776.086 29.6802C776.086 26.8002 770.606 27.5202 766.166 23.9602ZM806.835 16.8802C806.835 14.3602 805.555 12.2802 802.875 12.2802C801.315 12.2802 801.355 12.7602 801.355 13.5602V19.5602C801.355 20.4002 800.995 21.3202 803.155 21.3202C805.795 21.3202 806.835 19.3202 806.835 16.8802ZM792.155 29.8402V14.2002C792.155 11.2002 788.435 12.5202 788.435 10.0002C788.435 8.40016 790.195 8.04016 791.435 8.04016C792.435 8.04016 793.395 8.12015 794.395 8.12015C800.195 8.12015 803.715 7.56015 805.395 7.56015C810.835 7.56015 816.075 10.7202 816.075 16.7202C816.075 22.6802 811.035 25.8802 805.475 25.8802C804.275 25.8802 803.075 25.6802 801.995 25.6802C801.515 25.6802 801.355 25.8802 801.355 26.3202V28.6402C801.475 33.6402 804.395 31.5602 804.395 33.8802C804.395 36.4802 798.635 36.6002 796.835 36.6002C795.155 36.6002 789.235 36.5602 789.235 33.9602C789.235 31.7602 792.155 33.1202 792.155 29.8402ZM826.474 24.6002H829.474C829.874 24.6002 831.074 24.6802 831.074 24.0802C831.074 23.4802 829.914 21.4002 829.594 20.8402C829.234 20.2002 828.554 18.7202 827.674 18.7202C826.714 18.7202 826.034 21.1202 825.874 21.5602C825.714 22.0002 825.034 23.5602 825.034 24.0402C825.034 24.7202 826.034 24.6002 826.474 24.6002ZM818.554 27.2002L821.074 21.7202C822.314 18.9602 823.954 15.4402 823.954 12.2802C823.954 9.52016 825.234 7.44015 828.794 7.44015C832.274 7.44015 834.474 11.0002 836.034 13.6402C836.714 14.8002 842.754 27.0402 844.194 30.3202C845.514 33.3602 847.674 31.5202 847.674 33.8002C847.674 36.7202 841.994 36.6002 839.994 36.6002C834.274 36.6002 830.834 36.5602 830.834 34.0802C830.834 32.1602 833.274 32.8802 833.274 31.4802C833.274 29.6802 832.274 29.5202 825.834 29.5202C823.754 29.5202 822.514 29.6002 822.514 31.5602C822.514 33.1202 825.074 32.0802 825.074 34.1602C825.074 36.5602 820.754 36.6002 819.154 36.6002C813.434 36.6002 812.914 35.5202 812.914 34.2402C812.914 32.3602 815.074 32.9202 816.234 31.4802C817.114 30.4002 817.954 28.4802 818.554 27.2002ZM829.434 2.56015C829.434 5.24015 824.794 5.96015 822.794 5.96015C821.194 5.96015 818.994 5.28016 818.994 3.32015C818.994 0.480155 823.114 0.000154495 825.154 0.000154495C826.754 0.000154495 829.434 0.440154 829.434 2.56015ZM841.634 2.56015C841.634 5.24015 836.994 5.96015 834.994 5.96015C833.394 5.96015 831.194 5.28016 831.194 3.32015C831.194 0.480155 835.314 0.000154495 837.354 0.000154495C838.954 0.000154495 841.634 0.440154 841.634 2.56015ZM854.596 8.12015H864.436C866.156 8.12015 866.956 7.96015 867.556 7.84016C868.116 7.68016 868.436 7.56015 869.196 7.56015C870.756 7.56015 873.996 10.6402 873.996 14.9602C873.996 16.9602 872.956 18.2802 870.916 18.2802C867.436 18.2802 867.476 13.5602 865.436 13.5602C863.876 13.5602 864.036 15.7202 864.036 16.0402V28.3202C864.036 33.0802 867.716 30.8002 867.716 33.6002C867.716 34.8402 866.956 36.6002 859.476 36.6002C857.436 36.6002 849.956 36.6802 849.956 33.6002C849.956 31.4802 852.436 32.3202 853.236 30.8002C853.636 29.9602 853.796 27.5602 853.836 26.5602L854.156 17.7202C854.316 13.5202 853.476 13.5602 852.916 13.5602C851.116 13.5602 850.236 18.2802 846.996 18.2802C845.436 18.2802 844.516 16.8402 844.516 15.4002C844.516 12.0002 847.396 7.56015 849.676 7.56015C849.956 7.56015 850.396 7.68016 851.156 7.84016C851.916 7.96015 852.996 8.12015 854.596 8.12015ZM877.888 24.1202V20.1602C877.888 15.0802 877.488 13.9202 877.048 13.3602C876.128 12.2002 874.568 12.0802 874.568 10.5602C874.568 7.68016 882.728 7.68016 883.528 7.68016C885.928 7.68016 890.848 7.76015 890.848 10.4802C890.848 11.9202 889.328 11.8402 888.408 12.8802C887.648 13.7602 887.608 17.3602 887.608 20.1602V24.1202C887.608 31.2402 888.088 31.0802 888.888 31.5602C889.888 32.1602 890.848 32.3602 890.848 33.6002C890.848 34.8002 890.488 36.6002 881.728 36.6002C880.048 36.6002 875.008 36.5602 875.008 34.0002C875.008 32.7202 876.368 32.5202 877.008 31.7602C877.488 31.2002 877.888 29.7202 877.888 24.1202Z" fill="black"/>
<path d="M409.386 202.665L403.636 197.833C402.208 196.676 397.206 192.415 395.624 192.712C393.835 193.048 393.896 194.888 394.27 196.884L394.541 198.328C395.161 201.631 399.547 201.093 400.179 204.464C400.593 206.665 399.398 209.026 387.289 211.299C376.419 213.338 374.694 211.739 374.255 209.4C373.584 205.822 377.372 207.034 377.126 201.169C377.022 197.2 376.265 192.784 375.529 188.863C374.729 184.597 373.868 179.631 372.323 175.576C370.319 169.827 367.15 173.057 366.363 168.86C366.156 167.759 364.814 164.023 379.881 161.195C383.114 160.589 390.256 159.177 391.147 163.924C391.832 167.57 387.635 166.079 389.158 174.197C389.326 175.092 389.769 177.074 391.007 176.842C392.865 176.493 396.97 168.387 396.673 166.804C396.402 165.36 395.172 164.878 394.888 163.365C393.933 158.273 403.066 156.844 406.368 156.225C409.671 155.605 417.587 153.763 418.504 158.648C419.562 164.29 411.774 162.261 409.818 165.121C408.701 166.755 403.64 172.049 404.183 174.939C404.531 176.796 406.492 178.138 407.838 179.238L425.303 192.983C427.806 194.935 431.951 193.872 432.739 198.069C433.384 201.509 429.94 202.511 427.257 203.015L415.561 205.21C412.878 205.713 412.77 205.52 409.386 202.665ZM436.246 179.89L434.967 173.079C433.328 164.342 432.265 162.475 431.328 161.654C429.371 159.956 426.649 160.253 426.159 157.639C425.229 152.685 439.264 150.051 440.64 149.793C444.768 149.019 453.256 147.568 454.134 152.247C454.599 154.723 451.959 155.076 450.712 157.162C449.689 158.921 450.782 165.126 451.686 169.942L452.964 176.753C455.262 188.999 456.036 188.569 457.567 189.136C459.48 189.845 461.196 189.88 461.596 192.012C461.984 194.076 461.946 197.289 446.879 200.116C443.989 200.658 435.307 202.216 434.481 197.813C434.068 195.611 436.343 194.829 437.198 193.315C437.843 192.197 438.053 189.522 436.246 179.89ZM490.988 192.052C476.471 194.776 463.2 186.299 460.45 171.644C457.713 157.059 467.403 144.557 482.402 141.743C501.39 138.179 511.82 153.529 513.486 162.404C516.261 177.196 505.023 189.418 490.988 192.052ZM497.108 172.671C495.933 166.41 489.21 151.077 481.16 152.588C477.308 153.311 476.13 157.662 476.763 161.034C477.86 166.882 485.074 182.55 492.504 181.155C496.701 180.368 497.805 176.386 497.108 172.671ZM525.009 162.948C520.657 160.631 517.117 156.951 516.188 151.997C514.845 144.842 520.059 134.676 533.406 132.171C537.809 131.345 543.125 132.342 544.157 132.148C545.12 131.967 545.902 130.823 547.347 130.552C549.686 130.113 555.909 134.429 556.993 140.209C557.432 142.548 556.358 145.171 553.812 145.649C549.203 146.514 545.048 139.174 537.893 140.517C535.76 140.917 533.67 142.306 534.135 144.783C535.155 150.218 544.309 147.005 553.284 150.805C558.079 152.825 560.857 155.865 561.826 161.024C563.336 169.074 558.436 179.395 542.406 182.403C537.865 183.255 529.871 183.545 525.549 182.148C521.898 180.91 518.947 173.914 518.289 170.405C517.94 168.548 518.417 166.535 520.481 166.148C525.366 165.231 526.593 176.325 539.252 173.95C540.766 173.666 544.408 172.199 543.917 169.584C542.988 164.631 533.795 167.638 525.009 162.948ZM602.01 166.517L596.26 161.685C594.832 160.528 589.83 156.268 588.248 156.565C586.459 156.9 586.519 158.741 586.894 160.736L587.165 162.181C587.785 165.483 592.171 164.945 592.803 168.316C593.217 170.518 592.021 172.878 579.913 175.151C569.043 177.191 567.318 175.591 566.879 173.252C566.208 169.675 569.996 170.887 569.75 165.021C569.646 161.052 568.889 156.636 568.153 152.715C567.353 148.449 566.492 143.483 564.947 139.428C562.943 133.679 559.774 136.909 558.986 132.712C558.78 131.612 557.438 127.875 572.505 125.048C575.738 124.441 582.88 123.029 583.771 127.776C584.456 131.423 580.258 129.931 581.782 138.05C581.95 138.944 582.393 140.926 583.631 140.694C585.489 140.345 589.594 132.239 589.297 130.657C589.026 129.212 587.796 128.73 587.512 127.217C586.557 122.126 595.69 120.697 598.992 120.077C602.295 119.457 610.211 117.616 611.127 122.5C612.186 128.142 604.398 126.113 602.442 128.973C601.325 130.607 596.264 135.902 596.806 138.791C597.155 140.649 599.116 141.99 600.462 143.091L617.927 156.835C620.43 158.787 624.575 157.724 625.362 161.921C626.008 165.361 622.564 166.363 619.881 166.867L608.185 169.062C605.502 169.565 605.394 169.372 602.01 166.517Z" fill="black"/>
<path d="M819.245 140.71C818.651 143.875 816.711 147 813.86 148.531C813.137 148.965 812.441 149.261 812.273 150.156C812.105 151.05 812.81 151.467 813.434 151.941C816.048 153.571 820.248 158.134 819.163 163.913C817.872 170.793 811.674 178.39 797.846 175.795C795.507 175.355 793.387 174.886 791.349 174.361C789.298 173.905 787.247 173.449 785.114 173.049C782.775 172.61 780.354 172.227 778.002 171.856C775.637 171.555 773.285 171.185 770.877 170.733C768.744 170.332 766.568 168.642 767.02 166.234C767.821 161.969 771.479 167.142 774.036 155.799L778.511 136.127C780.874 125.816 774.066 129.453 774.957 124.706C775.448 122.091 778.501 121.382 780.634 121.783C783.179 122.26 785.699 122.876 788.232 123.422C790.751 124.038 793.271 124.653 795.817 125.131C797.468 125.441 799.076 125.6 800.684 125.759C802.28 125.988 803.957 126.16 805.539 126.457C818.129 128.82 820.239 135.412 819.245 140.71ZM795.454 136.173L794.408 141.746C793.904 144.429 793.521 145.71 795.654 146.111C799.782 146.886 801.287 144.177 801.998 140.393C802.579 137.297 802.27 133.25 798.486 132.54C795.94 132.063 795.828 134.178 795.454 136.173ZM791.903 155.093L791.257 158.533C789.759 166.514 791.028 166.965 793.16 167.366C797.082 168.102 798.961 165.677 799.633 162.099C800.421 157.902 799.879 153.955 795.064 153.051C792.931 152.651 792.243 153.661 791.903 155.093ZM844.36 163.585L849.52 164.554C850.208 164.683 852.246 165.208 852.439 164.176C852.633 163.144 851.309 159.192 850.94 158.125C850.527 156.908 849.835 154.143 848.322 153.859C846.671 153.549 844.726 157.458 844.309 158.163C843.892 158.868 842.219 161.332 842.064 162.157C841.844 163.327 843.603 163.443 844.36 163.585ZM829.898 165.5L836.002 156.889C839.025 152.542 842.982 147.017 844.002 141.582C844.893 136.835 847.766 133.67 853.89 134.819C859.875 135.943 862.51 142.776 864.341 147.82C865.136 150.035 871.573 173.037 872.991 179.144C874.28 184.799 878.589 182.331 877.853 186.253C876.911 191.275 867.18 189.235 863.74 188.589C853.902 186.743 847.998 185.564 848.798 181.298C849.418 177.996 853.383 180.022 853.835 177.614C854.416 174.518 852.747 173.92 841.671 171.841C838.093 171.169 835.935 170.907 835.302 174.278C834.798 176.961 839.537 175.999 838.866 179.576C838.091 183.704 830.648 182.378 827.896 181.862C818.058 180.015 817.512 177.99 817.925 175.788C818.532 172.555 822.066 174.215 824.526 172.113C826.388 170.539 828.453 167.508 829.898 165.5ZM906.554 157.097L905.052 163.581C904.579 165.344 903.951 166.793 906.221 167.219C910.693 168.058 912.602 165.853 913.403 161.587C914.036 158.216 913.856 154.621 909.865 153.872C907.32 153.394 907.092 154.99 906.554 157.097ZM885.979 177.166L889.659 157.558C891.66 146.894 885.605 150.316 886.406 146.05C887.116 142.266 892.573 142.792 895.325 143.309C896.769 143.58 898.119 143.976 899.551 144.315C900.901 144.711 902.32 145.12 903.696 145.378C905.898 145.792 908.125 146.067 910.422 146.356C912.636 146.7 914.932 146.989 917.134 147.402C924.908 148.861 933.275 153.992 931.558 163.143C930.783 167.271 928.039 170.886 923.837 172.021C923.154 172.249 922.633 172.365 922.478 173.19C922.285 174.222 923.127 174.665 923.888 175.164C928.369 177.857 929.907 181.422 929.476 189.033C929.101 195.586 934.296 192.573 933.508 196.77C933.017 199.384 929.336 201.542 921.562 200.083C910.554 198.017 910.366 191.429 909.938 181.947C909.775 178.64 909.186 175.325 905.403 174.615C903.889 174.331 903.3 174.434 902.486 178.768C902.112 180.763 901.733 183.541 901.715 185.532C901.672 188.8 905.361 188.495 904.742 191.798C904.277 194.275 902.208 195.809 891.063 193.717C887.76 193.098 877.991 191.264 878.934 186.242C879.605 182.664 884.3 186.109 885.979 177.166Z" fill="black"/>
<path d="M690.576 125.307C691.424 122.936 694.935 120.711 698.446 120.27C704.167 119.553 707.994 123.8 708.408 124.277C711.525 127.862 711.032 132.145 710.874 133.561C710.519 136.704 709.059 139.994 702.51 146.502C698.841 150.16 693.397 155.013 685.92 159.902C680.89 152.935 677.004 146.888 674.124 142.145C672.487 139.443 670.692 136.373 670.199 132.072C669.923 129.682 669.528 125.656 672.171 121.998C672.763 121.097 675.505 117.292 680.003 117.164C683.179 117.072 685.506 118.873 686.276 119.461C687.124 120.105 689.017 121.557 689.55 123.873C689.846 125.141 689.708 126.483 689.964 126.502C690.181 126.52 690.457 125.619 690.576 125.307Z" fill="black"/>
<defs>
<clipPath id="clip0_743_2078">
<rect width="445" height="571" fill="white" transform="translate(465 260.16)"/>
</clipPath>
</defs>
</svg>
