<?xml version="1.0" encoding="UTF-8"?>
<svg id="Layer_1" data-name="Layer 1" xmlns="http://www.w3.org/2000/svg" viewBox="0 0 417.88 388.02">
  <defs>
    <style>
      .cls-1 {
        stroke-linejoin: bevel;
      }

      .cls-1, .cls-2, .cls-3 {
        fill: none;
        stroke: #000;
        stroke-width: 3px;
      }

      .cls-2 {
        stroke-linecap: round;
      }

      .cls-2, .cls-3 {
        stroke-miterlimit: 10;
      }
    </style>
  </defs>
  <path class="cls-1" d="M195.99,66.91c.93,3.88,1.83,7.13,2.54,9.57,1.48,5.05,2.24,7.64,3.59,10.62,1.23,2.73,2.08,4.59,3.59,7.03,1.61,2.59,2.73,3.83,3.19,6.13.41,2.06.07,3.88-.27,5.09"/>
  <path class="cls-1" d="M127.17,91.44c3.68-2.87,22.72-17.71,46.08-23.79,7.16-1.86,16.82-3.44,30.97-9.13,6.58-2.64,8.89-4.07,14.21-5.39,7.48-1.85,15.47-2.15,28.12,0,13.74,2.33,30.24,5.13,48.62,16.31,17.8,10.83,27.47,23.49,36.95,35.9,8.08,10.58,21.45,28.44,28.95,55.56,3.34,12.09,8.21,30.49,4.09,53.8-1.1,6.21-3.74,20.38-13.21,35.55-12.93,20.71-30.5,30.38-45.62,38.7-10.15,5.59-31.97,16.21-61.98,19.82-12.14,1.46-36.74,4.16-66.7-5.03-12.23-3.75-37.13-13.1-60.41-35.55-11.32-10.92-27.81-26.82-34.92-53.49-6.08-22.8-2.17-41.68,0-51.6,1.33-6.09,10.4-44.79,44.87-71.67Z"/>
  <path class="cls-3" d="M195.99,140.48c12.08-10.4,25.37-12.27,29.75-12.7,5.91-.58,27.64-2.73,39.94,12.7,10.84,13.59,8.35,33.27.92,45.71-12.8,21.46-41.2,23.05-57.51,19.62-6.33-1.33-25.13-5.27-31.14-20.09-6.92-17.04,7.94-36.55,18.04-45.25Z"/>
  <path class="cls-3" d="M203.81,156.87c6.11-8.09,18.77-5.69,20.78-5.31,2.62.5,14.61,2.76,16.62,11.31,1.81,7.7-5.76,15.08-11.54,18.11-6.62,3.46-16.39,4.1-22.86-1.48-4.77-4.11-5.66-9.8-5.77-10.62-.2-1.39-.84-7.23,2.77-12.01Z"/>
  <path class="cls-3" d="M320.5,379.75c.05,1.03,0,2.71-.71,4.59-.41,1.09-.62,1.64-1.06,1.94-.85.58-2.56.5-9.61-4.32-5.05-3.45-5.7-4.46-8.47-5.56-3.42-1.36-6.3-1.37-7.41-1.41-10.17-.4-28.06-10.28-39.02-15.8-16.81-8.46-25.66-11.77-33.75-14.44-2.66-.87-10.59-3.39-18.92-9.75-.66-.5-1.56-1.78-3.32-2.73-2.21-1.19-3.98-1.14-6.51-1.53-1.27-.2-3.35-.84-7.51-2.12-8.6-2.65-13.62-5.63-26.41-10.44-1.89-.71-5.36-1.99-10.16-3.99-1.13-.47-3.51-1.46-6.04-2.6-6.93-3.12-7.38-3.93-13.45-6.8-3.92-1.85-7.66-3.37-14.55-6.17-2.82-1.14-4.28-1.71-6.49-2.85-3.48-1.8-5.33-3.22-8.86-5.7-7.5-5.26-11.35-7.93-16.11-9.9-2.97-1.23-3.24-.98-8.03-2.52-6.63-2.13-10.31-3.95-18.71-7.76-18.99-8.6-17.14-6.94-23-10.21-9.96-5.56-8.71-6.69-16.81-10.42-4.98-2.3-8.12-3.11-10.23-6.46-2.63-4.17-2.81-10.91,0-12.72,3.51-2.26,9.09,4.89,26.03,13.72,6.19,3.23,4.62,1.84,18.64,8.44,11.92,5.61,17.88,8.42,23.74,11.78,7.6,4.37,10.24,6.55,17.06,9.14,4.93,1.88,6.03,1.68,10.38,3.69,5.4,2.5,7.14,4.4,14.24,9.14,4.95,3.31,9.13,6.1,13.72,8.26,8.19,3.86,14.64,4.29,19.7,5.1,9.4,1.51,10.27,3.76,38.51,17.41,2,.97,13.18,6.1,35.52,16.35,18.98,8.71,21.11,9.64,30.6,14.07,18.97,8.85,16.73,8.08,27.96,13.19,6.73,3.06,16.44,7.32,35.87,15.83,3.54,1.55,7.88,3.45,11.25,4.92"/>
  <path class="cls-1" d="M4.24,229.35c-.7-.28-1.94-.8-2.48-2-.44-.99-.23-2.03,0-2.78,1.19-3.8,5.32-7.55,7.53-10.31,2.36-2.95,1.78-3.84,4.64-10.03,2.62-5.69,5.08-9.21,8.54-14.37,8.95-13.35,3.1-5.6,20.06-31.01,9.69-14.53,14.54-21.79,20.06-29.59,15.01-21.2,15.69-20,22.05-30.44,9.03-14.81,7.11-16.32,17.78-35.71,6.71-12.19,12.63-20.95,21.05-33.43,7.81-11.56,14.8-21.14,20.2-28.31l9.82,4.27,9.96,4.27.66,1.87c-.74,1.33-1.98,3.48-3.63,6.05-6.11,9.52-10.5,13.3-17.4,22.52-2.75,3.67-4.44,6.26-7.73,11.3-6.19,9.49-7.79,13.05-14.1,23.49-2.24,3.71-6.89,11.3-12.85,20.13-7.69,11.39-8.4,11.3-15.24,21.49-5.75,8.57-10.04,15.79-14.78,23.77-7.31,12.29-8.23,14.66-12.96,21.38-4.93,6.99-5.36,6.46-11.71,15.01-5.65,7.6-9.39,13.53-15.35,22.97-8.51,13.48-12.77,20.22-13.19,21.15-2.62,5.83-3.62,9.72-7.39,11.14-3.25,1.23-6.67-.13-13.51-2.84Z"/>
  <path class="cls-3" d="M269.04,193.15c6.19,1.54,12.43,3.11,18.11,6.01,1.98,1.01,3.93,2.2,6.12,2.59,2.17.39,4.46-.04,6.58.58,1.59.47,2.95,1.48,4.4,2.29,5.29,2.94,11.88,3.09,16.9,6.48,1.64,1.11,3.07,2.55,4.88,3.36,1.22.55,2.55.78,3.86,1.01,4.27.72,8.59,1.34,12.67,2.82,4.07,1.48,7.94,3.91,10.31,7.53-1.82-.15-3.63-.31-5.45-.46"/>
  <path class="cls-3" d="M352.49,262.88c.59,3.87-1.57,7.6-3.9,10.74-8.98,12.12-21.75,21.06-35.46,27.33-13.72,6.28-28.43,10.05-43.16,13.32-5.78,1.28-11.59,2.5-17.45,3.36-27.4,4.04-55.79.3-81.56-9.84"/>
  <path class="cls-3" d="M220.71,210.91c.12,9.32,1.93,18.75.12,27.9"/>
  <path class="cls-3" d="M214.7,268.7c-.22,1.73.55,3.4.97,5.09.89,3.58.12,7.53-2.03,10.52"/>
  <path class="cls-3" d="M256.58,206.97c3.08-.07,6.15-.46,9.15-1.15-2.5,3.6-5.28,6.99-8.32,10.14,2.71-2.69,5.82-4.99,9.19-6.78-3.15,3.98-6.05,8.15-8.67,12.49,2.92-2.34,5.84-4.68,8.76-7.03-2.7,3.68-5.39,7.37-8.09,11.05,3.61-1.61,7.21-3.22,10.82-4.83-1.27,1.63-2.54,3.26-3.81,4.89,2.74-1.07,5.48-2.15,8.22-3.22-1.86,2.12-3.65,4.3-5.36,6.54,1.22-.48,2.45-.96,3.67-1.44-2.4,2.59-4.79,5.17-7.19,7.76,5.73-1.54,11.26-3.83,16.4-6.79-2.62,2.77-5.24,5.55-7.86,8.32,3.25-2.41,6.9-4.29,10.76-5.54-2.11,2.67-4.22,5.35-6.33,8.02,2.18-1.68,4.52-3.14,6.98-4.37-2.99,3.17-5.98,6.34-8.97,9.51,4.18-2.56,8.36-5.12,12.53-7.69-5.32,5.23-10.64,10.46-15.96,15.7,5.36-3.96,10.94-7.61,16.7-10.95-3.3,3.56-6.82,6.91-10.54,10.03,4.95-4.48,10.37-8.45,16.14-11.82-4.23,3.34-8.2,7.01-11.85,10.98,3.58-2.42,7.17-4.85,10.75-7.27-2.95,3.78-6.15,7.37-9.56,10.75,4.16-2.19,8.32-4.37,12.49-6.56-3.09,3.64-6.17,7.27-9.26,10.91,3.98-3.01,8.15-5.77,12.48-8.25-3.65,4.45-7.3,8.89-10.95,13.34,3.89-3.03,8.04-5.73,12.38-8.08-2.51,3.27-5.02,6.54-7.52,9.8,1.95-2.28,4.35-4.17,7.03-5.52-3.54,3.37-6.58,7.26-9,11.5,4.17-2.57,8.17-5.43,11.95-8.54-3.62,4.42-7.23,8.84-10.85,13.25,4.77-4.06,9.75-7.87,14.92-11.41-4.11,5.5-8.58,10.73-13.37,15.65,5.36-4.47,10.72-8.93,16.07-13.4-3.34,4.17-6.69,8.34-10.03,12.51,3.05-3.82,6.55-7.28,10.42-10.27-2.74,5.61-5.82,11.07-9.2,16.32"/>
  <path class="cls-3" d="M202.54,132.32c4.58-.71,8.85-2.52,13.23-4.02-.55-2.34-.71-4.76-.49-7.15"/>
  <path class="cls-3" d="M115.53,107.44c.49,2.31,1.71,4.46,3.45,6.05.36.33.78.65,1.27.63,1.05-.03,1.5-1.53,2.53-1.73-.03,1.66,0,3.31.08,4.97.04.82.27,1.86,1.08,2.01.4.07.8-.11,1.14-.32,1.53-.91,2.75-2.32,3.45-3.96-.08,1.42-.17,2.84-.25,4.27-.02.29-.02.61.17.83.32.36.92.17,1.29-.14s.69-.73,1.16-.81c.25.79.49,1.59.74,2.38.09.29.19.59.42.78.48.39,1.21.09,1.66-.33s.83-.98,1.42-1.16c.35,1.63.71,3.26,1.06,4.89.18.84.37,1.7.85,2.41,1.12-1.13,1.97-2.54,2.44-4.06-.21,1.57-.13,3.17.23,4.71.23.96.66,2.01,1.58,2.38s2.21-.58,1.77-1.47c.45.56.9,1.11,1.35,1.67.11.13.23.27.39.3.19.03.37-.09.52-.21,1.91-1.51,3.83-3.01,5.74-4.52.21,2.1.43,4.21.64,6.31.1.94.32,2.05,1.2,2.39.82-1.65,2.09-3.06,3.63-4.06.21,1.38.45,2.75.73,4.12.08.39.22.85.6.98.26.08.53-.02.78-.12.98-.4,1.95-.8,2.93-1.2.09,1.51.52,3,1.27,4.32.66,1.16,1.63,2.23,2.91,2.6s2.89-.22,3.31-1.49c.06,1.44.12,2.88.17,4.32.01.3.03.62.23.85.45.53,1.32.08,1.75-.47s.88-1.26,1.57-1.23c.13,1.71.18,3.42.13,5.13.76-.61,1.86.33,2.11,1.28s.23,2.06.96,2.72"/>
  <path class="cls-2" d="M86.97,159.19c1.82-11.42,7.36-22.22,15.59-30.35-4.6,7.02-8.04,14.79-10.15,22.9,1.29-8.25,6.94-15.18,13.3-20.59-5.77,7.74-9.41,17.05-10.41,26.66,2.11-5.49,3.24-11.32,5.31-16.82,2.08-5.5,5.33-10.87,10.44-13.79-3.02,10.92-5.5,21.98-7.44,33.13,1.43-9.85,9.2-17.53,12.61-26.88-3.28,10.48-11.77,19.37-12.2,30.34,6.08-7.73,11.4-16.06,15.86-24.84.44,1.2-.46,2.43-1.26,3.43-4.76,6.02-7.4,13.68-7.36,21.35,2.85-7.19,6.86-13.93,11.83-19.86.39,6.93-4.21,13.39-3.97,20.33,2.17-4.43,4.93-8.58,8.19-12.29-2.38,4.82-4.76,9.64-7.14,14.47,2.95-4.8,5.89-9.6,8.84-14.4l-3.6,15.81c2.57-3.66,5.15-7.31,7.72-10.97.47-.67,1.05-1.41,1.87-1.49.03,4.79-.19,9.57-.66,14.33,2.09-4.84,4.23-9.77,7.72-13.72-.06,5.01.11,10.02.52,15.02,2.27-4.75,4.39-9.58,6.35-14.47-.19,4.93-.16,9.86.09,14.79.7-4.78,3.18-9.28,6.84-12.43-.47,5.15-.45,10.35.06,15.49,1.4-3.1,2.79-6.21,4.19-9.31.12,3.57.42,7.14.9,10.69,1.57-3.16,3.39-6.19,5.42-9.07.25,3.81.9,7.59,1.95,11.26,1.9-2.69,4.17-5.11,6.73-7.18"/>
  <path class="cls-1" d="M7.57,227.8c-.74-1.08-1.23-2.32-1.44-3.61,4.85.34,9.63,1.53,14.07,3.51-2.48-3.17-5.6-5.84-9.11-7.81,3.82-.12,7.65-.25,11.47-.37-3.14-2.4-6.28-4.81-9.41-7.21,4.16.45,8.29,1.16,12.36,2.12-2.15-2.91-4.62-5.6-7.33-7.99,3.02.07,6.03.14,9.05.21-1.68-2.33-2.99-4.93-3.85-7.66,3.96.2,7.91.4,11.87.61-2.71-2.7-5.09-5.72-7.09-8.98,3.41.36,6.82.71,10.23,1.07-2.79-2.27-5.59-4.53-8.38-6.8,3.96,1.1,7.91,2.2,11.87,3.3-2.64-3.28-5.27-6.57-7.91-9.85,1.1,0,2.19.35,3.09.97"/>
  <path class="cls-1" d="M44.9,180.99c-2.03-2.31-4.26-4.44-6.66-6.35,5.32.56,10.53,2.17,15.23,4.71-4.48-3.56-8.4-7.82-11.58-12.59,3.89,2.06,7.97,3.76,12.17,5.08-1.2-4.66-3.54-9.03-6.74-12.62,3.87,1.9,7.73,3.79,11.6,5.69-2.05-4.47-5.5-8.11-8.89-11.67,4.07,1.32,8.07,2.88,11.97,4.65-2.75-3.94-5.49-7.87-8.24-11.81,3.38,1.53,6.62,3.36,9.67,5.47"/>
  <path class="cls-1" d="M69.06,145.92l-6.24-6.41c3.26,2.21,6.59,4.45,10.37,5.54-3.41-3.88-6.83-7.76-10.24-11.63,3.6,1.39,7.2,2.77,10.81,4.16-1.04-4.3-5.09-7.61-5.38-12.03,3.4,1.36,6.67,3.06,9.74,5.06.18-.92-.45-1.79-1.04-2.52-1.84-2.28-3.68-4.55-5.52-6.83,4.01.3,7.95,1.57,11.39,3.66.47.29,1.17.55,1.5.11.14-.2.14-.46.13-.7-.12-2.96-.71-5.9-1.74-8.67"/>
  <path class="cls-1" d="M112.18,69.46c.96.63,2.31.63,3.27-.02-.51-.85-1.11-1.67-1.96-2.18s-1.98-.65-2.81-.12c-.35.22-.63.54-.98.77-1.37.86-3.22-.09-4.75.4,1.08,2.09,3.56,2.95,5.81,3.63,3.09.93,6.18,1.85,9.27,2.78-.44-2.54,0-5.22,1.23-7.49.57-1.06,1.34-2.14,1.25-3.34-4.82-.62-9.7-.81-14.56-.55-.47.02-.96.06-1.34.34-.3.22-.49.57-.67.9-1.14,2.15-2.27,4.3-3.41,6.45,3.08,2.24,11.1,5.9,10.73,10.26-.4,4.81-8.1,9.23-8.1,13.88.11-4.93-2.2-9.86-6.07-12.92,3.03-.21,6.09.16,8.99,1.06"/>
  <path class="cls-1" d="M124.65,62.48c-4.83-1.72-9.5-3.92-13.89-6.57,6.82-.65,13.71-.53,20.5.36-4.84-2.86-9.51-6.02-13.97-9.45,3.6,1.66,7.32,3.05,11.12,4.16-2.35-2.71-4.7-5.41-7.06-8.12,3.29.97,6.58,1.94,9.87,2.92-4.32-3.27-8.65-6.55-12.97-9.82,5.55,2.14,11.09,4.28,16.64,6.42-1.81-2.99-3.63-5.98-5.44-8.97,5.85.48,11.65,1.5,17.31,3.04-3.18-3.62-6.94-6.72-11.11-9.13,3.31,1.48,6.63,2.96,9.94,4.45-3.37-2.25-6.75-4.5-10.12-6.74,3.95,1.25,7.91,2.51,11.86,3.76-4.58-2.53-9.15-5.06-13.73-7.58,5.2.22,10.37,1.17,15.31,2.82-2.49-3.78-5.31-7.34-8.42-10.63,4.47,2.06,8.82,4.35,13.05,6.87-3.46-2.81-6.73-5.85-9.78-9.1,4.15,1.54,8.29,3.08,12.44,4.62-3.45-3.69-7.37-6.93-11.64-9.63,1.98,1.07,3.96,2.14,5.95,3.22"/>
  <path class="cls-1" d="M165.14,11.34c16.21,3.37,32.72,6.86,47.1,15.08,3.22,1.84,6.35,3.93,9.86,5.14,3.73,1.29,7.72,1.54,11.61,2.19,11.33,1.91,21.71,7.3,32.32,11.71,19.97,8.3,41.27,13.32,60.76,22.69,5.22,2.51,10.32,5.33,15.82,7.12,8.24,2.67,17.51,3.1,24.43,8.31,3.56,2.68,8.45,3.74,12.73,5.02,4.45,1.32,8.89,2.65,13.34,3.97,8.52,2.54,15.97,6.26,23.42,11.11-5.35,11.55-10.6,24.01-14.17,36.22-1.22,4.18-2.28,8.42-3.85,12.48-2.08,5.41-5.03,10.45-7.41,15.73-7.05,15.63-9.05,33.06-15,49.14-2.03,5.48-4.51,10.79-6.34,16.33-2.16,6.52-3.4,13.3-5.16,19.94-1.59,6-3.61,11.89-6.03,17.6-4.58,10.83-7.24,22.53-11.29,33.56-3.48,9.47-9.39,17.97-12.21,27.66-1.12,3.85-1.73,7.83-2.75,11.71-.97,3.71-2.31,7.32-3.52,10.97-2.61,7.9-4.58,16-5.9,24.21"/>
  <path class="cls-1" d="M97.22,120.31c-4.16,7.67-7.64,15.72-10.39,24-4.86,14.66-7.39,29.98-9.53,45.27-.95,6.79-1.83,13.64-1.42,20.48.89,14.69,7.78,28.5,16.97,39.99,9.19,11.49,20.65,20.93,32.08,30.19,3.93,3.19,7.91,6.38,12.42,8.68,7.22,3.68,15.53,4.91,22.63,8.83"/>
  <path class="cls-1" d="M81.18,114.04l2.39,2.6c-1.08-2.29-2.87-3.75-4.27-5.85,3.03,2.72,6.8,4.61,10.79,5.43-2.41-2.7-4.81-5.4-7.22-8.11,3.03.1,6.05.66,8.92,1.65-.57-3.75-3.51-6.63-6.29-9.21,5.05,1.22,10.11,2.44,15.16,3.66-3.4-2.96-7.1-5.57-11.03-7.79,3.71,1.37,7.41,2.74,11.12,4.12-1.97-3.25-4.16-6.36-6.55-9.31,3.41,1.06,6.7,2.48,9.81,4.25-2.21-2.91-4.28-5.92-6.23-9.01,3.31.29,6.54,1.47,9.26,3.38"/>
  <path class="cls-1" d="M88.83,159.37c2.72-8.13,6.5-15.89,11.24-23.04,1.02-1.55,2.12-3.1,3.64-4.17-4.15,6.96-7.29,14.52-9.27,22.38-.54,2.13-.99,4.32-.73,6.5,2.88-7.44,6.78-14.49,11.54-20.9,2.87-3.86,6.15-7.57,10.39-9.86-1.17,1.58-2.34,3.16-3.51,4.74-2.07,2.8-4.15,5.61-5.87,8.63-4.13,7.26-6.1,15.73-5.6,24.07,2.97-8.82,6.73-17.41,11.72-25.25,2.45-3.86,5.29-7.61,9.11-10.11-5.4,10.1-10.84,20.3-13.95,31.33"/>
</svg>