<?xml version="1.0" encoding="UTF-8"?>
<svg id="Layer_1" data-name="Layer 1" xmlns="http://www.w3.org/2000/svg" viewBox="0 0 653.92 661.14">
  <defs>
    <style>
      .cls-1 {
        fill: #26823a;
      }

      .cls-2 {
        fill: #fdfefd;
      }

      .cls-3 {
        fill: #bbe675;
      }
    </style>
  </defs>
  <g id="GnPTWM.tif">
    <g>
      <path class="cls-2" d="M0,661.14V0h653.92v661.14H0ZM512,15.81c6.44-1.15,8.82-8.4,5.82-11-3.33-2.88-7.98-.32-8.86,2.02-1.31,3.5-.47,9.61,3.04,8.98ZM73.69,11.85l-1.52,4.67c-1.47,17.74.57,33.8,10.6,49.33,6.28,9.72,5.83,25.77,2.22,36.22l-39.6-10.9c-9.47-2.61-17.85-4.6-26.85-3.96-4.35.31-10.81-1.68-15.1,2.46-2.16,2.08-.23,6.88,1.11,8.55,2.22,2.79,6.14,3.17,9.89,2.12-.46.89-.68,1.89-.66,2.57.18,4.77,2.36,9.38,7.61,12.67l25.83,16.17c1.57.98,4.32,3.6,5.1,5.28l18.91,40.5c2.7,5.77,2.85,10.5,10.59,14.53,5.67,2.95,3.67,19.56,13.82,21.98l7.42,1.75,4.96,13.9c1.06,2.98,2.89,5.15,5.77,5.44,1.74.18,4.11-.49,5.6-2.4l5.62,1.81,1.93,7.05.45,2.84c-6.71,6.71-12.84,16.38-22.64,20.59-5.68,2.44-9.44,4.31-8.18,10.54l-3.79-.27c-8.05,2.93-15.91,12.05-15.44,21,.05.89-.5,2.25-1.04,2.83-5.21,5.55-8.58,14.65-6.77,21.68l1.73,6.69c3.32,12.84,11.53,23.66,21.15,33.1-1.91,4.31-4.22,15.23-1.21,19.58,11.85,7.84,26.06,4.31,38.53,2.95l6.97,35.87,10.3,29.73c-5.21,15.39-5.85,32.83-5.44,48.84.17,6.85-.88,13.57,2.12,19.99.57,1.23-.09,3.14-.29,4.52-1.91,13.46,2.03,29.25,11.77,39.31-1.91,5.07,1.25,10.69,3.8,13.8,5.1,6.21,11.53,3.31,18.31,4.01,15.22,1.56,28.97,11.11,42.94,8.3l2.64-.53c-3.36,6.13-3.15,14.26,2.58,18.69l.85,6.31c-2.5-1.2-4.84-1.92-7.1-1.88-4.05.08-3.75,4.65-4.13,7.2-2.35,15.5,5.88,20.06,17.73,24.31,18.12,6.5,34.75,14.13,55.18,13.8.87-.01,3.69,1.15,4.84.47s1.92-2.51,2.31-3.91l14.54.03c-.43-6.47-1.04-12.78-6.6-16.36-42.84-27.63-20.4-38.13-27.92-84.27,10.77-19.51,8.95-75.2,3.08-86.99-7.71-15.5-5.49-28.82-8.84-44.8-2.08-9.91-15.52-20.83-13.36-33.17l-4.12-13.95c5.28-7.46,4.95-13.68,4.11-23.27,14.03,12.56,13.28,20.34,34.23,24.42,38.7,7.54,42.43-21.23,51.12-21.15,4.57.04,5.25,4.01,7.08,8.04,3.67,8.08,30.15,17.15,44.53,15.73l24.61-2.43c-2.01,26.41-22.75,46.62-15.01,54.71l-.56,5.4c-1.43-.24-3.29-.13-5,.42-3,.96-2.08,4.38-3.02,7.14-12.13,35.76-15.26,73.95-5.02,109.22.6,2.07-.26,5.2-.31,7.24-7.5,6.95,3.35,30.9,9.67,48.33l-.76,4.85-10.38,17.54c-4.24,7.17-5.52,10.82-13.66,13.36-4.9,1.53-7.47,6.64-6.62,10.13,2.23,9.07,19.53,8.27,36.11,2.82,7.64-2.51,28.94,8.63,30.52-5.25,7.3.02,18.35-.69,24.08-7.38l9.1-22.18c3.32-1.27,8.8-1.67,9.26-5.15,6.72,1.6,12.18-4.26,18.18-5.84,6.65-1.75,13.84-2.57,15.45-9.78,6.53.93,9.18-4.05,12.42-7.23,11.14-10.94,10.51-22.5,12.35-36.37,2.52-19.01,2.04-34.5-1.24-53.41l-9.32-53.76c-1.7-9.78.04-19.36-.55-29.15-.64-10.59-2.85-23.77,5.55-31.97l14.15-4.34c7.92-7.75-1.09-17.55-1.25-24.05,3.57-24.35,9.5-46.53,8-71.63l1.83-19.01c.43-4.5,3.88-8.43,2.3-14.62,14.66-3.67,13.93-14.87,18.21-16.49,7.97-3.03,9.76-10.33,12.49-17.89,2.22-6.12,10.66-10.48,7.12-18.54,3.25-1.96,5.37-5.45,6.56-9.7,8.11-28.94,21.82-53.64,40.98-76.63,9.36-11.23,15.12-29.4,7.15-42.51-4.08-6.71-16.57-2.45-21.35,1.87-23.46,21.21-50.48,48.2-78.15,42.66l-1.03-28.03c-.48-12.98-1.16-25.29-6.74-36l-.92-11.27c-.19-2.28.87-7.81-2.97-9.25-5.78-2.17-15.24-1.12-21.46-.13l-14.63,57.75c-3.2,12.65-16.39,20.09-17.45,36.15-9.99-14.89-5.23-30.03-9.88-37.56-.18-12.32-4.49-24.18-8.64-35.37-2.71-7.28-6.21-11.7-12.6-17.38-13.19-11.72-23.83-22.67-38.46-10.87-6.9-5.6-14.34-6.82-22.14-3.18-8.62.41-14.73,5.44-16.25,13.99-12.97,5.35-19.92,16.36-22.06,29.26-3.06,18.42,4.38,32.99,11.01,49.14,5.84,14.21,5.95,49.38-9.85,54.12-3.63,1.09-9-2.35-12.31-5.44l-19.74-18.42-23.35-24.54c-10.67-11.21-10.73-62.72-28.32-89.2-4.77-7.19-10.06-12.64-18.67-10.11-.62-.26-2.65-.75-3.12-1.46-2.3-3.52-9.3-1.19-12.73-1.47-12.31-7.32-22.81-3.01-33.85,6.87l-1.21-.12c-12.77-1.27-42.22,48.06-15.66,82.49.69.9,1.44,2.8,2.12,3.84,1.59,2.41,5.59,7.96,3.72,11.3-3.92,7.02-12.93,5.35-18.82,3.04-8.14-7.71-9.26-17.46-14.79-26.56,1.56-9.96-13.23-23.73-20.52-21.44-.15-.58-.89-1.23-1.26-1.76.8-2.4.36-5.69-2.3-8.03-7.46-6.6-11.41-16.01-17.79-23s-10.44-11.5-13.22-20.74c-3.56-11.83-16.69-21.82-24.9-17.87-1.77.85-1.69,4.34-2.4,6.52Z"/>
      <path class="cls-1" d="M538.18,41.27l.92,11.27c.99,12.11-.72,23.09-6.54,34.06-5.96,11.23,4.72,22.96,4.78,32.36.09,12.75-9.24,23.29-2,37.75,3.7-7.85,12.72-10.21,19.47-13.71l22.24-11.55c7.18-3.73,13.85-6.09,20.34-11.1l37.76-29.1c3.28-2.52,8.47-.81,7.56,3.24-.36,1.59-.94,4.6-3.05,6.6l-25.52,24.18c4.27,21.43-15.05,18.36-25.08,43.5l-4.72,2.76c-5.16,3.02,11.49,1.42,11.87,9.41.45,9.39-14.42,8.75-10.95,15.71,1.35,2.7,3.43,4.55,6.41,4.22,3.54,8.05-4.9,12.41-7.12,18.54-2.97.56-8.37,1.98-11.03-.12-4.55-3.59,7.26-6.63,8.43-10.1,1.92-5.68-7.06-7.92-6.96-13.98.11-6.59,12.25-9.91,5.87-22.51-1.79.83-4.18,1.71-4.96,2.17-2.14,1.24-5.07-1.94-3.24-3.17l5.54-3.69c.51-11.9,6.72-22.66,13.86-35.37-14.73,10.34-27.08,15.61-42.49,22.19-7.27,3.1-14.49,17.14-16.05,24.14-1.84,8.26,9.89,28.53-1.71,37.66-4.47,3.51-11.08,4.34-18.28,4.57-.46,5.88-.23,11.11-4.12,16.2-4.43-5.51-3.99-12.09-4.9-18.86-2.67-19.7-28.91-42.69-47.53-55.09-1.33-.88-2.51-4.69-3.78-5.28-4.65-2.18-29.03,15.38-50.31,4.21-2.68-1.4-4.89-6.08-7.04-6.8-8.79-2.95-13.79,14.42-27.38,15.17.56-10.88,6.08-17.46,14.63-24.7-13.18-7.64-14.77-16.37-15.11-28.74-.73-26.32-.93-73.87,13.92-66.29,3.28,1.67-8.48,39.11-5.69,70.9.73,8.3,13.46,11.32,16.58,16.11,5.56,8.55,8.84,11.6,17.56,14.88,18.57,6.98,39.69,1.15,46.56-19.36.75-2.24,6.73-3.43,8.52-2.1,3.36,2.49-4.67,12.93-3.93,18.04.17,1.2,13.31,23.95,23.7,21.83-4.31-12.65-7.88-25.04-1.9-35.61,16.7-29.54,31.99-34.73,33.55-62.81.58-10.41,13.74-36.48,21.31-31.65ZM529.2,159.48c2.72-2.03-.88-8.83-1.55-11.51-1.77-7.08,2.2-18.37-1.14-24.89-3.28-6.41-8.28-9.35-10.92-16.58-3.97,20.46-28.94,33.06-23.73,53.42,2.59,10.12,14.55,18.67,15.33,29.53.61,8.49-3.33,15.77,4.58,24.07,21.87-15.49-9.99-33.54,17.42-54.05Z"/>
      <path class="cls-3" d="M134.3,74.97c-3.14-4.49-8.39-7.96-12.3-12.53l-21.21-24.82c-2.47-2.89-2.36-11.24-11.75-8.19l14.61,22.62,40.13,51.16c8.47,10.8,17.99,20.06,20.79,34.16-4.46,4.49-7.35,9.1-10.53,14.03-5.98-10.55-11.36-18.77-22.1-22.77.86,9.13,4.48,14.47,8.39,22.57-21.53,15.16,9.84,33.25-5.37,59.7-1.19,2.08.24,8.66-1.49,9.23s-6.67-2.48-8.06-1.36c-2.92,3.62-1.38,12.08-.38,15.75l-5.62-1.81c-2.73-9.08-4.89-18.27-5.81-28.57-.23-2.57-8.72-2.62-9.54,1.83-.48,2.6-2.19,6.43-.98,9.8l-7.42-1.75c.36-8.08,1.56-18.84-2.7-26.7-8.3-15.34,5.02-21.89-8.76-20.91-1.54-5.44-4.67-15.81-3.68-21.75.52-2.93,7-8.57,2.26-11.85-4.27-1.29-14.35,3.66-15.55,8.54-4.12,16.81,10.71,28.65,4.02,36.16l-18.91-40.5c4.56.01,9.66.12,13.09-5.29l-10.89-6.64c3.15-2.87,4.8-5.98,4.17-8.03-.71-2.33-2.67-3.83-4.03-7.1,12.2-.97,20.41,3.93,30.09,9.15l19.51,3.27c4.05.68,6.46,7.12,9.5,7.32,4.07.27,7.78-1.39,13.21-3.69-5.76-5.6-12.45-7.58-22.61-9.02,11.07-20.64,2.23-29.36,2.82-40.44.44-8.15-5.01-15.31-14.58-14.31,5.12,15.29,4.54,32.93,4.77,50.39-16.82-.92-30.57-10.19-47.7-13.36,0,6.05,3.44,7.41,6.86,10.9-8.32,2.53-12.38,1.25-17.48-.64-2.1-.78-2.88-5.72-1.43-6.18,1.16-.37,3.79-1.78,4.84-3.26,2.09-2.95-.34-6.05-2.68-6.84-8.49-2.85-13.94,1.93-18.01-.59-1.53-.95-2.52-3.17-3.25-5.44,9-.64,17.37,1.35,26.85,3.96l39.6,10.9c3.6-10.45,4.06-26.5-2.22-36.22-10.03-15.53-12.07-31.59-10.6-49.33,4.58,3.62,4.62,10.15,8.59,11.9,1.4.62,5.73.38,6.88-1.17,3-4.04,1.02-9.9-2.49-12.96-3.19-2.78-7.21-3.6-11.46-2.44.71-2.19.63-5.67,2.4-6.52,8.21-3.95,21.34,6.04,24.9,17.87,2.78,9.24,7.03,13.96,13.22,20.74s10.33,16.4,17.79,23c2.65,2.35,3.1,5.64,2.3,8.03ZM92.77,54.39c2.08-8.23-2.82-16.78-10.54-19.16-1.72,11.71-.87,20.6,5.51,21.45,1.26.17,4.35.34,5.02-2.29Z"/>
      <path class="cls-3" d="M591.67,200.88c-2.97.33-5.06-1.52-6.41-4.22-3.47-6.96,11.4-6.32,10.95-15.71-.38-7.99-17.03-6.39-11.87-9.41l4.72-2.76c10.03-25.13,29.34-22.07,25.08-43.5l25.52-24.18c2.11-2,2.7-5.01,3.05-6.6.91-4.05-4.29-5.76-7.56-3.24l-37.76,29.1c-6.49,5-13.16,7.37-20.34,11.1l-22.24,11.55c-6.75,3.51-15.77,5.87-19.47,13.71-7.24-14.46,2.09-25,2-37.75-.07-9.41-10.74-21.13-4.78-32.36,5.82-10.97,7.52-21.95,6.54-34.06,5.58,10.72,6.26,23.03,6.74,36l1.03,28.03c27.67,5.54,54.69-21.44,78.15-42.66,4.77-4.31,17.27-8.58,21.35-1.87,7.97,13.1,2.22,31.28-7.15,42.51-19.17,22.99-32.88,47.69-40.98,76.63-1.19,4.25-3.31,7.73-6.56,9.7Z"/>
      <path class="cls-1" d="M134.3,74.97c.37.54,1.11,1.19,1.26,1.76,1.68,6.27,7.57,8.4,12.74,12.37,3,2.31,3.96,8.19,7.78,9.07,5.52,9.09,6.65,18.85,14.79,26.56,6.22,26.08-23.5,37.08-12.9,42.91,2.51-6.56,11.29-9.66,15.39-13.78,5.38-5.41,11.86-21.48,27.7-22.61-1.85,13.67-13,24.96-26.53,27.71l-13.8,26.71.93,1.2c5.43.08,6.88,4.14,8.77,8.1,1.57,3.29,3.03,13-3.32,13.37-7.2,0-10.61-15.46-6.74-19.93l-1.37-2.07c-1.81-.43-5.03.39-5.77,1.97-.81,1.73.2,5.61-.27,7.98l-5.18,26.16c-1.83,9.26-6.23,23.04-8.21,23.64s-4.95-.24-8.59-1.33c.61,21.05-25.28,13.87-26.51,30.17-.2,2.7-2.05,5.1-4.54,4.49-1.42-.35-2.99-1.89-3.33-3.88-1.26-6.23,2.5-8.1,8.18-10.54,9.8-4.21,15.93-13.87,22.64-20.59,2.43-.15,2.36-3.15-.45-2.84l-1.93-7.05c-1.01-3.67-2.54-12.12.38-15.75,1.39-1.13,6.33,1.93,8.06,1.36s.3-7.16,1.49-9.23c15.21-26.45-16.16-44.54,5.37-59.7-3.92-8.1-7.53-13.44-8.39-22.57,10.74,4,16.12,12.22,22.1,22.77,3.18-4.93,6.07-9.54,10.53-14.03-2.8-14.11-12.32-23.36-20.79-34.16l-40.13-51.16-14.61-22.62c9.39-3.06,9.28,5.3,11.75,8.19l21.21,24.82c3.91,4.57,9.16,8.04,12.3,12.53ZM149.07,177.52c.48-9.35-4.55-12.29-7.07-17.13-4.32,6.68-1.42,17.27,7.07,17.13Z"/>
      <path class="cls-1" d="M201.05,131.25c.75-5.74-4.47-9.64-8.47-15.11-1.63-2.23-2.58-7.9-6.62-5.76-.68-1.04-1.43-2.94-2.12-3.84l6.07-8.33c-10.59-8.84-7.48-20.53-7.27-32.05.24-12.91,1.49-25.51,14.99-31.68,1.58-2.51,1.83-8,1.88-10.43l1.21.12c5.83.58,12.62-4.53,19.81-3.18-2.29,9.5-14.08,10.83-17.52,16.51l-9.13,15.05c-6.7,11.05-2.81,26.41-2.67,37.96.18,15.52,6.88,27.32,19.38,34.79,11.97,7.15,24.48,15.4,39.4,9.32l20.95-15.49c7.81-2.47,16.14,3.81,22.51,7.25-6.62,1.97-10.37.48-16.47-.63-.99,9.92,9.71,6.16,12.97,11.94,4.54,8.06-5.62,24.23,3,26.26,6.71,1.58,10.33,3.32,10.5,9.93.12,4.54-3.76,7.17-10.42,8.01-12.54,1.57-13.63-30.24-25.89-52.16-34.51,30.07-57.52.91-66.08,1.52Z"/>
      <path class="cls-1" d="M509.61,599.34c-1.61,7.21-8.8,8.03-15.45,9.78-6,1.58-11.46,7.44-18.18,5.84-12.63-3.01-27.12,4.48-30.5-3.52-2.26-5.35,3.33-21.69,5.97-22.34l12.08-2.96,10.86-15.85c2.25-3.28,5.13-4.91,7.98-4.98,1.82-.05,7.03,2.45,5.82,4.63l-16.41,29.54c8.12,3.96,13.61.09,20.1-2.66,2.45-1.04,7.44-.58,9-1.82s-1.95-7-1.93-9.05l.59-51.08c.11-9.79,9.27-19.28,6.53-29.21,6.88-1.43,11.51.07,13.73,3.1,1.41,1.92,2.11,6.15.95,9.57l-6.73,19.88-7.87,6.36,1.8,30.2c.49,8.2,3.5,16.41,1.68,24.57Z"/>
      <path class="cls-1" d="M220.24,587.46c-13.97,2.81-27.72-6.74-42.94-8.3-6.78-.69-13.21,2.2-18.31-4.01-2.56-3.11-5.72-8.72-3.8-13.8,2.42-6.42.91-12.63-3.78-20.09,9.69-4.72,15.33-10.03,18.36-5.68,4.48,6.46-11.53,10.57-6.86,23.08,3.13,8.37,18.32,12.35,21.62,8.28,2.46-3.03,5.53-19.34,13.36-14.38,6.97,4.41,11.79,11.37,17.44,18.02,1.36-5.98-.87-9.68-2.46-14.21,4.9-1.78,8.15-.67,10.71,1.94,1.41,1.44,1.95,4.94,3.02,7.36,4.32,9.75,1.59,16.5-6.36,21.77ZM205.06,580.53c-2.32-9.06-6.16-9.96-9.59-14.97-2.08-.13-5,4.13-3.15,5.96,3.8,3.76,6.15,8.44,12.74,9.01Z"/>
      <path class="cls-1" d="M295.14,651.92c-.4,1.4-1.19,3.24-2.31,3.91s-3.97-.48-4.84-.47c-20.43.33-37.05-7.3-55.18-13.8-11.85-4.25-20.08-8.82-17.73-24.31.39-2.55.08-7.12,4.13-7.2,2.26-.04,4.6.68,7.1,1.88.73,5.39-3.02,16.14,3.87,20.43,24.55,15.31,39.47,10.55,47.92,19.23,1,1.02,3.94-.63,4.66-1.42,1.57-1.72,1.22-5.26-1.92-6.35-7.11-2.46-10.57-8.32-16.57-12.37-29.33-19.79-10.59-25.22-14.99-63.92-.31-2.7,4.26-3.34,5.86-2.64,2.82,1.22,4.07,3.14,4.01,7.6l-.43,35.92c-.14,12.04,7.05,18.31,17.1,21.6l14.01,9.52c4.48,3.05,5.12,8.38,5.32,12.37Z"/>
      <path class="cls-1" d="M433.55,649.66c-1.58,13.88-22.88,2.73-30.52,5.25-16.58,5.46-33.88,6.26-36.11-2.82-.86-3.48,1.72-8.59,6.62-10.13,8.14-2.54,9.41-6.2,13.66-13.36l10.38-17.54c3.53.47,6.47,3.02,7.15,6.37.48,2.35-3.18,5.87-3.59,8.57-.99,6.47-.45,11.38-6.12,18.19,9.27-3.24,18.06-1.79,30.51.02-.45-22.52,12.79-28.86,14.83-24.28,4.2,9.44-5.06,14.42-6.81,29.72Z"/>
      <path class="cls-1" d="M402.02,433.85c4.53,9.69-1.69,20.17-2.3,30.82l-4.73,81.52c-.12,2.07.11,3.36-1.27,4.53-.99.85-3.15.88-4.73-.08-10.23-35.28-7.11-73.47,5.02-109.22.94-2.76.02-6.18,3.02-7.14,1.71-.55,3.56-.66,5-.42Z"/>
      <path class="cls-1" d="M136.73,418.97l-6.97-35.87,16.01-5.88c4.59,11.87,9.96,20.63,17.45,29.72l3.63,10.49,22.65,25.54c.9,1.02,1.06,4.95,1.15,5.94.14,1.44-2.78,2.78-4.73,3.43-1.33.45-2.71-3.06-3.53-4.49-8.1-7.12-16.46-12.26-21.76-21.61-4.46-7.87-6.32-16.42-14.06-21.93-1.05,6.6-1.38,11.28-3.21,17.14-3.13-.18-5.05-1.32-6.63-2.48Z"/>
      <path class="cls-1" d="M95.65,214.04c-10.15-2.42-8.15-19.03-13.82-21.98-7.74-4.03-7.9-8.76-10.59-14.53,6.69-7.51-8.14-19.35-4.02-36.16,1.2-4.88,11.28-9.84,15.55-8.54,4.74,3.28-1.74,8.92-2.26,11.85-.99,5.94,2.14,16.31,3.68,21.75,13.77-.98.46,5.57,8.76,20.91,4.25,7.86,3.06,18.62,2.7,26.7Z"/>
      <path class="cls-1" d="M52.33,137.03c-.79-1.69-3.53-4.3-5.1-5.28,1.33-8.01-4.91-10.78-9.95-15.65-7.16-6.93-13.27-14.66-23.5-13.18-.03-.68.2-1.68.66-2.57-1.65-3.17-6.49-2.72-9.89-2.12-1.34-1.67-3.27-6.47-1.11-8.55,4.29-4.14,10.75-2.15,15.1-2.46.74,2.27,1.72,4.49,3.25,5.44,4.06,2.52,9.52-2.27,18.01.59,2.34.79,4.78,3.89,2.68,6.84-1.05,1.49-3.68,2.89-4.84,3.26-1.45.47-.67,5.4,1.43,6.18,5.1,1.89,9.16,3.18,17.48.64-3.43-3.49-6.85-4.85-6.86-10.9,17.14,3.17,30.88,12.44,47.7,13.36-.23-17.46.36-35.11-4.77-50.39,9.57-.99,15.02,6.16,14.58,14.31-.59,11.08,8.25,19.79-2.82,40.44,10.16,1.44,16.85,3.42,22.61,9.02-5.43,2.29-9.14,3.96-13.21,3.69-3.05-.2-5.46-6.64-9.5-7.32l-19.51-3.27c-9.69-5.21-17.9-10.11-30.09-9.15,1.36,3.28,3.32,4.77,4.03,7.1.63,2.06-1.03,5.16-4.17,8.03l10.89,6.64c-3.43,5.41-8.53,5.3-13.09,5.29Z"/>
      <path class="cls-1" d="M141.59,497.53c-.4-16,.23-33.45,5.44-48.84,1.65-4.88,6.25-9.43-.38-16.52-1.35-1.45-1.51-6.92.7-7.37,8.72-1.78,12.25,8.96,14.01,21.77.92,6.68-7.37,12.71-10.18,17.94,1.97,9.83,2.12,16.55-.77,27.36-1.06,3.95,5.51,12.61-2.34,16.93l-6.48-11.28Z"/>
      <path class="cls-1" d="M402.58,428.46c-7.74-8.09,13-28.3,15.01-54.71,6.81-11.72,8.68-22.06,21.43-21.55l-7.06,7.23c-1.57,1.61,1.75,7.84.92,10-3.78,9.9-5.83,19.89-10.55,29.27l-10.3,20.49c-2.36,4.7-5.34,8.24-9.46,9.26Z"/>
      <path class="cls-1" d="M572.06,237.31c-4.28,1.63-3.54,12.83-18.21,16.49,1.58,6.19-1.87,10.12-2.3,14.62-4.31,2.01-10.14,4.08-15.64,3.89-3.77-.13-8.06-4.1-10.63-8.95,5.26-2.3,12.7-.92,15.5-2.86,1.6-1.11.07-7.54.95-9.4s4.62-2.21,6.66-4.55l12.04-13.82c1.93-2.22,5.51-1.73,7.86-1.71,2.74.03,4.39,3.01,3.76,6.29Z"/>
      <path class="cls-1" d="M463.15,52.87c4.15,11.18,8.47,23.05,8.64,35.37.19,13.1-3.65,25.91-6.26,40.59-5.06-1.25-5.4-7.13-3.9-9.57,6.06-9.82,1.32-17.39-.16-26.82-2.47-15.78-3.92-30.29-11.16-44.58,7.86-.81,9.27,3.53,12.84,5.01Z"/>
      <path class="cls-1" d="M247.31,18.77c.47.71,2.49,1.2,3.12,1.46,30.74,31.94,30.27,50.81,26.33,92.9-.19,2-4.15,2.91-4.96,2.15-3.97-3.67,6.14-39.98-6.76-66.42-4.71-9.64-8.48-17.37-20.27-20.92-3.84-1.16-5.49-7.96-3.57-8.53,1.48-.43,5.39-.46,6.12-.66Z"/>
      <path class="cls-3" d="M199.51,24.05c-.05,2.44-.31,7.92-1.88,10.43-13.49,6.17-14.75,18.77-14.99,31.68-.21,11.52-3.32,23.21,7.27,32.05l-6.07,8.33c-26.55-34.43,2.89-83.77,15.66-82.49Z"/>
      <path class="cls-3" d="M247.31,18.77c-.73.2-4.64.22-6.12.66-1.92.56-.27,7.37,3.57,8.53,11.79,3.55,15.57,11.28,20.27,20.92,12.9,26.43,2.79,62.75,6.76,66.42.82.76,4.78-.15,4.96-2.15,3.94-42.1,4.41-60.96-26.33-92.9,8.62-2.54,13.9,2.92,18.67,10.11,17.59,26.48,17.65,77.99,28.32,89.2l23.35,24.54,19.74,18.42c3.32,3.1,8.68,6.53,12.31,5.44,15.8-4.74,15.68-39.91,9.85-54.12-6.64-16.15-14.07-30.72-11.01-49.14,2.14-12.89,9.09-23.91,22.06-29.26,1.52-8.55,7.63-13.58,16.25-13.99,7.8-3.64,15.24-2.42,22.14,3.18,14.63-11.8,25.27-.85,38.46,10.87,6.39,5.67,9.89,10.09,12.6,17.38-3.57-1.48-4.98-5.82-12.84-5.01,7.24,14.3,8.69,28.81,11.16,44.58,1.48,9.42,6.22,16.99.16,26.82-1.5,2.44-1.16,8.32,3.9,9.57,2.61-14.68,6.45-27.49,6.26-40.59,4.65,7.53-.12,22.68,9.88,37.56,1.06-16.06,14.24-23.5,17.45-36.15l14.63-57.75c6.23-1,15.69-2.04,21.46.13,3.84,1.44,2.78,6.97,2.97,9.25-7.57-4.84-20.73,21.23-21.31,31.65-1.56,28.08-16.85,33.27-33.55,62.81-5.98,10.57-2.41,22.96,1.9,35.61-10.39,2.12-23.53-20.63-23.7-21.83-.74-5.11,7.29-15.55,3.93-18.04-1.79-1.33-7.77-.14-8.52,2.1-6.88,20.51-28,26.34-46.56,19.36-8.73-3.28-12-6.33-17.56-14.88-3.11-4.79-15.85-7.81-16.58-16.11-2.79-31.79,8.97-69.22,5.69-70.9-14.85-7.58-14.65,39.97-13.92,66.29.35,12.37,1.93,21.1,15.11,28.74-8.55,7.24-14.07,13.82-14.63,24.7,13.59-.76,18.59-18.13,27.38-15.17,2.15.72,4.36,5.39,7.04,6.8,21.27,11.16,45.66-6.39,50.31-4.21,1.27.59,2.45,4.4,3.78,5.28,18.62,12.4,44.86,35.4,47.53,55.09.92,6.77.48,13.35,4.9,18.86,3.9-5.09,3.66-10.32,4.12-16.2,7.2-.23,13.82-1.06,18.28-4.57,11.6-9.13-.13-29.4,1.71-37.66,1.56-7.01,8.78-21.04,16.05-24.14,15.41-6.57,27.76-11.85,42.49-22.19-7.14,12.71-13.34,23.47-13.86,35.37l-5.54,3.69c-1.84,1.22,1.09,4.41,3.24,3.17.79-.46,3.18-1.34,4.96-2.17,6.38,12.59-5.76,15.92-5.87,22.51-.1,6.07,8.88,8.3,6.96,13.98-1.17,3.47-12.98,6.51-8.43,10.1,2.66,2.1,8.06.68,11.03.12-2.74,7.56-4.52,14.86-12.49,17.89.63-3.28-1.02-6.27-3.76-6.29-2.36-.02-5.93-.51-7.86,1.71l-12.04,13.82c-2.04,2.34-5.76,2.64-6.66,4.55s.65,8.29-.95,9.4c-2.79,1.94-10.24.56-15.5,2.86,2.57,4.85,6.86,8.82,10.63,8.95,5.5.19,11.33-1.88,15.64-3.89l-1.83,19.01c1.5,25.1-4.43,47.28-8,71.63.16,6.5,9.17,16.3,1.25,24.05l-14.15,4.34c-8.4,8.2-6.18,21.39-5.55,31.97.59,9.79-1.14,19.37.55,29.15l9.32,53.76c3.28,18.91,3.76,34.4,1.24,53.41-1.84,13.87-1.22,25.44-12.35,36.37-3.24,3.18-5.89,8.16-12.42,7.23,1.82-8.16-1.19-16.37-1.68-24.57l-1.8-30.2,7.87-6.36,6.73-19.88c1.16-3.43.46-7.65-.95-9.57-2.22-3.03-6.84-4.53-13.73-3.1,2.74,9.93-6.42,19.42-6.53,29.21l-.59,51.08c-.02,2.05,3.48,7.82,1.93,9.05s-6.55.78-9,1.82c-6.48,2.75-11.97,6.62-20.1,2.66l16.41-29.54c1.21-2.18-3.99-4.68-5.82-4.63-2.85.07-5.74,1.7-7.98,4.98l-10.86,15.85-12.08,2.96c-2.64.65-8.23,16.99-5.97,22.34,3.38,8,17.88.52,30.5,3.52-.46,3.48-5.94,3.89-9.26,5.15l-9.1,22.18c-5.72,6.69-16.78,7.4-24.08,7.38,1.75-15.3,11.01-20.28,6.81-29.72-2.04-4.58-15.28,1.76-14.83,24.28-12.45-1.81-21.24-3.27-30.51-.02,5.67-6.81,5.12-11.72,6.12-18.19.41-2.7,4.07-6.22,3.59-8.57-.68-3.35-3.62-5.89-7.15-6.37l.76-4.85c9.39-8.44,1.19-21.86-.41-41.04-.26-3.13-1.96-5.83-4.22-7.08-1.24-.69-3.34-.74-5.04-.2.05-2.04.91-5.17.31-7.24,1.58.96,3.75.92,4.73.08,1.37-1.18,1.14-2.46,1.27-4.53l4.73-81.52c.62-10.64,6.83-21.12,2.3-30.82l.56-5.4c4.12-1.02,7.1-4.56,9.46-9.26l10.3-20.49c4.72-9.38,6.77-19.38,10.55-29.27.82-2.16-2.49-8.39-.92-10l7.06-7.23c-12.75-.52-14.62,9.82-21.43,21.55l-24.61,2.43c-14.38,1.42-40.86-7.65-44.53-15.73-1.83-4.03-2.52-8-7.08-8.04-8.69-.08-12.42,28.69-51.12,21.15-20.95-4.08-20.2-11.86-34.23-24.42.84,9.59,1.17,15.8-4.11,23.27l4.12,13.95c-2.15,12.34,11.28,23.26,13.36,33.17,3.36,15.99,1.13,29.3,8.84,44.8,5.87,11.8,7.69,67.48-3.08,86.99,7.53,46.14-14.92,56.65,27.92,84.27,5.55,3.58,6.17,9.89,6.6,16.36l-14.54-.03c-.2-3.99-.83-9.33-5.32-12.37l-14.01-9.52c-10.05-3.3-17.24-9.56-17.1-21.6l.43-35.92c.05-4.46-1.19-6.38-4.01-7.6-1.6-.69-6.16-.05-5.86,2.64,4.4,38.7-14.34,44.13,14.99,63.92,6,4.05,9.46,9.91,16.57,12.37,3.14,1.09,3.49,4.63,1.92,6.35-.72.79-3.66,2.44-4.66,1.42-8.45-8.68-23.37-3.92-47.92-19.23-6.89-4.29-3.14-15.04-3.87-20.43l-.85-6.31c4.99-1.14,7.44-6.15,7.33-10.44-.16-6.26-4.1-9.42-9.91-8.25l-2.64.53c7.95-5.27,10.68-12.02,6.36-21.77-1.07-2.42-1.61-5.93-3.02-7.36-2.56-2.62-5.81-3.72-10.71-1.94,1.59,4.52,3.81,8.23,2.46,14.21-5.65-6.65-10.47-13.61-17.44-18.02-7.83-4.96-10.9,11.35-13.36,14.38-3.3,4.07-18.49.09-21.62-8.28-4.68-12.52,11.34-16.63,6.86-23.08-3.02-4.35-8.67.95-18.36,5.68,4.68,7.46,6.2,13.67,3.78,20.09-9.74-10.07-13.69-25.85-11.77-39.31l10.17,11.17c4.78-3.02,6.44-9.71,2.26-14.06-2.54-2.65-7.99-4.29-12.14-1.63-3-6.42-1.95-13.15-2.12-19.99l6.48,11.28c7.85-4.32,1.28-12.98,2.34-16.93,2.9-10.8,2.74-17.53.77-27.36,2.81-5.22,11.1-11.26,10.18-17.94-1.76-12.81-5.29-23.55-14.01-21.77-2.22.45-2.05,5.92-.7,7.37,6.63,7.09,2.03,11.64.38,16.52l-10.3-29.73c1.58,1.16,3.5,2.3,6.63,2.48,1.82-5.86,2.16-10.54,3.21-17.14,7.74,5.51,9.6,14.06,14.06,21.93,5.3,9.35,13.67,14.49,21.76,21.61.82,1.43,2.2,4.94,3.53,4.49,1.95-.65,4.87-1.99,4.73-3.43-.09-.99-.25-4.93-1.15-5.94l-22.65-25.54-3.63-10.49c-7.49-9.09-12.86-17.84-17.45-29.72l-16.01,5.88c-12.47,1.37-26.68,4.89-38.53-2.95-3.01-4.35-.7-15.27,1.21-19.58,2.08-2.32,6.8-4.1,8.16-7.36-17.05-14.37-17.94-29.62-29.31-25.74l-1.73-6.69c2.65,1.14,5.06,2.94,9.27,2.74.26-9.2-.82-16.76-2.51-24.42.54-.58,1.09-1.94,1.04-2.83,1.52.96,3.65,1.12,4.8.4,1.73-1.07,2.28-3.07,3.31-5.18l7.33-16.23,3.79.27c.34,1.99,1.91,3.53,3.33,3.88,2.49.61,4.34-1.79,4.54-4.49,1.23-16.31,27.12-9.12,26.51-30.17,3.64,1.09,6.62,1.93,8.59,1.33s6.37-14.37,8.21-23.64l5.18-26.16c.47-2.37-.54-6.25.27-7.98.73-1.57,3.95-2.4,5.77-1.97.37-.39.96-.75,1.73-.68l13.8-26.71c13.54-2.75,24.68-14.04,26.53-27.71,8.57-.61,31.57,28.55,66.08-1.52,12.26,21.93,13.35,53.73,25.89,52.16,6.66-.83,10.53-3.47,10.42-8.01-.17-6.61-3.79-8.34-10.5-9.93-8.62-2.03,1.54-18.21-3-26.26-3.25-5.78-13.96-2.02-12.97-11.94,6.1,1.11,9.85,2.6,16.47.63-6.37-3.44-14.7-9.72-22.51-7.25l-20.95,15.49c-14.92,6.08-27.42-2.17-39.4-9.32-12.5-7.47-19.2-19.27-19.38-34.79-.14-11.55-4.03-26.91,2.67-37.96l9.13-15.05c3.45-5.68,15.23-7.01,17.52-16.51-7.19-1.35-13.98,3.76-19.81,3.18,11.04-9.88,21.54-14.19,33.85-6.87,3.43.28,10.43-2.06,12.73,1.47ZM411.52,32.03c-.39-7.5-24.01-7.8-33.68,3.29-3.81,4.37,4.55,14.51,8.02,11.06,17.86-17.75,26.02-7.49,25.66-14.36ZM449.29,40.69c-8.88-11.24-18.65-13.07-29.95-13.7-1.88,3.68-.66,7.56,2.21,10.21,1.6,1.49,21.98,6.34,27.74,3.49ZM223.17,66.18c1.84-2.49,4-7.13,2.06-11.15-2.1-4.34-9.13-3.27-11.05.82-2.71,5.75-7.47,6.91-12.66,9.09-2.32.97-1.1,6.89.81,7.37-.8-.2,18.16-2.5,20.84-6.13ZM260.45,70.11c-4.93-1.37-9.77-4.69-11.43-10.27-1.8-6.04-13.41-9.96-15.39-5.08-2.42,5.93,20,28.95,26.82,15.35ZM416.14,78.83c-9.25,1.01-8.32,6.05-14.67,5.96,5.57-6.61,9.26-10.23,9.82-17.44.23-3.01-3.45-5.82-6.16-4.5-.22,11.9-9.79,17.93-23,19.82,4.7,8.18,9.53,4.89,17.01,5.13l-9.62,7.7c12.54.78,25.89-5.77,26.62-16.68ZM445.54,82.97c3.19,3,6.31.1,5.7-2.71-1.04-4.78-13.36-3.34-19.12-17.71-5.93,3.45-.91,7.67-1.14,9.58-.6,4.98-4.38,9.41-.41,13.58,2.48,2.61,6.94,8.45,10.69,3.7-.05-2.03-3.47-5.58-4.2-6.73s1.66-4.68,4.03-2.88c.73.56,2.27,1.12,4.45,3.17ZM235.07,83.42c4.08,2.56,5.35,6.16,10.4,8.92.9-10.38-6.59-17.58-16.42-22.61-.34,11.9-2.23,17.76-9.84,27.29l18.87-2.42c-3.6-4.29-5.15-6.81-3.01-11.18ZM432.35,107.84c4.94-2.5-6.83-18.18-12.5-16.65-8.55,2.3-11.33,13.99-10.42,19.99,3.51,1.1,5.61-.02,5.85-1.18l.98-4.67c.69-3.3,3.43-7.73,6.33-7.5,4.36.35,5.74,12.03,9.76,10ZM260.43,108.2c.26-1.59-3.46-3.72-4.47-3.27-5.66,6.67-12.84,8.9-20.41,14.53,11.14,6.37,23.03-.19,24.88-11.26ZM233.52,118.24c-9.03-7.02-14.13-10.05-24.27-10.73,3.89,10.37,14.95,15.77,24.27,10.73ZM446.41,127.26c2.17-3.84-.45-7.57-2.26-7.89-3.78-.66-15.9,11.92-17.01,22.02,7.15-1.96,15.16-6.87,19.27-14.13ZM422.68,139.42c-8.25-13.07-21.39-17.38-21.84-11.26-.05.63,13.5,15.42,21.84,11.26ZM344.31,189.69c.77-12.18-6.46-17.86-14.2-23.88-6.22-4.84-18.83-25.66-28.54-23.82-2.26.43-3.17,7-1.56,9.37,1.29,1.89,4.96,3.41,7.71,5.52l21.9,16.84c4.99,3.84,4.82,13.57,14.68,15.96ZM216.79,214.94c4.08-20.09,6.97-42.49-4.79-44.78-3.48-.68-6.36,2.86-6.26,5.79.06,1.81,3.59,4.83,4.13,7.18,2.39,10.48-1.96,21.16,6.92,31.8ZM457.5,189.25c4.13-2.24,6.04-6.54,4.86-10.17-.72-2.22-2.59-7.13-7.27-5.78-4.42,1.28-11.65,7.35-12.71,12.22l-5.72,26.3c10.79-1.43,7.19-15.19,20.83-22.58ZM356.6,214.19c3.68-9.6-.1-13.08-3.12-20.12,6.53.49,10.54-.82,12.95-3.38,1.93-2.05,3.75-9.75.12-10.71-6.56-1.74-10,6.7-11.7,11l-8.1,5.65c1.73,6.96,4.92,12.46,9.85,17.56ZM258.2,245.36c9.82,1.48,16.93-5.77,23.13-14.68l16.9,33.59c3.5-11.36-.74-21.74-6.69-31.05l-19.84-31.07c-3.13-4.91,2.25-14.33-.11-19.11-2.1-4.24-9.64,1.5-9.19,7.17,1.95,24.44,14.14,34.31,5.81,37.69-2.16.88-8.17-1.27-9.96-.13s-2.29,6.59-2.88,9.43c-5.23,2.74-8.19-4.43-10.15-7.36-4.79-7.18,7.55-21.93-1.68-23.77-10.37-2.06-5.29,15.8-14.25,26.42l-7.03-5.34c1.87-6.02-.76-8.81-5.5-9.05-12.08-.62-5.93,29.54,16.68,39.61l23.73,10.56c2.61-6.59,1.25-14.55-1.56-19.77-.15-.27-1-1.35-3.32-2.25,2.42-1.12,2.04-2.25,4.18-.91.34.21,1.31.08,1.72.03ZM304.28,198.83c5.07-1.7,2.39-8.9.18-10.84-1.96-1.72-4.67-4.2-9.34-2.21-1.42,4.2,3.16,15.06,9.16,13.04ZM161.65,186.88l-1.29,1.54c-3.87,4.47-.46,19.93,6.74,19.93,6.35-.37,4.9-10.08,3.32-13.37-1.89-3.96-3.34-8.02-8.77-8.1ZM334.15,281.9c8.39-13.07-.75-16.28-2.38-22.04-3.33-11.77.95-25.8-11.55-35.37l6.18-8.62c-4.78-7.86-9.83-14.19-21.58-13.69,11.82,19.58,10.84,41.48,23.06,57.15-3.46,9.5,1.47,16.85,6.26,22.57ZM483.85,203.46c-8.13,10.95-6.58,24.34-5.75,34.83,9.32,4.14,14.57-23.4,5.75-34.83ZM352.34,246.95c4.31,4.2,14.31,3.56,20.07.42,3.88-2.12,7.2-7.97,10.08-13.39,5.21,11.94,4.18,24.23,16.68,31.11l-8.29-37.55c-1.06-4.81,3.13-11.16,1.8-15.57-14.58-2.21-12.86,32.47-35.84,27.3-6.45-1.45-26.03-23.16-23.8-10.57,1.18,6.65,9.57,8.77,19.3,18.24ZM192.95,262.29c-7.66-7.62-7.11-14.44-9.19-22.05-2.8-10.22-8.28-19.02-13.04-28.79-8.09,5.3-3.09,11.79-2.05,17.27,2.28,12.1,3.64,20.04,12.54,28.78,2.61,2.56,3.58,8.89,11.75,4.79ZM442.23,222.09c.28-4.11-6.63-5.23-7.29-2.99-2.64,8.99-4.27,18.26-.94,28.49,6.21-6.82,7.56-15.8,8.23-25.5ZM515.17,247.55c-1.3-2.74-3.1-5.08-8.42-3.5v16.09c.02,3.63,4.49,4.81,6.84,3.02s3.83-10.86,1.58-15.61ZM482.11,250.21c-1.38-.76-4.47-.64-5.3.42-1,1.29-2.58,11.97-.08,14.14,1.38,1.2,4.84,2.1,5.7,1.01,2.32-2.93,2.07-14.25-.32-15.57ZM435.68,254.33c-3.81-3.31-18.52,1.34-18.87,6.01,1.39,7.75,8.71,7.46,13.38,5.71,4.27-1.6,11.55-6.47,5.5-11.72ZM180.14,330.23c-14.96-11.3-15.86-32.07-1.98-44.13,10.25,1.21,18.19-5.01,18.22-15.23-18.59-6.58-40.46-7.47-40.44,2.78.02,11.1-1.56,22.96-12.58,30.5-2.93-11.98,15.33-25.75,3.92-35.47-4.41-3.76-32.36-4.31-38.14,6.58,6.15,11.8,9.12,19.91,7.66,32.78-1.75,15.54-.41,35.78-11.19,49.42-3.45,4.37-15.72,10.17-9.34,18.86,14.8,6.34,41.61,2.82,46.29-7.32,2.4-5.21-9.05-14.3,2.27-29.27l16.44,33.38c20.78-1.27,38.8-.57,37.51-12.41-.65-5.95-16.57-17.42-18.64-30.48ZM242.76,369.39c6.9-.09,8.86-6.46,8.99-11.11.11-3.9-5.65-6.44-9.1-9.15,1.37-7.9-.4-17.61-.26-25.31.16-8.52,2.74-15.85.65-24.52-2.46-10.19,15.69-17,7.13-28.29-2.97-3.92-37.21-8.56-46.02,1.92-5.06,6.02,5.97,12.18,7.17,16.3,5.77,19.75,1.64,43.98-.94,63.94l-9.75,11.31c6.76,7.29,15.88,5.26,25.21,5.13l16.92-.23ZM329.6,354.25c4.89-10.13,13.89-19.17,13.02-31.03-2.18-29.66-15.42-33.62-15.85-41.28-.51-9.04-8.98-8.46-13.75-10.33-12.83-5.04-21-3.21-32.05,1.84-10.64,4.86-15.05,9.59-18.54,20.39-7.07,21.85-5.06,49.05,8.11,63.19,15.33,16.46,49.27,17.51,59.06-2.78ZM412.54,366.68c11.31-6.55,9.74-20.74,10.54-29.34,1.11-11.81-1.71-17.72-11.6-23.48-5.11-2.98-9.65-8.29-16.83-8.83-3.66-.27-5.91-2.82-6.91-4.64-1.1-2.01-.34-8.37,2.71-8.55,5.28-.31,10.51,2.5,15.61,4.15.47,7.23,4.4,11.39,9.69,11.23,6.49-.19,10.46-5.41,8.8-12.98-1.59-7.27-5.29-16.07-9.08-22.01-2.88-4.51-9.24.28-12.23-.66-8.88-2.78-21.23-5.63-31.12.24-8.72,5.17-12.63,12.57-16.29,24.2-6.63,21.08,12.95,44.63,31.98,45.22,3.77.12,5.99,10.86,2.39,12.02-13.24,4.29-25.06-6.4-28.34-18.02-.95-3.35-6.33-3.41-8.02-2.2-6.02,4.28-3.41,24.31,1.58,27.38,18.21,11.18,37.91,13.55,57.13,6.26ZM484.2,373.79c5-11.59-7.99-11.81-11.11-19.17-1.1-2.6.6-8.31,2.82-7.98,9.16,1.35,9.17,12.12,13.74,16.01,15.22,12.93,14.83,19.85,48.42,16.66,4.01-1.16,3.02-13.72-.6-15.54-14.53-7.31-36-34.48-40.28-52.45,5.54-5.11,9.7-14.59,16.52-17.82,5.69-2.58,12.98-.6,14.56-8.42,1.12-5.55-.1-11.09-4.71-14.68s-10.41-.06-15.77.07c-8.67.22-15.62-1.21-20.08,5.57-3.64,5.54-3.41,11.8.67,18.52l-14.84,15.47c-6.97-14.51,16.39-31.3,5.42-37.37-6.52-3.61-36.35-6.4-41.25,6.44-2.44,6.4,3.36,10.66,5.37,15.48,5.17,12.42-.7,27.5-.11,40.5l1.02,22.62c-2.1,2.19-8.27,5.38-5.81,9.51,6.88,11.53,25.22,6.95,46,6.57ZM529.34,350.07c13.99-8.36,11.33-21.35,9.92-33.81-.5-4.44.45-10.76-1.97-13.68-1.68-2.03-7.38-5.44-9.45-3.47-5.23,15.31,6.53,27.81-.8,36.25-6.77,7.79.43,15.83,2.3,14.71ZM239.53,374.79c-6.32-.6-7.03,2.62-6.5,4.93,1.6,6.92,3.84,12,12,12.25-1.06-7.44-2.34-12.14-5.5-17.18ZM512.05,494.82c7.74-7.5-2.34-10.27-3.37-13.27-3.15-9.19-8.68-18.97-7.03-28.37,1.56-8.89,10.14-16.39,7.96-26.83-1.61-7.68,2.42-33.09,11.27-39.48-3.4-2.12-12-4.45-15.77-1.39-5.8,4.7-5.17,14.4-6.59,21l-11.61,1.35c-6.12,9.44-11.73,18.69-10.71,31.12,9.53-.61,14.34-6.27,17.65-15.89,3.49,2.19,3.92,6.19,2.37,10.2-8.4,21.83-3.25,47.2,15.83,61.57ZM248.73,393.43c-6.39.76-7.95,1.86-10.11,3.44l9.81,33.5c2.63,8.99,6.43,18.4,12.87,26.37,9.77-40.88-10.37-41.39-12.57-63.31ZM448,433.07c-.43-6.05-3.04-8.56-5.09-9.98-1.46-1.01-6.47-1.83-7.64.16-3.7,6.33,2.06,12.73,9.65,14.34,3.95,5.36,9.44-1.71,3.08-4.52ZM483.19,540.25c4.43-10.61-3.99-13.03-4.54-17.21-1.08-8.29-3.55-13.63-5.34-20.78-3.25-12.95-2.92-30.66-13.08-34.03,7.23-8.36,16.79-15.01,14.75-27.84-8.66,9.58-13.2,16.22-22.81,21.64-5.4,11.77-14.74,19.22-7.89,22.57,4.29,2.1,8.65-4.2,11.08-2.29,5.84,4.58,7.85,46.89,27.83,57.95ZM208.52,519.75c7.11-8.41,5.19-17.92,8.71-26.64,4.83-10.04,6.17-21.04-2.23-30.62-4.71-4.71-13.39-12.91-22.19-8.72,2.05,2.51,3.81,3.15,4.87,3.59,1.91.8,1.36,3.58-.66,3.62-1.25.02-3.1-.26-5.78-.85-2.21,4.3-2.45,8.53-2,14.24,6.18-3.04,8.97-7.28,10.11-14.55,21.46,17.39-5.4,39.13,9.18,59.92ZM271.33,514.83c1.24-26.06.25-62.61-11.1-56.94-9.47,4.73,5.84,28.63,2.74,61.65-1.31,14.03-5.92,26.76-3.55,40.85,12.29-14.4,11.2-30.87,11.9-45.56ZM190.8,524c-.46-3.81-4.55-6.02-10.05-8.5,7.36-8.46,13.27-14.92,15.53-24.51,1.68-7.17-1.02-11.23-9.22-13.93,3.45,10.19-6.94,17.98-7.42,28.15l-1.43,30.27c-.09,1.8,1.86,5.15,3.05,5.81,3.06,1.71,10.87-6.32,9.56-17.29ZM443.39,555.27c4.29,8.11,1.42,17.05,2.25,26.8,10.2,2.08,19.4-3.4,22.83-12.96,4.03-11.22,3.66-22.71.06-33.9l-10.59-32.93c-1.71-5.31-10.18-14.47-14.92-9.2s-.3,17.67-.24,24.19l.32,35.48c-4.58-2.94-1.66-10.32-2.22-16.06-2.75-28.39-1.38-59.61-10.85-50.67-1.1,1.04-2.96,2.98-2.55,5.87l2.87,20.43.63,41.07c.18,12.01-2.61,23.33,1.34,34.36,9.37-2.57,9.97-18.56,11.08-32.49ZM244.56,509.2c-1.19-.62-3.72-.84-5.72.74-5.02,3.98-3.99,15.84,2.66,17.06,6.58-4.23,7.67-15.38,3.06-17.8ZM213.87,554.58c5.07-8.46,5.11-14.61,5.08-22.76l9.41-6.26c2.75-1.83,2.07-6.34.7-8.15-1.12-1.49-4.98-3.1-7.37-.33-1,2.21,1.5,8.79-1.95,12.41-1.8.14-3.5-3.26-4.24-4.48-.8-1.31-5.08-1.38-6.27.73-5.18,9.17-3.79,20.07,4.64,28.84ZM231.59,534.28c-6.95-2.58-8.97,4.71-8.05,7.88.64,2.21.22,8.23,4.48,8.55,6.37.48,10.32-13.93,3.58-16.44ZM493.72,587.39c2.77-5.5-2.39-7.23-5.84-5.02-1.7,1.09-4.06,2.67-4.23,7.29-.12,3.37,3.89,4.35,5.98,2.39.81-.76,2.37-1.25,4.09-4.66ZM433.99,614.54c5.93-.31,5.24-8.55,3.8-11.37-1.31-2.57-4.24-6.04-9.02-3.7-5.32,2.6-.09,15.35,5.22,15.07Z"/>
      <path class="cls-3" d="M201.05,131.25c-15.84,1.13-22.32,17.2-27.7,22.61-4.1,4.12-12.88,7.21-15.39,13.78-10.6-5.83,19.12-16.83,12.9-42.91,5.9,2.31,14.9,3.98,18.82-3.04,1.87-3.34-2.14-8.89-3.72-11.3,4.04-2.14,4.99,3.53,6.62,5.76,4,5.47,9.22,9.38,8.47,15.11Z"/>
      <path class="cls-1" d="M398.34,606.21c-6.32-17.43-17.17-41.38-9.67-48.33,1.7-.53,3.8-.48,5.04.2,2.25,1.25,3.96,3.95,4.22,7.08,1.6,19.18,9.81,32.6.41,41.04Z"/>
      <path class="cls-1" d="M92.43,360.58c-9.61-9.44-17.82-20.26-21.15-33.1,11.37-3.87,12.26,11.37,29.31,25.74-1.36,3.26-6.09,5.04-8.16,7.36Z"/>
      <path class="cls-1" d="M119.41,232.73c-1.49,1.91-3.86,2.58-5.6,2.4-2.87-.3-4.71-2.47-5.77-5.44l-4.96-13.9c-1.2-3.37.5-7.2.98-9.8.82-4.45,9.32-4.4,9.54-1.83.92,10.3,3.08,19.49,5.81,28.57Z"/>
      <path class="cls-3" d="M47.22,131.74l-25.83-16.17c-5.26-3.29-7.43-7.89-7.61-12.67,10.22-1.47,16.33,6.26,23.5,13.18,5.04,4.87,11.28,7.64,9.95,15.65Z"/>
      <path class="cls-1" d="M72.17,16.52l1.52-4.67c4.25-1.16,8.27-.34,11.46,2.44,3.51,3.06,5.49,8.93,2.49,12.96-1.15,1.55-5.48,1.78-6.88,1.17-3.97-1.74-4.01-8.28-8.59-11.9Z"/>
      <path class="cls-1" d="M225.46,605.63c-5.72-4.43-5.94-12.57-2.58-18.69,5.81-1.17,9.75,2,9.91,8.25.11,4.29-2.34,9.3-7.33,10.44Z"/>
      <path class="cls-1" d="M69.55,320.79c-1.82-7.03,1.56-16.13,6.77-21.68,1.68,7.66,2.77,15.22,2.51,24.42-4.21.2-6.62-1.6-9.27-2.74Z"/>
      <path class="cls-1" d="M143.42,522.05c.2-1.38.86-3.29.29-4.52,4.15-2.67,9.6-1.02,12.14,1.63,4.18,4.35,2.52,11.04-2.26,14.06l-10.17-11.17Z"/>
      <path class="cls-1" d="M92.8,275.28l-7.33,16.23c-1.03,2.12-1.59,4.11-3.31,5.18-1.15.71-3.28.55-4.8-.4-.48-8.95,7.39-18.07,15.44-21Z"/>
      <path class="cls-1" d="M512,15.81c-3.51.63-4.35-5.48-3.04-8.98.88-2.33,5.53-4.89,8.86-2.02,3,2.6.62,9.85-5.82,11Z"/>
      <path class="cls-3" d="M156.08,98.17c-3.82-.88-4.78-6.77-7.78-9.07-5.16-3.96-11.06-6.09-12.74-12.37,7.29-2.29,22.08,11.48,20.52,21.44Z"/>
      <path class="cls-3" d="M14.44,100.34c-3.75,1.05-7.66.66-9.89-2.12,3.4-.6,8.24-1.05,9.89,2.12Z"/>
      <path class="cls-3" d="M127.4,244.42l-.45-2.84c2.8-.32,2.88,2.69.45,2.84Z"/>
      <path class="cls-1" d="M484.2,373.79c-20.79.38-39.13,4.95-46-6.57-2.47-4.13,3.7-7.32,5.81-9.51l-1.02-22.62c-.58-13.01,5.28-28.08.11-40.5-2-4.82-7.81-9.08-5.37-15.48,4.9-12.83,34.74-10.04,41.25-6.44,10.96,6.07-12.39,22.86-5.42,37.37l14.84-15.47c-4.08-6.73-4.32-12.98-.67-18.52,4.46-6.78,11.41-5.36,20.08-5.57,5.36-.13,11.08-3.72,15.77-.07s5.83,9.13,4.71,14.68c-1.58,7.82-8.87,5.84-14.56,8.42-6.82,3.23-10.98,12.71-16.52,17.82,4.28,17.97,25.75,45.14,40.28,52.45,3.62,1.82,4.61,14.38.6,15.54-33.59,3.19-33.2-3.72-48.42-16.66-4.57-3.88-4.58-14.65-13.74-16.01-2.23-.33-3.93,5.38-2.82,7.98,3.12,7.36,16.11,7.58,11.11,19.17Z"/>
      <path class="cls-1" d="M180.14,330.23c2.07,13.06,17.99,24.53,18.64,30.48,1.29,11.84-16.73,11.14-37.51,12.41l-16.44-33.38c-11.32,14.97.13,24.07-2.27,29.27-4.68,10.14-31.48,13.66-46.29,7.32-6.38-8.69,5.89-14.49,9.34-18.86,10.78-13.65,9.44-33.89,11.19-49.42,1.45-12.87-1.52-20.98-7.66-32.78,5.78-10.89,33.72-10.34,38.14-6.58,11.41,9.72-6.85,23.49-3.92,35.47,11.02-7.54,12.61-19.4,12.58-30.5-.02-10.25,21.85-9.37,40.44-2.78-.03,10.22-7.96,16.44-18.22,15.23-13.88,12.06-12.98,32.83,1.98,44.13Z"/>
      <path class="cls-1" d="M329.6,354.25c-9.79,20.29-43.73,19.24-59.06,2.78-13.17-14.14-15.18-41.34-8.11-63.19,3.5-10.8,7.9-15.53,18.54-20.39,11.05-5.05,19.21-6.88,32.05-1.84,4.77,1.87,13.24,1.29,13.75,10.33.43,7.66,13.68,11.61,15.85,41.28.87,11.86-8.13,20.91-13.02,31.03ZM310.84,338.33c-2.72-6.86.06-12.92,0-19.59-.08-8.11-6.52-14.62-8.62-21.81-1.28-4.38-5.14-5.93-8.55-4.88-4.91,1.52-10.31,16.4-5.03,30.05l8.63,22.31c1.49,3.85,7.1,4.56,10.18,3.07,2.26-1.09,4.89-5.36,3.39-9.15Z"/>
      <path class="cls-1" d="M412.54,366.68c-19.22,7.29-38.92,4.92-57.13-6.26-4.99-3.07-7.61-23.09-1.58-27.38,1.69-1.2,7.08-1.15,8.02,2.2,3.29,11.62,15.11,22.31,28.34,18.02,3.6-1.16,1.38-11.9-2.39-12.02-19.03-.6-38.61-24.14-31.98-45.22,3.66-11.63,7.57-19.03,16.29-24.2,9.9-5.87,22.25-3.02,31.12-.24,2.98.93,9.35-3.85,12.23.66,3.79,5.94,7.5,14.74,9.08,22.01,1.65,7.57-2.32,12.79-8.8,12.98-5.28.15-9.22-4-9.69-11.23-5.09-1.65-10.33-4.46-15.61-4.15-3.05.18-3.81,6.55-2.71,8.55,1,1.82,3.26,4.37,6.91,4.64,7.18.53,11.72,5.85,16.83,8.83,9.88,5.76,12.7,11.67,11.6,23.48-.81,8.6.77,22.79-10.54,29.34Z"/>
      <path class="cls-1" d="M242.76,369.39l-16.92.23c-9.33.12-18.45,2.16-25.21-5.13l9.75-11.31c2.58-19.96,6.71-44.19.94-63.94-1.2-4.12-12.23-10.28-7.17-16.3,8.82-10.49,43.05-5.84,46.02-1.92,8.56,11.29-9.59,18.1-7.13,28.29,2.09,8.66-.49,16-.65,24.52-.14,7.7,1.64,17.41.26,25.31,3.45,2.71,9.21,5.25,9.1,9.15-.13,4.65-2.09,11.02-8.99,11.11Z"/>
      <path class="cls-1" d="M255.63,248.49c2.81,5.22,4.16,13.18,1.56,19.77l-23.73-10.56c-22.62-10.06-28.76-40.23-16.68-39.61,4.74.24,7.37,3.03,5.5,9.05l7.03,5.34c8.96-10.62,3.88-28.48,14.25-26.42,9.22,1.84-3.12,16.59,1.68,23.77,1.96,2.93,4.92,10.1,10.15,7.36.59-2.84,1.13-8.31,2.88-9.43s7.79,1.01,9.96.13c8.34-3.39-3.86-13.25-5.81-37.69-.45-5.67,7.1-11.41,9.19-7.17,2.36,4.78-3.02,14.2.11,19.11l19.84,31.07c5.95,9.32,10.18,19.7,6.69,31.05l-16.9-33.59c-6.2,8.91-13.31,16.15-23.13,14.68l-2.58,3.13ZM245.78,256.98c1.44-9.02-.16-17.36-6.26-26.89-4.99,5.08-9.02,6.83-15.81,8.81l22.07,18.09ZM256.48,245.33c-2.14-1.34-1.76-.22-4.18.91l4.18-.91Z"/>
      <path class="cls-2" d="M443.39,555.27c-.35-.66-.28-1.58-.29-2.51l-.32-35.48c-.06-6.53-4.67-18.73.24-24.19s13.21,3.89,14.92,9.2l10.59,32.93c3.6,11.18,3.97,22.68-.06,33.9-3.43,9.56-12.63,15.04-22.83,12.96-.83-9.76,2.04-18.69-2.25-26.8Z"/>
      <path class="cls-1" d="M512.05,494.82c-19.08-14.37-24.23-39.74-15.83-61.57,1.54-4.01,1.12-8.01-2.37-10.2-3.31,9.62-8.12,15.28-17.65,15.89-1.02-12.42,4.59-21.68,10.71-31.12l11.61-1.35c1.42-6.59.79-16.29,6.59-21,3.76-3.05,12.37-.73,15.77,1.39-8.84,6.39-12.87,31.8-11.27,39.48,2.19,10.44-6.4,17.94-7.96,26.83-1.65,9.4,3.88,19.18,7.03,28.37,1.03,3,11.12,5.76,3.37,13.27Z"/>
      <path class="cls-1" d="M483.19,540.25c-19.98-11.06-21.99-53.37-27.83-57.95-2.42-1.9-6.78,4.39-11.08,2.29-6.85-3.35,2.49-10.8,7.89-22.57,9.61-5.41,14.15-12.06,22.81-21.64,2.04,12.82-7.52,19.47-14.75,27.84,10.16,3.37,9.83,21.08,13.08,34.03,1.8,7.15,4.26,12.48,5.34,20.78.54,4.18,8.96,6.61,4.54,17.21Z"/>
      <path class="cls-1" d="M443.1,552.76c0,.92-.06,1.85.29,2.51-1.11,13.94-1.71,29.93-11.08,32.49-3.95-11.03-1.16-22.36-1.34-34.36l-.63-41.07-2.87-20.43c-.41-2.89,1.45-4.83,2.55-5.87,9.47-8.94,8.11,22.28,10.85,50.67.55,5.73-2.36,13.12,2.22,16.06Z"/>
      <path class="cls-1" d="M352.34,246.95c-9.73-9.47-18.12-11.59-19.3-18.24-2.24-12.59,17.35,9.12,23.8,10.57,22.98,5.17,21.26-29.51,35.84-27.3,1.33,4.41-2.87,10.75-1.8,15.57l8.29,37.55c-12.49-6.89-11.47-19.17-16.68-31.11-2.88,5.42-6.2,11.27-10.08,13.39-5.77,3.15-15.76,3.78-20.07-.42Z"/>
      <path class="cls-1" d="M271.33,514.83c-.7,14.69.39,31.16-11.9,45.56-2.37-14.09,2.23-26.82,3.55-40.85,3.09-33.02-12.22-56.93-2.74-61.65,11.35-5.66,12.33,30.88,11.1,56.94Z"/>
      <path class="cls-1" d="M208.52,519.75c-14.58-20.79,12.29-42.53-9.18-59.92-1.14,7.27-3.93,11.51-10.11,14.55-.44-5.71-.21-9.94,2-14.24,2.68.59,4.53.87,5.78.85,2.02-.04,2.57-2.82.66-3.62-1.05-.44-2.81-1.08-4.87-3.59,8.79-4.18,17.47,4.01,22.19,8.72,8.4,9.57,7.06,20.58,2.23,30.62-3.52,8.71-1.61,18.22-8.71,26.64Z"/>
      <path class="cls-1" d="M334.15,281.9c-4.79-5.72-9.73-13.06-6.26-22.57-12.22-15.67-11.23-37.57-23.06-57.15,11.75-.5,16.8,5.83,21.58,13.69l-6.18,8.62c12.5,9.56,8.22,23.6,11.55,35.37,1.63,5.76,10.76,8.97,2.38,22.04Z"/>
      <path class="cls-1" d="M248.73,393.43c2.2,21.92,22.33,22.43,12.57,63.31-6.44-7.97-10.24-17.38-12.87-26.37l-9.81-33.5c2.16-1.58,3.72-2.68,10.11-3.44Z"/>
      <path class="cls-1" d="M190.8,524c1.32,10.97-6.5,19-9.56,17.29-1.2-.67-3.14-4.01-3.05-5.81l1.43-30.27c.48-10.18,10.88-17.97,7.42-28.15,8.2,2.7,10.91,6.76,9.22,13.93-2.25,9.59-8.16,16.05-15.53,24.51,5.51,2.48,9.6,4.69,10.05,8.5Z"/>
      <path class="cls-1" d="M529.34,350.07c-1.87,1.12-9.07-6.92-2.3-14.71,7.33-8.44-4.43-20.93.8-36.25,2.08-1.97,7.78,1.45,9.45,3.47,2.42,2.92,1.47,9.24,1.97,13.68,1.41,12.45,4.06,25.45-9.92,33.81Z"/>
      <path class="cls-1" d="M344.31,189.69c-9.87-2.39-9.7-12.13-14.68-15.96l-21.9-16.84c-2.75-2.11-6.43-3.63-7.71-5.52-1.61-2.37-.7-8.94,1.56-9.37,9.71-1.84,22.32,18.98,28.54,23.82,7.74,6.02,14.97,11.69,14.2,23.88Z"/>
      <path class="cls-1" d="M192.95,262.29c-8.17,4.1-9.14-2.22-11.75-4.79-8.9-8.74-10.26-16.68-12.54-28.78-1.03-5.49-6.04-11.97,2.05-17.27,4.77,9.77,10.24,18.57,13.04,28.79,2.09,7.62,1.53,14.43,9.19,22.05Z"/>
      <path class="cls-1" d="M416.14,78.83c-.73,10.91-14.09,17.46-26.62,16.68l9.62-7.7c-7.49-.24-12.31,3.05-17.01-5.13,13.21-1.9,22.79-7.92,23-19.82,2.7-1.32,6.39,1.48,6.16,4.5-.56,7.21-4.25,10.83-9.82,17.44,6.35.09,5.42-4.95,14.67-5.96Z"/>
      <path class="cls-1" d="M457.5,189.25c-13.64,7.39-10.04,21.15-20.83,22.58l5.72-26.3c1.06-4.87,8.28-10.94,12.71-12.22,4.67-1.35,6.54,3.56,7.27,5.78,1.18,3.63-.73,7.93-4.86,10.17Z"/>
      <path class="cls-1" d="M411.52,32.03c.36,6.87-7.8-3.4-25.66,14.36-3.47,3.45-11.83-6.69-8.02-11.06,9.67-11.09,33.29-10.79,33.68-3.29Z"/>
      <path class="cls-1" d="M216.79,214.94c-8.88-10.65-4.53-21.33-6.92-31.8-.54-2.36-4.07-5.37-4.13-7.18-.09-2.93,2.79-6.47,6.26-5.79,11.75,2.28,8.87,24.68,4.79,44.78Z"/>
      <path class="cls-1" d="M235.07,83.42c-2.14,4.38-.59,6.9,3.01,11.18l-18.87,2.42c7.61-9.53,9.49-15.39,9.84-27.29,9.84,5.03,17.32,12.23,16.42,22.61-5.05-2.76-6.32-6.36-10.4-8.92Z"/>
      <path class="cls-1" d="M213.87,554.58c-8.42-8.77-9.82-19.67-4.64-28.84,1.19-2.11,5.48-2.04,6.27-.73.74,1.22,2.44,4.62,4.24,4.48,3.45-3.62.94-10.2,1.95-12.41,2.39-2.77,6.25-1.16,7.37.33,1.37,1.82,2.05,6.32-.7,8.15l-9.41,6.26c.02,8.15-.02,14.3-5.08,22.76Z"/>
      <path class="cls-1" d="M483.85,203.46c8.82,11.44,3.57,38.97-5.75,34.83-.82-10.49-2.38-23.88,5.75-34.83Z"/>
      <path class="cls-1" d="M260.45,70.11c-6.83,13.6-29.25-9.42-26.82-15.35,1.99-4.87,13.59-.96,15.39,5.08,1.67,5.58,6.5,8.9,11.43,10.27Z"/>
      <path class="cls-1" d="M445.54,82.97c-2.18-2.05-3.72-2.62-4.45-3.17-2.37-1.8-4.78,1.7-4.03,2.88s4.15,4.7,4.2,6.73c-3.75,4.75-8.21-1.09-10.69-3.7-3.97-4.18-.19-8.6.41-13.58.23-1.91-4.79-6.13,1.14-9.58,5.76,14.37,18.09,12.93,19.12,17.71.61,2.81-2.51,5.71-5.7,2.71Z"/>
      <path class="cls-1" d="M449.29,40.69c-5.76,2.84-26.14-2.01-27.74-3.49-2.86-2.65-4.09-6.53-2.21-10.21,11.3.63,21.08,2.46,29.95,13.7Z"/>
      <path class="cls-1" d="M223.17,66.18c-2.68,3.63-21.64,5.93-20.84,6.13-1.91-.48-3.13-6.4-.81-7.37,5.2-2.18,9.95-3.34,12.66-9.09,1.92-4.09,8.95-5.16,11.05-.82,1.95,4.02-.22,8.66-2.06,11.15Z"/>
      <path class="cls-1" d="M432.35,107.84c-4.02,2.03-5.4-9.65-9.76-10-2.89-.23-5.63,4.2-6.33,7.5l-.98,4.67c-.24,1.15-2.34,2.28-5.85,1.18-.91-6,1.86-17.69,10.42-19.99,5.67-1.53,17.44,14.16,12.5,16.65Z"/>
      <path class="cls-1" d="M442.23,222.09c-.67,9.7-2.02,18.68-8.23,25.5-3.34-10.22-1.7-19.49.94-28.49.66-2.25,7.57-1.12,7.29,2.99Z"/>
      <path class="cls-1" d="M446.41,127.26c-4.12,7.26-12.12,12.18-19.27,14.13,1.11-10.09,13.23-22.68,17.01-22.02,1.81.32,4.43,4.05,2.26,7.89Z"/>
      <path class="cls-1" d="M435.68,254.33c6.05,5.25-1.23,10.12-5.5,11.72-4.66,1.75-11.99,2.04-13.38-5.71.35-4.66,15.06-9.32,18.87-6.01Z"/>
      <path class="cls-1" d="M260.43,108.2c-1.84,11.07-13.73,17.63-24.88,11.26,7.57-5.63,14.75-7.86,20.41-14.53,1.01-.45,4.73,1.68,4.47,3.27Z"/>
      <path class="cls-1" d="M515.17,247.55c2.25,4.74.76,13.82-1.58,15.61s-6.82.61-6.82-3.02v-16.09c5.3-1.57,7.11.76,8.41,3.5Z"/>
      <path class="cls-1" d="M448,433.07c6.35,2.82.86,9.88-3.08,4.52-7.59-1.61-13.35-8.01-9.65-14.34,1.17-2,6.17-1.17,7.64-.16,2.05,1.42,4.67,3.93,5.09,9.98Z"/>
      <path class="cls-1" d="M231.59,534.28c6.75,2.5,2.79,16.92-3.58,16.44-4.26-.32-3.84-6.34-4.48-8.55-.92-3.17,1.1-10.46,8.05-7.88Z"/>
      <path class="cls-1" d="M233.52,118.24c-9.32,5.04-20.38-.36-24.27-10.73,10.13.68,15.24,3.71,24.27,10.73Z"/>
      <path class="cls-1" d="M244.56,509.2c4.62,2.42,3.52,13.56-3.06,17.8-6.64-1.22-7.68-13.07-2.66-17.06,2-1.58,4.53-1.36,5.72-.74Z"/>
      <path class="cls-1" d="M422.68,139.42c-8.34,4.16-21.89-10.63-21.84-11.26.45-6.12,13.59-1.81,21.84,11.26Z"/>
      <path class="cls-1" d="M356.6,214.19c-4.93-5.1-8.12-10.6-9.85-17.56l8.1-5.65c1.7-4.3,5.14-12.74,11.7-11,3.63.96,1.82,8.66-.12,10.71-2.41,2.56-6.42,3.88-12.95,3.38,3.02,7.04,6.79,10.52,3.12,20.12Z"/>
      <path class="cls-1" d="M433.99,614.54c-5.31.28-10.54-12.47-5.22-15.07,4.78-2.34,7.71,1.12,9.02,3.7,1.44,2.82,2.14,11.06-3.8,11.37Z"/>
      <path class="cls-1" d="M482.11,250.21c2.39,1.32,2.64,12.64.32,15.57-.86,1.08-4.32.19-5.7-1.01-2.49-2.16-.92-12.85.08-14.14.82-1.06,3.92-1.18,5.3-.42Z"/>
      <path class="cls-1" d="M304.28,198.83c-6.01,2.02-10.58-8.84-9.16-13.04,4.68-2,7.38.48,9.34,2.21,2.21,1.93,4.88,9.13-.18,10.84Z"/>
      <path class="cls-1" d="M239.53,374.79c3.16,5.03,4.44,9.73,5.5,17.18-8.16-.25-10.4-5.33-12-12.25-.53-2.31.18-5.53,6.5-4.93Z"/>
      <path class="cls-1" d="M493.72,587.39c-1.72,3.41-3.28,3.9-4.09,4.66-2.09,1.96-6.11.98-5.98-2.39.17-4.62,2.53-6.19,4.23-7.29,3.45-2.22,8.61-.49,5.84,5.02Z"/>
      <path class="cls-3" d="M529.2,159.48c-27.41,20.51,4.45,38.55-17.42,54.05-7.92-8.31-3.97-15.59-4.58-24.07-.78-10.86-12.74-19.41-15.33-29.53-5.21-20.35,19.76-32.95,23.73-53.42,2.64,7.24,7.64,10.18,10.92,16.58,3.34,6.52-.63,17.81,1.14,24.89.67,2.68,4.26,9.47,1.55,11.51Z"/>
      <path class="cls-1" d="M92.77,54.39c-.67,2.63-3.76,2.46-5.02,2.29-6.38-.86-7.24-9.75-5.51-21.45,7.71,2.38,12.62,10.93,10.54,19.16Z"/>
      <path class="cls-3" d="M149.07,177.52c-8.49.14-11.38-10.45-7.07-17.13,2.51,4.84,7.55,7.78,7.07,17.13Z"/>
      <path class="cls-3" d="M205.06,580.53c-6.59-.58-8.94-5.25-12.74-9.01-1.85-1.83,1.07-6.09,3.15-5.96,3.43,5.02,7.27,5.91,9.59,14.97Z"/>
      <path class="cls-3" d="M310.84,338.33c1.5,3.79-1.13,8.06-3.39,9.15-3.08,1.49-8.69.78-10.18-3.07l-8.63-22.31c-5.28-13.65.12-28.54,5.03-30.05,3.41-1.05,7.27.5,8.55,4.88,2.09,7.19,8.53,13.7,8.62,21.81.07,6.67-2.71,12.73,0,19.59Z"/>
      <path class="cls-3" d="M245.78,256.98l-22.07-18.09c6.78-1.97,10.82-3.73,15.81-8.81,6.1,9.53,7.7,17.87,6.26,26.89Z"/>
    </g>
  </g>
</svg>