<?xml version="1.0" encoding="UTF-8"?>
<svg id="Layer_1" data-name="Layer 1" xmlns="http://www.w3.org/2000/svg" viewBox="0 0 389.3 460.15">
  <defs>
    <style>
      .cls-1, .cls-2, .cls-3 {
        stroke: #000;
        stroke-miterlimit: 10;
      }

      .cls-1, .cls-3 {
        stroke-width: 2px;
      }

      .cls-4 {
        font-family: Lacquer-Regular, Lacquer;
        font-size: 30px;
      }

      .cls-2 {
        font-family: CaveatRoman-Bold, Caveat;
        font-variation-settings: 'wght' 700;
        font-weight: 700;
      }

      .cls-2, .cls-5 {
        font-size: 36px;
      }

      .cls-2, .cls-3 {
        fill: none;
      }

      .cls-5 {
        font-family: Caveat-Regular, Caveat;
        font-variation-settings: 'wght' 400;
      }
    </style>
  </defs>
  <g>
    <path class="cls-1" d="M270.32,21.65c-.77-.04-1.54-.08-2.31-.13.15-3.28.62-6.54,1.41-9.73.42-1.72.97-3.48,2.12-4.82,1.11-1.3,2.69-2.1,4.27-2.76,8.83-3.66,18.67-3.72,28.23-3.72,7.66,0,15.41.01,22.86,1.8,2.46.59,4.96,1.42,6.86,3.09,3.49,3.08,4.16,8.18,4.56,12.82.06.73.12,1.52-.27,2.15s-1.38.92-1.86.36c-1.12,1.16-2.96,1.57-4.47.97.46.14.45.88.07,1.18s-.91.28-1.4.24c-1.73-.15-3.45-.47-5.13-.94.24.75-.54,1.49-1.32,1.58s-1.54-.22-2.31-.39c-3.29-.74-6.6,1.11-9.97,1.11-2.68,0-5.69-1.09-7.85.51-3.52-1.56-7.65-1.68-11.25-.32-.7-.91-2.06-.87-3.21-.78-4.2.31-8.31-.02-12.47-.64-1.42-.21-2.69-.23-4.11-.28-.45-.02-2.01.07-2.37-.25-.18-.16-1.08-1.12-.09-1.07Z"/>
    <path class="cls-3" d="M332.54,22.96c1.5,6.6,3,13.19,4.5,19.79.36,1.58.71,3.25.22,4.78-.51,1.58-1.86,2.76-3.34,3.52-2.12,1.09-4.54,1.45-6.91,1.75-9.42,1.21-18.91,1.87-28.41,1.97-1.88.02-3.77.02-5.64-.13-2.1-.16-4.19-.51-6.27-.85-2.37-.39-4.73-.78-7.1-1.17-3.16-.52-6.7-1.29-8.39-4.01-1.46-2.35-1-5.36-.5-8.08,1.03-5.57,2.05-11.14,3.08-16.71"/>
    <path class="cls-3" d="M332.31,52.97c.3,3.51.6,7.02.89,10.52,2.69,31.67,5.38,63.35,6.89,95.1.38,7.94-.66,15.92-.91,23.86-.15,4.8-.29,9.73,1.21,14.29,2.11,6.43,7.18,11.36,11.22,16.79,3.02,4.06,5.94,8.36,7.43,13.2,5.65,18.28,3.94,38.54,3.47,58.17-.73,30.75,1.64,65.81.3,96.1-.59,13.38.18,29.81-2.22,41.61-1.23,6.05-3.14,13.35-10.53,20-12.6,11.34-16.46,11.66-28.94,15.04-12.48,3.38-25.84,2.12-38.32-1.28-7.44-2.03-14.85-4.91-20.66-9.98-12.02-10.48-14.86-27.86-15.73-43.77-.5-9.14-.62-18.3-.73-27.45-.42-34.3-.83-68.61-1.25-102.91-.27-22.42,1.34-45.96,14.72-63.95,1.55-2.08,3.21-4.09,4.52-6.32,3.16-5.42,4.04-11.89,3.87-18.16-1.21-44.07,4.03-87.75,7.76-131.68"/>
    <text class="cls-2" transform="translate(258.2 326.28) rotate(4.75) scale(1.34 1)"><tspan x="0" y="0">k</tspan></text>
    <text class="cls-2" transform="translate(277.63 327.67) rotate(.87) scale(1.34 1)"><tspan x="0" y="0">i</tspan></text>
    <text class="cls-2" transform="translate(287.78 327.89) rotate(-1.89) scale(1.34 1)"><tspan x="0" y="0">o</tspan></text>
    <text class="cls-2" transform="translate(305.81 327.24) rotate(-4.28) scale(1.34 1)"><tspan x="0" y="0">s</tspan></text>
    <text class="cls-2" transform="translate(322.53 325.97) rotate(-5.56) scale(1.34 1)"><tspan x="0" y="0">k</tspan></text>
    <text class="cls-4" transform="translate(262.09 359.83) rotate(26.8)"><tspan x="0" y="0">b</tspan></text>
    <text class="cls-4" transform="translate(279.01 367.62) rotate(8.2)"><tspan x="0" y="0">a</tspan></text>
    <text class="cls-4" transform="translate(299.31 369.83) rotate(-5.26)"><tspan x="0" y="0">j</tspan></text>
    <text class="cls-4" transform="translate(316.51 368) rotate(-13.48)"><tspan x="0" y="0">e</tspan></text>
    <text class="cls-4" transform="translate(334.72 363.57) rotate(-18.54)"><tspan x="0" y="0">r</tspan></text>
    <g>
      <path d="M23.85,421.51c-1.57-.55-2.88-1.84-3.43-3.41-.67-1.93-.16-4.16,1.1-5.77,1.26-1.6,3.2-2.6,5.22-2.94,1.85-.31,3.74-.1,5.62-.09,3.37.02,6.71-.62,10.03-1.26-1.18,3.23-1.63,6.68-2.32,10.05s-1.67,6.78-3.75,9.53c-.75.98-1.65,1.88-2.76,2.42-1.11.54-2.46.67-3.58.14-1.13-.53-1.88-1.65-2.37-2.8-.47-1.12-.75-2.36-.6-3.57.11-.91.5-1.7,1.04-2.42-1.35.51-2.84.6-4.21.12Z"/>
      <path class="cls-3" d="M137.7,314.02c6.36-2.65,10.03-9.44,11.73-16.12,1.69-6.68,1.93-13.7,4-20.27,1.24-3.92,3.12-7.63,5.56-10.95,2.28-3.1,5.07-5.88,8.42-7.78,9.04-5.15,20.72-3.13,29.76,2.03,8.6,4.92,15.64,12.52,19.88,21.47,1.74,3.68,3.04,7.78,2.31,11.79-.78,4.25-3.8,7.83-7.44,10.15-3.64,2.32-7.87,3.52-12.09,4.46-8.48,1.88-17.17,2.79-25.5,5.24-8.33,2.45-16.49,6.69-21.56,13.74"/>
      <path class="cls-3" d="M169.65,266.6c4.37-2.96,9.92-4.62,15-3.2s9.24,6.57,8.39,11.79c6.59,1.35,14.08,3.52,16.8,9.67,2.89,6.52-1.61,14.46-7.99,17.64-6.38,3.18-13.92,2.76-20.97,1.73-.67-.1-1.37-.21-1.92-.61-.72-.53-1.03-1.43-1.36-2.26-1.55-3.83-4.67-6.92-8.38-8.71-3.29-1.59-8.35-.55-9.89-3.76-3.57-7.41,4.71-18.5,10.3-22.28Z"/>
      <path class="cls-3" d="M111.36,310.88c2.86-2.78,6.14-5.74,10.13-5.76,2.56-.02,4.95,1.21,7.17,2.49,6.19,3.57,12,7.8,17.29,12.6,7.22,6.53,13.92,15.81,11.51,25.24-1.44,5.63-5.85,9.94-10.08,13.93-17.26,16.33-34.52,32.66-51.78,48.99-6.27,5.93-12.55,11.87-18.34,18.27-6.24,6.9-12,14.41-19.61,19.76-7.61,5.36-17.71,8.28-26.32,4.77-4.34-1.77-7.91-4.98-11.38-8.13-6.91-6.27-13.93-12.66-18.79-20.63-.42-.69-.84-1.44-.8-2.25.04-.92.66-1.7,1.26-2.4,12.42-14.58,27.96-26.01,41.3-39.67s27.83-27.79,41.99-41.54c8.81-8.56,17.62-17.12,26.44-25.68Z"/>
      <path class="cls-3" d="M30.94,449.32c15.83-17.37,32.26-34.18,49.26-50.41,3.08-2.94,6.18-5.86,9.27-8.78,16.36-15.41,32.71-30.83,49.07-46.24,5.28-4.98,10.88-10.53,11.93-17.71"/>
    </g>
    <path class="cls-3" d="M244.39,276.5c18.62,8.17,34.92,10.58,45.58,11.32,12.46.86,32.09,1.98,53.64-8.02,8.09-3.75,14.27-8.05,18.42-11.32v116.47c-.83.56-1.67,1.11-2.53,1.65-27.41,17.15-57.62,13.45-66.3,12.26-21.4-2.93-37.53-11.69-47.2-18.15l-1.61-104.21Z"/>
  </g>
  <path class="cls-3" d="M270.97,107.91c9.53,3.66,17.83,5.04,23.89,5.56,6.83.59,16.83,1.35,28.95-2.78,5.32-1.81,9.57-4.07,12.56-5.87l3.31,46.57c-.85.73-2.1,1.76-3.66,2.88-18.53,13.39-38.31,10.06-40.63,9.63-13.28-2.47-22.66-9.78-27.38-14.11l2.96-41.88Z"/>
  <text class="cls-5" transform="translate(278.62 142.84) rotate(31.79)"><tspan x="0" y="0">k</tspan></text>
  <text class="cls-5" transform="translate(301.58 152.28) rotate(-12.2)"><tspan x="0" y="0">b</tspan></text>
</svg>