<?xml version="1.0" encoding="UTF-8"?>
<svg id="Layer_1" data-name="Layer 1" xmlns="http://www.w3.org/2000/svg" viewBox="0 0 390.58 1054.78">
  <defs>
    <style>
      .cls-1 {
        stroke-width: 4px;
      }

      .cls-1, .cls-2 {
        fill: none;
        stroke: #000;
        stroke-miterlimit: 10;
      }

      .cls-2 {
        stroke-width: 3px;
      }
    </style>
  </defs>
  <path d="M177.02,498.21c-1.8,0-3.47-.4-4.82-1.26-5.23-3.35-4.38-11.83-3.31-22.56.4-3.98.94-6.57,1.41-8.85.22-1.07.44-2.1.63-3.24,1.42-8.34.76-17.46-1.98-27.09l3.85-1.09c2.9,10.21,3.6,19.92,2.07,28.85-.2,1.19-.43,2.27-.66,3.39-.48,2.29-.97,4.66-1.35,8.43-.86,8.62-1.67,16.76,1.49,18.79,2.71,1.74,9.19-.08,12.1-4.31,1.36-1.97,1.24-3.43.45-9.98-.23-1.91-.51-4.28-.79-7.13-.61-6.14-.81-10.36-.97-13.75-.25-5.37-.41-8.62-2.01-14.28-.99-3.51-2.25-6.96-3.75-10.26l3.64-1.65c1.58,3.48,2.91,7.12,3.96,10.82,1.72,6.1,1.89,9.71,2.15,15.18.16,3.35.35,7.51.95,13.54.28,2.81.56,5.16.79,7.05.8,6.67,1.13,9.44-1.13,12.72-2.82,4.11-8.18,6.68-12.73,6.68h0Z"/>
  <path d="M176.34,471.05l-2.42-3.18c.76-.58,1.29-1.24,1.58-1.97.32-.81.24-1.5.08-2.73-.11-.82-.24-1.75-.21-2.88.05-2.28.73-4.57,2.01-6.82l3.48,1.98c-.95,1.67-1.45,3.33-1.49,4.93-.02.81.08,1.51.18,2.25.18,1.36.39,2.9-.31,4.71-.55,1.42-1.52,2.67-2.88,3.71h-.02Z"/>
  <path d="M181.65,838.67h-.84c-1.97-.05-2.05-2.02-2.11-3.33-.04-.93-.07-2.3-.09-4.05-.04-3.26-.05-7.96-.04-14.37.03-11.94.14-27.78.27-44.55v-.17c.61-83.38.98-133.78,1.7-160.75-1.26-.3-3.17-.45-5.96-.02-2.37.37-3.7.9-4.77,1.32-1.31.52-2.55,1.01-4.38.58-4.53-1.09-6.72-6.33-7.63-9.35-1.57-5.26-.67-9.71,4.82-23.83,1.26-3.23,2.41-6.59,3.53-9.83,1.6-4.64,3.25-9.45,5.26-14.06l.12-.27c1.29-2.96,2.9-6.65,1.64-10.1-.43-1.18-.95-1.72-1.75-2.55-.81-.84-1.82-1.88-2.83-3.75-3.16-5.81-2.29-12.12-1.96-14.49.49-3.55,1.53-5.81,2.36-7.62.96-2.09,1.59-3.48,1.28-6.17-.05-.41-.11-.79-.17-1.15-.23-1.42-.49-3.02.32-4.89,1.15-2.66,3.84-4.54,8-5.58l.54,2.14.66-.12c2.7,14.26,4.57,28.89,5.56,43.46,1.62,23.77.51,41.82.04,49.53l-.04.56c-.21,3.45-.4,7.95-.56,13.61.25.17.46.34.64.49.36.31,1.44,1.26,1.91,2.87.29.98.3,2.04.04,3.06-.36,3.01-1.06,48.85-1.73,93.2-.46,30.49-.94,62.02-1.39,86.45-.79,42.12-.97,42.3-1.84,43.15l-.6.58h0ZM176.12,504.81c-1.01.58-1.68,1.26-2.02,2.05-.33.76-.25,1.4-.04,2.67.07.42.14.86.19,1.34.43,3.8-.56,5.98-1.62,8.29-.8,1.74-1.62,3.54-2.03,6.51-.31,2.21-1.02,7.38,1.51,12.03.75,1.39,1.45,2.11,2.2,2.88.94.97,1.91,1.98,2.63,3.96,1.8,4.95-.24,9.64-1.73,13.06l-.12.26c-1.94,4.47-3.57,9.2-5.14,13.77-1.13,3.28-2.3,6.67-3.58,9.98-5.35,13.76-5.87,17.37-4.71,21.24,1.1,3.69,2.87,6.16,4.73,6.61.55.13.8.06,1.96-.4,1.19-.47,2.82-1.12,5.63-1.56,2.79-.43,4.98-.38,6.69-.09.16-5.07.33-9.17.53-12.37l.03-.57c.47-7.63,1.57-25.51-.03-49.01-.93-13.62-2.63-27.27-5.07-40.63v-.02Z"/>
  <path d="M132.79,842.92c-.43,0-.85,0-1.26-.01-8.92-.19-17.19-1.93-24.61-5.19-8.99-3.96-14.32-10.39-14.25-17.2.09-8.48,8.01-14.22,15.33-15.97,12.87-3.06,27.56,3.27,34.18,14.73,2.12,3.68,2.5,7,1.09,9.59-1.48,2.73-4.53,3.83-7.02,4.48-6.4,1.68-11.51,1.88-16.07.63-6.06-1.66-10.72-6.18-11.88-11.52l3.91-.84c.83,3.84,4.46,7.26,9.02,8.51,3.86,1.05,8.31.85,14-.64,1.82-.48,3.78-1.15,4.53-2.52.94-1.73-.25-4.3-1.04-5.68-5.76-9.99-18.57-15.51-29.78-12.84-6.04,1.44-12.19,6.06-12.26,12.12-.08,7.65,9.06,12.27,11.86,13.5,6.93,3.05,14.69,4.68,23.08,4.85,6.51.13,11.02-.94,14.19-3.4,1.93-1.5,3.59-3.68,5.21-6.88,4.88-9.6,6.01-20.29,7.21-31.59,1-9.46,2.04-19.24,5.49-28.3.43-1.12.89-2.22,1.35-3.33,1.18-2.82,2.3-5.49,2.79-8.3.67-3.83.15-7.88-.35-11.8-1.67-13.1-3.4-26.64-8.71-38.87-.73-1.69-1.55-3.39-2.35-5.04-1.54-3.19-3.12-6.48-4.24-9.97-6.64-20.71,5.02-42.17,12.56-53.12.83-1.21,1.69-2.41,2.55-3.62,4.39-6.17,8.92-12.56,10.36-19.78l3.92.78c-1.6,8.06-6.39,14.8-11.02,21.32-.85,1.19-1.69,2.38-2.51,3.58-7.13,10.34-18.16,30.54-12.04,49.62,1.03,3.22,2.49,6.25,4.04,9.46.81,1.68,1.65,3.42,2.41,5.18,5.54,12.75,7.31,26.58,9.01,39.96.51,4.02,1.09,8.57.32,13-.57,3.25-1.82,6.25-3.04,9.15-.45,1.07-.89,2.14-1.3,3.21-3.26,8.57-4.27,18.09-5.25,27.29-1.18,11.17-2.41,22.72-7.62,32.98-1.9,3.75-3.92,6.36-6.33,8.23-4.72,3.66-10.85,4.25-15.46,4.25h-.02Z"/>
  <path d="M126.65,870.64c-5.56,0-10.86-.5-15.79-1.49-8.86-1.78-14.65-5.67-16.74-11.26-1.03-2.75-1.04-5.56-1.06-8.29,0-1.27-.01-2.47-.12-3.65-.26-2.91-1.17-5.96-2.04-8.91-1.63-5.49-3.32-11.16-1.31-16.84,2.12-6,8.17-10.47,16.37-12.19-1.05-7.35-1.45-14.82-1.21-22.23.07-2.05.23-4.21,1.43-6.1,1.74-2.76,5.18-4.19,9.94-4.12,8.94.12,17.84,3.6,25.74,10.08,6.59,5.41,12.4,12.88,16.47,21.17,1.14-17.09,1.63-34.23,1.47-51.28-.02-2.46-.06-4.93-.1-7.39-.17-11.33-.34-23.04.84-34.54.33-3.21.77-6.44,1.19-9.57.65-4.76,1.31-9.69,1.59-14.53.64-11.27-.79-22.81-2.17-33.98-1.62-13.08-3.29-26.61-1.71-39.99l3.97.47c-1.53,12.9.12,26.18,1.71,39.03,1.4,11.34,2.86,23.06,2.19,34.7-.29,5-.96,10-1.62,14.84-.42,3.1-.85,6.3-1.18,9.44-1.15,11.27-.98,22.86-.82,34.07.04,2.47.07,4.95.1,7.42.28,30.09-1.46,60.49-5.17,90.35-.54,4.38-1.29,10.38-4.59,15.03-4.28,6.04-11.93,9.2-23.37,9.68-1.35.06-2.69.08-4.02.08h0ZM115.82,779.56c-2.26,0-5.09.41-6.26,2.26-.66,1.05-.76,2.54-.81,4.1-.26,7.81.23,15.69,1.45,23.41l.31,1.99-1.99.3c-2.89.43-12.51,2.43-15.16,9.92-1.58,4.46-.15,9.27,1.37,14.37.93,3.14,1.9,6.38,2.19,9.69.12,1.34.13,2.68.13,3.98.01,2.48.03,4.83.8,6.91,2,5.35,8.6,7.71,13.78,8.75,5.8,1.16,12.14,1.6,18.86,1.33,9.98-.42,16.81-3.11,20.27-8,2.51-3.54,3.24-8.08,3.88-13.21,1.52-12.2,2.7-24.49,3.55-36.81l-2.86,1.32c-6.41-13.83-20.54-30.07-39.29-30.31h-.24.02Z"/>
  <path d="M199.63,1044.42c-13.47,0-28.04-.41-42.23-3.21-7.06-1.4-13.71-3.37-19.86-5.86-8.06,3.35-17.46,4.61-27.11,3.44-15.35-1.87-29.42-9.23-39.96-15.43-4.2-2.47-8.5-5.27-10.8-9.88-.52-1.04-.91-2.11-1.16-3.2-20.42-11.96-37.22-28.65-47.87-48.01-2.84-5.16-4.38-12.43.62-15.94,1.52-1.07,3.28-1.42,4.81-1.66,3.24-.51,6.43-.78,9.54-.8-.9-7.21-.28-14.82,1.73-22.31.07-3.45.57-6.71,1.08-9.43,1.27-6.78,3.15-12.41,5.68-16.98-3.09-1.99-6-4.26-8.68-6.8-13.65-12.94-21.14-32.75-19.55-51.72.56-6.73,2.21-11.53,5.19-15.1,5.7-6.83,15.22-7.77,23.69-8.12.84-.03,1.68-.07,2.52-.1.52-.56,1.04-1.12,1.59-1.67-2.42-3.01-4.19-6.4-5.18-9.91-.56-.59-1.08-1.24-1.54-1.96-5.02-7.77-.51-17.93,5.38-24.84,17.26-20.25,44.67-31.85,75.23-31.85h.38c16.1.05,28,4.17,35.37,12.25,8.21,8.99,10.05,21.85,10.71,33.79,2.28-.84,4.58-1.39,6.64-1.88,5.4-1.29,10.75-2.47,16.04-3.22.95-3.14,2.51-6.1,4.79-8.66,4.55-5.13,11.54-8.32,20.76-9.48,3.16-.4,6.27-.53,9.27-.42,7.41-13.19,24-20.43,37.54-15.69,4.86,1.7,9.31,4.84,12.99,8.97,1.06.19,2.12.48,3.17.9,5.45,2.19,9.58,7.71,11.05,14.76,1.25,6.01.51,12.25-.14,17.75l-3.78-.47c-.4,6.77-1.93,14.02-4.58,21.68-1.64,4.72-3.58,9.33-5.8,13.79,1.33.5,2.59,1.12,3.79,1.86,6.39,3.97,11.01,11.43,13.74,22.19,4.46,17.59,2.85,34.59-4.55,47.87-2.16,3.88-5.6,8.66-10.52,11.62,4.17,11.35,4.48,24.82.8,38.51-3.28,12.21-9.34,23.35-15.1,32.47-.12,1.85-.34,3.69-.66,5.53,1.44,2.27,2.03,4.99,2.35,7.1,2.83,18.27-4.52,36.59-17.87,44.55-7.98,4.76-17.3,5.73-26.07,5.41-1.79.09-3.53.1-5.16.11-2.7.02-5.46.04-8.27.04h0ZM185.42,1026.67c-.91,1.76-1.16,4.31-.02,5.98,2.62,3.82,8.01,4.82,13.29,5.52,5.03.66,9.87,1.22,14.48,1.41,3.84-.21,7.72-.81,11.04-2.64,4.6-2.53,7.8-7.22,10.33-11.47,2.88-4.85,5.36-9.9,7.43-15.13-.27.02-.53.03-.8.05-2.7,2.01-5.78,3.52-9.21,4.31-4.02.93-7.45.27-9.66-1.84-.43-.41-.81-.87-1.13-1.38-3.08,3.31-6.82,5.97-10.86,7.62-5.04,2.05-10.33,2.9-15.6,2.97l-4.21,2.46c-1.63.95-3.32,1.63-5.07,2.15h0ZM143.21,1032.51c4.74,1.68,9.78,3.06,15.06,4.1,9.27,1.83,18.78,2.61,28.04,2.93-1.8-1.02-3.4-2.38-4.65-4.2-1.53-2.24-1.85-4.99-1.4-7.5-.46.08-.92.16-1.38.24-7.65,1.27-15.16,2.17-22.53,2.68-3.84.51-7.7.6-11.37.63-.58.39-1.18.76-1.78,1.12h0ZM247.03,1010c-2.31,6.21-5.17,12.19-8.57,17.91-1.91,3.21-4.18,6.66-7.15,9.5,1.9-.68,3.74-1.53,5.51-2.59,11.76-7.02,18.2-23.37,15.66-39.78,0-.03,0-.06,0-.09-.37.94-.77,1.88-1.22,2.8.56,1.76.9,3.57,1.02,5.4.1,1.48.05,3.63-1.47,5.21-1.14,1.18-2.62,1.51-3.78,1.64h0ZM65.88,1014.31c1.89,1.96,4.39,3.53,6.86,4.99,10.16,5.98,23.69,13.07,38.22,14.84,7.15.87,14.13.3,20.41-1.55-1.03-.51-2.04-1.03-3.04-1.57-1.65-.14-3.31-.32-4.96-.56-13.67-1.29-26.72-4.06-39.06-8.31-6.37-2.2-12.54-4.82-18.45-7.83h.02ZM129.3,1026.22c4.74.3,9.57.43,14.45.37,1.55-1.13,2.99-2.36,4.31-3.71,3.16-3.22,5.52-7.14,7.01-11.32-.68-.5-1.35-1.04-1.98-1.63-2.53-2.33-4.69-5.75-5.43-9.49-9.58,2-19.6,1.57-28.9-1.59-.62.05-1.23.09-1.84.12-4.49.24-8.79.3-12.92.18,1.73,5.54,5.31,10.98,10.68,16.22,4.2,4.1,9.1,7.73,14.61,10.84h0ZM159.12,1014c-1.73,4.47-4.36,8.67-7.83,12.21-.06.06-.12.12-.17.18,1.56-.07,3.13-.16,4.71-.27,3.23-.43,6.41-1.18,9.36-2.48,2.48-1.09,5.01-2.82,7.08-5.01-1.61-.45-3.18-.93-4.7-1.4-2.82-.89-5.72-1.86-8.44-3.21v-.02ZM96.43,998.72c-.04.41-.07.81-.1,1.2-.67,10.42,7.82,19.05,16,22.66,1.97.87,4.02,1.56,6.11,2.1-2.46-1.85-4.77-3.83-6.91-5.92-6.45-6.3-10.59-12.96-12.34-19.84-.93-.06-1.85-.13-2.75-.21h-.01ZM177.25,1019.91c-1.24,1.63-2.69,3.09-4.26,4.35,1.71-.25,3.43-.52,5.16-.8,1.53-.26,3.04-.52,4.5-.88.44-.52.91-.96,1.41-1.33-2.31-.36-4.59-.82-6.8-1.34h-.01ZM62.7,1007.32c7.28,4.11,15.02,7.6,23.1,10.38,5.68,1.96,11.52,3.59,17.51,4.91-8.47-6.54-11.99-15.87-11.53-23,.03-.45.07-.92.11-1.39-6.6-.86-12.71-2.27-18.42-4.24-.58-.2-1.16-.41-1.74-.62-.99.47-1.95,1.03-2.87,1.7-3.62,2.63-6.41,7.53-6.16,12.26ZM179.78,1015.69c9.4,2.05,19.68,2.78,28.83-.95,2.92-1.19,5.7-3.06,8.1-5.37-.18-.03-.35-.07-.53-.11-11.4-2.37-20.68-8.09-26.14-16.11-.61-.9-1.18-1.83-1.71-2.8-.7,1.47-1.57,2.9-2.62,4.27-.48.63-1,1.24-1.52,1.86-1.36,1.6-2.65,3.11-3.01,4.79-.24,1.11-.1,2.4.05,3.77.08.73.16,1.49.2,2.27.13,3.01-.5,5.83-1.65,8.38h0ZM160.54,1009.49c2.62,1.38,5.52,2.36,8.36,3.25,2.01.63,4.11,1.26,6.29,1.84,1.13-2.14,1.78-4.53,1.67-7.05-.03-.65-.1-1.3-.17-1.95-.18-1.61-.38-3.44.02-5.3.61-2.84,2.43-4.97,4.02-6.85.47-.55.94-1.1,1.37-1.67,1.78-2.32,2.9-4.87,3.54-7.52-.16-.48-.32-.97-.47-1.47-2.54.35-5.08.75-7.61,1.21-4.74,4.95-10.31,8.94-16.35,11.86.68,4.45.44,9.13-.68,13.66h.01ZM152.12,999.33c.5,2.78,2.16,5.4,4.03,7.13.08.08.17.15.25.23.57-2.99.71-6.02.4-8.94-1.54.6-3.11,1.13-4.69,1.59h.01ZM225.42,1005.8c4.55.32,9.23.24,14.13-.01,2.63-2.18,4.8-4.95,6.51-7.98.04-.17.09-.33.13-.5-.33-.77-.72-1.52-1.15-2.25-.93.71-1.94,1.32-3.05,1.79-4.29,1.82-8.99,1.05-12.97-.15-.23,1.13-.55,2.26-.94,3.39-.68,1.98-1.58,3.9-2.66,5.72h0ZM190.4,983.88c.92,2.44,2.05,4.63,3.4,6.6,4.79,7.03,13.06,12.07,23.3,14.2.88.18,1.77.34,2.66.49.06-1.02.23-2.09.52-3.2.67-2.59,1.76-5.04,3.17-7.25-8.28-3.29-16.06-7.83-23.14-13.35-3.22.15-6.43.4-9.64.73-.07.6-.16,1.19-.27,1.79h0ZM26.1,948.55c-3.45,0-6.63.32-9.35.75-1.08.17-2.19.38-2.92.89-2.63,1.84-.64,7.2.78,9.78,9.81,17.82,25.05,33.3,43.6,44.71.66-5.38,3.87-10.45,7.99-13.44.05-.04.1-.07.15-.11-7.73-3.57-14.56-8.31-20.11-13.95-9.63-6.1-17.14-16.51-19.85-28.63h-.3.01ZM128.07,996.32c6.41.99,13.06.69,19.49-.77.12-.73.31-1.46.57-2.19.99-2.74,2.79-4.83,4.95-6.45-.07-.11-.15-.23-.23-.34-3.39-4.95-8.21-8.08-13.07-10.04-1.04,3.8-2.49,7.5-4.32,11-1.52,2.92-3.74,6.56-7.37,8.77,0,0-.02.01-.03.02h0ZM103,994.44c2.08.08,4.21.11,6.39.09-2.25-1.34-4.41-2.85-6.44-4.51-.12,1.45-.11,2.94.06,4.42h0ZM96.55,994.03c.6.06,1.21.11,1.83.15-.23-2.68-.06-5.34.47-7.86-11.15-11.09-17.87-26.94-17.03-42.58-2.09,2.58-4.93,4.69-8.27,5.98-7.06,2.73-14.73,1.6-19.89.51-1.71-.36-3.34-.78-4.88-1.24,10.57,5.38,18.12,14.94,20.25,25.66.6,3.04.11,5.32-1.47,6.79-1.63,1.51-3.76,1.52-5.44,1.36-.6-.06-1.2-.13-1.79-.22,3.5,2.22,7.29,4.15,11.32,5.76,5.81-2.2,12.06-2.13,16.78-1.52,2.16.28,4.38.77,6.06,2.49,1.33,1.37,1.88,3.03,2.06,4.73h0ZM104.01,984.87c4.22,3.76,9.03,6.8,14.26,8.84.35.14.71.27,1.06.4,2.32-.24,4.58-.7,6.43-1.82,2.08-1.27,3.83-3.41,5.68-6.95,1.71-3.27,3.05-6.72,4.01-10.27-3.47-.97-6.73-1.44-9.25-1.66-6.95-.61-12.16.33-15.94,2.86-2.86,1.92-5.02,5-6.25,8.6ZM155.23,991.11c-1,.84-1.84,1.83-2.42,2.98,1.03-.34,2.05-.71,3.05-1.12-.19-.63-.4-1.26-.63-1.87h0ZM80.35,991.21c3.63.97,7.43,1.73,11.42,2.28-.12-.34-.3-.64-.53-.89-.7-.72-2.04-.98-3.38-1.15-2.22-.28-4.81-.44-7.51-.24ZM231.43,992.52c2.99.79,6.1,1.13,8.8-.01.71-.3,1.38-.7,2.02-1.17-.64-.68-1.32-1.33-2.05-1.95-.47-.39-.94-.76-1.43-1.11-2.67.9-5.18,2.36-7.34,4.24h0ZM159.22,988.7c.33.78.62,1.57.88,2.37,2.93-1.47,5.73-3.2,8.34-5.18-1.11.27-2.22.55-3.33.84-1.92.5-3.98,1.13-5.89,1.98h0ZM207.88,981.16c5.35,3.65,11.07,6.73,17.06,9.13-.16-2.19-.74-4.5-2-6.79l-1.01-1.83c-4.67-.36-9.36-.54-14.06-.51h0ZM228.4,984.54c.4,1.19.7,2.42.89,3.68,1.28-1.03,2.66-1.93,4.1-2.7-1.64-.56-3.32-.89-4.99-.98ZM244.74,987.25c.25.25.5.51.75.77.18-.24.37-.48.55-.73-.31-.02-.63-.04-.96-.04h-.34ZM140.85,971.94c5.76,2.23,11.62,5.9,15.76,11.95.16.23.31.46.46.69,2.34-1.09,4.78-1.84,6.91-2.39,3.74-.98,7.51-1.83,11.31-2.56.18-.19.35-.39.52-.59,2.76-3.15,5.1-6.58,6.98-10.19-.03-.46-.06-.92-.09-1.39-.08-1.32-.13-2.62-.16-3.92-4.94-6.34-9.15-13.25-12.5-20.57-1.06-.78-2.2-1.46-3.42-2.01-4.79-2.15-10.2-2-15.92-1.85-1.9.05-3.86.1-5.8.07-2.6-.05-5.2-.28-7.77-.67.87,2.25,1.71,4.55,2.4,6.88,2.55,8.62,2.96,17.78,1.31,26.55h.01ZM208.62,976.47c10.81,0,21.62.99,32.21,2.97,2.89.54,6.01,1.38,8.24,3.4.57-.87,1.15-1.75,1.73-2.67.26-5.82-.42-11.74-1.39-17.47-4.31,3.12-8.54,4.54-12.61,4.22-3.17-.25-6.51-1.91-8.66-4.57h-.29c-10.64,0-19.61-3.64-24.91-10.36-5.52-7.01-6.95-17.62-3.63-27.04.16-.46.33-.92.51-1.36-.2-1.39-.3-2.78-.32-4.18-3.35,4.45-6.05,9.57-8.07,15.22.41,1.53.75,3.09,1,4.68,1.32,8.43.27,17.27-2.84,25.55,3.72,4.27,7.8,8.21,12.17,11.75,2.28-.09,4.57-.13,6.86-.13h0ZM127.8,887.13c-11.48,5.69-21.67,14.14-29.22,24.64-7.21,10.03-11.42,20.93-12.16,31.51-.97,13.8,4.57,27.85,14.01,38.06,1.63-3.7,4.12-6.85,7.32-9,4.66-3.13,10.82-4.31,18.83-3.61,2.7.23,6.16.73,9.88,1.76,1.39-7.86.98-16.04-1.3-23.75-.88-2.97-2.06-5.98-3.21-8.88-.06-.14-.11-.28-.17-.42-5.36-1.32-10.54-3.39-15.36-6.14-6.51-3.71-10.24-8.15-11.09-13.2-1.02-6.06,2.19-12.48,9.29-18.58,4.62-3.97,9.58-7.37,14.75-10.39-.54-.65-1.07-1.32-1.58-2.01h.01ZM183.68,976.34c-.48.71-.97,1.41-1.48,2.1.61-.09,1.22-.18,1.83-.27-.12-.6-.24-1.22-.35-1.84h0ZM49.16,973.54c4.14,2.52,8.69,4.14,13.39,4.59,1.38.13,1.8-.05,1.93-.17.17-.15.37-.83.06-2.39-1.84-9.29-8.8-17.94-18.15-22.57-3.31-1.64-6.69-2.74-10.02-3.43.84,5.05,2.81,10.19,5.82,15.06,1.96,3.17,4.3,6.15,6.96,8.9h.01ZM190.44,972.55c.23,1.58.38,3.19.43,4.81,1.41-.14,2.81-.27,4.22-.37-1.59-1.43-3.14-2.91-4.65-4.44ZM253.45,959.3c.82,4.39,1.51,8.93,1.82,13.53,4.28-7.44,8.3-15.89,10.72-24.87,1.99-7.41,2.74-14.72,2.26-21.6-.38,2.97-.9,5.84-1.58,8.57-.59,4.28-2.03,8.38-4.29,11.9-2.37,4.81-5.36,9.01-8.93,12.46h0ZM235.16,961.82c.65.24,1.33.39,1.98.44,3.65.29,7.17-1.59,9.73-3.46-3.04,1.18-6.41,2.1-10.08,2.75-.55.1-1.09.19-1.63.26h0ZM202.29,932.2c-.75,6.23.73,12.45,4.21,16.86,4.12,5.23,11.07,8.21,19.48,8.59-.08-.47-.12-.95-.13-1.44-.02-1.09.14-2.12.41-3.1-3.47-1.06-6.85-2.64-10.03-4.73-6.27-4.1-11.11-9.79-13.93-16.19h0ZM230.72,954.19c-.21.69-.3,1.33-.29,1.94,0,.51.1,1,.26,1.47,1.74-.11,3.52-.33,5.34-.65,4.39-.77,8.26-1.95,11.6-3.53-.04-.18-.07-.35-.11-.53-.86.31-1.76.58-2.68.82-4.55,1.17-9.36,1.31-14.12.48h0ZM188.41,946.07c-.63,3.52-1.04,7.18-1.22,10.95.85-3.63,1.26-7.31,1.22-10.95ZM31.17,948.79c.31,1.19.66,2.35,1.06,3.5-.25-1.15-.45-2.3-.59-3.45-.16-.02-.32-.03-.47-.05ZM173.71,939.96c4.09,3.36,7.09,7.85,9.28,11.8.62-6.1,1.84-11.88,3.63-17.26-3.29-10.64-10.91-19.44-20.43-23.46.15,2.02.38,3.87.62,5.48,1.24,8.09,3.59,15.98,6.9,23.44h0ZM251.78,950.94s.02.07.02.1c.36-.24.72-.5,1.06-.75-.35.22-.71.44-1.08.65ZM233.08,949.81c3.61.44,7.21.24,10.64-.64.9-.23,1.77-.5,2.61-.81-.52-1.39-1.23-2.55-2.27-3.28-1.51-1.06-3.39-1.04-5.6.06-1.93.95-3.89,2.67-5.38,4.68h0ZM204.55,924.19c1.52,7.99,6.67,15.37,14.13,20.26,3.01,1.97,6.23,3.44,9.52,4.38.21-.35.43-.68.64-.99,1.98-2.98,4.76-5.5,7.62-6.91,3.68-1.82,7.29-1.72,10.17.29,1.86,1.3,3.02,3.1,3.82,5.12,3.02-1.92,5.2-4.46,6.16-7.33.87-2.58.83-5.51.66-8.29-.6-9.69-3.14-16.04-6-20.18-1.57-1.11-2.91-2.54-3.89-4.33-.54-.46-1.07-.85-1.57-1.19-1.34-.63-2.74-1.18-4.17-1.63-.38.95-.85,1.83-1.42,2.63-3.27,4.65-8.91,6.08-14.52,6.93-5.01.76-9.9,1.32-14.64,1.68-2.5,2.65-4.84,5.83-6.52,9.57h0ZM36.82,936.91c3.74,4.1,9.69,7.02,17.75,8.73,7.3,1.54,12.82,1.45,17.35-.3,4.7-1.82,9.34-6.59,9.11-12.18-.32-7.92-9.78-12.87-18.52-13.51-5.33-.39-9.68.19-13.31,1.79-5.91,2.6-10.52,8.47-12.39,15.48h.01ZM35.92,944.72c1.87.34,3.69.77,5.47,1.31-2.03-1.05-3.84-2.24-5.43-3.56-.04.75-.05,1.5-.04,2.25ZM30.23,944.01c.37.03.74.06,1.11.09,0-1.37.08-2.73.24-4.07.08-.64.17-1.27.29-1.9-.57-.79-1.09-1.61-1.56-2.47-.17-.31-.33-.63-.49-.95-.16,3.15-.03,6.26.4,9.29h0ZM155,934.35c4.13,0,8.27.31,12.22,1.81-2.27-6.11-3.94-12.45-4.93-18.92-.34-2.2-.64-4.83-.78-7.72-.08-.03-.16-.05-.23-.08-5.95-1.42-12.75-1.31-20.71.33-4.65.96-7.22,2.36-8.33,4.56-.56,1.12-.79,2.58-.72,4.61.18,4.93,1.75,9.62,3.61,14.46,3.24.66,6.55,1.03,9.86,1.09,1.83.04,3.74-.01,5.59-.07,1.46-.04,2.94-.08,4.42-.08h0ZM259.92,918.78c1.27,4.57,1.74,8.84,1.92,11.62.09,1.5.15,3.05.07,4.62.12-.45.23-.89.34-1.34.58-4.99-.18-10.25-2.33-14.9h0ZM31.89,922.2c-.02,3.31.41,6.73,1.75,9.82,2.72-6.72,7.67-12.21,13.76-14.89,4.32-1.9,9.37-2.61,15.44-2.16,9.39.69,19.03,5.49,21.92,13.57,2.22-6.68,5.63-13.28,10.13-19.55,7.86-10.94,18.42-19.76,30.32-25.78-3.35-5.76-5.18-12.29-4.23-19.21,1.28-9.33,7.83-18.16,17.5-23.64,8.53-4.82,18.22-6.71,27.42-8.22,7.37-1.21,15.61-2.16,23.57-1.54,2.88-2.44,6.27-4.59,10.19-6.49-6.63-4.62-11.4-9.64-14.67-15.41-3.17-5.58-4.88-12.86-4.1-19.81-4.6.72-9.28,1.77-14,2.89-2.33.56-5.02,1.19-7.47,2.27.11,10.95-4.05,14.62-7.65,15.76l-1.61.51-.95-1.42c-3.42-5.11-1.16-12.03,3-15.76.8-.72,1.65-1.34,2.53-1.89-.56-12.08-1.96-24.37-9.58-32.73-6.48-7.1-17.26-10.72-32.04-10.76h-.35c-28.83,0-55.64,11.29-71.8,30.24-2.71,3.18-5.12,7.13-6.04,10.96,1.38-1.44,3.21-2.12,5.01-2.63,5.62-1.59,11.46-2.31,17.29-2.2.75-.5,1.52-.99,2.31-1.45,10.42-6.12,22.38-7.83,32.81-4.67,11.6,3.5,20.58,13.05,22.9,24.33.73,3.57,1.02,8.7-1.8,12.87-2.62,3.87-7.03,5.6-11.01,6.77-8.6,2.54-17.42,3.8-26.33,3.68,1.26,1.64,2.3,3.42,3.09,5.3l.92,2.19-2.16.9c-9.16,3.8-20.54,1.57-27.68-5.43-3-2.95-5.22-6.7-6.52-10.77-1.46,0-2.93.03-4.39.07-5.86,6.95-9.58,15.3-10.46,23.83-.5,4.78.12,8.23,1.87,10.54,1.66,2.18,4.47,3.45,7.26,4.49,1.34.5,2.69.97,4.04,1.4,1.27-3.34,3.11-6.46,5.51-9.14,7.66-8.55,20.49-12.24,31.92-9.18,1.67.45,3.82,1.15,5.63,2.65,2.34,1.94,3.64,4.87,3.68,8.26.04,4.17-1.83,8.4-4.89,11.04-5.39,4.66-12.93,5.06-18.15,4.97-6.99-.13-13.91-1.09-20.65-2.85-1.15,5.56-.51,11.44,2.11,16.32.35.66.74,1.3,1.16,1.92,3.05-1.2,6.52-1.99,10.47-2.38,15.13-1.48,30.47,3.41,42.1,13.42l3.75,3.23-4.83.87c-6.03,1.08-13.07,2.35-20.3,2.54-.05.95-.21,1.89-.47,2.82l-.4,1.42-1.42.24c-11.42,1.92-23.44.26-34.18-4.38-.33.43-.65.85-.95,1.27-4.76,6.51-8.22,13.68-10.26,20.97h-.02ZM132.59,892.66c-5.3,3.03-10.36,6.45-15.02,10.46-4.03,3.46-8.64,8.73-7.72,14.19.6,3.58,3.57,6.92,8.81,9.9,3.52,2,7.24,3.61,11.08,4.81-1.46-4.13-2.62-8.4-2.78-12.9-.07-1.81-.01-4.49,1.23-6.94,2.34-4.63,7.68-6.21,11.49-7,3.04-.62,5.93-1.04,8.68-1.25-2.21-1.16-4.35-2.41-6.43-3.75-3.21-2.07-6.42-4.61-9.34-7.52ZM178.65,913.62c4.37,3.95,7.96,8.92,10.45,14.5,2.14-4.78,4.79-9.15,7.91-13.03-6.41-.07-12.53-.56-18.37-1.46h0ZM262.14,913.26s.04.06.05.09c.8,1.27,1.5,2.6,2.1,3.97.04-1.55.04-3.02,0-4.4-.7.16-1.42.28-2.16.35h.01ZM204.39,914.99c-.03.18-.05.35-.07.53.13-.18.27-.36.4-.54-.11,0-.22,0-.33.01h0ZM166.84,906.27c10.16,2.9,21.43,4.27,33.77,4.13,1.29-4.98,3.68-9.8,7.08-14.12.76-.96,1.55-1.88,2.37-2.74-11.74-.89-23-7.86-28.75-18.28-.02-.03-.04-.07-.06-.1-2.81,1.67-5.14,3.55-7.07,5.69-6.43,7.1-8.15,16.84-8.18,25.12.28.1.56.2.84.31h0ZM209.98,909.19c-.42.29-.83.59-1.23.9l.31-.02c.31-.3.61-.59.92-.88ZM235.63,902.1c-7.13.13-13.72,3.92-16.76,5.97-.59.4-1.21.83-1.84,1.3,2.63-.29,5.3-.64,8.01-1.06,4.62-.7,9.2-1.8,11.48-5.03.21-.3.41-.63.58-.97-.49-.08-.98-.15-1.47-.21h0ZM258.42,908.48c1.74.29,3.54.22,5.17-.21-.01-.03-.03-.06-.04-.08-2.55-5.21-6.16-9.68-10.39-13.1-.4.36-.7.73-.9.99-1.42,1.88-1.97,4.3-1.49,6.3,2.84,1.68,5.42,3.73,7.65,6.11h0ZM256.38,889.03c.48,0,.96.04,1.44.12,5.88,1.02,9.76,7.11,10.66,16.72,3.46-2.48,6-6.11,7.67-9.11,6.7-12.03,8.19-28.2,4.09-44.37-2.42-9.54-6.35-16.05-11.68-19.37-1.17-.72-2.37-1.29-3.6-1.71-1.05,1.91-2.15,3.78-3.31,5.63.09.78.17,1.58.23,2.4.6,8.08-1.02,13.71-4.92,17.2-2.12,1.9-4.91,3.11-8.77,3.83-2.22.41-4.47.63-6.7.59-1.35,1.08-2.88,2.05-4.66,2.52-3.16.84-6.5-.14-9.14-2.67-1.1-1.05-2.01-2.31-2.72-3.69-.81-.38-1.61-.79-2.39-1.22,1.01,3.16,1.73,6.46,2.26,9.79,2.06.94,4.04,2.14,5.91,3.65,4.35,3.51,7.73,8.54,9.8,14.43,4.53,1.04,8.92,3.02,12.92,5.78.94-.33,1.92-.51,2.9-.51h0ZM217.25,893.3c-2.18,1.65-4.2,3.64-5.99,5.92-1.51,1.91-2.79,3.96-3.84,6.09,6.9-4.85,14.78-7.69,22.71-8.08,1.97-.09,3.94-.03,5.87.19.75,0,1.5.03,2.23.1.06-1.15.02-2.41-.12-3.8-.21-2.02-.57-3.98-1.07-5.86-1.46-.2-2.93-.28-4.39-.24-2.76.08-5.49.63-8.13,1.62-.26.38-.55.75-.89,1.1-1.83,1.92-4.34,2.63-6.38,2.95h0ZM136.83,890.33c2.39,2.24,4.96,4.22,7.54,5.88,5.24,3.38,10.94,6.17,17.09,8.34.23-8.88,2.35-19.14,9.37-26.9,2.33-2.57,5.11-4.8,8.47-6.75-4.48-11.77-2.49-25.76,5.41-35.46.09-.11.19-.23.28-.34-6.24-.06-12.58.72-18.36,1.67-8.8,1.45-18.04,3.23-25.93,7.69-8.43,4.77-14.1,12.31-15.19,20.19-.81,5.92.85,11.57,3.87,16.59,10.25-4.51,21.36-6.97,32.51-6.99h11.97l-11.12,4.52c-8.68,3.54-17.52,7.14-25.9,11.55h0ZM38.04,897.5c-.82,1.49-1.57,3.11-2.24,4.87.85-1.34,1.74-2.65,2.69-3.95.12-.17.24-.33.36-.49-.27-.14-.54-.29-.81-.43ZM46.29,896.24c9.09,3.65,19.08,5.02,28.69,3.71,0-.04,0-.09.01-.13-1.86-.08-3.73-.25-5.58-.53-6.93-1.04-13.18-3.66-18.11-7.44-1.83,1.29-3.5,2.81-5.02,4.39h0ZM242.75,898.41c.8.25,1.59.54,2.36.88.33.15.66.3.98.46.22-2.29,1.09-4.59,2.56-6.54.22-.29.45-.57.69-.84-2.34-1.44-4.8-2.58-7.34-3.38.29,1.39.5,2.81.65,4.25.19,1.87.22,3.59.1,5.17ZM68.37,884.42c3.08,1.2,5.91,3.25,7.99,5.91,1.21,1.54,2.08,3.19,2.62,4.87,4.75-.09,9.63-.72,14.91-1.59-7.51-5.2-16.45-8.41-25.51-9.19h0ZM55.76,889.34c4.03,2.66,8.94,4.52,14.32,5.33,1.29.19,2.59.33,3.88.42-.38-.74-.81-1.37-1.18-1.83-2.68-3.43-7.18-5.56-11.21-5.32-2.04.13-3.98.63-5.81,1.41h0ZM40.61,893.6c.41.22.83.43,1.24.64,1.92-2.15,3.89-4,5.91-5.54-.23-.24-.47-.49-.69-.74-.46.26-.91.54-1.35.83-1.9,1.28-3.6,2.87-5.12,4.8h0ZM33.33,818.17c-7.33.37-14.61,1.37-18.81,6.41-2.33,2.79-3.63,6.75-4.11,12.46-1.47,17.56,5.47,35.91,18.1,47.89,2.49,2.36,5.2,4.47,8.08,6.33,1.92-2.57,4.12-4.68,6.62-6.36.33-.22.67-.44,1.01-.65-.36-.56-.69-1.14-1.01-1.72-3.19-5.94-3.95-13.11-2.49-19.84-1.44-.46-2.87-.95-4.29-1.48-3.43-1.28-6.92-2.9-9.29-6.01-2.52-3.31-3.44-7.86-2.81-13.91.85-8.16,4-16.15,8.99-23.1v-.02ZM185.34,873.03c5.86,10.56,18.25,17.02,30.19,15.78,1.83-1.29,3.75-2.38,5.74-3.26.58-1.62.52-3.77.4-5.74-.21-3.51-.49-7.15-.96-10.75-9.6-3.33-20.71-1.04-27.31.97-2.99.91-5.67,1.91-8.06,3ZM132.08,885.16c.45.57.91,1.13,1.39,1.68,4.16-2.24,8.43-4.27,12.73-6.18-4.83,1.05-9.56,2.56-14.12,4.5ZM51.59,885.99s.09.09.14.13c.27-.14.53-.28.8-.42-.32.09-.63.19-.94.29ZM225.58,871.35c.29,2.75.48,5.49.64,8.16.08,1.4.14,2.86.02,4.31,2.06-.52,4.16-.81,6.28-.87.94-.03,1.87,0,2.81.05-1.78-4.05-4.3-7.49-7.4-9.99-.76-.61-1.54-1.16-2.35-1.66ZM190.99,835.47c-1,.95-1.93,1.94-2.77,2.98-6.63,8.15-8.41,20.27-4.8,30.33,2.6-1.19,5.48-2.26,8.68-3.24,6.69-2.04,17.62-4.3,27.79-1.62-.88-4.52-2.19-8.89-4.21-12.78-3.34-2.83-6.23-6.19-8.49-9.97-4.69-3.34-10.29-5.03-16.2-5.71h0ZM46.47,859.46c6.33,1.64,12.82,2.52,19.38,2.65,4.47.1,10.9-.22,15.11-3.86,2.01-1.74,3.29-4.65,3.26-7.42-.01-1.39-.37-3.33-1.98-4.66-1.13-.94-2.68-1.43-3.91-1.76-9.84-2.63-20.85.5-27.39,7.81-1.91,2.14-3.41,4.61-4.47,7.25h0ZM228.45,853.6c3.64,1.51,7.51,2.42,11.41,2.64.17-.16.34-.31.5-.47,6.26-5.94,11.81-12.64,16.52-19.91-.12-.75-.26-1.48-.42-2.17-4.73,2.77-10.34,4.46-16.22,4.69-1.34.05-2.69.04-4.05-.03-4.74,3.44-7.41,7.04-8.14,10.94-.25,1.37-.09,2.88.4,4.32h0ZM257.42,843.24c-3.22,4.46-6.75,8.69-10.57,12.63.18-.03.35-.06.53-.09,3.02-.56,5.11-1.44,6.58-2.75,2.18-1.95,3.34-5.23,3.47-9.78h0ZM219.32,848.18c1.29,1.04,2.64,1.99,4.05,2.85-.03-.89.03-1.76.19-2.61.73-3.93,2.81-7.52,6.32-10.86-6.04-1.17-12.49-3.54-19.7-7.21-1.03-.52-2.02-1.05-2.99-1.58.4,1.86.95,3.69,1.66,5.47.51,1.27,1.11,2.51,1.77,3.7.99.76,1.95,1.58,2.87,2.48,2.37,2.32,4.27,4.93,5.82,7.76h0ZM196,831.53c2.72.56,5.36,1.36,7.88,2.46-.66-1.96-1.15-3.97-1.48-6-2.34,1.09-4.47,2.27-6.4,3.54h0ZM210.02,825c.72.39,1.45.77,2.2,1.15,8.56,4.36,15.92,6.77,22.72,7.4.54-.37,1.11-.73,1.69-1.09,5.59-3.44,11.23-5.6,16.57-6.45-.78-1.06-1.66-1.97-2.65-2.7-3.85-2.87-9.11-3.13-13.76-3-2.93.08-5.84.29-8.74.65-1.01,1.69-2.43,2.84-4.15,3.29-1.79.47-3.79.12-5.96-1.02-.2-.11-.4-.22-.6-.33-2.46.6-4.9,1.3-7.31,2.1h-.01ZM250.91,831.29c-1.63.43-3.19.97-4.62,1.53,1.6-.39,3.15-.91,4.62-1.53ZM49.73,820.32c.99,1.82,2.23,3.5,3.7,4.94,5.27,5.17,13.35,7.18,20.4,5.29-1.13-1.89-2.63-3.64-4.41-5.18-7.78-.66-14.27-2.32-19.68-5.04h0ZM258.37,825.61c.35,0,.69.01,1.04.02,1.57-1.58,2.88-3.34,3.87-5.26,5.12-9.9.99-24.25-8.84-30.7-.87-.57-1.77-1.08-2.7-1.54,2.41,6.41,2.71,13.39.45,19.53-1.13,3.07-3.23,6.44-6.23,8.67,2.55.57,5.06,1.55,7.28,3.19,2.07,1.54,3.78,3.57,5.13,6.08h0ZM208.14,809.93c-1.13,3.68-1.73,7.53-1.72,11.37.54-.2,1.09-.39,1.65-.57,1.59-.53,3.18-1.03,4.79-1.48-2.34-2.64-3.88-5.89-4.71-9.32h0ZM71.22,820.8c10.12.68,20.18-.43,29.94-3.31,3.2-.94,6.71-2.27,8.51-4.93,1.99-2.95,1.54-7.06,1.09-9.24-1.95-9.47-9.87-17.83-19.72-20.8-8.07-2.44-17.24-1.56-25.66,2.37,4.06.65,8.06,1.71,11.91,3.2,2.63,1.02,5.87,3.15,7.08,6.1.66,1.6.65,3.27-.02,4.83-.91,2.11-2.82,3.27-4.38,4.06-9.06,4.53-19.33,4.67-28.31,4.4-1.61.96-3.18,2.03-4.69,3.19.05.87.16,1.74.31,2.6,4.03.16,8.07.64,12.06,1.74,4.54,1.24,8.56,3.24,11.88,5.81v-.02ZM185.56,788.3c-1.02,6.21.48,12.96,3.38,18.07,2.87,5.05,7.08,9.51,12.95,13.65.23-7.13,2.25-14.24,5.79-20.38.16-1.06.37-2.09.65-3.08.45-1.62,1.04-3.22,1.77-4.79-1.93-1-3.93-1.79-5.95-2.35-5.99-1.64-12.21-1.79-18.6-1.12h.01ZM212.1,801.16c-.66,6.14,1.25,13.04,6.1,16.75,2.2-.49,4.42-.9,6.65-1.23.12-.47.2-.96.24-1.43.09-1,.11-1.99.05-2.97-4.47-4.29-7.86-9.61-9.99-15.34-1.11,1.33-2.13,2.74-3.04,4.22h-.01ZM229.62,815.88c0,.07,0,.13-.02.2.1-.01.19-.02.29-.03-.09-.06-.18-.11-.27-.17h0ZM229.48,809.97c2.69,2.33,6.58,4.79,10.44,4.08,3.97-.73,6.73-4.63,7.98-8.04,2.3-6.27,1.35-13.65-2.14-19.93-8.04-1.75-17.13,0-24.39,5.09-.65.46-1.29.95-1.91,1.45,5.16,4.56,9.01,10.59,10.02,17.34h0ZM40.37,805.81c.55.93,1.17,1.83,1.86,2.7.05-.04.1-.08.15-.12.02-.66.06-1.32.12-1.97-.72-.17-1.43-.37-2.13-.61h0ZM248.67,782.01c2.93.83,5.71,2.07,8.24,3.73,7.49,4.92,12.15,13.41,13.03,22.05,3.24-10.86,3.97-20.69,2.17-29.26-1.22-5.8-3.75-11.1-7.15-15.35-2.22-.16-4.45.14-6.33.48-6.97,1.25-14.05,3.89-20.89,7.77,1.31.79,2.56,1.66,3.75,2.6,2.86,2.27,5.27,4.99,7.18,7.98h0ZM154.72,797.15c-1.77,1.87-2.9,4.7-2.52,7.11,1.61-1.59,2.28-4.4,2.52-7.11ZM47.95,802.57c.86.08,1.73.13,2.59.17,8.72-4.91,18.48-7.09,27.78-6.08l-.22,2.13c.83-.42,1.78-.99,2.07-1.67.16-.37.16-.71-.01-1.12-.51-1.24-2.39-2.73-4.48-3.54-5.47-2.11-11.27-3.31-17.11-3.58-5.09,3.7-8.75,8.31-10.47,13.26-.05.14-.1.29-.15.43h0ZM71.92,801.14c-3.05.15-6.12.66-9.14,1.51,3.08-.23,6.16-.69,9.14-1.51ZM37.76,799.24c1.54,1.27,3.48,2.09,5.62,2.61.12-.43.26-.86.41-1.29,1.45-4.16,4.01-8.09,7.48-11.54-3.42.29-6.81.91-10.11,1.84-1.27.36-2.53.8-3.12,1.57-.46.6-.68,1.6-.67,3.05,0,1.25.14,2.5.41,3.75h-.02ZM233.17,774.22c-1.67,1.1-3.32,2.27-4.94,3.51-4.5,3.45-8.05,6.93-10.67,10.49.4-.31.81-.61,1.23-.9,6.9-4.85,15.28-7.02,23.23-6.46-1.01-1.12-2.13-2.17-3.33-3.12-1.7-1.34-3.54-2.52-5.52-3.51h0ZM192.3,783.24c4.4,0,8.74.48,13.03,1.66,2.37.65,4.73,1.59,7,2.8.14-.21.27-.43.42-.64-.67-5.77-.11-11.6,1.83-16.94-2.15,0-4.35.14-6.59.42-8.1,1.02-14.14,3.7-17.93,7.98-1.33,1.5-2.35,3.17-3.11,4.94,1.8-.14,3.58-.22,5.36-.22h0ZM272.78,766.86c1.7,3.3,3,6.9,3.79,10.68.44,2.12.75,4.3.91,6.55.15-2.95.07-5.88-.51-8.71-.59-2.83-1.95-6.09-4.19-8.52h0ZM219.42,770.35c-.08.19-.16.37-.23.56-1.35,3.38-2.05,7.01-2.14,10.7,2.37-2.59,5.18-5.12,8.45-7.62.84-.64,1.68-1.26,2.53-1.87-2.71-.87-5.59-1.46-8.6-1.77h0ZM221.82,765.93c3.9.55,7.6,1.55,11.01,3,8.1-5,16.62-8.38,25.01-9.88.84-.15,1.74-.29,2.68-.4-2.37-1.96-4.98-3.47-7.74-4.44-10.91-3.81-24.16,1.55-30.95,11.72h0Z"/>
  <g>
    <path d="M270.98,100.74s-.07-.02-.11-.04c-.04-.03-.1-.06-.16-.09-.18-.18-.29-.35-.32-.5-.09-.24-.13-.47-.13-.67v-.54c0-.18-.03-.36-.09-.54v-.41c0-.12,0-.23-.02-.34-.02-.11-.04-.22-.07-.34v-.36c.03-.33,0-.64-.07-.92s-.17-.58-.29-.88c-.06-.15-.13-.32-.2-.5-.08-.18-.17-.34-.29-.5-.12-.18-.22-.42-.32-.72-.03-.15-.05-.31-.07-.47-.02-.16-.04-.32-.07-.47,0-.24.04-.5.13-.76.21-.6.53-1.05.95-1.35.15-.12.3-.22.45-.29.15-.07.3-.14.45-.2.54-.18,1.04-.45,1.48-.81.24-.18.48-.36.72-.54s.46-.36.67-.54c.06-.03.12-.07.18-.13.12-.12.13-.25.04-.41-.03-.06-.09-.13-.18-.22-.09-.12-.17-.25-.25-.38s-.14-.26-.2-.38c-.03-.15-.08-.29-.16-.43-.08-.14-.14-.26-.2-.38-.06-.18-.13-.37-.2-.56-.08-.19-.16-.37-.25-.52-.03-.06-.05-.13-.07-.2-.02-.08-.05-.13-.11-.16-.03-.06-.04-.13-.04-.2s-.03-.13-.09-.16c-.12-.24-.22-.47-.29-.7-.08-.23-.14-.44-.2-.65-.03-.15-.06-.3-.09-.45-.03-.15-.08-.29-.13-.41-.09-.24-.16-.49-.2-.74s-.1-.49-.16-.7c-.06-.18-.09-.31-.09-.4,0-.21-.02-.42-.04-.63-.03-.21-.03-.42,0-.63-.03-.42-.02-.83.04-1.24.06-.41.12-.8.18-1.19.06-.33.13-.65.2-.97.07-.31.17-.62.29-.92.06-.12.11-.23.13-.34.03-.1.06-.22.09-.34.12-.24.23-.5.34-.77s.22-.52.34-.76c.15-.24.29-.48.43-.72.13-.24.31-.46.52-.68.18-.27.37-.52.56-.76.19-.24.35-.51.47-.81l.27-.36c.06-.06.12-.13.18-.2.06-.08.1-.16.13-.25s.08-.17.14-.25c.06-.08.12-.14.18-.2.12-.18.22-.3.32-.36.18-.21.4-.3.67-.27.09,0,.18.02.27.04.15.03.3,0,.45-.09.15-.12.3-.22.45-.31.15-.09.28-.2.41-.32.24-.18.45-.33.63-.45.18-.09.36-.19.54-.29.18-.11.36-.22.54-.34.36-.21.74-.4,1.15-.56.4-.16.82-.29,1.24-.38.24-.06.48-.11.72-.16s.46-.05.67-.02c.75.06,1.38.25,1.89.58l.18.13c.36.21.6.45.72.72.12.24.32.34.58.31l.99-.13h.72c.24,0,.46.02.68.04,1.05.03,2.05.3,3.01.81l1.39.86c.15.09.29.19.43.29.13.11.28.2.43.29.03,0,.06.02.09.04.09.03.18,0,.27-.09.06-.09.1-.18.13-.27s.06-.16.09-.22c.36-.57.9-.97,1.62-1.21.15-.06.29-.11.43-.16.13-.04.26-.1.38-.16.15-.06.31-.13.47-.22s.32-.18.47-.27c.09-.06.18-.13.27-.2s.17-.16.23-.25c.09-.12.18-.23.27-.34.09-.1.2-.2.32-.29.24-.24.39-.46.45-.68.03-.15.08-.27.16-.36.07-.09.16-.18.25-.27.18-.21.39-.38.63-.52.24-.13.48-.26.72-.38.15-.06.31-.09.5-.09s.36.03.54.09c.03,0,.13.03.31.09.15.03.3.1.45.2.15.11.29.22.41.34.27.27.47.56.61.88.13.32.22.65.25,1.01.03.21,0,.45-.09.72-.06.15-.13.26-.22.32-.24.21-.41.45-.5.72,0,.03-.03.08-.09.13-.21.12-.36.3-.45.54-.03.12-.12.18-.27.18l-.04.04c-.33,0-.62.15-.85.45-.12.12-.26.24-.41.36s-.32.24-.5.36c-.12.06-.21.12-.27.18-.12.09-.23.19-.34.29-.11.11-.23.2-.38.29l-.76.54c-.06,0-.09.03-.09.09-.03.09-.08.15-.13.18-.06.03-.12.08-.18.13-.09.06-.17.12-.25.18s-.14.13-.2.23c-.03.09-.09.13-.18.13-.21.06-.42.22-.63.5-.09.09-.11.2-.04.31.06.12.1.2.13.23l.9,1.48c.12.15.19.32.22.5.09.24.18.49.27.74s.16.52.22.79c.03.03.04.08.04.16s.01.14.04.2l.13.76c.03.12.06.25.09.38s.07.26.13.38c.15.18.19.36.13.54,0,.09,0,.17.02.25.01.08.04.16.07.25.15.39.23.8.23,1.24s-.03.86-.09,1.28c-.09.66-.24,1.3-.45,1.91-.21.62-.45,1.22-.72,1.82l-.81,1.75c-.09.21-.18.41-.27.58-.09.18-.21.38-.36.58-.12.15-.23.32-.34.5s-.23.36-.38.54c-.12.21-.26.41-.43.58-.17.18-.32.36-.47.54l-.58.68c-.09.09-.18.19-.27.29-.09.11-.2.19-.31.25l-.36.36c-.12.12-.23.23-.34.34-.11.11-.23.2-.38.29-.3.3-.64.54-1.01.72-.38.18-.74.39-1.1.63-.09.09-.24.17-.45.22-.3.12-.65.22-1.03.32-.27.06-.53.14-.77.25s-.46.25-.67.43l-.18.09-.18.09c-.3.21-.6.23-.9.04-.06-.06-.14-.11-.25-.16s-.19-.1-.25-.16c-.21-.18-.43-.32-.65-.41-.23-.09-.46-.15-.7-.18-.21-.03-.41-.06-.59-.09s-.36-.1-.54-.22l-.45-.13c-.15-.06-.31-.11-.47-.16-.17-.05-.32-.1-.47-.16-.12-.06-.21-.09-.27-.09-.3-.09-.59-.21-.88-.36s-.58-.3-.88-.45l-.27-.14c-.24-.09-.47-.19-.67-.29-.21-.1-.42-.22-.63-.34-.12-.06-.23-.12-.32-.18s-.18-.13-.27-.22c-.12-.12-.24-.23-.36-.32s-.25-.18-.41-.27c-.15-.09-.3-.09-.45,0l-.63.49c-.12.09-.24.18-.36.27s-.26.2-.41.31l-1.3,1.04c-.12.09-.23.2-.32.32s-.18.24-.27.36l-.41.59c-.12.21-.24.4-.36.58s-.25.38-.4.58c-.03.03-.07.08-.11.13s-.1.12-.16.18c-.36.27-.58.61-.67,1.04-.06.21-.11.43-.16.67-.05.24-.05.48-.02.72v.61c0,.19-.03.38-.09.56-.03.12-.04.23-.04.34v.34c0,.3-.09.57-.27.81-.18.36-.5.5-.95.41v.05ZM278.45,84.49l.41-.27c.24-.24.5-.46.76-.65.27-.19.51-.41.72-.65.15-.15.31-.29.47-.43.16-.13.31-.28.43-.43.27-.24.52-.5.74-.77s.47-.51.74-.72c.15-.15.29-.3.43-.45.13-.15.26-.3.38-.45.45-.45.9-.9,1.35-1.35s.92-.88,1.39-1.3c.51-.42.99-.87,1.44-1.35.45-.48.92-.96,1.39-1.44.03-.03.04-.06.04-.09.21-.21.41-.41.61-.61.19-.2.38-.4.56-.61.15-.18.31-.35.49-.52s.34-.32.5-.47c.06-.09.13-.17.2-.25l.2-.2c.15-.21.13-.38-.04-.5l-.09-.09-.9-.54c-.63-.33-1.3-.51-2.02-.54-.12,0-.25,0-.38-.02-.13-.01-.28-.04-.43-.07-.21-.03-.43-.04-.65-.02-.22.02-.44.07-.65.16-.12.09-.26.09-.41,0-.12-.06-.22-.04-.31.04-.18.15-.38.24-.59.27-.18.03-.36.05-.54.07-.18.02-.35.05-.5.11-.12.03-.25.05-.38.07s-.28.05-.43.11c-.15.03-.31.03-.5,0-.06-.03-.17-.04-.31-.04l-.77.23c-.3.06-.52.15-.67.27-.06.06-.13.09-.22.09l-1.26.09h-.05s-.05,0-.07.02c-.01.02-.04.02-.07.02-.21.03-.39.12-.54.27-.06.06-.13.12-.2.18-.08.06-.16.12-.25.18-.12.09-.23.19-.34.29l-.34.34c-.21.3-.42.6-.63.9s-.39.62-.54.95c-.03.12-.08.23-.13.34-.06.11-.12.22-.18.34-.15.48-.26.95-.34,1.42-.08.46-.13.95-.16,1.46,0,.27.02.54.07.81.04.27.08.54.11.81,0,.24.04.48.13.72.15.63.35,1.24.61,1.82s.55,1.16.88,1.73l.54.67c.12.06.21.08.27.04h.03ZM287.54,88.9h1.03c.45,0,.93-.07,1.44-.23.51-.12,1-.33,1.49-.63.18-.12.35-.25.52-.4.16-.15.32-.29.47-.41.33-.24.66-.55.99-.95.42-.42.75-.85.99-1.3.18-.27.34-.55.5-.86.09-.24.19-.46.29-.67.11-.21.2-.42.29-.63.18-.36.33-.73.45-1.1.12-.38.24-.76.36-1.15.12-.3.13-.64.04-1.04l-.13-.45c0-.18-.02-.36-.04-.54-.03-.18-.08-.34-.13-.49l-.27-.99c-.03-.15-.06-.31-.09-.47s-.08-.32-.13-.47c-.06-.21-.13-.41-.2-.58-.08-.18-.17-.36-.29-.54-.12-.15-.28-.2-.47-.16s-.43.14-.7.29c-.06.06-.12.11-.18.14-.3.3-.59.62-.88.94-.29.33-.56.66-.83.99-.06.12-.09.21-.09.27l-.13.13c-.12.09-.24.15-.36.18-.21.12-.38.29-.5.5-.03.03-.06.08-.09.13-.03.06-.08.12-.13.18,0,.03-.03.08-.09.13-.09.03-.18.09-.27.18-.15.18-.32.35-.5.5-.12.12-.23.22-.32.32-.09.09-.18.2-.27.31-.09.09-.18.19-.27.29s-.2.2-.31.29c-.12.06-.15.13-.09.23,0,.15-.04.24-.13.27l-.5.22c-.15.09-.22.18-.22.27-.03.12-.09.2-.18.22-.15.09-.3.23-.45.41-.06.12-.12.21-.18.27-.06.12-.14.2-.23.22-.12.06-.17.15-.13.27,0,.09-.06.23-.18.41-.06.03-.12.08-.18.13s-.12.12-.18.18c-.18.3-.44.46-.76.5-.03,0-.11.03-.23.09-.12.06-.2.13-.22.22-.03.18-.13.29-.32.32-.09.06-.17.13-.22.22-.15.24-.33.47-.54.67-.21.21-.41.44-.58.67-.06.09-.13.17-.23.23-.06.06-.12.09-.18.09-.09.06-.17.12-.25.18s-.14.14-.2.23c-.09.15-.06.25.09.31.06.06.15.12.27.18.57.24,1.14.46,1.71.67.57.21,1.15.36,1.75.45.45.09.92.13,1.4.13l-.03.03Z"/>
    <path d="M326.92,100.33c-.3-.03-.53-.21-.68-.54-.03-.03-.04-.11-.04-.22-.03-.24-.07-.48-.11-.72-.04-.24-.05-.48-.02-.72v-.22c-.03-.27-.04-.54-.04-.81s-.02-.52-.04-.76c-.06-.51-.24-.9-.54-1.17l-.41-.41c-.15-.18-.34-.24-.58-.18-.18.03-.35.04-.52.04s-.34-.01-.52-.04c-.12,0-.25,0-.38.02-.14.02-.28.02-.43.02-.12,0-.25,0-.38-.02-.13-.01-.26,0-.38.02-.12.03-.23.04-.34.04h-1.82c-.33,0-.67.04-1.04.13l-1.08.27c-.36.12-.72.21-1.08.27l-.36.09c-.12.03-.24.08-.36.14-.45.21-.89.33-1.31.36-.27.06-.46.18-.58.36l-.22.27c-.06.03-.12.07-.18.11s-.12.1-.18.16c-.21.12-.43.12-.67,0-.27-.15-.44-.32-.5-.5,0-.03,0-.05-.02-.07s-.02-.04-.02-.07c-.21-.51-.56-.96-1.04-1.35-.12-.09-.22-.19-.31-.31-.03-.09-.08-.17-.13-.25-.06-.07-.12-.14-.18-.2l-.27-.41c-.12-.21-.17-.45-.13-.72.03-.15.05-.31.07-.47.01-.16.04-.32.07-.47v-1.28c0-.34.01-.67.04-.97v-.45c.06-.12.08-.23.07-.34-.02-.1-.02-.22-.02-.34.03-.39.04-.77.02-1.15-.02-.37,0-.76.02-1.15l.13-2.02c.03-.33.05-.65.07-.95s.02-.6.02-.9v-.13c.06-.36.09-.72.09-1.08v-4.23c-.03-.33-.05-.66-.07-.99-.01-.33-.02-.66-.02-.99,0-.36-.01-.73-.04-1.1-.03-.37-.08-.76-.13-1.15-.03-.24-.07-.5-.11-.76-.04-.27-.07-.54-.07-.81,0-.06,0-.12-.02-.18s-.02-.12-.02-.18c-.18-.81-.27-1.63-.27-2.48v-1.89c0-.21,0-.41.02-.61.01-.19.04-.4.07-.61.06-.36.18-.63.36-.81l.22-.27c.18-.24.39-.41.63-.52.24-.1.49-.17.76-.2h.31c.45,0,.81.17,1.08.5.06.03.11.06.14.09l.09.09c.15.12.24.25.27.41.15.3.23.49.25.58.01.09.02.3.02.63v.92c0,.2.01.4.04.61.03.06.04.15.04.27,0,.21,0,.42.02.63.01.21.04.42.07.63.03.3.06.59.09.88s.04.59.04.92c0,.06,0,.13.02.2.01.08.02.14.02.2,0,.03,0,.07.02.11s.02.1.02.16l.14,2.29c.03.15.04.31.04.47v.52s.04.11.04.23c-.03.15-.04.31-.04.47s.01.32.04.47v2.97c-.03.18-.03.36,0,.54v.27c-.03.24-.04.49-.04.74s-.02.52-.04.79v.65c0,.23-.02.46-.04.7-.03.12-.04.26-.04.41v.45c0,.12,0,.26-.02.43-.01.17-.04.32-.07.47v.14c-.03.3-.05.6-.07.9-.02.3-.04.62-.07.95-.03.15-.04.32-.04.5s-.02.36-.04.54c-.03.12-.04.27-.04.45v.45c0,.15-.02.3-.04.45-.03.33-.04.65-.04.97v1.01c.06.15.13.22.22.22l.9.13c.72.09,1.42.14,2.11.14.18,0,.33-.01.45-.04.15-.03.32-.05.5-.05s.34-.01.5-.04h1.26c.21,0,.42-.02.63-.07s.42-.08.63-.11h.22c.33,0,.66-.02.99-.07.33-.04.66-.07.99-.07h1.49c.42,0,.78-.09,1.08-.27.24-.09.47-.15.7-.18s.46-.06.7-.09c.36,0,.68.09.95.27.6.36.99.86,1.17,1.49.06.21.1.44.11.67.02.24,0,.48-.02.72-.03.27-.09.52-.18.74s-.21.46-.36.7l-.4.58c-.18.33-.32.66-.41.99-.03.27-.08.53-.13.79-.06.25-.09.52-.09.79,0,.12,0,.24-.02.36s-.02.24-.02.36c-.03.12-.05.22-.05.31v.32c0,.24-.08.51-.22.81-.18.3-.45.43-.81.41h-.06Z"/>
  </g>
  <path class="cls-1" d="M140.13,549.15c-35.01,1.03-59.44,6.14-82.74,16.92-17.86,8.27-58.76,30.83-55.16,47.7,2.12,9.94,18.81,13.79,99.98,23.64,109.09,13.25,131.1,12.63,153.42-2.35,16.42-11.02,39.45-34.11,34.48-52.8-9.91-37.23-124.85-33.86-149.97-33.12h-.01Z"/>
  <path class="cls-1" d="M290.79,597.79v207.22l-10.92,110.65c11.59,53.46-6.23,82.68-11.43,90.37-35,51.75-132.85,66.6-230.1,13.32l-22.87-92.2-13.47-103.87v-197.56"/>
  <path class="cls-2" d="M259.64,253.85c-12.21-13.78-.01-45.99,5.97-61.79,7.66-20.22,14.55-26.24,11.55-35.65-4.23-13.24-21.16-11.61-34.64-23.22-21.69-18.67-30.13-67.84-5.83-101.19,26.14-35.88,81.02-40.9,114.1-10.79,33.13,30.15,30.97,83.32,11.96,106.88-12.87,15.95-27.89,11.4-45.16,34.27-3.17,4.2-16.22,21.47-18.69,46.23-2.49,24.88,7.83,35.94.33,45.27-8.07,10.04-30.48,10.26-39.57,0h-.02Z"/>
  <path class="cls-2" d="M298.93,273.84c-3.49-10.23-38.56-5.41-77.95,0-29.71,4.08-36.5,7.57-41.86,13-3.5,3.55-7.83,9.37-14.44,50.3-7.18,44.46-4.2,50.71-.4,54.06,6.74,5.95,19.69,5.97,24.94,0,6.49-7.37-3.21-18.79-2.89-44.95.16-13.36.32-26.69,8.66-34.47,6.79-6.34,13.07-3.45,43.47-5.63,27.62-1.98,34.82-5.25,38.81-7.43,10.47-5.72,24.08-17.78,21.65-24.89h0Z"/>
  <path class="cls-2" d="M165.98,401.36c5.73-4.9,14.82-5.21,21.09,0,5.93,4.94,8.09,13.8,4.64,20.71-4.38,8.76-16,10.87-23.49,6.33-4.55-2.76-7.87-8.16-7.91-14.25,0-.78.06-7.99,5.68-12.8h0Z"/>
  <path class="cls-2" d="M258.41,35.32c15.79-14.32,35.1-13.5,40.8-13.26,4.72.2,29.23,1.23,45.11,22.11.77,1.01,18.9,25.75,7.58,54.32-9.67,24.41-33.03,31.9-36.64,32.99-19.39,5.86-41.69,1.29-56.85-13.41-15.87-15.38-16.95-35.11-17.05-40.18-.09-4.21-.56-26.59,17.05-42.57Z"/>
  <path class="cls-2" d="M290.79,722.34c12.63-13.81,31.67-29.6,56.26-34.68,8.73-1.8,12.48-1.08,15.22,0,15.26,6.02,18.84,30.89,23.17,63.66,3.84,29.1,5.76,43.65.01,58.39-1.47,3.77-10.92,26.96-35.09,38.32-18.07,8.49-35.05,5.99-42.36,4.82-7.27-1.17-13.15-3.17-17.21-4.82"/>
  <path class="cls-2" d="M290.79,745.42c9.51-9.63,23.85-20.65,42.38-24.19,6.57-1.26,9.4-.76,11.47,0,11.5,4.2,14.19,21.54,17.45,44.4,2.89,20.3,4.34,30.44,0,40.73-1.11,2.63-8.23,18.81-26.43,26.73-13.61,5.92-26.4,4.18-31.91,3.36-5.48-.82-9.91-2.21-12.96-3.36"/>
  <path class="cls-2" d="M68.37,734.14c-8.4,2.84-25.51,9.93-39.65,26.81-5.33,6.36-21.6,25.79-16.17,34.48,9.51,15.2,85.08-3.03,90.3-32.3,2.75-15.37-14.86-28.53-10.18-34.22,4.9-5.96,23.78,9.08,53.72,14.17,28.94,4.91,38.65-4.5,75.42-5.76,16.06-.55,39.71.38,68.97,8.09"/>
</svg>