<?xml version="1.0" encoding="UTF-8"?>
<svg id="Layer_1" data-name="Layer 1" xmlns="http://www.w3.org/2000/svg" viewBox="0 0 167.96 373.12">
  <defs>
    <style>
      .cls-1 {
        stroke-width: .25px;
      }

      .cls-1, .cls-2, .cls-3, .cls-4 {
        stroke: #000;
        stroke-miterlimit: 10;
      }

      .cls-2 {
        stroke-width: .5px;
      }

      .cls-3, .cls-4 {
        fill: none;
      }

      .cls-4 {
        stroke-width: 2px;
      }
    </style>
  </defs>
  <path class="cls-4" d="M17.61,23.78c-6.02,21.5-10.75,43.32-14.17,65.31-1.71,11-3.09,22.07-2.93,33.19.16,11.67,2.03,23.33,5.54,34.52,3.88,12.4,10.29,24.83,21.68,32.06,6.16,3.91,13.39,6.04,20.62,7.6,12.53,2.7,25.48,3.85,38.29,2.82,5.83-.47,11.65-1.39,17.13-3.31,6.82-2.38,12.94-6.23,18.99-10.04,4.05-2.56,8.14-5.14,11.57-8.4,3.65-3.48,6.47-7.65,9.17-11.83,15.01-23.2,27.84-49.97,22.85-76.72-.9-4.8-2.36-9.49-3.38-14.27-1.56-7.28-2.09-14.72-3.38-22.05-2.09-11.87-6.17-23.43-12.05-34.12"/>
  <path class="cls-4" d="M73.12,2.63c-16.76.81-33.34,4.73-48.51,11.48-1.87.83-3.78,1.75-5.03,3.3s-1.61,3.9-.28,5.39c1.27,1.42,3.49,1.56,5.46,1.6,25.81.49,51.63.98,77.44,1.47,5.35.1,10.7.2,16.05.31,5.36.1,10.77.2,16.02-.82s10.4-3.28,13.82-7.16c.61-.69,1.17-1.45,1.34-2.32.43-2.13-1.49-4.02-3.38-5.25-7.25-4.73-16.29-6.17-25.01-7.43-9-1.31-18.04-2.57-27.15-2.67-8.8-.1-17.57.87-26.31,1.85"/>
  <path class="cls-4" d="M70.14,202.28c6.05,18.71,6.29,38.74,6.46,58.4.15,16.72.3,33.43.45,50.15.08,8.4.02,17.3-4.32,24.48-5.97,9.86-18.07,13.65-28.39,18.79-9.37,4.67-17.86,10.99-25.53,18.11,42.37-9.7,86.46-11.85,129.58-6.34-10.07-7.09-20.95-13.04-32.36-17.7-7.81-3.19-16.31-6.08-21.49-12.74-3.65-4.69-5.16-10.69-6.11-16.56-2.11-13-1.97-26.26-1.83-39.43.11-10.33.23-20.66.34-30.99.17-15.69.36-31.52,3.89-46.81"/>
  <path class="cls-4" d="M43.62,90.34c-18.37,1.38-17.07,1.38-30.85,6.95-5.03,2.03-9.56,6.83-9.45,12.25.11,5.74,5.66,9.76,10.89,12.11,13.23,5.95,27.99,7.47,42.47,8.41,23.91,1.55,47.9,1.72,71.83.52,8.75-.44,17.83-1.16,25.44-5.5,4.13-2.35,7.88-6.11,8.47-10.83.61-4.86-2.34-9.62-6.32-12.47s-8.75-4.7-13.61-5.22c-18.3-1.96-8.68-1.16-26.4-2.58"/>
  <g>
    <path class="cls-2" d="M61.75,103.58c-.4-.13-.77-.31-1.12-.49-.38-.19-.74-.37-1.12-.48-.62-.19-1.29-.2-1.99-.21h-.17c-5.39-.12-10.67-1.16-15.68-3.09-1.06-.41-2.49-1.11-2.69-2.46-.08-.56.05-1.15.44-1.86.74-1.36,1.86-2.43,2.94-3.46,6.1-5.8,12.42-11.8,20.35-15.41,4.15-1.89,8.63-3.05,12.96-4.18,1.69-.44,3.44-.89,5.2-1.21,2.13-.38,4.96-.06,7.76.89,6.56,2.23,13.08,6.34,19.39,12.22,4.85,4.52,8.01,8.65,9.95,12.97.33.73.66,1.58.48,2.46-.16.82-.77,1.58-1.76,2.2-1.65,1.04-3.6,1.38-5.47,1.6-2.43.28-4.91.38-7.36.29l.03-.78c2.41.09,4.84,0,7.23-.29,1.77-.21,3.61-.53,5.13-1.48.56-.35,1.25-.92,1.4-1.69.13-.66-.15-1.38-.43-1.99-1.9-4.23-5.01-8.27-9.77-12.72-6.22-5.8-12.64-9.86-19.1-12.05-2.68-.91-5.36-1.22-7.35-.86-1.73.31-3.46.76-5.14,1.2-4.3,1.12-8.74,2.27-12.83,4.13-7.81,3.56-14.07,9.51-20.13,15.26-1.04.99-2.12,2.01-2.79,3.26-.3.56-.41,1-.36,1.38.11.72.81,1.31,2.19,1.84,4.92,1.9,10.1,2.92,15.4,3.03h.17c.73.02,1.48.03,2.21.25.45.13.86.34,1.25.53.35.17.67.33,1.02.45"/>
    <path class="cls-2" d="M110.23,101.21c-.65-4.2-3.14-8.03-5.33-11.41-.34-.52-.69-1.06-1.08-1.55-.54-.68-1.2-1.3-1.84-1.9-3.24-3.06-6.6-6.22-10.36-8.77-.18-.12-.36-.24-.54-.37-2.02-1.36-4.11-2.76-4.88-5.03l.76-.25c.69,2.03,2.67,3.35,4.58,4.64.18.12.37.25.55.37,3.81,2.59,7.19,5.77,10.46,8.85.66.62,1.33,1.26,1.91,1.98.42.52.78,1.07,1.12,1.61,2.24,3.44,4.77,7.35,5.45,11.71l-.8.12Z"/>
    <path class="cls-2" d="M113.29,98.08c-.43-2.12-1.86-3.99-3.13-5.63l-1.41-1.82c-.57-.73-1.15-1.49-1.77-2.21-.71-.83-1.53-1.67-2.49-2.57-2.56-2.4-5.43-4.55-8.21-6.63l-6.97-5.22.49-.62,6.97,5.22c2.8,2.09,5.69,4.26,8.28,6.69.98.92,1.81,1.78,2.55,2.63.63.73,1.22,1.5,1.79,2.24l1.41,1.82c1.32,1.71,2.82,3.65,3.28,5.95l-.79.15Z"/>
    <path class="cls-2" d="M61.41,85.8l-.67-.43c1.76-2.59,4.44-4.86,8.19-6.96,1.81-1.01,3.72-1.9,5.56-2.77,1.35-.63,2.74-1.28,4.08-1.97.79-.41,1.54-.82,2.07-1.43.06-.07.12-.14.17-.21.35-.42.78-.93,1.46-.96l.03.78c-.31.01-.58.33-.86.67-.06.08-.13.15-.19.22-.63.71-1.49,1.19-2.31,1.61-1.35.7-2.75,1.35-4.1,1.99-1.83.86-3.72,1.75-5.51,2.74-3.64,2.03-6.23,4.22-7.92,6.71Z"/>
    <path class="cls-2" d="M52.63,99.79l-.77-.23c.69-2.21,1.65-4.34,2.85-6.33.39-.65.88-1.39,1.62-1.84l.43.66c-.59.36-1.01,1.01-1.36,1.58-1.17,1.94-2.1,4.01-2.78,6.16Z"/>
    <g>
      <path class="cls-1" d="M71.33,88.14c1.15-.31,2.37-.38,3.57-.44.97-.05,2.01-.09,2.85.32.23.11.47.36.31.55-1.08,0-2.15,0-3.23,0-.09,0-.19,0-.26.05-.08.06-.09.17-.09.26-.04.6-.35,1.18-.85,1.59-.21.17-.51.32-.78.24-.38-.11-.43-.55-.42-.89s-.03-.78-.4-.9c-.13-.04-.28-.03-.42-.02-.36.03-3.2.3-3.12.03.06-.19,1.1-.26,1.34-.32.5-.14.99-.32,1.5-.45Z"/>
      <path class="cls-1" d="M73.02,91.12c-.09,0-.19-.01-.28-.04-.28-.08-.75-.36-.7-1.29,0-.11.01-.47-.13-.51-.06-.02-.17-.01-.26,0-.04,0-.11,0-.2.02-2.82.24-3.08.12-3.26-.09-.09-.11-.12-.25-.09-.39.11-.36.54-.44,1.29-.54.13-.02.28-.04.33-.05.24-.07.48-.14.73-.22.25-.08.51-.16.77-.23h0c1.2-.32,2.45-.39,3.65-.46.93-.05,2.08-.11,3.06.36.23.11.51.34.57.63.04.18,0,.37-.12.51l-.12.15h-3.37c-.06.68-.42,1.34-.99,1.8-.29.23-.59.36-.88.36ZM71.8,88.48c.11,0,.24.01.37.05.33.11.72.42.68,1.29-.01.22.02.47.13.5.09.03.25-.04.41-.17.42-.34.68-.82.71-1.31,0-.13.02-.38.25-.55.18-.13.39-.13.5-.13h2.18c-.68-.16-1.45-.11-2.1-.08-1.14.06-2.32.13-3.41.41.03,0,.06,0,.08,0,.06,0,.14-.01.22-.01ZM74.77,88.95h0Z"/>
    </g>
    <g>
      <path class="cls-2" d="M88.66,87.67c-.21,0-.44,0-.63.09s-.37.26-.36.47c0,.22.2.4.42.47s.45.04.67.01c.8-.09,1.59-.18,2.39-.27.23-.03.53-.02.62.19.04.1.02.21,0,.32-.08.37-.18.74-.19,1.12s.1.77.39,1.04.76.33,1.06.1c.25-.19.32-.52.4-.82.09-.3.2-.6.34-.89.11-.23.27-.47.52-.53.14-.03.29,0,.44.02.54.1,1.09.16,1.65.16.16,0,.33,0,.47-.08s.24-.25.17-.4c-.05-.11-.17-.16-.28-.2-.45-.16-.93-.22-1.4-.27-2.24-.26-4.42-.54-6.67-.52Z"/>
      <path class="cls-1" d="M92.58,91.72c-.32,0-.64-.12-.89-.35-.34-.31-.52-.78-.51-1.32,0-.35.08-.68.15-1l.04-.19s0-.03,0-.04c-.04,0-.1,0-.19,0l-2.39.27c-.24.03-.54.06-.84-.03-.41-.12-.69-.46-.7-.83,0-.35.24-.68.61-.84.27-.11.56-.11.79-.12h0c2.15-.01,4.17.23,6.32.48l.4.05c.49.06,1,.12,1.49.29.1.04.38.14.51.4.15.32,0,.71-.34.9-.23.13-.47.13-.68.13-.58,0-1.15-.06-1.72-.17-.11-.02-.21-.04-.26-.03-.04,0-.13.06-.26.32-.13.26-.24.54-.32.82l-.02.08c-.08.3-.19.68-.51.94-.2.16-.45.23-.7.23ZM91.95,88.21c.09.07.15.16.19.25.1.22.05.44.03.56-.01.07-.03.13-.05.2-.07.29-.13.57-.13.84,0,.32.09.59.26.75.15.14.4.18.53.08.12-.1.18-.31.24-.53l.02-.08c.09-.33.22-.65.37-.95.13-.27.36-.63.79-.74.22-.05.43-.01.6.02.52.1,1.03.15,1.55.16-.34-.09-.7-.13-1.05-.17l-.4-.05c-1-.12-1.97-.23-2.93-.32ZM88.66,88.06h0c-.17,0-.35,0-.48.05-.07.03-.12.09-.12.1,0,.02.05.07.13.1.14.04.33.02.51,0l1.81-.21c-.61-.03-1.23-.05-1.86-.05Z"/>
    </g>
    <path class="cls-2" d="M96.83,85.53c-1.41-.75-3.23-.68-4.69-.62-.55.02-1.11.05-1.66.11-.43.05-.85.03-1.26.02-.51-.02-1-.03-1.47.07l-.18-.76c.57-.12,1.13-.11,1.67-.09.4.01.77.03,1.14-.02.57-.06,1.15-.09,1.71-.11,1.56-.06,3.51-.15,5.11.72l-.39.68Z"/>
  </g>
  <path d="M29.11,102.89c33.26,11.7,51.52,11.72,85.98,9.93,4.16-.15,8.31-.53,12.35-1.6-3.91,1.51-8.13,2.1-12.28,2.58-32.4,3.5-55.84,2.94-86.06-10.91h0Z"/>
  <path d="M92.09,119.89c5.92-1.56,12.51-.79,17.9,2.13-6.06-.22-11.95-.93-17.9-2.13h0Z"/>
  <path d="M128.41,119.38c3.87-1.05,7.31-2.22,11.03-3.74-1.93,3.79-7.2,5.56-11.03,3.74h0Z"/>
  <path d="M35.47,117.41c4.32,1.25,8.32,2.77,12.36,4.74-4.53.79-9.52-1.13-12.36-4.74h0Z"/>
  <path d="M12.93,106.78c2.37,2.8,5.12,4.63,8.61,5.75-3.72,1.95-8.98-1.58-8.61-5.75h0Z"/>
  <path d="M143.16,103.61c4.7-2.09,10.53,3.67,8.49,8.39-.33-1.15-.74-2.11-1.27-2.98-1.65-2.7-4.11-4.58-7.22-5.41h0Z"/>
  <path d="M84.26,82.48c2.91-.09,5.82.17,8.72.43,2.03.18,4.06.36,6.08.54.62.06,1.37.22,1.56.86.17.56-.22,1.12-.55,1.59-1.34,1.95-1.98,4.36-3.15,6.43s-3.22,3.92-5.44,3.54c-1.62-.28-2.88-1.68-3.79-3.16s-1.59-3.14-2.72-4.43c-.45-.51-.98-.97-1.6-1.18-1.11-.37-2.33.12-3.24.9s-1.59,1.82-2.34,2.78c-.79,1-1.67,1.92-2.63,2.74-1.21,1.03-2.73,1.93-4.22,1.5-1.06-.3-1.86-1.22-2.55-2.12-1.19-1.55-2.28-3.2-3.23-4.93-.69-1.25-2.32-3.53-.09-3.84,1.96-.27,4.07.04,6.07-.16s4.13-.52,6.2-.81c2.3-.32,4.6-.61,6.92-.68Z"/>
  <path d="M79.91,101.22c.55-.33,1.12-.7,1.76-.73.39-.02.77.1,1.09.32.15.11.29.24.48.28.38.06.66-.35,1.01-.52.52-.26,1.12.04,1.66.26.67.28,1.38.45,2.09.62.53.12,1.05.25,1.58.37-.83.65-2.01.65-2.87,1.25-.29.2-.54.47-.8.71-.77.7-1.71,1.2-2.72,1.44-.27.06-.55.11-.82.02-.14-.04-.26-.12-.38-.2-.62-.41-1.18-.9-1.74-1.39-.31-.27-.62-.54-.93-.81-.23-.2-.75-.5-.88-.78-.16-.35.19-.32.44-.38.37-.1.71-.28,1.04-.48Z"/>
  <path class="cls-3" d="M82.7,73.5l-16.26,12.37c-.97.74-1.95,1.48-2.8,2.35-3.14,3.22-4.29,7.85-4.87,12.31"/>
  <path class="cls-3" d="M73.25,74.39c-5.69,1.72-10.52,5.52-14.7,9.74-.87.88-1.72,1.79-2.54,2.72-1.61,1.85-3.09,3.81-4.56,5.77-.39.52-.78,1.03-1.17,1.55-1.4,1.87-2.81,3.74-4.03,5.73"/>
  <path class="cls-3" d="M73.27,78.63c3.2-.92,6.48-1.88,9.13-3.89.8-.61,1.61-1.54,1.35-2.51.18,3.06,2.3,4.82,4.71,6.73,1.17.93,2.38,1.8,3.63,2.62,1.88,1.24,3.85,2.35,5.67,3.69,5.78,4.27,9.75,10.92,10.78,18.03"/>
  <path class="cls-3" d="M77.02,73.18c-2.52,2.24-6.21,2.36-9.38,3.49-1.41.5-2.74,1.21-4.07,1.91-.84.45-1.67.89-2.51,1.34-1.13.6-2.26,1.2-3.36,1.86-6.53,3.93-11.8,9.92-14.85,16.91"/>
  <path class="cls-3" d="M82.55,91.1c.24,1.96,1.74,3.51,3.21,4.83.24.21.5.55.31.81-.08.11-.22.16-.35.2-1.07.31-2.2.25-3.32.18"/>
</svg>