<?xml version="1.0" encoding="UTF-8"?>
<svg id="Layer_1" data-name="Layer 1" xmlns="http://www.w3.org/2000/svg" viewBox="0 0 419.05 245.51">
  <defs>
    <style>
      .cls-1 {
        fill: #fff;
      }

      .cls-1, .cls-2, .cls-3, .cls-4, .cls-5 {
        stroke: #000;
        stroke-miterlimit: 10;
      }

      .cls-2, .cls-4 {
        fill: none;
      }

      .cls-3 {
        fill: #f8f4e7;
      }

      .cls-3, .cls-4 {
        stroke-width: 2px;
      }
    </style>
  </defs>
  <path class="cls-5" d="M327.07,137.8c21.64-1.96,39.99-.79,61.63-2.75-13.85-20.9-32.75-36.88-51.37-52.55-3.24-2.73-11.29-11.62-15.63-9.02-4.83,2.89-1.19,14.94-.7,19.4.43,4.01,7.44,44.79,6.07,44.92Z"/>
  <path class="cls-5" d="M2.72,134.5c.45,20.71.9,41.43,1.34,62.14-.53,8.61.45,15.7,1.57,20.83,1.47,6.74,2.59,11.88,6.49,16.12,5.47,5.95,13.44,6.92,18.21,7.39,55.28,5.47,95.39,2.91,95.39,2.91,20.44-.92,9.31.51,72.12,0,33.62-.27,40.65-.71,64.91-.46,31.39.33,47.08.49,53.24,1.06,0,0,25.01,2.29,55.15,0,.62-.05,1.66-.13,3.04-.42,7.63-1.58,16.26-6.71,19.14-14.71.97-2.7,1.01-4.95,1.02-6.75.12-15.06.56-22.59,0-31.62-.42-6.8-.7-16.53.06-28.58"/>
  <path d="M42.4,128.7c-6.49-15.33-6.68-33.8.77-49,3.03-6.13,6.77-11.67,11.07-16.99,7.21-7.06,15.48-12.84,23.32-19.14,0,0,15.75-12.28,15.75-12.28,5.36-4.14,10.7-8.53,17.17-11.01,2.82-1.23,7.05-1.87,10.07-2.48,3.35-.65,6.7-1.27,10.06-1.87l-.28.02,4.63-.71c3.09-.43,5.44-1.37,8.01-3.14.68-.4,1.37-.99,2.71-1.29,1.29-.27,2.62.24,3.57,1,2.91,2.78,3.39,6.06,4.12,9.61,1.35,10.04-4.4,19.08-9.5,27.16-3.31,5.32-7.67,10.24-11.82,14.83-5.84,7.19-11.56,14.73-16.05,22.84-7.27,13.85-8.64,29.92-7.4,45.42,0,0-.2.02-.2.02-1.39-12.44-.88-25.29,2.96-37.27,3.86-11.93,11.93-22.18,19.51-31.98,4.16-4.71,8.23-9.44,11.55-14.79,5.68-8.88,12.13-19.7,7.99-30.46-1.08-3.02-3.07-6.19-6.4-3.48-2.57,1.83-5.59,3.05-8.73,3.47-5.41.79-13.98,2.52-19.36,3.52-8.26,1.63-14.96,7.02-21.49,12.06-12.97,10.39-26.78,19.84-39.12,30.96-16.87,19.85-21.19,40.57-12.91,64.99h0Z"/>
  <path d="M106.72,23.43c-20.86,10.99-42.07,22.88-57.55,41.05-15.74,18.76-23.01,41.66-17.3,65.94-3.48-11.4-3.89-23.83-.98-35.54,2.88-11.73,9.17-22.4,16.77-31.68,15.71-18.31,37.39-29.99,59.07-39.77h0Z"/>
  <path class="cls-2" d="M112.82,26.01c2.02-1.96,4.98-2.9,7.76-2.48s5.33,2.2,6.68,4.67c1.61,2.95,1.46,6.68,0,9.7-.38.79-.86,1.54-1.45,2.19-2.4,2.62-6.48,3.13-9.89,2.12-1.3-.39-2.58-.99-3.51-1.98-.79-.85-1.28-1.92-1.72-2.99-.78-1.85-1.72-4.21-1.18-6.25.45-1.71,2.05-3.75,3.32-4.98Z"/>
  <path d="M91.68,49.75c4.01,7.58,12.61,10.53,19.38,15.1-7.43-1.59-18.4-6.61-19.38-15.1h0Z"/>
  <path d="M94.45,34.95c3.38,6.27,6.36,13.06,12.03,17.54,5.65,4.49,12.2,7.56,18.66,10.78-7.15-1.76-14.05-4.66-19.92-9.23-5.87-4.73-8.82-12.05-10.76-19.09h0Z"/>
  <path d="M73.11,54.4c-1.09,3.4-2.56,7.97-.51,11.09,2.11,2.98,6.34,3.15,9.31,1.36,0,0,1.78-1.03,1.78-1.03l.28,2.1c.55,3.74-1.29,7.71,1.95,10.08,2.74,2.01,6.65.51,8.17-2.38,0,0,2.27.98,2.27.98-1.39,5.64,9.79,6.8,11.82,2.28-.18.74-.59,1.45-1.15,2.03-3.56,3.32-11.18,2.99-12.98-2.17-.3-.91-.36-1.98-.02-2.99l2.27.98c-2.68,6-11.33,7.06-14.53.9-1.45-2.92-.38-6.69-.59-9.39,0,0,2.06,1.07,2.06,1.07-4.01,2.24-9.95,1.49-12.27-2.81-2.08-3.98.06-8.62,2.14-12.09h0Z"/>
  <path d="M56.18,76.25c-.38,4.53-1.23,9.45-.3,13.86.36,1.22,1.18,2.33,2.34,2.76,2.87.87,4.26-3.4,6.62-4.48,3.58-2.13,6.78.07,6.84,4.02-.04,3.27,3.4,5.31,6.03,3.2,1.27-1.05,2.08-2.63,3.99-3.32,1.12-.4,2.51-.15,3.41.56,2.06,1.65,2.33,4.1,4.46,5.48,3.71,2.76,9.18,1.04,11.06-3.35-1.38,6.42-9.82,8.3-14.2,3.33-1.01-1.12-1.69-2.66-2.78-3.41-.39-.25-.73-.27-1.09-.13-1.12.53-1.87,2.02-3,2.98-3.13,2.93-8.66,1.65-10.25-2.29-.67-1.27-.44-3.4-.92-4.52-.63-1.07-2.14-.17-2.95.42-1.58,1.35-2.76,3.28-5.01,3.91-3.06.93-6.06-1.95-6.46-4.7-.6-4.96.84-9.68,2.2-14.33h0Z"/>
  <path d="M51.9,108.63c0,3.23.36,6.47,1.22,9.44.22.71.53,1.34.96,1.78,1.41,1.4,3.77,1.09,5.38.11,1.72-1.01,3.36-3.25,4.68-4.89,4.18-5.67,9.55-2.38,10.68,3.52,0,0-.48-.73-.48-.73.52.41,1.36.15,2.02-.16,1.4-.65,3.15-2.64,5.1-3.02,3.81-.88,6.28,2.89,8.97,4.51,2.86,1.88,7.27-1.67,8.33-4.38-.5,3.02-3.76,6.38-6.96,6.49-3.32-.03-5.59-3.44-8.44-4.15-2.42-.37-3.42,1.96-5.72,3.12-.69.35-1.46.63-2.36.7-1.03.12-2.32-.31-3.16-1.13-.41-1.54-.98-3.29-1.83-4.06-1.57-1.55-2.8-.24-3.98,1.16-1.7,1.89-3.25,3.94-5.65,5.21-2.5,1.27-6.15,1.33-8.02-1.12-.62-.81-.9-1.73-1.07-2.58-.52-3.34-.41-6.65.32-9.83h0Z"/>
  <path d="M115.54,91.8c-.15,2.85.79,5.58,1.97,8.1,3.33,7.4,11.03,13.54,19.43,12.21,8.4-1.25,20.92-13.92,21.44-22.39,0,0,.84.92.84.92-3.48-.4-6.56,1.36-9.8,2.51-11.92,4.74-19.88-6.35-27.76-13.2,6.98,4.8,13.05,13.01,22.25,12.8,5.62-.3,10.48-5.02,16.36-3.93.16,1.84-.19,3.76-.89,5.36-3.8,8.57-12.63,18-22.18,19.65-9.17,1.2-17.23-5.51-20.26-13.68-1.04-2.64-1.82-5.52-1.39-8.35h0Z"/>
  <path d="M118.14,90.73c.16,2.04,1.52,3.59,2.68,5.18,1.2,1.58,2.44,3.14,3.68,4.7,2.44,2.84,4.65,7.07,8.84,7.13-.98.28-2.06.09-3.01-.3-2.84-1.25-4.73-3.92-6.61-6.21-1.23-1.58-2.45-3.18-3.54-4.88-1.04-1.66-2.3-3.57-2.04-5.62h0Z"/>
  <path d="M118.98,87.09c1.42,8.66,8.37,15.22,16.21,18.42,6.04,2.34,11.96-4.09,16.4-7.47,1.61-1.36,3.18-2.85,3.8-4.78l.41.62c-3.25-.2-6.42,1.69-9.65,2.18-6.35,1.43-9.29.44-14.35-3.42-2.77-1.89-5.71-3.76-7.7-6.51,0,0-3.19-3.91-3.19-3.91l3.37,3.76c2.11,2.69,5.03,4.34,7.84,6.18,2.75,1.82,5.47,3.92,8.94,3.68,3.3-.08,6.58-.94,9.71-2,1.59-.53,3.3-1.07,5.12-.91l.59.05c-1.37,4.64-5.9,6.95-9.35,9.85-3.4,2.49-7.93,5.37-12.26,3.45-7.91-3.43-14.94-10.34-15.9-19.19h0Z"/>
  <path d="M120.41,84.24c3.47,6.23,8.51,11.85,14.88,15.12,1.26.59,2.65.76,4.08.87,2.49.14,5.1.39,7.42-.67.3-.16.73-.27.77-.66.02.41-.42.6-.7.8-2.24,1.36-5,1.3-7.52,1.3-1.46.01-3.01-.17-4.42-.77-6.62-3.21-11.83-9.2-14.51-15.99h0Z"/>
  <path class="cls-2" d="M169.72,68.83c-2.57,3.19-5.32,6.24-8.23,9.12-.11.11-.23.22-.38.26-.22.05-.44-.07-.64-.2-1.78-1.13-3.53-2.32-5.25-3.55-1.01-.73-4.15-2.33-4.23-3.68-.11-1.89,3.27-1.11,4.35-1.1,2.22.03,4.45-.02,6.67-.14,2.58-.14,5.15-.38,7.71-.72Z"/>
  <path class="cls-2" d="M206.61,94.13c.09,3,.11,6.01.08,9.01.58-.14,1.2-.29,1.77-.12s1.08.76.91,1.34c-.11.4-.5.66-.86.87-2.12,1.16-4.66,1.53-7.01,1-.3-.07-.63-.17-.79-.44-.1-.17-.11-.38-.09-.57.1-.7.68-1.27,1.35-1.51s1.4-.2,2.11-.09c.41-6.77.58-13.49.66-20.27.01-.95,0-1.95-.39-2.81-.28-.59-.73-1.09-1.17-1.57-1.67-1.8-3.39-3.56-5.17-5.26-4-3.84-8.29-7.47-11.4-12.06,12.05-1.5,24.24.33,36.38.57-.19.35-.41.68-.65.99-2.41,3.24-5.91,5.45-9.02,8.02s-6.02,5.86-6.47,9.87"/>
  <path class="cls-2" d="M215.56,66.66c-1.62.99-3.25,1.99-4.83,3.04-1.38.92-2.76,1.91-3.82,3.18s-1.8,2.9-1.74,4.56c-.06-1.46-2.71-4.01-3.66-5.03-1.52-1.65-3.32-2.81-5-4.25-2.43-2.08,1.44-1.32,2.76-1.27,2.56.1,5.12-.02,7.68-.14,2.87-.13,5.74-.27,8.61-.09Z"/>
  <path class="cls-5" d="M205.25,56.94c-.12-.86.25-1.77.93-2.3.42-.33.93-.51,1.43-.68.62-.21,1.25-.4,1.9-.48,1.6-.18,3.24.41,4.48,1.45s2.1,2.48,2.59,4.01c-2.37.03-4.74.03-7.12,0-1.74-.02-3.9.29-4.23-2.01Z"/>
  <path class="cls-2" d="M212.54,52.95c.63-1.86,2.52-3.22,4.49-3.21.07,0,.15,0,.21.04.06.04.09.11.11.17.1.32.02.68-.14.97s-.4.54-.63.79c-.29.3-.57.59-.86.89-.51.53-1.02,1.06-1.53,1.59-.03.04-.09.08-.13.05s.04-.1.04-.05"/>
  <path class="cls-5" d="M153.7,60.16c1.04-.79,2.27-1.44,3.57-1.41s2.66.93,2.82,2.22c.08.68-.16,1.36-.55,1.92s-.93.99-1.49,1.38c-.92.64-1.91,1.16-2.97,1.51-.69.22-1.41.36-2.13.27s-1.42-.46-1.8-1.07c-1.14-1.84,1.29-3.85,2.55-4.81Z"/>
  <path class="cls-5" d="M155.02,68.41c1.19-.42,2.17-1.27,3.23-1.96s2.33-1.24,3.56-.94c.47.11.91.34,1.26.67.31.29.56.66.6,1.08.04.5-.23.97-.54,1.37-.68.86-1.58,1.5-2.43,2.19-.69.55-1.36,1.15-2.15,1.54s-1.74.56-2.56.22c-.78-.32-1.34-1.12-1.39-1.96s.42-1.69,1.15-2.11"/>
  <path class="cls-2" d="M154.23,58.69c-.9-1.68-2-3.24-3.27-4.66-.11-.12-.24-.26-.41-.27-.26-.03-.45.24-.54.48-.21.65-.03,1.37.31,1.96s.83,1.08,1.3,1.58c.66.72,1.27,1.49,1.82,2.31"/>
  <path class="cls-2" d="M157.83,65.04c.22.18.4.41.54.66"/>
  <path class="cls-2" d="M156.54,65.67c.18.3.39.58.62.84.02.02.05.05.08.03s-.02-.06-.02-.03"/>
  <path class="cls-2" d="M160.65,71.85c.75.55,1.5,1.1,2.25,1.66.07-.19-.01-.41-.09-.6-.37-.84-.74-1.67-1.13-2.49"/>
  <path d="M238.38,137.6c2.25-5.63,4.04-11.44,5.34-17.34,1.02-5.78,2.87-11.91,2.2-17.76,0,0,1.37.07,1.37.07-1.05,4.41-4.11,7.88-7.45,10.72-6.84,6.32-13.75,5.27-20.03-1.11-6.05-6.33-10.92-13.64-14.11-21.79-1.2-3.25-1.43-7.34,1.16-10.15,3.67.49,7.05,2.14,10.01,3.85,5.15,3.07,10.44,6.18,16.47,4.4,3.48-.89,6.85-2.89,9.78-5.1.55-.41.79-.78.78-.88.05-.11-.07-.66-.35-1.44-1.26-3.73-2.42-7.57-3.42-11.37-3.99-15.33-5.89-31.24-5.34-47.08.14-3.16.21-6.34.84-9.64,1.06-6.89,6.65-13.97,14.4-12.84,11.32,1.51,21.67,16.78,28.81,24.95,3.98,4.79,8.09,9.5,12.64,13.59,2.32,2.12,4.96,3.77,7.33,5.83,2.44,2.07,4.71,4.29,6.96,6.46,2.28,2.34,4.81,4.16,6.72,6.94,1.78,2.82,2.91,5.69,4.18,8.7,9.27,23.56,9.44,50.09,8.43,74.59,0-12.54-.03-25.1-1.23-37.59-1.61-15.47-4.77-31.29-12.53-44.92-1.79-2.56-4.4-4.44-6.59-6.64-2.28-2.16-4.54-4.33-6.95-6.33-2.37-2.03-5.08-3.66-7.42-5.78-10.63-9.36-18.17-21.62-28.54-31.23-4.34-4.05-10.42-8.31-16.58-6.21-4.47,1.69-6.92,6.34-7.73,10.84-.99,6.16-.86,12.5-.8,18.73.4,15.66,3.02,31.26,7.81,46.18l.73,2.23c.23.73.57,1.52.41,2.38-.45,1.66-2.13,2.35-3.37,3.31-2.61,1.75-5.45,3.24-8.52,4.02-10.24,3.03-17.1-6.39-26.33-8.23,0,0,.15-.06.15-.06-2.62,3.62-.51,8.33,1.18,11.92,3.05,6.38,7.05,12.35,11.93,17.47,3.86,4.11,9.77,7.02,15.04,3.65,4.67-2.94,9.28-7.07,10.77-12.56,0,0,.15-.6.15-.6l.08.61c.59,6.11-1.37,12.06-2.51,17.99-1.41,5.91-3.3,11.7-5.65,17.3l-.18-.08h0Z"/>
  <path d="M291.97,42.86c8.31,10,15.44,21.13,19.31,33.62,7.66,20.61,8.65,42.49,5.66,64.11,0,0-.2-.01-.2-.01-.14-8.62-.07-17.23-.39-25.84-.54-12.8-1.26-25.9-5.68-38.04-1.55-4.02-3.56-7.82-5.7-11.53-1.86-3.25-4.55-7.95-6.5-11.1-2.24-3.67-4.51-7.34-6.67-11.09l.16-.11h0Z"/>
  <path d="M301.96,56.44c5.27-.95,10.72,6.26,13.24,10.23-2.09-2.01-4.07-4.06-6.14-6.03-2.03-1.93-4.16-3.97-7.1-4.2h0Z"/>
  <path d="M308.96,68.64c3.92.7,8.41,3.31,9.33,7.44-2.25-3.48-5.84-5.36-9.33-7.44h0Z"/>
  <path d="M312.78,79.01c3.7.68,7.06,3.44,8.44,6.93-2.6-2.73-5.25-4.92-8.44-6.93h0Z"/>
  <path d="M315.96,92.53c3.61.9,7.2,3.76,7.64,7.64-2.81-2.38-5.65-4.48-7.64-7.64h0Z"/>
  <path d="M317.8,106.88c3.43,1.41,6.5,5.16,6.81,8.5.08-.04.13.11.07.19-.12.11-.24.03-.32-.01-.18-.17-.62-.61-.8-.8-2.2-2.42-4.48-4.8-5.75-7.88h0Z"/>
  <path d="M318.4,121.11c3.73,1.42,6.15,5.23,6.82,9.06-3.05-2.42-5.01-5.66-6.82-9.06h0Z"/>
  <path d="M318.01,132.7c3.64.5,6.87,3.51,7.59,7.12-2.98-1.96-5.43-4.28-7.59-7.12h0Z"/>
  <path class="cls-5" d="M319.22,73c6.35-7.49,16.58-10.71,26.39-10.98,8.61-.24,17.33,1.54,24.97,5.51,7.65,3.98,14.18,10.19,18.18,17.82,1.16,2.21,2.11,4.53,2.64,6.96.45,2.02.6,4.08.76,6.14.66,8.63,1.06,18.15-4.27,24.97"/>
  <path class="cls-5" d="M378.74,134.86c-5,3.92-11.18,6.31-17.51,6.8-1.92.15-3.85.12-5.77.32-2.14.22-4.26.7-6.42.76-3.08.08-6.12-.72-9.1-1.51-4.29-1.14-8.59-2.28-12.88-3.43"/>
  <path class="cls-1" d="M367.17,123.9c-3.23,3.8-7.9,6.33-12.84,6.97s-10.11-.63-14.19-3.49c-2.74-1.92-4.96-4.48-7.03-7.11-.83-1.06-1.65-2.15-2.14-3.4-.55-1.39-.67-2.91-.76-4.41-.33-5.22-.31-10.8,2.46-15.25,3.32-5.34,10.02-7.81,16.31-7.74,3.69.04,7.45.87,10.52,2.92s5.36,5.43,5.56,9.11c-1.85-3.37-5.06-5.97-8.75-7.08-2.46-.74-5.06-.84-7.62-.81-2.5.03-5.06.18-7.33,1.23-3.01,1.4-5.16,4.3-6.09,7.48s-.73,6.61.07,9.82c1.57,6.25,5.73,12.06,11.69,14.49,5.96,2.43,13.66.78,17.26-4.57"/>
  <path class="cls-2" d="M350.3,107.31c-.39,1.01-.49,2.11-.52,3.2-.02,1.2.05,2.43.58,3.5.56,1.13,1.62,2,2.84,2.31.4.11.84.15,1.24.03.77-.23,1.22-1,1.6-1.7.07-.13.14-.27.17-.42.08-.51-.42-.91-.86-1.18-1.39-.84-2.98-1.71-3.44-3.27-.51-1.71.66-3.56,2.21-4.42,1.56-.87,3.41-.99,5.19-1.09-2.33-2.56-8,.42-9.01,3.04Z"/>
  <path class="cls-3" d="M408.66,110.43c2.29-.51,4.89-.55,6.75.87,1.65,1.26,2.36,3.41,2.56,5.47.58,5.96-2.33,11.64-5.15,16.92-1.19,2.23-2.39,4.47-3.65,6.66-6,10.41-13.54,19.93-22.32,28.15-1.43,1.34-3,2.7-4.94,3.03-2.04.35-4.09-.52-5.91-1.51-3.78-2.06-7.47-5.18-8.13-9.44-.57-3.67,1.24-7.24,3-10.51,2.57-4.79,5.15-9.59,7.72-14.38.35-.65.7-1.32.75-2.05.11-1.64-1.27-2.94-2.53-3.99-6.82-5.65-13.65-11.3-20.47-16.94-.94-.78-1.91-1.59-2.48-2.67s-.64-2.52.16-3.45c.76-.88,2.05-1.06,3.21-.96,2.94.27,5.53,1.96,7.98,3.61,6.68,4.48,13.36,8.96,20.04,13.45,1.25.84,2.54,1.72,3.28,3.03.9,1.61.8,3.63.2,5.38s-1.67,3.29-2.66,4.85c-1.46,2.28-2.79,4.64-4.12,7-1.2,2.12-2.43,4.44-2.06,6.84,1.76.58,3.73.12,5.34-.81s2.91-2.29,4.19-3.63c5.68-5.93,11.36-11.86,17.04-17.79,2.07-2.16,4.24-4.53,4.61-7.49.21-1.68-.66-3.82-2.36-3.83-.74,0-1.41.41-2.03.82-3.29,2.15-7.01,4.42-10.87,3.72-.12-.78-.24-1.61.05-2.34.33-.83,1.82-1.46,2.51-2.03,1.08-.88,1.96-1.94,3.11-2.76,2.15-1.54,4.6-2.65,7.18-3.23Z"/>
  <path d="M32.87,128.72c-1.07-1.85,2.76-5.09,4.43-5.54.81-.27,1.72-.38,2.57-.13-.68.57-1.26,1.02-1.81,1.51-1.04.87-2.36,2.05-3.52,2.78-.66.46-1.33.58-1.67,1.38h0Z"/>
  <path d="M30.34,121.92c.11-3.77,4.65-6.72,8.14-5.27-3.05,1.49-5.53,3.09-8.14,5.27h0Z"/>
  <path d="M29.49,112.27c-.2-4.25,4.77-8.93,8.98-6.96-3.88,1.11-6.41,4-8.98,6.96h0Z"/>
  <path class="cls-4" d="M31.35,99.27c-.09-.34.21-.65.47-.87.93-.78,1.92-1.49,2.95-2.14,1.12-.7,2.45-1.35,3.72-.96"/>
  <path class="cls-4" d="M33.55,90.78c1.98-1.97,4.68-3.22,7.46-3.44"/>
  <path class="cls-2" d="M37.2,82.08c.44.02.82-.26,1.19-.5,1.37-.89,3.04-1.3,4.67-1.17"/>
  <path class="cls-2" d="M41.15,74.79c1.91-1.1,4.24-1.44,6.39-.95"/>
  <path class="cls-2" d="M45.37,68.02c1.9-1.2,4.23-1.69,6.45-1.35"/>
  <path class="cls-2" d="M52.28,60.64c2.58-1.43,5.44-2.37,8.36-2.76"/>
  <path class="cls-2" d="M60.11,52.78c2.76-1.88,6.24-2.68,9.55-2.18"/>
  <path d="M246.68,85.82c-5.87,7.76-17.09,11.77-26.16,7.23-2.96-1.46-5.49-3.44-8.33-4.32l1.1-.39c-.53.82-.69,1.91-.54,2.98.55,3.39,3.77,6.28,5.67,9.07,0,0,4.59,5.99,4.59,5.99,1.49,1.99,3.02,3.95,4.99,5.11,4.64,2.74,8.74-1.96,11.77-5.13,3.39-3.68,6.29-7.81,8.64-12.24-1.92,4.68-4.57,9.07-7.79,12.98-3.08,3.86-8.1,9.07-13.47,5.91-2.44-1.37-4.09-3.49-5.65-5.46-1.54-1.97-5.47-7.03-6.96-8.93-2.69-3.16-5.53-8-2.45-11.94,0,0,.69.24.69.24,3.26,1.11,5.79,3.22,8.5,4.62,8.48,4.56,19.11,1.07,25.39-5.72h0Z"/>
  <path class="cls-2" d="M242.35,92.98c-3.83,2.73-8.21,4.8-12.88,5.4s-9.62-.39-13.37-3.22"/>
  <path class="cls-2" d="M244.06,96.24c-2.36,3.54-5.58,6.48-9.32,8.51-1.81.99-3.79,1.77-5.85,1.84s-4.22-.66-5.52-2.27"/>
  <path d="M253.95,78.72c1.8,2.24,3.49,4.56,5.19,6.87,1.41,2.01,3.18,4.46,5.73,4.31,3.36-.62,2.52-5.04,3.05-7.74.25-2.13,1.61-4.4,4.08-4.09,1.1.12,1.92.53,2.66,1,1.1.73,1.89,1.69,2.92,1.84,1.36-.15,1.56-2.31,1.7-3.52.16-2.36.1-4.26,3.07-4.32,1.66-.06,3.35.39,4.74,1.26,1.13.65,2.04,1.64,3.27,1.61,3.21-.66,3.9-5.39,3.72-8.24,1.02,3.38.67,8.85-3.5,9.94-1.72.32-3.25-.74-4.56-1.44-1.2-.65-2.91-.85-4.14-.51,0,.01.14-.08.18-.15.05-.07.03-.06.02.02-.1,1.4,0,2.93-.37,4.39-.36,1.88-2.06,4.03-4.24,3.88-1.93-.08-3.23-1.41-4.46-2.26-.45-.31-.97-.52-1.3-.56-.34,0-.31-.01-.47.17-.49.84-.62,2.35-.74,3.47-.08,3.07-1.64,7.68-5.57,7.57-3.58-.01-5.66-3.16-7.04-5.86-1.35-2.53-2.71-5.05-3.95-7.65h0Z"/>
  <path d="M255.04,103.28c-.07,1.22.47,2.31.97,3.38,1.46,3.59,5.07,8.88,9.42,6.31,3.87-2.82,3.01-8.45,5.27-12.53.66-1.52,2.56-2.67,4.14-1.58,2.04,1.68,3.36,4.16,5.81,5.07,1.64.64,3.59.49,4.45-1.19.98-1.66.53-4.29-.03-6.64,1-1.87,3.37-2.17,4.95-1.12,1.23.8,1.85,1.86,2.47,2.6,2.06,2.92,4.78.27,6.35-1.75,2.02-2.14,4.02-5.64,1.67-8.24,2.99,2.3,1.33,6.62-.57,9.09-1.28,1.92-2.89,4.17-5.61,4.21-2.46.19-3.98-2.81-5.57-3.79-.33-.22-1.04-.26-1.22.02,0,0,.2-1.03.2-1.03.64,2.51,1.25,5.44-.1,8-1.36,2.96-5.28,3.81-8.06,2.63-3-1.16-4.57-3.56-6.32-5.41-.05-.02.11.05.24,0,.13-.04.1-.07.02.03-2.68,4.23-1.98,10.61-6.99,13.45-3.85,2.29-8.38-.83-9.83-4.48-.87-2.24-2.05-4.6-1.67-7.04h0Z"/>
  <path d="M251.47,126.2c1.9,3.53,6.36,6.91,10.12,4.07,3.34-1.96,4.33-7.71,8.93-7.5,4.14.35,6.36,4.53,9.81,5.88,2.44,1.09,4.53-.27,6.06-2.25,1.42-1.71,2.28-3.94,4.03-5.63,1.7-1.65,4.24-.97,5.55.65.99,1.02,1.49,2.33,2.75,2.69,2.03.34,3.38-1.54,4.56-3.17.85-1.2,1.64-2.45,2.07-3.9-.38,4.14-4.56,11.9-9.37,7.5-2.11-2.13-3.07-3.86-4.94-.37-2.23,4.45-6.05,9.63-11.83,7.26-2.97-1.18-4.92-3.85-7.37-5.36-.95-.54-1.86-.88-2.8-.29-1.91,1.58-3.8,4.89-6.42,6.15-4.82,2.86-9.77-1.03-11.14-5.74h0Z"/>
  <path d="M249.49,63.3c4.18,1.6,8.1,1.61,12.47,1.36,2.13-.02,4.31.11,6.24-.23,1.95-.51,4.06-1.19,6.2-1.63-1.83,1.21-3.68,2.27-5.8,3.14-2.18.72-4.37.64-6.61.71-1.97-.01-4.64.05-6.57-.39-2.27-.45-4.23-1.61-5.93-2.97h0Z"/>
  <path d="M286.59,40.73c-4.82,13.16-19.77,20.34-33.24,17.27-4.37-.72-8.89-1.89-12.55-4.48,4.06,1.85,8.4,2.5,12.76,2.93,13.15,2.1,26.36-4.2,33.04-15.72h0Z"/>
  <path class="cls-2" d="M107.81,117.98c44.46,1.13,91.81-4.57,136.19-1.73"/>
  <path class="cls-2" d="M107.81,121.92c10.67-.71.63-.02,53.28-.15,27.24-.07,55.67,0,82.91-.15"/>
  <path d="M30.66,117.98c-7.47-.28-25.99-1.18-29.33,6.66-2.2,6.56,5.27,10.81,10.63,12.33,8.09,2.39,16.73,2.01,25.11,2.45,0,0,25.48.89,25.48.89,50.96,1.89,101.98,1.08,152.92,3.84,50.95,2.16,101.73,7.14,152.77,7.3-68.02,1.8-135.84-5.24-203.83-6.17-33.97-1.08-68.02-.69-101.96-2.71,0,0-25.47-1.3-25.47-1.3-8.51-.6-17.2-.29-25.44-2.98-5.86-1.79-13.67-6.83-11-13.96,3.77-8.31,22.34-6.83,30.12-6.33h0Z"/>
  <path class="cls-4" d="M380.84,148.44c3.4-1.55,9-4.74,13.11-10.94,2.73-4.12,2.68-4.63,2.56-4.8-.75-1.05-4.81.55-8.28,2.16"/>
  <path class="cls-1" d="M40.46,191.24c-.48,11.89.3,23.93,3.51,35.39.58,2.07,1.3,4.22,2.87,5.7,2.44-2.03,4.74-4.23,6.88-6.58,1.27-1.4,2.54-3,2.63-4.88.07-1.56-.68-3.01-1.3-4.44-1.47-3.37-2.32-6.96-3.1-10.55-.65-2.98-1.25-5.97-1.68-8.98-.48-3.29-.76-6.61-1.04-9.93-.1-1.23-.21-2.46-.31-3.69-.18-2.15-.36-4.3-.54-6.46-.27-3.16-.53-6.32-.97-9.46-.19-1.35-1.09-10.16-2.4-10.27-1.58-.13-2.08,8.86-2.25,10.14-1.07,7.97-1.97,15.98-2.29,24.02Z"/>
  <path class="cls-1" d="M73.86,174.1c.45,10.85-.31,21.71-1.06,32.54-.16,2.24-.31,4.48-.47,6.72-.18,2.58-.36,5.16-.21,7.74.13,2.21.5,4.41,1.12,6.55.3,1.03.73,2.15,1.7,2.62.75.37,1.66.23,2.44-.09,2.13-.9,3.46-3.12,3.92-5.38s.18-4.61-.07-6.9c-.7-6.31-1.21-12.64-1.72-18.97-.41-5.08-.82-10.16-1.23-15.23-.19-2.3-.37-4.6-.56-6.9-.28-3.48-.56-6.97-.84-10.45-.18-2.21.39-7.72-1.29-9.25-3.38,3.29-1.9,12.75-1.72,17.02Z"/>
  <path class="cls-1" d="M98.15,213.35c-.14,5.27-.1,10.95,2.96,15.24.22.3.48.62.85.68.38.06.74-.16,1.04-.39,2.11-1.62,3.37-4.15,3.95-6.75s.51-5.29.4-7.95c-.27-6.49-.85-12.97-1.74-19.41-.08-.61-.5-1.41-1.05-1.16-.02-6.56-.04-13.12-.06-19.68,0-1.15,0-2.29-.01-3.44,0-2.49-.02-4.98-.02-7.48,0-1.04.65-5.74-.26-6.37-2.26-1.56-2.84,9.34-2.97,10.54-1.05,9.86-1.85,19.75-2.4,29.66-.3,5.5-.53,11.01-.68,16.52Z"/>
  <path class="cls-1" d="M125.64,157.27c-.61,1.67-.59,3.5-.55,5.28.27,13.17.54,26.34.82,39.51.08,4.05.17,8.11.66,12.14.7,5.66,2.2,11.22,4.47,16.46,4.31-13.33,2.74-27.73,2.9-41.74.07-5.75.44-11.5.81-17.24.19-2.99.39-5.97.58-8.96.12-1.85.66-4.31-.34-6.03-2.16-3.72-7.85-3.49-9.35.59Z"/>
  <path class="cls-1" d="M153.82,167.13c-.64,3.78-.36,7.66-.08,11.48.95,12.93,1.91,25.85,2.86,38.78.36,4.89.74,9.85,2.38,14.47,1.83-1.54,2.5-4.02,2.96-6.36.98-4.98,1.45-10.06,1.4-15.14-.02-1.93-.12-3.9-.78-5.71-.25-.68-.57-1.35-.7-2.06-.14-.74-.06-1.5.01-2.25.28-2.96.48-5.93.58-8.9.08-2.13.11-4.26.14-6.4.04-2.79.08-5.58.12-8.37.03-2.44.07-4.88-.18-7.31-.21-2.05-1.26-10.57-3.66-11.29-2.59-.78-4.76,7.31-5.06,9.05Z"/>
  <path class="cls-1" d="M180.85,173c.24,5.26,2.1,10.31,2.7,15.53.41,3.61.21,7.25.01,10.88-.32,5.8-.65,11.61-.98,17.41-.24,4.1-.42,8.46,1.61,12.02.18.32.39.64.7.83.71.43,1.63.03,2.26-.51,1.83-1.55,2.52-4.05,2.92-6.42.76-4.55.8-9.18.84-13.79.1-13.1.21-26.2.31-39.3.01-1.49.02-3.01-.37-4.44-1.08-3.92-4.27-6.42-7.15-2.64-2.22,2.91-3.01,6.82-2.84,10.42Z"/>
  <path class="cls-1" d="M212.32,160.69c-.6,1.41-.61,2.99-.6,4.52.05,12.22.09,24.45.14,36.67.01,2.96.02,5.92.03,8.88.02,4.98.04,9.99.84,14.91.31,1.9,1.12,4.17,3.03,4.45,1.01.15,2.03-.37,2.75-1.09,1.93-1.9,2.16-4.9,2.19-7.61.1-7.72-.38-15.44-.86-23.15-.09-1.49-.19-2.98-.28-4.47-.2-3.15-.39-6.3-.59-9.45-.1-1.57-.2-3.15-.44-4.71-.12-.74-.26-1.48-.36-2.22-.1-.76-.15-1.52-.18-2.29-.18-3.89-.06-7.82-.63-11.69-.16-1.11-.35-4.55-1.48-5.13-1.4-.72-3.11,1.31-3.58,2.39Z"/>
  <path class="cls-1" d="M244.71,167.59c-.27,6.99-.55,13.97-.82,20.96-.12,3.09-.24,6.17-.36,9.26-.09,2.37-.19,4.74-.22,7.12-.12,9.04.67,18.09,2.34,26.97,2.93-2.74,4.59-6.63,5.34-10.57.75-3.94.66-7.99.56-12.01-.04-1.52-.07-3.03-.11-4.55-.04-1.86-.09-3.72-.15-5.57-.14-3.94-.39-7.89-.43-11.83-.06-6.59.49-13.21-.19-19.79-.17-1.67-.43-6.77-3.05-6.87s-2.84,5.19-2.91,6.88Z"/>
  <path class="cls-1" d="M271.92,160.85c-.78,1.89-.86,3.98-.85,6.02,0,4.23.33,8.46.95,12.65.46,3.06,1.08,6.09,1.4,9.16.32,3.06.34,6.15.37,9.23.05,7.07.1,14.13.15,21.2.02,3.01.24,6.44,2.6,8.31.7-7.36,1.26-14.73,1.7-22.11.17-2.92.33-5.84.48-8.77.1-1.95.21-3.9.31-5.85.17-3.21.34-6.41.38-9.62.02-2.04,0-4.08-.03-6.11-.03-2.06-.06-4.12-.09-6.19-.03-2.07-.06-4.14-.09-6.21-.02-1.66-.25-5.08-2.31-5.63s-4.33,2.36-4.98,3.93Z"/>
  <path class="cls-1" d="M300.4,174.93c-.24,5.81.63,11.62.59,17.44-.02,3.25-.33,6.49-.57,9.73-.61,8.43-.69,17.1,2.04,25.1.45,1.33,1.54,2.92,2.86,2.44.42-.15.74-.49,1.03-.84,4.06-4.89,4.17-11.85,4.03-18.2-.21-9.68-.55-19.36-1.01-29.03-.23-4.74-.45-9.49-.77-14.22-.14-2.05-1.1-8.06-4.61-5.38-3,2.29-3.46,9.58-3.6,12.97Z"/>
  <path class="cls-1" d="M334.06,172.2c-.6,3.24-.55,6.56-.57,9.85-.04,5.48-.31,10.95-.81,16.41-.89,9.74-2.51,19.72-.06,29.19.4,1.55,1.04,3.24,2.49,3.94,1.48.72,3.35.08,4.48-1.13,1.12-1.21,1.64-2.85,1.98-4.46.75-3.55.81-7.2.87-10.82.11-7.25.23-14.49.34-21.74.04-2.4.07-4.81-.29-7.18-.16-1.02-.39-2.04-.44-3.07-.06-1.33.17-2.65.3-3.98.37-3.92-.03-9.34-2.3-12.73-3.19-4.76-5.5,3.16-5.97,5.72Z"/>
  <path class="cls-1" d="M360.98,231.32c.1,1.01.5,2.3,1.51,2.33.43.01.82-.23,1.16-.49,2.4-1.86,3.46-5.04,3.58-8.08.12-3.04-.54-6.05-.94-9.06-.4-3.01-.53-6.05-.66-9.08-.23-5.32-.46-10.65-.69-15.97-.13-2.96-.25-5.92-.38-8.88-.12-2.72.32-6.22-.38-8.84-.33-1.22-1.39-2.94-2.97-2.77-2.13.23-1.52,3.13-1.57,4.76-.32,11.93-.36,23.9.02,35.83.22,6.76.61,13.53,1.31,20.26Z"/>
  <path d="M30.34,121.92c-2.56.25-24.19.27-20.67,4.39,2.13,2.32,5.23,3.58,8.23,4.38,8.48,2.01,17.34.74,25.95.42,23.61.84,49.38.06,73.04.27,29.43.85,58.6,4.4,88.01,5.12,42.36,1.16,89.82,3.26,132.15,5.3-25.14-.5-62.53-1.58-88.14-2.32-15.94-.49-50.82-1.09-66.11-2.08-22-1-43.98-3.61-65.95-4.21-14.66-.24-29.39.12-44.07-.19-9.2-.22-18.4-.07-27.6-.77-.71-.03-1.91.05-2.66.07-8.24.28-16.7,1.17-24.8-.94-2.69-.73-5.29-1.93-7.46-3.72-.71-.65-1.57-1.39-1.46-2.49.8-3.45,18-3.02,21.53-3.23h0Z"/>
  <path d="M28.28,124.66c-2.58.54-5.19.77-7.8.93-2.24.19-5.78-.51-6.36,2.45-.19-3.46,3.91-3.29,6.33-3.45,2.6-.13,5.2-.18,7.83.07h0Z"/>
  <path d="M108.78,125.31c34.16-1,68.29-1.05,102.46-.67,10.03.12,20.79.56,30.82,1.23,0,0,.03,0,.03,0-.18.05.09.33-.03.21-.56-.05-1.63-.13-2.19-.17,0,0-.53-.03-.53-.03h-.13s-.06,0-.05-.02c0,0,.04,0,.06,0l.27.03h-.27c-.11-.02-.07-.06,0-.05,0,0,.13,0,.13,0h.53c.56,0,1.64.02,2.2.03-.09-.13.24.21-.02.21-10.04-.13-20.8-.11-30.8.01-34.14.56-68.33.44-102.47-.79h0Z"/>
  <path class="cls-2" d="M157.01,105.22c-.15.3-.24.65-.17.97.17.79,1.12,1.13,1.92,1.21,2.11.21,4.28-.34,6.03-1.54.44-.3.9-.73.88-1.26-.02-.65-.73-1.06-1.37-1.13s-1.3.07-1.94-.07c-.05-6.62-.11-13.24-.16-19.87,0-.31,0-.62.07-.92.1-.41.35-.77.59-1.12,1.04-1.5,2.15-2.95,3.33-4.35,4.26-5.05,9.45-9.47,12.46-15.36-3.03-.59-6.15-.2-9.21.2-7.02.91-14.05,1.81-21.07,2.72-.77.1-1.55.2-2.23.57s-1.25,1.04-1.25,1.82c0,.74.5,1.39.97,1.96,3.53,4.28,7.08,8.57,11.13,12.36,1.12,1.05,2.32,2.12,2.82,3.56.33.96.33,1.99.31,3.01-.05,3.41-.15,6.82-.3,10.23-.06,1.39.28,3.83-.27,5.1-.45,1.05-1.94.73-2.55,1.91Z"/>
  <path class="cls-1" d="M111.67,31.41c-.39,1.97.76,3.88,1.93,5.51.76,1.05,1.64,2.13,2.89,2.45.36.09.74.11,1.1.22.36.1.69.29,1.05.4,1.01.3,2.09-.04,3.08-.42.69-.27,1.37-.55,1.99-.96,1.45-.94,2.48-2.5,2.75-4.2s-.26-3.52-1.41-4.8c-.45-.5-.99-.92-1.52-1.33-2.02-1.56-4.14-2.95-6.67-1.84-2.11.92-4.7,2.52-5.18,4.97Z"/>
  <path class="cls-1" d="M260.76,28.56c-.69,1.36-.75,3.02-.17,4.42.28.67.69,1.28,1.13,1.87,1.32,1.77,2.92,3.43,4.97,4.26s4.62.66,6.2-.88c.12-.11.22-.23.33-.35.11-.12.22-.24.33-.36.3-.32.6-.64.86-.99,1.45-1.91,1.74-4.79.28-6.7-.3-.4-.67-.75-1.03-1.09-.55-.52-1.1-1.05-1.66-1.57-.38-.36-.77-.73-1.23-.98-.58-.32-1.24-.44-1.89-.56-1.51-.27-3.53-.81-5-.12-1.21.57-2.54,1.86-3.13,3.04Z"/>
  <path class="cls-2" d="M263.4,23.27c-1.23.16-2.41.63-3.42,1.35-.75.54-1.41,1.24-1.84,2.06-.56,1.07-.72,2.33-.62,3.54.09,1.21.42,2.39.77,3.55.63,2.06,1.38,4.15,2.81,5.75,1.25,1.4,2.96,2.35,4.75,2.93,1.28.42,2.63.67,3.98.73,1.44.06,2.96-.13,4.17-.91.41-.27.78-.6,1.12-.95.49-.5.92-1.05,1.3-1.63.7-1.07,1.22-2.27,1.52-3.52.36-1.49.42-3.07-.04-4.53-.28-.89-.75-1.71-1.21-2.52-.73-1.27-1.48-2.57-2.59-3.53-1-.86-2.23-1.39-3.47-1.83-2.58-.9-5.47-1.4-8.02-.41"/>
  <path class="cls-5" d="M263.63,30.38c-.16.45-.21.93-.19,1.41.06,1.71.96,3.39,2.41,4.29s3.44.92,4.85-.05,2.1-2.91,1.51-4.51c-1.19-3.23-7.05-5.35-8.58-1.14Z"/>
  <path class="cls-5" d="M115.45,30.6c-.51.66-.84,1.51-.65,2.32.1.42.33.8.56,1.16.53.84,1.09,1.7,1.92,2.25.55.36,1.19.57,1.84.65.57.07,1.15.06,1.7-.1,1.81-.53,2.87-2.67,2.47-4.51-.34-1.55-1.75-3.2-3.33-3.6s-3.57.63-4.51,1.83Z"/>
  <path class="cls-5" d="M208.77,62.96c-1.19-.02-2.34-.45-3.53-.57s-2.56.19-3.15,1.22c-.24.42-.32.92-.32,1.41,0,.17.02.35.09.51.1.19.28.33.46.45,1.44.97,3.16,1.51,4.89,1.54,1.23.02,2.65-.34,3.17-1.45.5-1.06-.16-2.47-1.27-2.87-.44-.16-.93-.2-1.31-.47"/>
  <path class="cls-2" d="M207.23,59.49c-.55.68-.85,1.55-.83,2.42"/>
  <path class="cls-2" d="M208.53,59.85c-.31.3-.61.63-.82,1.02s-.31.84-.22,1.27"/>
  <path class="cls-2" d="M204.42,67.89c-.03.51-.06,1.01,0,1.52s.21,1,.52,1.41c.08-.98.28-1.96.58-2.89"/>
  <path d="M243.9,85.41c-4.42,2.46-8.78,5.27-13.79,6.38-3.52.48-6.98-.9-9.92-2.65-4.15-2.36-8.4-5.79-13.2-5.93,0,0,.76-.35.76-.35-2.9,4.37,2.13,10.92,4.14,14.99,2.95,4.84,5.96,10.06,9.4,14.48,3.63,4.6,10.2,4.47,14.93,1.63,4.98-2.94,8.1-8.15,11.08-12.99-2.61,5.22-5.43,10.66-10.48,13.98-5.09,3.46-12.7,3.63-16.84-1.45-1.8-1.93-3.66-5.05-5.15-7.22-1.6-2.44-3.17-4.91-4.66-7.44-2.53-4.9-7.99-12.26-3.58-17.52,3.82.08,7.24,1.9,10.15,3.81,4.16,2.64,8.15,6,13.24,5.63,4.86-.8,9.42-3.34,13.91-5.35h0Z"/>
  <path class="cls-1" d="M370.04,109.93c1.41-5.07,2.02-10.75-.48-15.38-2.62-4.86-8.07-7.47-13.39-8.94-5.2-1.44-10.65-2.08-16.02-1.54-2.38.24-4.77.73-6.9,1.82s-3.99,2.85-4.84,5.08c.3-2.02,1.51-3.84,3.06-5.18s3.41-2.26,5.32-3.01c5.09-2.01,10.57-2.97,16.04-3.04,1.69-.02,3.39.04,5.03.47,1.28.34,2.49.89,3.67,1.49,4.17,2.12,8.12,4.91,10.81,8.74,4.48,6.37,4.8,15.41.77,22.08"/>
</svg>