<?xml version="1.0" encoding="UTF-8"?>
<svg id="Layer_1" data-name="Layer 1" xmlns="http://www.w3.org/2000/svg" viewBox="0 0 318.02 351.48">
  <defs>
    <style>
      .cls-1 {
        fill: none;
        stroke-width: .75px;
      }

      .cls-1, .cls-2 {
        stroke: #000;
        stroke-miterlimit: 10;
      }

      .cls-2 {
        font-family: Lacquer-Regular, Lacquer;
        font-size: 6.29px;
        stroke-width: .25px;
      }
    </style>
  </defs>
  <polygon class="cls-1" points="38.16 275.87 153.73 87.87 164.93 92.48 51.66 275.87 38.16 275.87"/>
  <polygon class="cls-1" points="11.17 151.42 16.43 148.78 47.65 260.44 41.13 266.65 11.17 151.42"/>
  <polygon class="cls-1" points="68.26 230.41 71.45 231.43 64.5 242.29 61.17 241.71 68.26 230.41"/>
  <polygon class="cls-1" points="99.54 179.16 103.45 179.88 96.93 189.44 93.46 188.71 99.54 179.16"/>
  <polygon class="cls-1" points="136.46 118.78 139.5 120.37 130.67 134.7 127.2 133.52 136.46 118.78"/>
  <line class="cls-1" x1="40.94" y1="273.22" x2="50.64" y2="274.76"/>
  <line class="cls-1" x1="41.97" y1="271.68" x2="51.67" y2="273.22"/>
  <line class="cls-1" x1="42.8" y1="270.15" x2="52.5" y2="271.68"/>
  <line class="cls-1" x1="44" y1="268.4" x2="53.7" y2="269.94"/>
  <line class="cls-1" x1="44.94" y1="266.65" x2="54.64" y2="268.19"/>
  <line class="cls-1" x1="47.48" y1="263.37" x2="57.18" y2="264.91"/>
  <line class="cls-1" x1="48.31" y1="261.83" x2="58.01" y2="263.37"/>
  <line class="cls-1" x1="49.51" y1="260.09" x2="59.21" y2="261.63"/>
  <line class="cls-1" x1="50.45" y1="258.34" x2="60.15" y2="259.88"/>
  <line class="cls-1" x1="51.67" y1="256.12" x2="61.37" y2="257.65"/>
  <line class="cls-1" x1="52.69" y1="254.58" x2="62.39" y2="256.12"/>
  <line class="cls-1" x1="53.53" y1="253.04" x2="63.23" y2="254.58"/>
  <line class="cls-1" x1="54.73" y1="251.29" x2="64.43" y2="252.83"/>
  <line class="cls-1" x1="55.66" y1="249.55" x2="65.36" y2="251.09"/>
  <line class="cls-1" x1="57.31" y1="247.37" x2="67.01" y2="248.91"/>
  <line class="cls-1" x1="58.51" y1="245.62" x2="68.21" y2="247.16"/>
  <line class="cls-1" x1="59.45" y1="243.88" x2="69.15" y2="245.42"/>
  <line class="cls-1" x1="69.15" y1="228.21" x2="78.85" y2="229.75"/>
  <line class="cls-1" x1="70.35" y1="226.46" x2="80.05" y2="228"/>
  <line class="cls-1" x1="71.28" y1="224.72" x2="80.98" y2="226.26"/>
  <line class="cls-1" x1="72.56" y1="222.97" x2="82.26" y2="224.51"/>
  <line class="cls-1" x1="73.75" y1="221.23" x2="83.46" y2="222.76"/>
  <line class="cls-1" x1="74.69" y1="219.48" x2="84.39" y2="221.02"/>
  <line class="cls-1" x1="76.34" y1="217.46" x2="86.04" y2="219"/>
  <line class="cls-1" x1="77.54" y1="215.72" x2="87.24" y2="217.26"/>
  <line class="cls-1" x1="78.47" y1="213.97" x2="88.18" y2="215.51"/>
  <line class="cls-1" x1="79.61" y1="212.23" x2="89.31" y2="213.77"/>
  <line class="cls-1" x1="80.55" y1="210.48" x2="90.25" y2="212.02"/>
  <line class="cls-1" x1="81.58" y1="208.5" x2="91.28" y2="210.04"/>
  <line class="cls-1" x1="82.77" y1="206.76" x2="92.47" y2="208.3"/>
  <line class="cls-1" x1="83.71" y1="205.01" x2="93.41" y2="206.55"/>
  <line class="cls-1" x1="84.85" y1="203.27" x2="94.55" y2="204.81"/>
  <line class="cls-1" x1="85.78" y1="201.52" x2="95.48" y2="203.06"/>
  <line class="cls-1" x1="87.24" y1="199.42" x2="96.94" y2="200.96"/>
  <line class="cls-1" x1="88.44" y1="197.67" x2="98.14" y2="199.21"/>
  <line class="cls-1" x1="89.37" y1="195.93" x2="99.07" y2="197.47"/>
  <line class="cls-1" x1="90.51" y1="194.18" x2="100.21" y2="195.72"/>
  <line class="cls-1" x1="92.47" y1="190.61" x2="102.18" y2="192.15"/>
  <line class="cls-1" x1="100.21" y1="177.35" x2="109.91" y2="178.88"/>
  <line class="cls-1" x1="101.55" y1="175.81" x2="111.25" y2="177.35"/>
  <line class="cls-1" x1="102.54" y1="174.27" x2="112.24" y2="175.81"/>
  <line class="cls-1" x1="103.45" y1="172.73" x2="113.15" y2="174.27"/>
  <line class="cls-1" x1="104.09" y1="170.74" x2="113.79" y2="172.28"/>
  <line class="cls-1" x1="105.43" y1="169.2" x2="115.13" y2="170.74"/>
  <line class="cls-1" x1="106.4" y1="167.21" x2="116.1" y2="168.75"/>
  <line class="cls-1" x1="107.31" y1="165.67" x2="117.01" y2="167.21"/>
  <line class="cls-1" x1="108.64" y1="164.13" x2="118.34" y2="165.67"/>
  <line class="cls-1" x1="109.97" y1="162.6" x2="119.67" y2="164.13"/>
  <line class="cls-1" x1="110.96" y1="161.06" x2="120.67" y2="162.6"/>
  <line class="cls-1" x1="111.87" y1="159.52" x2="121.58" y2="161.06"/>
  <line class="cls-1" x1="113.15" y1="157.76" x2="122.85" y2="159.29"/>
  <line class="cls-1" x1="114.14" y1="156.22" x2="123.84" y2="157.76"/>
  <line class="cls-1" x1="115.05" y1="154.68" x2="124.75" y2="156.22"/>
  <line class="cls-1" x1="116.1" y1="153.14" x2="125.8" y2="154.68"/>
  <line class="cls-1" x1="117.09" y1="151.6" x2="126.79" y2="153.14"/>
  <line class="cls-1" x1="118" y1="150.07" x2="127.7" y2="151.6"/>
  <line class="cls-1" x1="118.95" y1="148.27" x2="128.65" y2="149.81"/>
  <line class="cls-1" x1="119.94" y1="146.73" x2="129.65" y2="148.27"/>
  <line class="cls-1" x1="120.85" y1="145.19" x2="130.56" y2="146.73"/>
  <line class="cls-1" x1="121.9" y1="143.66" x2="131.6" y2="145.19"/>
  <line class="cls-1" x1="122.89" y1="142.12" x2="132.59" y2="143.66"/>
  <line class="cls-1" x1="123.8" y1="140.58" x2="133.5" y2="142.12"/>
  <line class="cls-1" x1="124.75" y1="138.41" x2="134.45" y2="139.95"/>
  <line class="cls-1" x1="125.75" y1="136.87" x2="135.45" y2="138.41"/>
  <line class="cls-1" x1="126.66" y1="135.34" x2="136.36" y2="136.87"/>
  <line class="cls-1" x1="137.58" y1="117.24" x2="147.28" y2="118.78"/>
  <line class="cls-1" x1="138.57" y1="115.7" x2="148.28" y2="117.24"/>
  <line class="cls-1" x1="139.48" y1="114.16" x2="149.19" y2="115.7"/>
  <line class="cls-1" x1="140.7" y1="112.28" x2="150.41" y2="113.82"/>
  <line class="cls-1" x1="141.7" y1="110.74" x2="151.4" y2="112.28"/>
  <line class="cls-1" x1="142.61" y1="109.2" x2="152.31" y2="110.74"/>
  <line class="cls-1" x1="143.93" y1="107.3" x2="153.63" y2="108.84"/>
  <line class="cls-1" x1="144.92" y1="105.77" x2="154.62" y2="107.3"/>
  <line class="cls-1" x1="145.83" y1="104.23" x2="155.53" y2="105.77"/>
  <line class="cls-1" x1="146.51" y1="102.69" x2="156.21" y2="104.23"/>
  <line class="cls-1" x1="147.5" y1="101.15" x2="157.2" y2="102.69"/>
  <line class="cls-1" x1="148.41" y1="99.61" x2="158.11" y2="101.15"/>
  <line class="cls-1" x1="149.19" y1="98.08" x2="158.89" y2="99.61"/>
  <line class="cls-1" x1="150.18" y1="96.54" x2="159.88" y2="98.08"/>
  <line class="cls-1" x1="151.09" y1="95" x2="160.79" y2="96.54"/>
  <line class="cls-1" x1="152.31" y1="93.24" x2="162.01" y2="94.78"/>
  <line class="cls-1" x1="153.3" y1="91.7" x2="163" y2="93.24"/>
  <line class="cls-1" x1="91.45" y1="192.44" x2="101.15" y2="193.98"/>
  <line class="cls-1" x1="72.56" y1="231.92" x2="76.68" y2="232.81"/>
  <line class="cls-1" x1="71.94" y1="233.52" x2="76.06" y2="234.41"/>
  <line class="cls-1" x1="71.07" y1="234.98" x2="75.2" y2="235.87"/>
  <line class="cls-1" x1="69.87" y1="236.79" x2="74" y2="237.68"/>
  <line class="cls-1" x1="69.01" y1="238.43" x2="73.13" y2="239.31"/>
  <line class="cls-1" x1="68.28" y1="240" x2="72.41" y2="240.89"/>
  <line class="cls-1" x1="67.08" y1="241.4" x2="71.21" y2="242.29"/>
  <line class="cls-1" x1="105.06" y1="179.85" x2="108.94" y2="180.57"/>
  <line class="cls-1" x1="104.46" y1="181.51" x2="108.34" y2="182.23"/>
  <line class="cls-1" x1="103.49" y1="183.23" x2="107.37" y2="183.96"/>
  <line class="cls-1" x1="102.51" y1="185.05" x2="106.4" y2="185.78"/>
  <line class="cls-1" x1="101.15" y1="186.63" x2="105.03" y2="187.35"/>
  <line class="cls-1" x1="100.23" y1="188.08" x2="104.12" y2="188.81"/>
  <line class="cls-1" x1="99.21" y1="189.89" x2="103.09" y2="190.61"/>
  <line class="cls-1" x1="140.7" y1="120.41" x2="144.92" y2="121.45"/>
  <line class="cls-1" x1="140.12" y1="122.02" x2="144.33" y2="123.07"/>
  <line class="cls-1" x1="139.21" y1="123.68" x2="143.43" y2="124.72"/>
  <line class="cls-1" x1="138.6" y1="125.26" x2="142.81" y2="126.3"/>
  <line class="cls-1" x1="137.39" y1="126.74" x2="141.61" y2="127.78"/>
  <line class="cls-1" x1="136.49" y1="128.47" x2="140.7" y2="129.51"/>
  <line class="cls-1" x1="135.47" y1="130.16" x2="139.69" y2="131.2"/>
  <line class="cls-1" x1="134.45" y1="131.7" x2="138.67" y2="132.75"/>
  <line class="cls-1" x1="133.36" y1="133.52" x2="137.58" y2="134.56"/>
  <polygon class="cls-1" points="16.43 148.78 90.81 .93 151.4 86.35 47.48 258.34 16.43 148.78"/>
  <polyline class="cls-1" points="91.71 .33 101.73 5.65 99.1 8.96"/>
  <polyline class="cls-1" points="142.81 130.16 176.67 120.93 241.48 214.74 240.47 221.9 56.15 266.45 46.45 264.91"/>
  <polyline class="cls-1" points="241.48 219.6 243.37 222.9 243.37 224.25 58.01 274.76 56.52 269.17"/>
  <path class="cls-1" d="M118.99,168.75c2.43-.68,6.21-1.43,10.81-1.14,3.6.23,10.59.67,16.01,5.89,1.61,1.55,5.13,4.94,5.26,9.73.22,7.96-9.09,13.22-11.05,14.32-9.58,5.41-19.59,2.7-22.04,2-6.82-1.96-11.33-5.82-13.55-8.01"/>
  <path class="cls-1" d="M126.47,176.58c1.92-.03,4.33-.07,6.6,1.54.48.34,3.51,2.49,3.34,5.48-.21,3.59-4.85,5.44-5.86,5.84-4.88,1.95-9.25-.3-9.88-.63-1.46-.78-3.92-2.09-4.28-4.51-.46-3.04,2.75-5.46,3.29-5.87,2.36-1.78,4.95-1.82,6.8-1.85Z"/>
  <path class="cls-1" d="M139.09,135.34c6.92,1.23,12.74,2.63,17.25,3.84,3.44.93,7.8,2.12,13.41,4.2,4.47,1.66,7.74,3.15,8.16,3.35,8.82,4.08,30.05,22.7,27.91,46.96-1.15,12.96-8.46,21.84-11.91,25.91-13.85,16.36-33.31,19.76-51.84,23-22.29,3.89-38.2.77-41.86,0-9.14-1.92-16.48-4.8-21.6-7.17"/>
  <path class="cls-1" d="M92.08,266.7c5.68,8.39,12.68,15.78,19.01,23.69,9.11,11.4,16.77,23.84,25.53,35.49,2.82,3.75,8.33,13.5,13.13,14.15,4.25.58,9-3.87,12.48-5.74,4.8-2.57,9.46-5.38,14.12-8.18,41.59-25.01,83.19-50.02,124.78-75.03,2.32-1.4,4.67-2.81,6.6-4.72,2.45-2.43,4.1-5.55,5.47-8.71,1.9-4.39,3.33-8.98,4.26-13.67-11.04,7.88-22.72,14.85-34.9,20.82-6.8,3.34-13.75,6.36-20.55,9.68-5.36,2.61-10.62,5.41-15.88,8.21-6.16,3.27-12.32,6.54-18.48,9.81-14.93,7.93-29.86,15.86-44.8,23.79-11.22,5.96-22.49,11.95-32.66,19.55"/>
  <path class="cls-1" d="M110.43,262.28c3.13,6.3,6.93,12.26,11.3,17.77,4.03,5.07,8.53,9.75,12.44,14.91,4.35,5.74,7.98,12.1,13.17,17.09,1.09,1.05,2.28,2.07,2.95,3.43.48.96.66,2.03.84,3.09,1.11,6.65,1.67,14.34-2.91,19.29"/>
  <polyline class="cls-1" points="317.47 222.6 261.16 178.13 185.05 115.7 164.93 96.54"/>
  <polyline class="cls-1" points="158.11 88.76 151.79 82.12 150.41 83.22"/>
  <line class="cls-1" x1="118.9" y1="259.28" x2="155.71" y2="310.1"/>
  <polyline class="cls-1" points="170.46 330.51 177.39 335.53 216.26 302.13"/>
  <path class="cls-1" d="M159.37,337.7c4.63,6.01,11.1,10.59,18.31,12.96-.24-4.89-.21-9.79.07-14.67"/>
  <polyline class="cls-1" points="178.3 350.66 220.05 314.62 269.86 270.68"/>
  <path class="cls-1" d="M12.37,160.39c-3.54,1.23-6.9,3-9.91,5.23-.74.54-1.51,1.22-1.59,2.13-.08.98.67,1.8,1.38,2.48,5.32,5.15,11.01,9.92,17,14.27"/>
  <path class="cls-1" d="M.38,169.49c-.03,3.79-.03,7.73,1.62,11.13,1.46,3.02,4.08,5.31,6.62,7.5,1.82,1.58,3.65,3.15,5.47,4.73,2.93,2.53,5.87,5.07,8.8,7.6"/>
  <path class="cls-1" d="M11.44,155.08c-.13.53-.3,1.04-.53,1.53-.38.83-.91,1.61-1.04,2.52-.01.09-.02.18.02.26.06.11.2.14.32.16,1.01.18,2.03.36,3.04.54"/>
  <path class="cls-1" d="M24.05,129.71l-7.77,3.29c-.32.14-.66.29-.83.59-.16.28-.15.62-.13.94.25,4.33.49,8.66.74,13"/>
  <polygon class="cls-1" points="21.8 147.67 87.89 20.75 138.57 90.25 50.59 241.39 21.8 147.67"/>
  <line class="cls-1" x1="151.14" y1="318.58" x2="317.06" y2="225.87"/>
  <line class="cls-1" x1="151.92" y1="321.02" x2="316.52" y2="228.08"/>
  <line class="cls-1" x1="151.92" y1="324.45" x2="315.83" y2="230.51"/>
  <line class="cls-1" x1="151.92" y1="327.19" x2="315.19" y2="232.51"/>
  <line class="cls-1" x1="151.92" y1="329.84" x2="314.17" y2="235.31"/>
  <line class="cls-1" x1="151.92" y1="332.54" x2="313.21" y2="237.65"/>
  <line class="cls-1" x1="151.14" y1="335.4" x2="311.81" y2="239.98"/>
  <line class="cls-1" x1="149.95" y1="337.86" x2="310.92" y2="242.22"/>
  <line class="cls-1" x1="177.67" y1="337.58" x2="222.47" y2="298.76"/>
  <polyline class="cls-1" points="177.75 339.21 227.8 295.19 231.48 293.42 177.67 341.73 177.75 343.33 236.79 290.04 242.53 286.9 177.75 345.21 177.55 347.21 247.88 283.77 253 280.04 177.61 348.99 177.68 350.66 257.65 277.48"/>
  <line class="cls-1" x1="261.52" y1="274.92" x2="201.17" y2="329.16"/>
  <text class="cls-2" transform="translate(90.28 216.56) rotate(24.64) scale(1.1 1)"><tspan x="0" y="0">s</tspan></text>
  <text class="cls-2" transform="translate(93.16 217.9) rotate(25.95) scale(1.1 1)"><tspan x="0" y="0">p</tspan></text>
  <text class="cls-2" transform="translate(95.65 219.13) rotate(24.69) scale(1.1 1)"><tspan x="0" y="0">ä</tspan></text>
  <text class="cls-2" transform="translate(99.46 220.88) rotate(20.56) scale(1.1 1)"><tspan x="0" y="0">t</tspan></text>
  <text class="cls-2" transform="translate(103.21 222.24) rotate(16.7) scale(1.1 1)"><tspan x="0" y="0">i</tspan></text>
  <text class="cls-2" transform="translate(104.69 222.7) rotate(13.35) scale(1.1 1)"><tspan x="0" y="0"> </tspan></text>
  <text class="cls-2" transform="translate(107.6 223.39) rotate(8.24) scale(1.1 1)"><tspan x="0" y="0">j</tspan></text>
  <text class="cls-2" transform="translate(111.26 223.92) rotate(2.28) scale(1.1 1)"><tspan x="0" y="0">a</tspan></text>
  <text class="cls-2" transform="translate(115.27 224.04) rotate(-.15) scale(1.1 1)"><tspan x="0" y="0">m</tspan></text>
  <text class="cls-2" transform="translate(119.37 224.02) rotate(-1.19) scale(1.1 1)"><tspan x="0" y="0"> </tspan></text>
  <text class="cls-2" transform="translate(122.11 223.96) rotate(-2.29) scale(1.1 1)"><tspan x="0" y="0">-</tspan></text>
  <text class="cls-2" transform="translate(124.99 223.85) rotate(-3.54) scale(1.1 1)"><tspan x="0" y="0"> </tspan></text>
  <text class="cls-2" transform="translate(127.72 223.68) rotate(-5.03) scale(1.1 1)"><tspan x="0" y="0">s</tspan></text>
  <text class="cls-2" transform="translate(130.87 223.41) rotate(-6.65) scale(1.1 1)"><tspan x="0" y="0">p</tspan></text>
  <text class="cls-2" transform="translate(133.69 223.09) rotate(-8.6) scale(1.1 1)"><tspan x="0" y="0">ä</tspan></text>
  <text class="cls-2" transform="translate(137.77 222.47) rotate(-11.27) scale(1.1 1)"><tspan x="0" y="0">t</tspan></text>
  <text class="cls-2" transform="translate(141.62 221.68) rotate(-13.29) scale(1.1 1)"><tspan x="0" y="0">i</tspan></text>
  <text class="cls-2" transform="translate(143.06 221.35) rotate(-14.99) scale(1.1 1)"><tspan x="0" y="0"> </tspan></text>
  <text class="cls-2" transform="translate(145.82 220.61) rotate(-17.69) scale(1.1 1)"><tspan x="0" y="0">j</tspan></text>
  <text class="cls-2" transform="translate(149.26 219.52) rotate(-21.37) scale(1.1 1)"><tspan x="0" y="0">a</tspan></text>
  <text class="cls-2" transform="translate(153.09 218.02) rotate(-25.88) scale(1.1 1)"><tspan x="0" y="0">m</tspan></text>
  <text class="cls-2" transform="translate(156.99 216.1) rotate(-30.25) scale(1.1 1)"><tspan x="0" y="0"> </tspan></text>
  <text class="cls-2" transform="translate(159.5 214.63) rotate(-34.13) scale(1.1 1)"><tspan x="0" y="0">-</tspan></text>
  <text class="cls-2" transform="translate(162.06 212.88) rotate(-38.35) scale(1.1 1)"><tspan x="0" y="0"> </tspan></text>
  <text class="cls-2" transform="translate(164.38 211.06) rotate(-43.14) scale(1.1 1)"><tspan x="0" y="0">s</tspan></text>
  <text class="cls-2" transform="translate(166.89 208.68) rotate(-48.16) scale(1.1 1)"><tspan x="0" y="0">p</tspan></text>
  <text class="cls-2" transform="translate(168.91 206.47) rotate(-53.74) scale(1.1 1)"><tspan x="0" y="0">ä</tspan></text>
  <text class="cls-2" transform="translate(171.42 202.99) rotate(-59.95) scale(1.1 1)"><tspan x="0" y="0">t</tspan></text>
  <text class="cls-2" transform="translate(173.38 199.51) rotate(-63.85) scale(1.1 1)"><tspan x="0" y="0">i</tspan></text>
  <text class="cls-2" transform="translate(174.08 198.12) rotate(-67.02) scale(1.1 1)"><tspan x="0" y="0"> </tspan></text>
  <text class="cls-2" transform="translate(175.24 195.4) rotate(-71.93) scale(1.1 1)"><tspan x="0" y="0">j</tspan></text>
  <text class="cls-2" transform="translate(176.39 191.86) rotate(-78.5) scale(1.1 1)"><tspan x="0" y="0">a</tspan></text>
  <text class="cls-2" transform="translate(177.23 187.65) rotate(-86.54) scale(1.1 1)"><tspan x="0" y="0">m</tspan></text>
  <text class="cls-2" transform="translate(177.44 183.2) rotate(-94) scale(1.1 1)"><tspan x="0" y="0"> </tspan></text>
  <text class="cls-2" transform="translate(177.21 180.15) rotate(-100.41) scale(1.1 1)"><tspan x="0" y="0">-</tspan></text>
  <text class="cls-2" transform="translate(176.62 177.03) rotate(-106.75) scale(1.1 1)"><tspan x="0" y="0"> </tspan></text>
  <text class="cls-2" transform="translate(175.74 174.11) rotate(-113.36) scale(1.1 1)"><tspan x="0" y="0">s</tspan></text>
  <text class="cls-2" transform="translate(174.35 170.93) rotate(-119.42) scale(1.1 1)"><tspan x="0" y="0">p</tspan></text>
  <text class="cls-2" transform="translate(172.87 168.27) rotate(-125.43) scale(1.1 1)"><tspan x="0" y="0">ä</tspan></text>
  <text class="cls-2" transform="translate(170.36 164.79) rotate(-132.03) scale(1.1 1)"><tspan x="0" y="0">t</tspan></text>
  <text class="cls-2" transform="translate(167.62 161.84) rotate(-136.17) scale(1.1 1)"><tspan x="0" y="0">i</tspan></text>
  <text class="cls-2" transform="translate(166.54 160.78) rotate(-139.16) scale(1.1 1)"><tspan x="0" y="0"> </tspan></text>
  <text class="cls-2" transform="translate(164.32 158.86) rotate(-143.31) scale(1.1 1)"><tspan x="0" y="0">j</tspan></text>
  <text class="cls-2" transform="translate(161.39 156.68) rotate(-147.97) scale(1.1 1)"><tspan x="0" y="0">a</tspan></text>
  <text class="cls-2" transform="translate(157.9 154.5) rotate(-152.6) scale(1.1 1)"><tspan x="0" y="0">m</tspan></text>
  <text class="cls-2" transform="translate(154.06 152.54) rotate(-156.32) scale(1.1 1)"><tspan x="0" y="0"> </tspan></text>
  <text class="cls-2" transform="translate(151.41 151.38) rotate(-159.22) scale(1.1 1)"><tspan x="0" y="0">-</tspan></text>
  <text class="cls-2" transform="translate(148.6 150.32) rotate(-161.96) scale(1.1 1)"><tspan x="0" y="0"> </tspan></text>
  <text class="cls-2" transform="translate(145.84 149.42) rotate(-164.86) scale(1.1 1)"><tspan x="0" y="0">s</tspan></text>
  <text class="cls-2" transform="translate(142.63 148.55) rotate(-167.59) scale(1.1 1)"><tspan x="0" y="0">p</tspan></text>
  <text class="cls-2" transform="translate(139.8 147.92) rotate(-170.41) scale(1.1 1)"><tspan x="0" y="0">ä</tspan></text>
  <text class="cls-2" transform="translate(135.62 147.25) rotate(-172.84) scale(1.1 1)"><tspan x="0" y="0">i</tspan></text>
  <text class="cls-2" transform="translate(134.14 147.05) rotate(-174.58) scale(1.1 1)"><tspan x="0" y="0"> </tspan></text>
</svg>