<?xml version="1.0" encoding="UTF-8"?>
<svg id="Layer_1" data-name="Layer 1" xmlns="http://www.w3.org/2000/svg" viewBox="0 0 350.19 1000.71">
  <path d="M228.85,232.33s-.08,0-.12,0c-7.92-.2-11.72-22.1-12.7-28.81-2.36-16.2-5.3-36.37,4.08-57.17.57-1.27,1.15-2.46,1.71-3.6,2.15-4.39,3.84-7.86,3.48-12.88-.56-7.67-5.49-12.92-9.83-17.54-.66-.7-1.3-1.38-1.91-2.05-14.99-16.55-23.74-41.18-21.29-59.89l1.98.26-1.98-.26c2.79-21.34,19.51-34.99,24.57-38.66,10.08-7.32,27.28-15.03,52.05-10.19,18.19,3.55,33.72,13.93,46.15,30.85,1.14,1.56,27.84,38.55,12.11,75.12-1.97,4.57-12.95,27.82-36.02,36.72-4.31,1.66-8.27,2.52-11.76,3.27-6.26,1.35-11.21,2.41-15.64,7.34-5.87,6.53-6.65,15.27-7.34,22.97-.43,4.82-.35,10.5-.17,24.21.05,3.82.11,8.25.17,13.46.04,3.03.1,8.09-3.45,10.57-2.53,1.77-5.23,1.11-7.85.47-2.35-.58-4.77-1.17-7.49-.22-2.19.77-3.29,2.07-4.36,3.33-1.08,1.28-2.3,2.72-4.41,2.72ZM253.85,4c-15.81,0-27.29,5.58-34.66,10.93-4.73,3.44-20.37,16.19-22.96,35.95h0c-2.31,17.64,6.03,40.95,20.29,56.69.59.65,1.21,1.32,1.86,2,4.56,4.86,10.24,10.9,10.91,19.99.45,6.1-1.65,10.39-3.87,14.93-.54,1.11-1.1,2.26-1.66,3.49-8.89,19.74-6.05,39.26-3.76,54.95,2.37,16.27,6.73,25.34,8.84,25.39h0c.26,0,.85-.69,1.37-1.31,1.21-1.43,2.86-3.39,6.09-4.52,3.83-1.35,7.12-.54,9.76.11,2.27.56,3.61.84,4.6.14,1.82-1.27,1.77-5.01,1.75-7.25-.06-5.21-.12-9.64-.17-13.45-.19-13.86-.27-19.59.18-24.62.74-8.33,1.59-17.77,8.35-25.29,5.3-5.89,11.36-7.2,17.77-8.58,3.51-.76,7.15-1.54,11.17-3.09,21.58-8.32,31.93-30.25,33.78-34.57,14.84-34.48-10.57-69.69-11.66-71.17-11.82-16.08-26.52-25.94-43.7-29.29-5.1-1-9.86-1.43-14.27-1.43Z"/>
  <path d="M153.81,382.77c-4.56,0-10.25-1.84-14.43-4.8-5.24-3.71-7.73-8.75-9.31-12.72-5.15-12.97-4.11-25.22-3-38.19,2.16-25.35,3.15-36.92,4.37-41.24,4.05-14.29,8.23-29.06,20.83-39.02l1.24,1.57-1.24-1.57c7.39-5.84,22.25-7.38,51.86-10.46,24.63-2.56,31.04-1.33,36.2-.35,3.63.69,6.5,1.24,15.06.35h.13c2.95-.32,9.86-1.05,15.3,3.29,5.05,4.03,6.08,10.34,6.46,12.71,1.25,7.7-.09,13.54-3.88,16.88-3.49,3.08-7.88,2.9-13.95,2.65-13.8-.57-24.36-1.43-24.46-1.44-5.47-.45-13.86,1.37-30.6,4.98-.17.04-17.52,3.84-35.06,12.04-2.15,1.01-3.67,1.79-5.06,3.43-2.99,3.51-2.42,7.54-1.56,13.65.52,3.67,1.1,7.84.96,12.71-.27,9.25-3.05,14.21-5.28,18.2-2.2,3.93-3.93,7.04-2.92,13.32,2.49,15.45,4.76,22.29,4.86,22.59l.2.58c.96,2.77,1.95,5.63.27,8.04-.92,1.33-2.52,2.22-4.6,2.58-.75.13-1.56.19-2.4.19ZM227.55,238.82c-5.07,0-12.24.38-23,1.5-28.84,2.99-43.32,4.5-49.79,9.62h0c-11.58,9.16-15.41,22.67-19.46,36.97-1.12,3.95-2.23,16.93-4.23,40.49-1.11,13.03-2.07,24.28,2.73,36.37,1.37,3.46,3.51,7.83,7.9,10.93,4.67,3.31,10.62,4.49,13.83,3.93.99-.17,1.72-.51,2.01-.93.51-.74-.14-2.62-.77-4.44l-.2-.57h.01c-.44-1.01-.86-2.73-1.56-5.61-.84-3.43-2.13-9.28-3.48-17.66-1.24-7.66,1-11.67,3.38-15.91,2.23-3.98,4.53-8.1,4.77-16.37.13-4.54-.43-8.52-.92-12.04-.9-6.39-1.68-11.92,2.47-16.8,1.91-2.25,3.95-3.31,6.41-4.46,17.96-8.4,35.73-12.29,35.91-12.33,17.12-3.7,25.71-5.55,31.77-5.06.11,0,10.58.87,24.29,1.43,5.98.25,8.95.28,11.14-1.65,2.67-2.35,3.58-7.05,2.58-13.23-.35-2.15-1.17-7.16-5.01-10.23-4.16-3.32-9.93-2.71-12.39-2.46h-.13c-9.14.97-12.42.34-16.22-.39-2.71-.52-5.78-1.1-12.04-1.1Z"/>
  <path d="M144.85,415.99c-2.31,0-4.67-.51-6.85-1.86-3.75-2.32-4.97-5.84-6.99-11.67-1.7-4.9-4.02-11.6-.81-17.63,1.6-3.02,3.87-5.08,6.55-5.96,2.58-.84,4.58-.28,6.69.32.62.17,1.28.36,2.01.53,4.07.92,6.67.32,8.95-.21,2.3-.53,4.67-1.08,7.41.4,5.75,3.12,6.89,11.72,6.25,16.74-.53,4.17-2.73,10.17-10.22,15.04-1.4.91-7.03,4.31-13.01,4.31ZM139.37,382.44c-.46,0-.9.07-1.38.23-1.17.38-2.86,1.39-4.26,4.03h0c-2.39,4.5-.56,9.78,1.06,14.44,1.98,5.7,2.88,8.08,5.32,9.58,5.92,3.66,14.6-1.77,15.57-2.4,6.2-4.03,8.01-8.85,8.43-12.19.52-4.06-.44-10.69-4.19-12.72-1.35-.73-2.39-.54-4.6-.02-2.44.56-5.77,1.34-10.74.22-.81-.18-1.54-.39-2.22-.58-1.28-.36-2.16-.59-2.99-.59Z"/>
  <path d="M146.32,480.75c-1.8,0-3.47-.4-4.82-1.26-5.23-3.35-4.38-11.83-3.31-22.56.4-3.98.94-6.57,1.41-8.85.22-1.07.44-2.1.63-3.24,1.42-8.34.76-17.46-1.98-27.09l3.85-1.09c2.9,10.21,3.6,19.92,2.07,28.85-.2,1.19-.43,2.27-.66,3.39-.48,2.29-.97,4.66-1.35,8.43-.86,8.62-1.67,16.76,1.49,18.79,2.71,1.74,9.19-.08,12.1-4.31,1.36-1.97,1.24-3.43.45-9.98-.23-1.91-.51-4.28-.79-7.13-.61-6.14-.81-10.36-.97-13.75-.25-5.37-.41-8.62-2.01-14.28-.99-3.51-2.25-6.96-3.75-10.26l3.64-1.65c1.58,3.48,2.91,7.12,3.96,10.82,1.72,6.1,1.89,9.71,2.15,15.18.16,3.35.35,7.51.95,13.54.28,2.81.56,5.16.79,7.05.8,6.67,1.13,9.44-1.13,12.72-2.82,4.11-8.18,6.68-12.73,6.68Z"/>
  <path d="M145.64,453.59l-2.42-3.18c.76-.58,1.29-1.24,1.58-1.97.32-.81.24-1.5.08-2.73-.11-.82-.24-1.75-.21-2.88.05-2.28.73-4.57,2.01-6.82l3.48,1.98c-.95,1.67-1.45,3.33-1.49,4.93-.02.81.08,1.51.18,2.25.18,1.36.39,2.9-.31,4.71-.55,1.42-1.52,2.67-2.88,3.71Z"/>
  <path d="M164.81,810.62h-.84c-1.97-.05-2.05-2.02-2.11-3.33-.04-.93-.07-2.3-.09-4.05-.04-3.26-.05-7.96-.04-14.37.03-11.94.14-27.78.27-44.55v-.17c.61-83.38.98-133.78,1.7-160.75-1.26-.3-3.17-.45-5.96-.02-2.37.37-3.7.9-4.77,1.32-1.31.52-2.55,1.01-4.38.58-4.53-1.09-6.72-6.33-7.63-9.35-1.57-5.26-.67-9.71,4.82-23.83,1.26-3.23,2.41-6.59,3.53-9.83,1.6-4.64,3.25-9.45,5.26-14.06l.12-.27c1.29-2.96,2.9-6.65,1.64-10.1-.43-1.18-.95-1.72-1.75-2.55-.81-.84-1.82-1.88-2.83-3.75-3.16-5.81-2.29-12.12-1.96-14.49.49-3.55,1.53-5.81,2.36-7.62.96-2.09,1.59-3.48,1.28-6.17-.05-.41-.11-.79-.17-1.15-.23-1.42-.49-3.02.32-4.89,1.15-2.66,3.84-4.54,8-5.58l.54,2.14.66-.12c2.7,14.26,4.57,28.89,5.56,43.46,1.62,23.77.51,41.82.04,49.53l-.04.56c-.21,3.45-.4,7.95-.56,13.61.25.17.46.34.64.49.36.31,1.44,1.26,1.91,2.87.29.98.3,2.04.04,3.06-.36,3.01-1.06,48.85-1.73,93.2-.46,30.49-.94,62.02-1.39,86.45-.79,42.12-.97,42.3-1.84,43.15l-.6.58ZM159.29,476.75c-1.01.58-1.68,1.26-2.02,2.05-.33.76-.25,1.4-.04,2.67.07.42.14.86.19,1.34.43,3.8-.56,5.98-1.62,8.29-.8,1.74-1.62,3.54-2.03,6.51-.31,2.21-1.02,7.38,1.51,12.03.75,1.39,1.45,2.11,2.2,2.88.94.97,1.91,1.98,2.63,3.96,1.8,4.95-.24,9.64-1.73,13.06l-.12.26c-1.94,4.47-3.57,9.2-5.14,13.77-1.13,3.28-2.3,6.67-3.58,9.98-5.35,13.76-5.87,17.37-4.71,21.24,1.1,3.69,2.87,6.16,4.73,6.61.55.13.8.06,1.96-.4,1.19-.47,2.82-1.12,5.63-1.56,2.79-.43,4.98-.38,6.69-.09.16-5.07.33-9.17.53-12.37l.03-.57c.47-7.63,1.57-25.51-.03-49.01-.93-13.62-2.63-27.27-5.07-40.63Z"/>
  <path d="M169.99,1000.71c-28.63,0-57.34-1.63-85.69-4.87-22.82-2.61-50.51-8.42-62.08-30.36-4.1-7.77-5.51-16.77-6.75-24.71-5.83-37.31-11.85-75.89-11.82-114.41,0-7.91.27-15.94.52-23.7.35-10.71.71-21.78.4-32.64-.26-8.98-.99-18.12-1.7-26.95-.39-4.85-.79-9.87-1.11-14.82-2.26-34.99-2.35-74.81-.27-121.74,1.58-35.72,38.12-57.46,68.94-65.22,6.02-1.52,12.09-2.65,18.18-3.5l.02-.02c9.06-6.73,16.9-6.45,25.97-6.14,2.47.09,5.02.17,7.78.15,13.19-1.65,26.47-2.59,39.74-2.82,32.99-.55,65.53,2.74,80.16,30.39,7.08,13.38,9.19,28.51,10.89,44.15,9.2,84.61,8.84,170.37-1.08,254.9-1.58,13.45-3.43,27.09-5.22,40.28l-3.89,28.68c-2.49,18.35-5.06,37.33-13.44,54.46-2.23,4.56-5.48,10.23-10.91,13.75-5.78,3.75-12.74,4.31-19.96,4.58-9.54.36-19.11.55-28.68.55ZM27.08,566.86c-12.15,10.17-20.86,23.45-21.59,39.82-2.07,46.78-1.99,86.46.27,121.31.32,4.92.72,9.92,1.1,14.75.71,8.88,1.44,18.07,1.71,27.15.32,10.98-.05,22.12-.4,32.89-.25,7.73-.52,15.72-.52,23.57-.03,38.21,5.97,76.63,11.77,113.79,1.25,8.01,2.54,16.29,6.33,23.46,10.71,20.29,37.16,25.75,59,28.25,37.63,4.3,75.91,5.75,113.77,4.3,6.64-.25,13.01-.75,17.94-3.94,4.6-2.98,7.49-8.06,9.49-12.15,8.1-16.55,10.63-35.2,13.07-53.24l3.89-28.68c1.79-13.17,3.63-26.79,5.21-40.21,9.88-84.23,10.25-169.69,1.08-254-1.66-15.23-3.7-29.95-10.45-42.71-13.5-25.5-44.28-28.73-75.67-28.27,10.36.82,20.69,2.04,30.92,3.66,9.29,1.47,19.96,3.48,29.1,8.81,10.16,5.92,16.68,15.29,17.45,25.08.78,9.92-4.58,20.62-13.98,27.93-8.61,6.68-19.19,10.05-28.44,12.68-49.55,14.09-102.75,18.01-153.83,11.33-6.42-.84-13.19-1.91-19.29-4.88-4.97-2.42-8.66-5.8-10.67-9.78-1.68-3.34-2.36-7.42-2.02-12.13.89-12.12,7.48-21.74,14.76-28.79ZM97.92,544.77c-18.05,0-36.1,4.54-51.95,13.22-8.42,4.61-28.17,17.54-29.67,37.97-.29,3.98.25,7.35,1.6,10.04,2.03,4.03,5.93,6.57,8.85,7.99,5.56,2.7,11.97,3.71,18.06,4.5,50.55,6.61,103.19,2.73,152.22-11.21,8.89-2.53,19.04-5.75,27.08-11.99,8.35-6.49,13.12-15.86,12.45-24.46-.66-8.35-6.59-16.75-15.48-21.93-8.55-4.98-18.79-6.9-27.71-8.31-20.82-3.29-41.99-4.93-63.15-4.87l.07,3.39c-10.7.22-21.77.56-32.86,1.68,4.85-.01,9.68.27,14.48.89l-.51,3.97c-4.47-.57-8.97-.85-13.48-.85Z"/>
  <path d="M116.83,828.33c-.43,0-.85,0-1.26-.01-8.92-.19-17.19-1.93-24.61-5.19-8.99-3.96-14.32-10.39-14.25-17.2.09-8.48,8.01-14.22,15.33-15.97,12.87-3.06,27.56,3.27,34.18,14.73,2.12,3.68,2.5,7,1.09,9.59-1.48,2.73-4.53,3.83-7.02,4.48-6.4,1.68-11.51,1.88-16.07.63-6.06-1.66-10.72-6.18-11.88-11.52l3.91-.84c.83,3.84,4.46,7.26,9.02,8.51,3.86,1.05,8.31.85,14-.64,1.82-.48,3.78-1.15,4.53-2.52.94-1.73-.25-4.3-1.04-5.68-5.76-9.99-18.57-15.51-29.78-12.84-6.04,1.44-12.19,6.06-12.26,12.12-.08,7.65,9.06,12.27,11.86,13.5,6.93,3.05,14.69,4.68,23.08,4.85,6.51.13,11.02-.94,14.19-3.4,1.93-1.5,3.59-3.68,5.21-6.88,4.88-9.6,6.01-20.29,7.21-31.59,1-9.46,2.04-19.24,5.49-28.3.43-1.12.89-2.22,1.35-3.33,1.18-2.82,2.3-5.49,2.79-8.3.67-3.83.15-7.88-.35-11.8-1.67-13.1-3.4-26.64-8.71-38.87-.73-1.69-1.55-3.39-2.35-5.04-1.54-3.19-3.12-6.48-4.24-9.97-6.64-20.71,5.02-42.17,12.56-53.12.83-1.21,1.69-2.41,2.55-3.62,4.39-6.17,8.92-12.56,10.36-19.78l3.92.78c-1.6,8.06-6.39,14.8-11.02,21.32-.85,1.19-1.69,2.38-2.51,3.58-7.13,10.34-18.16,30.54-12.04,49.62,1.03,3.22,2.49,6.25,4.04,9.46.81,1.68,1.65,3.42,2.41,5.18,5.54,12.75,7.31,26.58,9.01,39.96.51,4.02,1.09,8.57.32,13-.57,3.25-1.82,6.25-3.04,9.15-.45,1.07-.89,2.14-1.3,3.21-3.26,8.57-4.27,18.09-5.25,27.29-1.18,11.17-2.41,22.72-7.62,32.98-1.9,3.75-3.92,6.36-6.33,8.23-4.72,3.66-10.85,4.25-15.46,4.25Z"/>
  <path d="M109.43,845.39c-5.56,0-10.86-.5-15.79-1.49-8.86-1.78-14.65-5.67-16.74-11.26-1.03-2.75-1.04-5.56-1.06-8.29,0-1.27-.01-2.47-.12-3.65-.26-2.91-1.17-5.96-2.04-8.91-1.63-5.49-3.32-11.16-1.31-16.84,2.12-6,8.17-10.47,16.37-12.19-1.05-7.35-1.45-14.82-1.21-22.23.07-2.05.23-4.21,1.43-6.1,1.74-2.76,5.18-4.19,9.94-4.12,8.94.12,17.84,3.6,25.74,10.08,6.59,5.41,12.4,12.88,16.47,21.17,1.14-17.09,1.63-34.23,1.47-51.28-.02-2.46-.06-4.93-.1-7.39-.17-11.33-.34-23.04.84-34.54.33-3.21.77-6.44,1.19-9.57.65-4.76,1.31-9.69,1.59-14.53.64-11.27-.79-22.81-2.17-33.98-1.62-13.08-3.29-26.61-1.71-39.99l3.97.47c-1.53,12.9.12,26.18,1.71,39.03,1.4,11.34,2.86,23.06,2.19,34.7-.29,5-.96,10-1.62,14.84-.42,3.1-.85,6.3-1.18,9.44-1.15,11.27-.98,22.86-.82,34.07.04,2.47.07,4.95.1,7.42.28,30.09-1.46,60.49-5.17,90.35-.54,4.38-1.29,10.38-4.59,15.03-4.28,6.04-11.93,9.2-23.37,9.68-1.35.06-2.69.08-4.02.08ZM98.6,754.31c-2.26,0-5.09.41-6.26,2.26-.66,1.05-.76,2.54-.81,4.1-.26,7.81.23,15.69,1.45,23.41l.31,1.99-1.99.3c-2.89.43-12.51,2.43-15.16,9.92-1.58,4.46-.15,9.27,1.37,14.37.93,3.14,1.9,6.38,2.19,9.69.12,1.34.13,2.68.13,3.98.01,2.48.03,4.83.8,6.91,2,5.35,8.6,7.71,13.78,8.75,5.8,1.16,12.14,1.6,18.86,1.33,9.98-.42,16.81-3.11,20.27-8,2.51-3.54,3.24-8.08,3.88-13.21,1.52-12.2,2.7-24.49,3.55-36.81l-2.86,1.32c-6.41-13.83-20.54-30.07-39.29-30.31-.08,0-.16,0-.24,0Z"/>
  <path d="M175.15,996.75c-11.78,0-24.52-.35-36.93-2.74-6.18-1.19-11.99-2.88-17.36-5.01-7.05,2.87-15.27,3.94-23.71,2.94-13.43-1.6-25.73-7.88-34.95-13.18-3.67-2.11-7.43-4.51-9.44-8.44-.46-.89-.79-1.81-1.02-2.73-17.86-10.22-32.55-24.47-41.87-41.01-2.48-4.41-3.83-10.62.54-13.62,1.33-.91,2.87-1.21,4.2-1.42,2.83-.44,5.62-.67,8.34-.69-.78-6.16-.24-12.66,1.52-19.06.07-2.95.5-5.73.94-8.06,1.11-5.79,2.76-10.6,4.97-14.5-2.71-1.7-5.25-3.64-7.59-5.81-11.93-11.05-18.49-27.98-17.1-44.19.49-5.75,1.93-9.85,4.54-12.9,4.99-5.84,13.31-6.64,20.72-6.93.73-.03,1.47-.06,2.21-.09.45-.48.91-.96,1.39-1.42-2.11-2.57-3.67-5.47-4.53-8.47-.49-.5-.94-1.06-1.35-1.68-4.39-6.64-.44-15.32,4.71-21.22,15.1-17.3,39.06-27.21,65.79-27.21.11,0,.22,0,.33,0,14.08.04,24.48,3.57,30.93,10.47,7.18,7.68,8.79,18.67,9.37,28.87,2-.72,4.01-1.18,5.81-1.6,4.72-1.1,9.4-2.11,14.03-2.75.83-2.68,2.2-5.21,4.19-7.4,3.98-4.39,10.09-7.11,18.16-8.1,2.77-.34,5.48-.46,8.11-.36,6.48-11.27,20.99-17.46,32.83-13.41,4.25,1.45,8.15,4.13,11.36,7.66.93.16,1.86.41,2.77.77,4.77,1.88,8.38,6.59,9.66,12.61,1.09,5.13.45,10.46-.12,15.17l-3.31-.4c-.35,5.79-1.69,11.98-4.01,18.53-1.43,4.04-3.13,7.97-5.07,11.78,1.16.43,2.27.96,3.31,1.59,5.58,3.39,9.63,9.77,12.01,18.96,3.9,15.03,2.49,29.55-3.98,40.89-1.89,3.31-4.9,7.4-9.2,9.93,3.65,9.7,3.92,21.21.7,32.9-2.87,10.43-8.17,19.95-13.21,27.74-.11,1.58-.29,3.16-.58,4.73,1.26,1.94,1.77,4.26,2.06,6.06,2.47,15.61-3.95,31.26-15.63,38.07-6.98,4.07-15.13,4.89-22.8,4.62-1.57.08-3.09.08-4.51.09-2.36.01-4.78.03-7.24.03ZM162.72,981.59c-.8,1.51-1.02,3.68-.01,5.11,2.29,3.26,7,4.12,11.63,4.71,4.4.57,8.63,1.04,12.66,1.21,3.36-.18,6.75-.69,9.66-2.26,4.02-2.16,6.82-6.17,9.03-9.8,2.52-4.14,4.69-8.46,6.5-12.93-.23.01-.47.03-.7.04-2.36,1.71-5.05,3-8.06,3.68-3.52.79-6.52.23-8.45-1.58-.38-.35-.71-.75-.99-1.18-2.7,2.83-5.96,5.1-9.5,6.51-4.41,1.75-9.03,2.48-13.65,2.54l-3.68,2.1c-1.42.81-2.91,1.39-4.44,1.84ZM125.81,986.58c4.15,1.44,8.55,2.61,13.17,3.5,8.11,1.57,16.42,2.23,24.52,2.5-1.57-.88-2.97-2.03-4.06-3.58-1.34-1.91-1.62-4.26-1.22-6.41-.4.07-.8.14-1.21.2-6.69,1.09-13.26,1.85-19.7,2.29-3.36.44-6.73.52-9.94.54-.51.33-1.03.65-1.56.96ZM216.6,967.34c-2.02,5.3-4.53,10.42-7.49,15.3-1.67,2.74-3.66,5.69-6.25,8.12,1.66-.58,3.27-1.31,4.82-2.21,10.28-6,15.91-19.97,13.69-33.98,0-.02,0-.05-.01-.07-.32.81-.68,1.6-1.06,2.39.49,1.5.79,3.05.9,4.61.09,1.27.04,3.1-1.28,4.45-1,1.01-2.29,1.29-3.3,1.4ZM58.19,971.03c1.65,1.68,3.84,3.02,6,4.26,8.89,5.11,20.72,11.17,33.43,12.68,6.25.75,12.36.26,17.85-1.33-.9-.43-1.79-.88-2.66-1.34-1.44-.12-2.89-.27-4.34-.48-11.96-1.1-23.36-3.47-34.16-7.1-5.57-1.88-10.96-4.12-16.13-6.69ZM113.64,981.2c4.15.26,8.37.37,12.64.32,1.35-.96,2.61-2.02,3.77-3.17,2.77-2.75,4.83-6.1,6.13-9.67-.6-.43-1.18-.89-1.73-1.39-2.21-1.99-4.1-4.91-4.75-8.11-8.38,1.71-17.14,1.34-25.27-1.36-.54.04-1.08.07-1.61.1-3.93.21-7.69.26-11.29.15,1.51,4.73,4.64,9.38,9.34,13.86,3.67,3.5,7.96,6.61,12.78,9.26ZM139.72,970.76c-1.52,3.82-3.81,7.41-6.85,10.43-.05.05-.1.1-.15.15,1.37-.06,2.74-.14,4.12-.23,2.83-.37,5.6-1.01,8.18-2.12,2.17-.93,4.38-2.41,6.19-4.28-1.41-.39-2.78-.79-4.11-1.2-2.47-.76-5-1.59-7.38-2.75ZM84.9,957.7c-.03.35-.06.69-.08,1.03-.59,8.91,6.84,16.28,13.99,19.36,1.73.74,3.51,1.33,5.34,1.8-2.16-1.58-4.17-3.27-6.05-5.05-5.64-5.38-9.26-11.08-10.8-16.95-.81-.05-1.61-.11-2.41-.18ZM155.58,975.81c-1.09,1.39-2.35,2.64-3.73,3.72,1.5-.21,3-.44,4.51-.69,1.34-.22,2.66-.45,3.93-.75.38-.44.8-.82,1.23-1.14-2.02-.31-4.01-.7-5.95-1.15ZM55.4,965.05c6.37,3.51,13.13,6.49,20.2,8.87,4.97,1.67,10.07,3.07,15.31,4.19-7.4-5.59-10.48-13.56-10.08-19.65.03-.39.06-.78.1-1.19-5.77-.73-11.12-1.94-16.11-3.62-.51-.17-1.02-.35-1.52-.53-.87.4-1.71.88-2.51,1.45-3.17,2.24-5.6,6.43-5.38,10.47ZM157.8,972.21c8.22,1.75,17.21,2.37,25.21-.81,2.56-1.02,4.98-2.61,7.08-4.59-.16-.03-.31-.06-.46-.09-9.97-2.02-18.09-6.91-22.86-13.76-.53-.77-1.03-1.56-1.5-2.39-.61,1.25-1.37,2.48-2.29,3.65-.42.54-.88,1.06-1.33,1.59-1.19,1.37-2.31,2.66-2.63,4.09-.21.95-.08,2.05.05,3.22.07.62.14,1.27.17,1.94.11,2.57-.43,4.98-1.44,7.16ZM140.97,966.91c2.29,1.18,4.83,2.01,7.31,2.77,1.75.54,3.6,1.07,5.5,1.57.99-1.83,1.56-3.87,1.46-6.03-.02-.55-.09-1.11-.15-1.67-.16-1.38-.33-2.94.02-4.53.54-2.43,2.12-4.25,3.52-5.86.41-.47.82-.94,1.2-1.43,1.55-1.99,2.54-4.17,3.09-6.43-.14-.41-.28-.83-.41-1.26-2.23.3-4.44.64-6.65,1.04-4.15,4.23-9.02,7.63-14.3,10.14.6,3.8.39,7.8-.59,11.67ZM133.6,958.23c.43,2.37,1.89,4.62,3.53,6.09.07.07.14.13.22.19.5-2.56.62-5.14.35-7.64-1.35.51-2.72.96-4.1,1.36ZM197.7,963.76c3.98.27,8.08.2,12.36-.01,2.3-1.87,4.2-4.23,5.7-6.82.04-.14.08-.29.11-.43-.29-.66-.63-1.3-1.01-1.93-.81.61-1.7,1.12-2.67,1.53-3.75,1.55-7.86.9-11.34-.13-.21.96-.48,1.93-.82,2.9-.6,1.69-1.38,3.33-2.33,4.89ZM167.08,945.02c.81,2.09,1.79,3.96,2.97,5.64,4.19,6,11.42,10.31,20.38,12.13.77.16,1.55.29,2.32.42.05-.87.21-1.79.45-2.73.58-2.22,1.54-4.3,2.78-6.2-7.24-2.81-14.05-6.69-20.24-11.41-2.82.13-5.63.34-8.43.63-.06.51-.14,1.02-.23,1.53ZM23.39,914.84c-3.02,0-5.8.27-8.18.64-.94.14-1.91.32-2.55.76-2.3,1.57-.56,6.16.69,8.36,8.58,15.22,21.91,28.45,38.13,38.2.58-4.6,3.38-8.93,6.99-11.48.04-.03.09-.06.13-.09-6.76-3.05-12.73-7.1-17.59-11.92-8.42-5.21-14.99-14.11-17.36-24.46-.09,0-.18,0-.26,0ZM112.57,955.66c5.61.84,11.42.59,17.05-.65.11-.62.27-1.25.5-1.87.86-2.34,2.44-4.13,4.33-5.51-.07-.1-.13-.2-.2-.29-2.97-4.23-7.18-6.9-11.43-8.58-.91,3.25-2.17,6.41-3.78,9.4-1.33,2.5-3.27,5.6-6.45,7.49,0,0-.01,0-.02.01ZM90.64,954.05c1.82.07,3.68.09,5.58.08-1.97-1.14-3.85-2.44-5.64-3.86-.11,1.24-.1,2.51.05,3.78ZM85,953.7c.53.05,1.06.09,1.6.13-.2-2.29-.05-4.56.41-6.71-9.75-9.47-15.63-23.02-14.9-36.38-1.83,2.2-4.31,4-7.23,5.11-6.18,2.33-12.88,1.37-17.39.43-1.5-.31-2.92-.66-4.27-1.06,9.24,4.6,15.85,12.77,17.71,21.92.53,2.6.1,4.55-1.28,5.8-1.43,1.29-3.29,1.3-4.75,1.16-.52-.05-1.05-.11-1.57-.19,3.06,1.89,6.38,3.55,9.9,4.92,5.08-1.88,10.55-1.82,14.68-1.3,1.89.24,3.83.66,5.3,2.13,1.17,1.17,1.64,2.59,1.8,4.04ZM91.53,945.87c3.69,3.21,7.9,5.81,12.47,7.56.31.12.62.23.93.34,2.03-.2,4-.6,5.62-1.56,1.82-1.08,3.35-2.91,4.97-5.94,1.49-2.8,2.66-5.74,3.5-8.78-3.03-.83-5.89-1.23-8.09-1.42-6.08-.52-10.64.28-13.94,2.45-2.5,1.64-4.39,4.27-5.47,7.35ZM136.33,951.21c-.88.72-1.61,1.56-2.12,2.55.9-.29,1.79-.61,2.67-.95-.16-.54-.35-1.07-.56-1.59ZM70.84,951.29c3.17.83,6.5,1.48,9.99,1.95-.11-.29-.26-.55-.47-.76-.61-.62-1.78-.84-2.96-.98-1.94-.24-4.21-.37-6.56-.21ZM202.97,952.41c2.61.68,5.34.97,7.7-.01.62-.26,1.21-.6,1.76-1-.56-.58-1.15-1.14-1.79-1.66-.41-.33-.83-.65-1.25-.94-2.33.77-4.53,2.02-6.42,3.62ZM139.82,949.15c.29.66.54,1.34.77,2.03,2.56-1.25,5.01-2.73,7.29-4.43-.97.23-1.94.47-2.91.71-1.68.43-3.48.96-5.15,1.69ZM182.37,942.7c4.68,3.12,9.68,5.75,14.92,7.8-.14-1.87-.65-3.85-1.75-5.8l-.88-1.56c-4.09-.31-8.19-.46-12.29-.44ZM200.31,945.59c.35,1.02.61,2.07.78,3.14,1.12-.88,2.32-1.65,3.59-2.31-1.44-.48-2.91-.76-4.37-.84ZM214.6,947.91c.22.21.44.43.65.66.16-.2.32-.41.48-.62-.27-.02-.55-.03-.84-.03-.09,0-.19,0-.29,0ZM123.74,934.83c5.04,1.91,10.16,5.04,13.78,10.21.14.2.27.39.4.59,2.05-.93,4.18-1.57,6.05-2.05,3.27-.84,6.57-1.57,9.89-2.19.15-.17.31-.33.46-.5,2.41-2.69,4.46-5.62,6.11-8.71-.03-.39-.06-.79-.08-1.19-.07-1.12-.11-2.24-.14-3.35-4.32-5.41-8-11.32-10.93-17.58-.93-.67-1.92-1.25-2.99-1.72-4.19-1.84-8.92-1.71-13.93-1.58-1.66.04-3.38.09-5.07.06-2.28-.04-4.55-.24-6.8-.57.76,1.92,1.5,3.88,2.1,5.88,2.23,7.36,2.59,15.19,1.15,22.69ZM183.02,938.7c9.46,0,18.91.84,28.17,2.53,2.53.46,5.26,1.18,7.21,2.91.5-.74,1-1.5,1.51-2.28.22-4.97-.36-10.03-1.22-14.92-3.77,2.67-7.47,3.88-11.03,3.61-2.77-.21-5.69-1.64-7.57-3.9-.08,0-.17,0-.26,0-9.31,0-17.15-3.11-21.79-8.86-4.83-5.99-6.08-15.06-3.18-23.1.14-.39.29-.78.45-1.16-.17-1.18-.26-2.38-.28-3.58-2.93,3.81-5.29,8.18-7.06,13,.36,1.31.65,2.64.87,4,1.15,7.2.24,14.75-2.48,21.83,3.25,3.65,6.82,7.01,10.65,10.04,2-.08,4-.11,6-.11ZM112.33,862.37c-10.04,4.86-18.95,12.08-25.56,21.06-6.31,8.57-9.98,17.88-10.63,26.92-.84,11.79,3.99,23.79,12.25,32.52,1.42-3.16,3.61-5.85,6.41-7.69,4.08-2.67,9.46-3.68,16.47-3.09,2.36.2,5.39.62,8.64,1.5,1.21-6.72.85-13.71-1.14-20.29-.77-2.54-1.8-5.11-2.8-7.59-.05-.12-.1-.24-.15-.36-4.68-1.13-9.21-2.89-13.43-5.24-5.69-3.17-8.95-6.96-9.7-11.27-.89-5.17,1.92-10.66,8.12-15.87,4.04-3.39,8.38-6.3,12.9-8.88-.48-.56-.94-1.13-1.38-1.71ZM161.21,938.59c-.42.61-.85,1.21-1.29,1.8.53-.08,1.06-.15,1.6-.23-.11-.51-.21-1.04-.3-1.57ZM43.56,936.19c3.62,2.15,7.6,3.53,11.71,3.93,1.21.12,1.58-.04,1.69-.14.15-.13.32-.71.05-2.04-1.61-7.93-7.69-15.33-15.87-19.29-2.89-1.4-5.85-2.34-8.76-2.93.73,4.31,2.46,8.71,5.09,12.87,1.71,2.71,3.76,5.25,6.09,7.61ZM167.12,935.35c.2,1.35.34,2.72.37,4.11,1.23-.12,2.46-.23,3.69-.32-1.39-1.22-2.75-2.48-4.06-3.79ZM222.22,924.03c.71,3.75,1.32,7.63,1.59,11.56,3.74-6.36,7.26-13.57,9.38-21.24,1.74-6.33,2.4-12.58,1.98-18.46-.33,2.54-.79,4.99-1.39,7.33-.52,3.66-1.77,7.16-3.75,10.17-2.07,4.11-4.68,7.69-7.81,10.65ZM206.23,926.18c.57.21,1.16.34,1.73.38,3.19.25,6.27-1.36,8.51-2.96-2.66,1.01-5.6,1.8-8.82,2.35-.48.08-.96.16-1.43.23ZM177.48,900.87c-.66,5.32.64,10.63,3.68,14.41,3.6,4.47,9.68,7.02,17.04,7.34-.07-.4-.11-.81-.11-1.23-.02-.93.12-1.81.36-2.65-3.03-.91-5.99-2.26-8.77-4.04-5.48-3.51-9.72-8.36-12.19-13.83ZM202.34,919.66c-.18.59-.27,1.13-.26,1.66,0,.43.09.85.22,1.25,1.52-.1,3.08-.28,4.67-.56,3.84-.66,7.22-1.67,10.14-3.01-.03-.15-.06-.3-.09-.45-.76.26-1.54.5-2.34.7-3.98,1-8.19,1.12-12.35.41ZM165.34,912.73c-.55,3.01-.91,6.13-1.06,9.36.74-3.1,1.1-6.24,1.06-9.36ZM27.82,915.05c.27,1.01.58,2.01.93,2.99-.22-.98-.39-1.97-.52-2.95-.14-.01-.28-.03-.41-.04ZM152.49,907.5c3.58,2.87,6.2,6.71,8.12,10.08.54-5.21,1.61-10.15,3.17-14.74-2.87-9.09-9.54-16.61-17.87-20.05.13,1.73.33,3.31.54,4.68,1.08,6.92,3.14,13.65,6.03,20.03ZM220.76,916.89s.01.06.02.09c.32-.21.63-.42.93-.64-.31.19-.62.38-.95.56ZM204.4,915.92c3.16.38,6.31.2,9.31-.55.79-.2,1.55-.43,2.28-.7-.46-1.19-1.07-2.18-1.99-2.8-1.32-.9-2.97-.88-4.9.05-1.68.81-3.4,2.28-4.7,4ZM179.46,894.03c1.33,6.83,5.83,13.13,12.36,17.31,2.64,1.69,5.45,2.94,8.32,3.74.19-.3.37-.58.56-.85,1.73-2.54,4.16-4.7,6.67-5.91,3.22-1.56,6.38-1.47,8.89.25,1.62,1.11,2.64,2.65,3.34,4.37,2.65-1.64,4.55-3.81,5.39-6.26.76-2.21.72-4.71.57-7.08-.52-8.28-2.74-13.7-5.25-17.24-1.37-.94-2.55-2.17-3.4-3.7-.47-.39-.93-.73-1.37-1.02-1.17-.54-2.39-1.01-3.65-1.39-.33.81-.75,1.56-1.24,2.25-2.86,3.97-7.79,5.19-12.69,5.92-4.38.65-8.65,1.13-12.81,1.43-2.19,2.26-4.23,4.98-5.7,8.18ZM32.77,904.9c3.27,3.5,8.47,6,15.53,7.46,6.39,1.32,11.21,1.24,15.17-.26,4.11-1.55,8.17-5.63,7.97-10.41-.28-6.76-8.55-11-16.2-11.54-4.66-.34-8.46.16-11.64,1.53-5.17,2.22-9.2,7.24-10.83,13.23ZM31.98,911.57c1.63.29,3.23.66,4.78,1.12-1.77-.9-3.35-1.91-4.75-3.04-.04.64-.05,1.28-.03,1.92ZM27,910.96c.33.02.65.05.97.08,0-1.17.07-2.33.21-3.48.07-.54.15-1.09.25-1.62-.5-.67-.96-1.38-1.36-2.11-.15-.27-.29-.54-.42-.81-.14,2.69-.02,5.35.35,7.94ZM136.12,902.71c3.61,0,7.23.27,10.69,1.54-1.99-5.22-3.44-10.64-4.31-16.16-.29-1.88-.56-4.13-.68-6.6-.07-.02-.14-.04-.2-.07-5.2-1.21-11.15-1.12-18.11.28-4.07.82-6.32,2.02-7.29,3.9-.49.95-.69,2.21-.63,3.94.16,4.22,1.53,8.22,3.16,12.35,2.84.56,5.72.88,8.62.93,1.6.03,3.27-.01,4.89-.06,1.28-.03,2.57-.07,3.86-.07ZM227.88,889.41c1.11,3.9,1.53,7.55,1.68,9.93.08,1.28.13,2.61.06,3.94.1-.38.2-.76.3-1.15.51-4.26-.16-8.75-2.04-12.73ZM28.46,892.33c-.02,2.83.36,5.75,1.53,8.39,2.38-5.74,6.7-10.43,12.04-12.72,3.77-1.62,8.19-2.23,13.5-1.84,8.21.59,16.65,4.69,19.17,11.6,1.94-5.71,4.92-11.35,8.86-16.7,6.88-9.34,16.11-16.88,26.52-22.02-2.93-4.92-4.53-10.5-3.7-16.41,1.12-7.97,6.84-15.52,15.31-20.19,7.46-4.12,15.94-5.73,23.98-7.02,6.45-1.04,13.65-1.85,20.61-1.32,2.52-2.08,5.48-3.92,8.91-5.54-5.8-3.94-9.97-8.24-12.83-13.16-2.77-4.76-4.27-10.99-3.59-16.93-4.03.62-8.12,1.51-12.25,2.47-2.04.47-4.39,1.02-6.54,1.94.1,9.35-3.54,12.49-6.69,13.46l-1.41.43-.83-1.22c-2.99-4.37-1.01-10.28,2.62-13.47.7-.61,1.44-1.15,2.21-1.61-.49-10.32-1.71-20.82-8.38-27.96-5.67-6.06-15.09-9.16-28.02-9.2h-.31c-25.21,0-48.66,9.65-62.79,25.84-2.37,2.72-4.48,6.09-5.28,9.37,1.2-1.23,2.81-1.81,4.38-2.24,4.92-1.36,10.02-1.97,15.12-1.88.65-.43,1.33-.84,2.02-1.24,9.12-5.23,19.57-6.69,28.69-3.99,10.14,2.99,18,11.15,20.03,20.79.64,3.05.89,7.43-1.58,11-2.29,3.31-6.15,4.78-9.62,5.78-7.52,2.17-15.23,3.25-23.03,3.15,1.1,1.4,2.01,2.92,2.7,4.53l.8,1.88-1.89.77c-8.01,3.25-17.96,1.34-24.2-4.64-2.63-2.52-4.56-5.73-5.71-9.2-1.28,0-2.56.02-3.84.06-5.13,5.94-8.38,13.07-9.15,20.36-.44,4.09.1,7.03,1.64,9,1.45,1.86,3.91,2.94,6.35,3.84,1.17.43,2.35.83,3.54,1.19,1.11-2.85,2.72-5.52,4.82-7.81,6.7-7.31,17.92-10.46,27.92-7.84,1.46.38,3.34.99,4.92,2.26,2.04,1.66,3.19,4.16,3.22,7.05.04,3.56-1.6,7.18-4.27,9.44-4.72,3.98-11.31,4.32-15.87,4.24-6.12-.11-12.16-.93-18.06-2.44-1.01,4.75-.44,9.77,1.85,13.94.31.56.65,1.11,1.02,1.64,2.67-1.03,5.7-1.7,9.15-2.03,13.23-1.27,26.65,2.91,36.82,11.46l3.28,2.76-4.22.74c-5.27.92-11.43,2-17.75,2.17-.04.81-.18,1.61-.41,2.41l-.35,1.21-1.25.2c-9.99,1.64-20.5.23-29.89-3.74-.29.36-.57.73-.83,1.08-4.16,5.56-7.19,11.69-8.97,17.92ZM116.53,867.09c-4.63,2.59-9.06,5.51-13.14,8.94-3.53,2.96-7.56,7.46-6.75,12.13.53,3.06,3.12,5.91,7.7,8.46,3.07,1.71,6.33,3.09,9.69,4.11-1.27-3.53-2.29-7.17-2.43-11.02-.06-1.54,0-3.84,1.07-5.93,2.05-3.96,6.72-5.31,10.05-5.98,2.66-.53,5.18-.89,7.6-1.07-1.93-.99-3.81-2.06-5.62-3.21-2.81-1.77-5.61-3.94-8.16-6.42ZM156.81,885c3.82,3.38,6.96,7.62,9.14,12.38,1.87-4.08,4.19-7.82,6.92-11.13-5.6-.06-10.96-.48-16.06-1.25ZM229.82,884.69s.03.05.05.07c.7,1.08,1.31,2.22,1.83,3.39.03-1.32.03-2.58,0-3.76-.61.14-1.25.24-1.89.3ZM179.32,886.17c-.02.15-.04.3-.06.45.12-.16.23-.31.35-.46-.1,0-.19,0-.29.01ZM146.48,878.72c8.88,2.48,18.74,3.65,29.53,3.53,1.13-4.26,3.22-8.38,6.19-12.06.66-.82,1.35-1.6,2.07-2.34-10.27-.76-20.12-6.72-25.14-15.62-.02-.03-.03-.06-.05-.09-2.46,1.43-4.49,3.03-6.18,4.86-5.62,6.07-7.13,14.39-7.15,21.47.25.09.49.17.73.26ZM184.21,881.21c-.36.25-.72.5-1.08.77l.27-.02c.27-.26.54-.51.81-.75ZM206.63,875.15c-6.24.11-12,3.35-14.65,5.1-.52.34-1.06.71-1.61,1.11,2.3-.25,4.63-.55,7-.9,4.04-.6,8.05-1.54,10.04-4.3.19-.26.36-.54.51-.83-.43-.07-.86-.13-1.29-.18ZM226.57,880.61c1.52.25,3.1.19,4.52-.18-.01-.02-.02-.05-.04-.07-2.23-4.45-5.39-8.27-9.08-11.19-.35.31-.61.62-.79.84-1.24,1.61-1.72,3.67-1.31,5.38,2.48,1.44,4.74,3.19,6.69,5.22ZM224.78,864c.42,0,.84.04,1.26.11,5.14.87,8.54,6.07,9.33,14.28,3.02-2.12,5.24-5.22,6.71-7.79,5.86-10.28,7.17-24.1,3.58-37.91-2.12-8.15-5.55-13.72-10.22-16.55-1.02-.62-2.08-1.1-3.15-1.46-.92,1.63-1.88,3.23-2.89,4.81.08.66.15,1.35.2,2.05.52,6.9-.89,11.71-4.31,14.7-1.85,1.62-4.29,2.66-7.67,3.28-1.94.35-3.91.54-5.86.5-1.18.93-2.51,1.75-4.07,2.15-2.77.71-5.68-.12-7.99-2.29-.96-.9-1.76-1.98-2.38-3.15-.71-.33-1.41-.67-2.09-1.04.88,2.7,1.51,5.52,1.98,8.36,1.8.8,3.54,1.83,5.17,3.12,3.81,3,6.76,7.29,8.57,12.33,3.96.89,7.8,2.58,11.3,4.94.82-.29,1.67-.43,2.54-.43ZM190.56,867.64c-1.9,1.41-3.67,3.11-5.24,5.06-1.32,1.63-2.44,3.39-3.36,5.21,6.04-4.14,12.92-6.57,19.86-6.9,1.73-.08,3.44-.02,5.14.16.66,0,1.31.03,1.95.09.05-.98.02-2.06-.11-3.25-.18-1.73-.5-3.4-.94-5.01-1.28-.17-2.56-.24-3.84-.21-2.41.06-4.8.54-7.11,1.38-.23.33-.49.64-.78.94-1.6,1.64-3.8,2.25-5.58,2.52ZM120.23,865.1c2.09,1.91,4.34,3.61,6.59,5.03,4.58,2.89,9.57,5.27,14.95,7.13.2-7.59,2.05-16.35,8.2-22.98,2.04-2.2,4.47-4.1,7.41-5.77-3.92-10.06-2.18-22.01,4.73-30.29.08-.1.16-.19.24-.29-5.46-.05-11,.62-16.06,1.43-7.69,1.24-15.78,2.76-22.68,6.57-7.37,4.07-12.33,10.52-13.28,17.25-.71,5.06.74,9.88,3.38,14.18,8.97-3.85,18.68-5.96,28.43-5.97h10.46s-9.72,3.86-9.72,3.86c-7.59,3.02-15.32,6.1-22.65,9.87ZM33.84,871.22c-.72,1.27-1.37,2.66-1.96,4.16.74-1.14,1.53-2.27,2.35-3.37.11-.14.21-.28.32-.42-.24-.12-.47-.24-.71-.37ZM41.05,870.15c7.95,3.12,16.69,4.29,25.09,3.17,0-.04,0-.07,0-.11-1.63-.07-3.26-.21-4.88-.45-6.06-.89-11.53-3.13-15.84-6.36-1.6,1.1-3.06,2.4-4.39,3.75ZM212.86,872.01c.7.21,1.39.46,2.06.75.29.13.57.26.85.39.19-1.96.95-3.92,2.24-5.59.19-.25.4-.49.61-.71-2.04-1.23-4.2-2.2-6.42-2.89.25,1.19.44,2.4.57,3.63.17,1.6.2,3.07.08,4.42ZM60.36,860.05c2.69,1.02,5.17,2.77,6.99,5.05,1.05,1.32,1.82,2.72,2.29,4.17,4.15-.08,8.42-.62,13.04-1.36-6.56-4.45-14.39-7.18-22.31-7.85ZM49.33,864.25c3.52,2.27,7.81,3.86,12.52,4.55,1.13.17,2.26.28,3.39.36-.33-.64-.71-1.17-1.03-1.57-2.34-2.93-6.28-4.75-9.8-4.55-1.78.11-3.48.54-5.08,1.2ZM36.08,867.89c.36.19.72.37,1.09.55,1.68-1.84,3.4-3.42,5.17-4.73-.21-.21-.41-.42-.6-.63-.41.23-.8.46-1.18.71-1.66,1.09-3.15,2.46-4.48,4.1ZM29.71,803.45c-6.41.32-12.77,1.17-16.45,5.47-2.04,2.38-3.18,5.76-3.6,10.64-1.28,15,4.78,30.68,15.83,40.91,2.18,2.02,4.55,3.82,7.07,5.41,1.68-2.19,3.61-4,5.79-5.44.29-.19.59-.38.89-.55-.31-.48-.61-.97-.88-1.47-2.79-5.08-3.45-11.2-2.18-16.95-1.26-.39-2.51-.81-3.75-1.26-3-1.1-6.06-2.48-8.13-5.13-2.21-2.83-3.01-6.72-2.46-11.89.74-6.97,3.5-13.8,7.86-19.74ZM162.65,850.32c5.12,9.02,15.96,14.54,26.4,13.48,1.6-1.1,3.28-2.04,5.02-2.79.5-1.39.45-3.22.35-4.9-.19-3-.42-6.11-.84-9.19-8.39-2.85-18.11-.89-23.88.83-2.62.78-4.96,1.63-7.05,2.57ZM116.07,860.69c.39.49.8.97,1.21,1.44,3.64-1.91,7.37-3.65,11.13-5.28-4.22.89-8.36,2.19-12.35,3.84ZM45.69,861.4s.08.08.12.11c.23-.12.47-.24.7-.36-.28.08-.55.16-.82.24ZM197.85,848.89c.25,2.35.42,4.69.56,6.97.07,1.19.12,2.45.02,3.68,1.8-.44,3.64-.7,5.49-.74.82-.02,1.64,0,2.46.04-1.56-3.46-3.76-6.4-6.47-8.53-.66-.52-1.35-.99-2.05-1.42ZM167.6,818.23c-.88.81-1.69,1.66-2.42,2.54-5.8,6.96-7.35,17.32-4.2,25.92,2.27-1.02,4.79-1.93,7.59-2.77,5.85-1.74,15.41-3.68,24.3-1.38-.77-3.87-1.91-7.59-3.68-10.92-2.92-2.42-5.45-5.29-7.42-8.52-4.1-2.85-9-4.3-14.17-4.88ZM41.21,838.73c5.53,1.4,11.21,2.16,16.95,2.26,3.91.08,9.53-.19,13.22-3.3,1.76-1.49,2.88-3.97,2.85-6.34-.01-1.19-.32-2.84-1.73-3.99-.99-.8-2.35-1.22-3.42-1.51-8.6-2.25-18.23.43-23.96,6.67-1.67,1.83-2.98,3.94-3.91,6.19ZM200.36,833.72c3.18,1.29,6.57,2.07,9.98,2.26.15-.13.29-.27.44-.4,5.47-5.07,10.33-10.8,14.45-17.01-.11-.64-.23-1.26-.37-1.86-4.13,2.37-9.04,3.81-14.19,4-1.17.05-2.35.04-3.54-.03-4.15,2.94-6.48,6.01-7.12,9.35-.22,1.17-.08,2.46.35,3.69ZM225.69,824.87c-2.82,3.81-5.91,7.42-9.25,10.79.15-.03.31-.05.46-.08,2.64-.48,4.47-1.23,5.75-2.35,1.91-1.67,2.92-4.47,3.03-8.36ZM192.37,829.09c1.12.89,2.31,1.7,3.54,2.43-.03-.76.03-1.51.17-2.23.64-3.36,2.46-6.42,5.53-9.28-5.28-1-10.92-3.02-17.23-6.16-.9-.45-1.77-.9-2.61-1.35.35,1.59.83,3.15,1.46,4.67.45,1.09.97,2.14,1.55,3.16.87.65,1.7,1.35,2.51,2.12,2.07,1.98,3.74,4.22,5.09,6.63ZM171.98,814.86c2.38.48,4.69,1.16,6.89,2.1-.57-1.67-1-3.39-1.3-5.12-2.05.93-3.91,1.94-5.6,3.02ZM184.24,809.29c.63.33,1.27.66,1.92.98,7.49,3.72,13.92,5.78,19.87,6.33.48-.31.97-.62,1.48-.93,4.89-2.94,9.83-4.79,14.49-5.51-.68-.91-1.46-1.68-2.32-2.31-3.37-2.45-7.96-2.67-12.03-2.57-2.56.07-5.11.25-7.64.55-.88,1.44-2.12,2.43-3.63,2.81-1.56.4-3.31.1-5.21-.87-.18-.09-.35-.18-.52-.28-2.15.51-4.29,1.11-6.4,1.79ZM220,814.66c-1.43.37-2.79.83-4.04,1.31,1.4-.33,2.75-.78,4.04-1.31ZM44.06,805.28c.87,1.56,1.95,2.99,3.23,4.22,4.61,4.42,11.67,6.13,17.84,4.52-.99-1.62-2.3-3.11-3.86-4.43-6.8-.56-12.48-1.98-17.21-4.3ZM226.52,809.81c.3,0,.61,0,.91.02,1.37-1.35,2.51-2.85,3.38-4.49,4.48-8.46.87-20.71-7.73-26.23-.76-.49-1.55-.92-2.36-1.31,2.1,5.48,2.37,11.44.4,16.68-.99,2.62-2.82,5.5-5.45,7.41,2.23.48,4.43,1.32,6.37,2.73,1.81,1.32,3.31,3.05,4.49,5.19ZM182.6,796.41c-.99,3.14-1.51,6.44-1.51,9.72.47-.17.95-.33,1.44-.49,1.39-.46,2.78-.88,4.19-1.27-2.05-2.25-3.39-5.03-4.12-7.96ZM62.85,805.69c8.85.58,17.65-.36,26.18-2.83,2.8-.81,5.87-1.94,7.44-4.21,1.74-2.52,1.35-6.03.95-7.9-1.7-8.09-8.63-15.23-17.25-17.77-7.06-2.08-15.07-1.33-22.44,2.02,3.55.55,7.05,1.46,10.41,2.73,2.3.87,5.13,2.69,6.19,5.21.58,1.37.57,2.79-.02,4.12-.79,1.8-2.46,2.8-3.83,3.46-7.92,3.87-16.91,3.99-24.76,3.76-1.41.82-2.78,1.73-4.1,2.73.05.74.14,1.49.27,2.22,3.53.14,7.06.55,10.55,1.48,3.97,1.06,7.49,2.76,10.39,4.97ZM162.85,777.93c-.89,5.3.42,11.08,2.96,15.44,2.51,4.31,6.19,8.12,11.33,11.66.2-6.09,1.97-12.16,5.06-17.42.14-.9.33-1.79.57-2.63.4-1.39.91-2.75,1.55-4.09-1.69-.86-3.44-1.53-5.2-2-5.24-1.4-10.68-1.53-16.26-.96ZM186.06,788.91c-.58,5.25,1.09,11.14,5.33,14.31,1.92-.42,3.86-.77,5.81-1.05.1-.4.17-.82.21-1.23.08-.86.09-1.7.04-2.54-3.91-3.67-6.87-8.21-8.74-13.11-.97,1.13-1.86,2.34-2.66,3.61ZM201.38,801.5c0,.06-.01.11-.02.17.08,0,.17-.02.25-.02-.08-.05-.16-.1-.23-.15ZM201.26,796.45c2.36,1.99,5.75,4.09,9.13,3.49,3.48-.62,5.88-3.96,6.98-6.87,2.01-5.36,1.18-11.66-1.87-17.03-7.03-1.49-14.98,0-21.33,4.35-.57.39-1.13.81-1.67,1.24,4.51,3.89,7.88,9.05,8.76,14.82ZM35.87,792.89c.48.79,1.03,1.57,1.63,2.31.04-.04.08-.07.13-.11.02-.56.05-1.12.11-1.68-.63-.15-1.25-.32-1.86-.52ZM218.04,772.55c2.56.71,5,1.77,7.21,3.19,6.55,4.21,10.63,11.46,11.39,18.84,2.83-9.28,3.47-17.68,1.9-25-1.06-4.96-3.28-9.48-6.25-13.11-1.94-.14-3.89.12-5.54.41-6.09,1.07-12.28,3.33-18.27,6.64,1.15.68,2.24,1.42,3.28,2.23,2.5,1.94,4.61,4.26,6.28,6.81ZM135.88,785.49c-1.55,1.6-2.54,4.01-2.2,6.07,1.41-1.36,1.99-3.76,2.2-6.07ZM42.5,790.12c.75.07,1.51.11,2.26.14,7.63-4.19,16.16-6.06,24.3-5.19l-.19,1.82c.73-.36,1.55-.84,1.81-1.43.14-.32.14-.61-.01-.96-.45-1.06-2.09-2.33-3.92-3.02-4.79-1.8-9.86-2.83-14.96-3.06-4.45,3.16-7.65,7.1-9.16,11.33-.04.12-.09.25-.13.37ZM63.46,788.9c-2.67.13-5.35.56-8,1.29,2.69-.2,5.39-.59,8-1.29ZM33.59,787.27c1.34,1.09,3.05,1.78,4.91,2.23.11-.37.23-.74.36-1.1,1.27-3.55,3.51-6.91,6.54-9.86-2.99.25-5.95.77-8.85,1.57-1.11.31-2.21.68-2.73,1.34-.4.51-.59,1.36-.59,2.61,0,1.07.12,2.14.35,3.2ZM204.49,765.9c-1.46.94-2.9,1.94-4.32,3-3.94,2.95-7.04,5.92-9.33,8.96.35-.26.71-.52,1.07-.77,6.03-4.14,13.36-6,20.32-5.52-.89-.96-1.86-1.85-2.91-2.67-1.48-1.15-3.1-2.15-4.83-3ZM168.75,773.61c3.84,0,7.65.41,11.4,1.42,2.08.55,4.14,1.36,6.12,2.39.12-.18.24-.37.36-.55-.59-4.93-.09-9.91,1.6-14.47-1.88,0-3.8.12-5.76.36-7.09.87-12.36,3.16-15.68,6.82-1.16,1.28-2.06,2.71-2.72,4.22,1.57-.12,3.13-.19,4.69-.19ZM239.13,759.61c1.49,2.82,2.62,5.89,3.32,9.12.39,1.81.66,3.68.8,5.59.13-2.52.06-5.02-.45-7.44-.51-2.42-1.71-5.2-3.67-7.28ZM192.46,762.59c-.07.16-.14.32-.2.48-1.18,2.89-1.79,5.99-1.87,9.14,2.07-2.21,4.53-4.38,7.39-6.51.73-.55,1.47-1.08,2.21-1.6-2.37-.75-4.89-1.25-7.52-1.51ZM194.56,758.81c3.41.47,6.64,1.33,9.63,2.56,7.09-4.27,14.54-7.16,21.87-8.44.73-.13,1.52-.25,2.34-.34-2.07-1.67-4.35-2.97-6.77-3.79-9.54-3.25-21.13,1.33-27.07,10.01Z"/>
  <path d="M261.96,824.61c-6.61,0-11.33-.61-12.58-.79l.57-3.96c1.63.24,40.25,5.49,61-16.62,13.85-14.76,11.67-33.13,9.15-54.4-2.24-18.94-4.36-36.82-18.11-42.32-11.19-4.47-27.88.24-42.53,11.99l-2.5-3.12c16-12.84,33.82-17.67,46.52-12.59,15.96,6.38,18.21,25.41,20.6,45.56,2.53,21.34,4.92,41.49-10.21,57.61-9.22,9.83-22.49,15.84-39.44,17.89-4.55.55-8.8.74-12.46.74Z"/>
  <path d="M261.01,848.28c-2.86,0-5.75-.1-8.67-.3l.27-3.99c35.5,2.44,67.44-10.62,83.33-34.08,16.83-24.86,8.96-52.63,3.75-71-5.08-17.9-13.57-47.85-37.62-52.86-18.26-3.8-35.78,8.73-42.46,14.3l-2.56-3.07c7.13-5.94,25.87-19.3,45.84-15.14,26.42,5.5,35.33,36.92,40.65,55.68,5.42,19.09,13.6,47.94-4.28,74.34-15.37,22.69-44.84,36.13-78.24,36.13Z"/>
  <path d="M263.12,130c-1.48,0-2.97-.07-4.44-.22-16.54-1.68-32.47-13.14-42.62-30.65-10.02-17.3-12.09-36.41-5.53-51.11h0c9.59-21.5,34.89-27,35.96-27.23,22.44-4.69,46.8,6.42,59.22,27.01,8.72,14.45,13.94,38.64-.06,59.26-9.57,14.1-26.23,22.94-42.54,22.94ZM214.18,49.64h0c-6.04,13.53-4.04,31.28,5.34,47.47,9.51,16.41,24.3,27.13,39.56,28.68,16.25,1.65,33.62-6.79,43.26-20.99,12.93-19.05,8.05-41.51-.06-54.95-11.56-19.16-34.18-29.5-54.98-25.16-.99.21-24.36,5.29-33.13,24.94Z"/>
  <g>
    <path d="M236.51,94.6s-.07-.02-.11-.04c-.04-.03-.1-.06-.16-.09-.18-.18-.29-.35-.32-.5-.09-.24-.13-.47-.13-.67v-.54c0-.18-.03-.36-.09-.54v-.41c0-.12,0-.23-.02-.34-.02-.11-.04-.22-.07-.34v-.36c.03-.33,0-.64-.07-.92s-.17-.58-.29-.88c-.06-.15-.13-.31-.2-.49-.08-.18-.17-.34-.29-.5-.12-.18-.22-.42-.32-.72-.03-.15-.05-.31-.07-.47-.02-.16-.04-.32-.07-.47,0-.24.04-.5.13-.77.21-.6.53-1.05.95-1.35.15-.12.3-.22.45-.29.15-.07.3-.14.45-.2.54-.18,1.04-.45,1.48-.81.24-.18.48-.36.72-.54.24-.18.46-.36.67-.54.06-.03.12-.07.18-.14.12-.12.13-.25.04-.4-.03-.06-.09-.14-.18-.23-.09-.12-.17-.25-.25-.38-.08-.14-.14-.26-.2-.38-.03-.15-.08-.29-.16-.43-.08-.14-.14-.26-.2-.38-.06-.18-.13-.37-.2-.56-.08-.19-.16-.37-.25-.52-.03-.06-.05-.13-.07-.2-.02-.07-.05-.13-.11-.16-.03-.06-.04-.13-.04-.2s-.03-.13-.09-.16c-.12-.24-.22-.47-.29-.7-.08-.23-.14-.44-.2-.65-.03-.15-.06-.3-.09-.45-.03-.15-.08-.28-.13-.41-.09-.24-.16-.49-.2-.74-.04-.25-.1-.49-.16-.7-.06-.18-.09-.31-.09-.4,0-.21-.02-.42-.04-.63-.03-.21-.03-.42,0-.63-.03-.42-.02-.83.04-1.24.06-.41.12-.8.18-1.19.06-.33.13-.65.2-.97.07-.31.17-.62.29-.92.06-.12.11-.23.13-.34.03-.1.06-.22.09-.34.12-.24.23-.5.34-.77s.22-.52.34-.77c.15-.24.29-.48.43-.72.13-.24.31-.46.52-.68.18-.27.37-.52.56-.77.19-.24.35-.51.47-.81l.27-.36c.06-.06.12-.13.18-.2.06-.07.1-.16.13-.25.03-.09.08-.17.14-.25.06-.07.12-.14.18-.2.12-.18.22-.3.32-.36.18-.21.4-.3.67-.27.09,0,.18.02.27.04.15.03.3,0,.45-.09.15-.12.3-.23.45-.31.15-.09.28-.19.41-.32.24-.18.45-.33.63-.45.18-.09.36-.19.54-.29.18-.1.36-.22.54-.34.36-.21.74-.4,1.15-.56.4-.16.82-.29,1.24-.38.24-.06.48-.11.72-.16.24-.05.46-.05.67-.02.75.06,1.38.25,1.89.58l.18.13c.36.21.6.45.72.72.12.24.32.35.58.31l.99-.14h.72c.24,0,.46.02.68.04,1.05.03,2.05.3,3.01.81l1.39.85c.15.09.29.19.43.29.13.11.28.2.43.29.03,0,.06.02.09.05.09.03.18,0,.27-.09.06-.09.1-.18.13-.27.03-.09.06-.16.09-.22.36-.57.9-.97,1.62-1.22.15-.06.29-.11.43-.16.13-.04.26-.1.38-.16.15-.06.31-.13.47-.23.17-.09.32-.18.47-.27.09-.06.18-.13.27-.2.09-.07.17-.16.23-.25.09-.12.18-.23.27-.34.09-.1.2-.2.32-.29.24-.24.39-.46.45-.68.03-.15.08-.27.16-.36.07-.09.16-.18.25-.27.18-.21.39-.38.63-.52.24-.13.48-.26.72-.38.15-.06.31-.09.5-.09s.36.03.54.09c.03,0,.13.03.31.09.15.03.3.1.45.2.15.11.29.22.41.34.27.27.47.56.61.88s.22.65.25,1.01c.03.21,0,.45-.09.72-.06.15-.13.26-.22.31-.24.21-.41.45-.5.72,0,.03-.03.08-.09.13-.21.12-.36.3-.45.54-.03.12-.12.18-.27.18l-.04.04c-.33,0-.62.15-.85.45-.12.12-.26.24-.41.36-.15.12-.32.24-.5.36-.12.06-.21.12-.27.18-.12.09-.23.19-.34.29-.11.11-.23.2-.38.29l-.76.54c-.06,0-.09.03-.09.09-.03.09-.08.15-.13.18s-.12.08-.18.13c-.09.06-.17.12-.25.18-.08.06-.14.13-.2.23-.03.09-.09.13-.18.13-.21.06-.42.23-.63.5-.09.09-.11.2-.04.31.06.12.1.2.13.23l.9,1.48c.12.15.19.31.22.5.09.24.18.49.27.74s.16.52.22.79c.03.03.04.08.04.16s.01.14.04.2l.13.76c.03.12.06.25.09.38.03.13.07.26.13.38.15.18.19.36.13.54,0,.09,0,.17.02.25.01.08.04.16.07.25.15.39.23.8.23,1.24s-.03.86-.09,1.28c-.09.66-.24,1.3-.45,1.91-.21.62-.45,1.22-.72,1.82l-.81,1.75c-.09.21-.18.41-.27.58-.09.18-.21.38-.36.58-.12.15-.23.32-.34.5-.11.18-.23.36-.38.54-.12.21-.26.41-.43.58-.17.18-.32.36-.47.54l-.58.68c-.09.09-.18.19-.27.29-.09.11-.2.19-.31.25l-.36.36c-.12.12-.23.23-.34.34-.11.11-.23.2-.38.29-.3.3-.64.54-1.01.72-.38.18-.74.39-1.1.63-.09.09-.24.17-.45.23-.3.12-.65.22-1.03.31-.27.06-.53.14-.77.25-.24.11-.46.25-.67.43-.06.03-.12.06-.18.09-.06.03-.12.06-.18.09-.3.21-.6.23-.9.04-.06-.06-.14-.11-.25-.16s-.19-.1-.25-.16c-.21-.18-.43-.31-.65-.41-.23-.09-.46-.15-.7-.18-.21-.03-.41-.06-.59-.09-.18-.03-.36-.1-.54-.22l-.45-.14c-.15-.06-.31-.11-.47-.16-.17-.05-.32-.1-.47-.16-.12-.06-.21-.09-.27-.09-.3-.09-.59-.21-.88-.36-.29-.15-.58-.3-.88-.45l-.27-.14c-.24-.09-.47-.19-.67-.29-.21-.1-.42-.22-.63-.34-.12-.06-.23-.12-.32-.18-.09-.06-.18-.13-.27-.22-.12-.12-.24-.23-.36-.32-.12-.09-.25-.18-.41-.27-.15-.09-.3-.09-.45,0l-.63.49c-.12.09-.24.18-.36.27-.12.09-.26.2-.41.31l-1.3,1.04c-.12.09-.23.2-.32.31-.09.12-.18.24-.27.36l-.41.59c-.12.21-.24.4-.36.58-.12.18-.25.38-.4.58-.03.03-.07.08-.11.13-.04.06-.1.12-.16.18-.36.27-.58.61-.67,1.03-.06.21-.11.43-.16.68-.05.24-.05.48-.02.72v.61c0,.19-.03.38-.09.56-.03.12-.04.23-.04.34v.34c0,.3-.09.57-.27.81-.18.36-.5.5-.95.4ZM243.98,78.36l.41-.27c.24-.24.5-.46.76-.65.27-.19.51-.41.72-.65.15-.15.31-.29.47-.43.16-.13.31-.28.43-.43.27-.24.52-.5.74-.77.22-.27.47-.51.74-.72.15-.15.29-.3.43-.45.13-.15.26-.3.38-.45.45-.45.9-.9,1.35-1.35.45-.45.92-.88,1.39-1.31.51-.42.99-.87,1.44-1.35.45-.48.92-.96,1.39-1.44.03-.03.04-.06.04-.09.21-.21.41-.41.61-.61.19-.19.38-.4.56-.61.15-.18.31-.35.49-.52.18-.16.34-.32.5-.47.06-.09.13-.17.2-.25.07-.07.14-.14.2-.2.15-.21.13-.37-.04-.49l-.09-.09-.9-.54c-.63-.33-1.3-.51-2.02-.54-.12,0-.25,0-.38-.02-.13-.01-.28-.04-.43-.07-.21-.03-.43-.04-.65-.02-.22.02-.44.07-.65.16-.12.09-.26.09-.41,0-.12-.06-.22-.05-.31.04-.18.15-.38.24-.59.27-.18.03-.36.05-.54.07-.18.02-.35.05-.5.11-.12.03-.25.05-.38.07s-.28.05-.43.11c-.15.03-.31.03-.5,0-.06-.03-.17-.04-.31-.04l-.77.23c-.3.06-.52.15-.67.27-.06.06-.13.09-.22.09l-1.26.09h-.05s-.05,0-.07.02c-.01.02-.04.02-.07.02-.21.03-.39.12-.54.27-.06.06-.13.12-.2.18-.08.06-.16.12-.25.18-.12.09-.23.19-.34.29-.11.11-.22.22-.34.34-.21.3-.42.6-.63.9-.21.3-.39.62-.54.94-.03.12-.08.23-.13.34-.06.11-.12.22-.18.34-.15.48-.26.95-.34,1.42-.08.47-.13.95-.16,1.46,0,.27.02.54.07.81s.08.54.11.81c0,.24.04.48.13.72.15.63.35,1.24.61,1.82s.55,1.16.88,1.73l.54.67c.12.06.21.08.27.05ZM253.07,82.77h1.03c.45,0,.93-.07,1.44-.23.51-.12,1-.33,1.49-.63.18-.12.35-.25.52-.4.16-.15.32-.28.47-.41.33-.24.66-.55.99-.94.42-.42.75-.85.99-1.31.18-.27.34-.55.5-.85.09-.24.19-.46.29-.67.11-.21.2-.42.29-.63.18-.36.33-.73.45-1.1.12-.38.24-.76.36-1.15.12-.3.13-.65.04-1.04l-.13-.45c0-.18-.02-.36-.04-.54-.03-.18-.08-.34-.13-.49l-.27-.99c-.03-.15-.06-.31-.09-.47-.03-.16-.08-.32-.13-.47-.06-.21-.13-.41-.2-.58-.08-.18-.17-.36-.29-.54-.12-.15-.28-.2-.47-.16s-.43.14-.7.29c-.06.06-.12.11-.18.14-.3.3-.59.62-.88.94-.29.33-.56.66-.83.99-.06.12-.09.21-.09.27l-.13.13c-.12.09-.24.15-.36.18-.21.12-.38.29-.5.49-.03.03-.06.08-.09.14-.03.06-.08.12-.13.18,0,.03-.03.08-.09.13-.09.03-.18.09-.27.18-.15.18-.32.35-.5.49-.12.12-.23.23-.32.32-.09.09-.18.2-.27.31-.09.09-.18.19-.27.29-.09.11-.2.2-.31.29-.12.06-.15.13-.09.23,0,.15-.04.24-.13.27l-.5.22c-.15.09-.22.18-.22.27-.03.12-.09.2-.18.23-.15.09-.3.23-.45.41-.06.12-.12.21-.18.27-.06.12-.14.2-.23.22-.12.06-.17.15-.13.27,0,.09-.06.23-.18.41-.06.03-.12.08-.18.13s-.12.12-.18.18c-.18.3-.44.47-.76.5-.03,0-.11.03-.23.09-.12.06-.2.13-.22.23-.03.18-.13.29-.32.31-.09.06-.17.13-.22.23-.15.24-.33.47-.54.67-.21.21-.41.44-.58.67-.06.09-.13.17-.23.23-.06.06-.12.09-.18.09-.09.06-.17.12-.25.18-.08.06-.14.14-.2.23-.09.15-.06.26.09.31.06.06.15.12.27.18.57.24,1.14.47,1.71.67.57.21,1.15.36,1.75.45.45.09.92.13,1.4.13Z"/>
    <path d="M292.45,94.2c-.3-.03-.53-.21-.68-.54-.03-.03-.04-.11-.04-.23-.03-.24-.07-.48-.11-.72-.04-.24-.05-.48-.02-.72v-.23c-.03-.27-.04-.54-.04-.81s-.02-.52-.04-.76c-.06-.51-.24-.9-.54-1.17l-.41-.4c-.15-.18-.34-.24-.58-.18-.18.03-.35.05-.52.05s-.34-.02-.52-.05c-.12,0-.25,0-.38.02-.14.02-.28.02-.43.02-.12,0-.25,0-.38-.02-.13-.01-.26,0-.38.02-.12.03-.23.04-.34.04h-1.82c-.33,0-.67.04-1.04.13l-1.08.27c-.36.12-.72.21-1.08.27-.12.03-.24.06-.36.09s-.24.07-.36.14c-.45.21-.89.33-1.31.36-.27.06-.46.18-.58.36l-.22.27c-.06.03-.12.07-.18.11-.06.04-.12.1-.18.16-.21.12-.43.12-.67,0-.27-.15-.44-.31-.5-.49,0-.03,0-.05-.02-.07-.02-.02-.02-.04-.02-.07-.21-.51-.56-.96-1.04-1.35-.12-.09-.22-.19-.31-.31-.03-.09-.08-.17-.13-.25-.06-.07-.12-.14-.18-.2l-.27-.41c-.12-.21-.17-.45-.13-.72.03-.15.05-.31.07-.47.01-.16.04-.32.07-.47v-1.28c0-.34.01-.67.04-.97v-.45c.06-.12.08-.23.07-.34-.02-.1-.02-.22-.02-.34.03-.39.04-.77.02-1.15-.02-.37,0-.76.02-1.15l.13-2.02c.03-.33.05-.65.07-.94s.02-.6.02-.9v-.13c.06-.36.09-.72.09-1.08v-4.23c-.03-.33-.05-.66-.07-.99-.01-.33-.02-.66-.02-.99,0-.36-.01-.73-.04-1.1-.03-.37-.08-.76-.13-1.15-.03-.24-.07-.5-.11-.77s-.07-.54-.07-.81c0-.06,0-.12-.02-.18-.02-.06-.02-.12-.02-.18-.18-.81-.27-1.63-.27-2.48v-1.89c0-.21,0-.41.02-.61.01-.19.04-.4.07-.61.06-.36.18-.63.36-.81l.22-.27c.18-.24.39-.41.63-.52.24-.1.49-.17.76-.2h.31c.45,0,.81.17,1.08.5.06.03.11.06.14.09.03.03.06.06.09.09.15.12.24.26.27.41.15.3.23.49.25.58.01.09.02.3.02.63v.92c0,.2.01.4.04.61.03.06.04.15.04.27,0,.21,0,.42.02.63.01.21.04.42.07.63.03.3.06.59.09.88.03.29.04.59.04.92,0,.06,0,.13.02.2.01.08.02.14.02.2,0,.03,0,.07.02.11.02.04.02.1.02.16l.14,2.29c.03.15.04.31.04.47v.52s.04.11.04.23c-.03.15-.04.31-.04.47s.01.32.04.47v2.97c-.03.18-.03.36,0,.54v.27c-.03.24-.04.49-.04.74s-.02.52-.04.79v.65c0,.23-.02.46-.04.7-.03.12-.04.26-.04.41v.45c0,.12,0,.26-.02.43-.01.17-.04.32-.07.47v.14c-.03.3-.05.6-.07.9-.02.3-.04.62-.07.94-.03.15-.04.32-.04.5s-.02.36-.04.54c-.03.12-.04.27-.04.45v.45c0,.15-.02.3-.04.45-.03.33-.04.65-.04.97v1.01c.06.15.13.23.22.23l.9.13c.72.09,1.42.14,2.11.14.18,0,.33-.01.45-.04.15-.03.32-.05.5-.05s.34-.01.5-.04h1.26c.21,0,.42-.02.63-.07s.42-.08.63-.11h.22c.33,0,.66-.02.99-.07.33-.04.66-.07.99-.07h1.49c.42,0,.78-.09,1.08-.27.24-.09.47-.15.7-.18.23-.03.46-.06.7-.09.36,0,.68.09.95.27.6.36.99.85,1.17,1.48.06.21.1.44.11.68.02.24,0,.48-.02.72-.03.27-.09.52-.18.74s-.21.46-.36.7l-.4.58c-.18.33-.32.66-.41.99-.03.27-.08.53-.13.79-.06.25-.09.52-.09.79,0,.12,0,.24-.02.36-.02.12-.02.24-.02.36-.03.12-.05.23-.05.31v.32c0,.24-.08.51-.22.81-.18.3-.45.43-.81.41Z"/>
  </g>
</svg>